<?xml version="1.0" encoding="iso-8859-1" ?>
<svg version="1.1" xmlns="http://www.w3.org/2000/svg" xmlns:xlink="http://www.w3.org/1999/xlink" 
    viewBox="0 0 500 500" width="500" height="500">
    
    
    <!-- ITEM 0 -->
    <g>
        <defs>
            <clipPath id="clip-path-id-viewbox-item-0">
                <rect x="0.0" y="0.0" width="191.689" height="373.807"/>
            </clipPath>
        </defs>
        <g transform="translate(139.0 31.0) rotate(0.0 90.0 176.0) scale(0.9390210184204624 0.9416624086761349)">
            <g clip-path="url(#clip-path-id-viewbox-item-0)" transform="translate(-0.0 -0.0)">
                
<g>
	<path fill="#f03c02" d="M49.247,157.23c-10.568,18.644-9.171,72.067-23.466,80.442C-4.82,255.6-13.587,327.766,29.679,343.673   c-20.513,0.405-17.406,25.746,0,25.746s51.666-7.84,64.759-14.726c16.069,8.344,49.802,14.726,65.249,14.726   s22.253-23.883,0-25.221c42.671-6.926,39.678-88.066,8.643-105.477c-20.049-11.248-14.184-83.751-38.243-111.189   C114.262,109.484,59.815,138.586,49.247,157.23z"></path>
	<path fill="#f03c02" d="M123.431,354.563c-2.304-3.121-3.192-6.364-2.075-10.079c10.281-34.198,50.603-166.502,10.732-216.953   c-14.883-18.832-74.953,10.197-83.84,29.698c-17.416,38.214,0.93,142.527,17.585,186.17c1.432,3.754,0.87,8.05-1.721,11.12   c-1.424,1.688-2.64,3.885-2.734,6.521l0,0c0,7.051,2.9,12.767,18.527,12.767c7.1,0,13.238-8.132,13.832-8.132   c0.714,0,5.644,8.132,14.171,8.132c15.627,0,17.663-6.583,17.663-12.767l0,0C125.571,358.674,124.832,356.461,123.431,354.563z"></path>
	<path fill="#1A2B4A" d="M62.263,367.184c-0.143,0.04-0.385-0.339-0.719-1.112c-0.159-0.389-0.376-0.866-0.549-1.458   c-0.159-0.596-0.362-1.283-0.522-2.079c-0.265-1.59-0.509-3.675,0.209-6.107c0.381-1.192,1.049-2.412,1.85-3.476   c0.791-1.07,1.612-2.024,1.952-2.978c0.196-0.475,0.252-0.967,0.245-1.517l0.007-0.202c-0.002-0.059-0.024-0.078-0.031-0.119   c-0.009-0.036-0.016-0.071-0.02-0.108l-0.068-0.2c-0.076-0.259-0.208-0.578-0.341-0.897c-0.551-1.293-1.272-2.71-1.993-4.166   c-1.462-2.919-3.033-6.078-4.583-9.45c-3.114-6.739-6.162-14.344-8.813-22.507c-5.302-16.342-7.927-31.73-9.007-42.879   c-1.103-11.166-0.842-18.112-0.306-18.143c0.646-0.044,1.458,6.809,3.315,17.737c1.834,10.924,4.882,25.932,10.082,41.96   c2.602,8.011,5.477,15.504,8.345,22.228c1.429,3.367,2.856,6.534,4.189,9.54c0.661,1.514,1.308,2.953,1.863,4.493   c0.136,0.392,0.272,0.776,0.383,1.24c0.112,0.346,0.226,1.194,0.153,1.548c-0.041,0.901-0.241,1.843-0.629,2.633   c-0.768,1.623-1.858,2.598-2.609,3.49c-0.785,0.883-1.335,1.721-1.732,2.601c-0.741,1.777-0.81,3.613-0.801,5.101   c0.043,0.757,0.081,1.429,0.114,2.012c0.035,0.589,0.117,1.086,0.137,1.497C62.442,366.686,62.406,367.143,62.263,367.184z"></path>
	<path fill="#1A2B4A" d="M125.051,367.518c-0.143-0.041-0.177-0.501-0.116-1.329c0.086-0.823,0.193-2.029,0.277-3.546   c0.032-1.508-0.002-3.367-0.666-5.219c-0.357-0.918-0.864-1.804-1.597-2.747c-0.701-0.947-1.726-2.015-2.397-3.665   c-0.336-0.811-0.496-1.729-0.528-2.628c-0.033-0.194,0.01-0.535,0.053-0.837c0.042-0.345,0.118-0.504,0.181-0.75   c0.129-0.485,0.292-0.819,0.443-1.238c0.637-1.523,1.362-2.942,2.104-4.432c1.493-2.961,3.077-6.082,4.665-9.409   c3.184-6.644,6.353-14.091,9.218-22.087c5.748-15.994,9.179-31.067,11.321-42.039c2.144-10.979,3.172-17.868,3.813-17.806   c0.539,0.047,0.581,7.056-0.815,18.29c-1.393,11.213-4.409,26.678-10.277,43.006c-2.923,8.157-6.277,15.728-9.715,22.394   c-1.711,3.334-3.445,6.451-5.064,9.322c-0.801,1.433-1.598,2.823-2.218,4.101c-0.125,0.297-0.31,0.644-0.38,0.885   c-0.039,0.115-0.123,0.301-0.111,0.33c-0.008,0.065-0.057,0.089-0.038,0.264c-0.01,0.57,0.034,1.095,0.204,1.597   c0.304,1.005,1.06,2.013,1.786,3.142c0.736,1.123,1.327,2.384,1.648,3.592c0.596,2.458,0.323,4.533,0.034,6.131   c-0.353,1.596-0.736,2.785-1.097,3.557C125.438,367.176,125.193,367.559,125.051,367.518z"></path>
	<ellipse fill="#1A2B4A" cx="93.736" cy="333.569" rx="2.147" ry="32.106"></ellipse>
	<path fill="#f03c02" d="M89.885,100.853c0,0-24.299-97.988,12.543-100.802s16.452,111.399,16.452,111.399L89.885,100.853z"></path>
	<path fill="#1A2B4A" d="M46.699,95.032c0-3.665-0.873-6.941-2.246-9.163c-2.912,8.206-3.412,16.303-3.255,21.129   C44.311,106.116,46.699,101.103,46.699,95.032z"></path>
	<path fill="#f03c02" d="M113.081,98.365c0,0-9.722-100.486,27.136-97.888s-0.425,115.762-0.425,115.762L113.081,98.365z"></path>
	<path fill="#f03c02" d="M103.266,60.428c-35.024-6.747-50.591,6.845-57.299,21.692c1.825-1.3,3.337-2.737,4.512-3.866   c1.531-1.5,2.52-2.478,2.942-2.258c0.42,0.214,0.145,1.696-1.015,3.736c-1.166,2.005-3.271,4.64-6.508,6.522   c-0.32,0.171-0.636,0.338-0.954,0.498c1.086,2.166,1.754,5.075,1.754,8.28c0,6.071-2.388,11.084-5.501,11.966   c0.002,0.067,0.003,0.138,0.006,0.204c-12.144,1.737-13.408,15.652-11.202,23.214c4.822,16.534,21.452,32.759,60.956,34.96   C154.905,168.938,153.628,70.13,103.266,60.428z"></path>
	<path fill="#1A2B4A" d="M52.406,79.732c1.16-2.041,1.435-3.522,1.015-3.736c-0.422-0.22-1.411,0.758-2.942,2.258   c-1.175,1.128-2.687,2.566-4.512,3.866c-0.563,1.245-1.07,2.498-1.514,3.75c0.172,0.278,0.336,0.573,0.492,0.883   c0.317-0.16,0.634-0.327,0.954-0.498C49.136,84.372,51.24,81.737,52.406,79.732z"></path>
	<path fill="#1A2B4A" d="M96.998,164.474c0.048,0.232-0.594,0.565-1.815,0.972c-0.61,0.203-1.365,0.425-2.25,0.66   c-0.887,0.214-1.915,0.348-3.051,0.529c-4.54,0.67-10.999,0.687-17.89-0.735c-6.883-1.442-12.803-3.914-16.761-6.253   c-1.996-1.134-3.491-2.304-4.453-3.181c-0.959-0.915-1.313-1.713-1.095-1.815c0.225-0.11,0.751,0.187,1.859,0.718   c1.138,0.498,2.718,1.287,4.773,2.104c4.059,1.695,9.83,3.692,16.374,5.063c6.554,1.349,12.613,1.709,17.017,1.676   c1.1-0.023,2.106,0.016,2.986-0.012c0.877-0.051,1.639-0.076,2.269-0.074C96.22,164.131,96.95,164.241,96.998,164.474z"></path>
	<path fill="#1A2B4A" d="M70.768,201.566c-0.553,0.135-1.444-1.034-2.105-3.242c-0.635-2.184-0.971-5.521,0.039-9.055   c0.506-1.752,1.286-3.326,2.152-4.625c0.873-1.301,1.849-2.311,2.733-3.057c1.797-1.479,3.213-1.913,3.583-1.486   c0.847,0.968-2.792,4.791-4.339,10.35C71.253,196.007,72.023,201.275,70.768,201.566z"></path>
	<path fill="#1A2B4A" d="M83.719,199.711c-1.186,0.004-2.147-3.116-2.147-6.969c0-3.853,0.962-6.946,2.147-6.909   c1.185,0.037,2.146,3.157,2.147,6.969C85.866,196.614,84.905,199.707,83.719,199.711z"></path>
	<path fill="#1A2B4A" d="M50.127,239.211c0.07-0.351,2.127,0.052,5.69-0.462c1.775-0.254,3.913-0.785,6.254-1.761   c1.167-0.495,2.395-1.069,3.631-1.803c0.155-0.09,0.315-0.172,0.468-0.273l0.542-0.336c0.544-0.316,1.103-0.701,1.677-1.111   c1.158-0.81,2.335-1.664,3.56-2.554c0.069,1.215,0.063,2.626,0.098,4.016c0.012,0.71,0.024,1.428,0.037,2.153l0.009,0.551   l0.005,0.277c0.003,0.078,0.012,0.111,0.018,0.169l0.08,0.628c0.104,0.84,0.21,1.696,0.318,2.568   c0.111,0.87,0.366,1.73,0.543,2.617c0.833,3.519,2.218,7.151,4.326,10.61c2.095,3.464,4.885,6.737,8.189,9.701   c1.669,1.466,3.446,2.875,5.351,4.194c0.482,0.326,0.966,0.654,1.452,0.982l0.747,0.49l0.343,0.223   c0.055,0.036,0.112,0.063,0.167,0.092c0.226,0.105,0.457,0.144,0.69,0.125c0.117-0.01,0.235-0.035,0.353-0.076   c0.06-0.02,0.118-0.046,0.177-0.075l0.298-0.166c3.958-2.235,7.591-4.627,10.728-7.419c3.136-2.771,5.771-5.856,7.732-9.136   c0.447-0.841,0.986-1.63,1.353-2.485c0.375-0.853,0.747-1.696,1.113-2.528c0.274-0.867,0.545-1.722,0.813-2.566l0.201-0.632   l0.125-0.646c0.084-0.429,0.168-0.856,0.251-1.279c0.174-0.846,0.359-1.679,0.383-2.523c0.034-0.419,0.067-0.835,0.1-1.247   l0.051-0.617l0.041-0.541c0.024-0.213,0.015-0.415,0.006-0.616c-0.066-1.554-0.132-3.08-0.196-4.579   c-0.031-0.728-0.063-1.449-0.093-2.163c-0.026-0.694-0.087-1.492-0.007-1.82c0.607,0.736,1.208,1.464,1.801,2.183   c0.644,0.759,1.279,1.509,1.907,2.25c0.153,0.174,0.313,0.384,0.458,0.524l0.427,0.394c0.281,0.26,0.561,0.518,0.838,0.773   c0.274,0.253,0.547,0.505,0.818,0.755c0.183,0.141,0.324,0.229,0.486,0.347c1.228,0.92,2.552,1.587,3.812,2.167   c2.554,1.111,4.951,1.708,6.931,2.074c3.984,0.708,6.292,0.565,6.333,0.921c0.052,0.268-2.261,1.037-6.535,0.846   c-2.126-0.113-4.74-0.479-7.659-1.474c-1.445-0.526-2.988-1.167-4.488-2.137c-0.243-0.151-0.489-0.304-0.739-0.458   c-0.112-0.076-0.24-0.146-0.326-0.217c-0.186-0.136-0.342-0.266-0.464-0.396c-0.086-0.129-0.038,0.072-0.025,0.181l0.049,0.342   c0.029,0.218,0.068,0.415,0.083,0.591c0.001,0.023,0.005,0.045,0.005,0.045c0.001,0.031,0.01-0.06,0.002,0.106l-0.025,0.685   c-0.018,0.458-0.036,0.921-0.055,1.388c0.004,0.938-0.159,1.875-0.317,2.83c-0.077,0.478-0.154,0.959-0.232,1.443l-0.12,0.73   l-0.198,0.718c-0.272,0.96-0.549,1.934-0.829,2.92c-0.386,0.95-0.776,1.912-1.171,2.886c-0.394,0.976-0.963,1.877-1.451,2.834   c-2.117,3.737-4.997,7.214-8.385,10.275c-3.373,3.075-7.327,5.697-11.407,8l-0.202,0.116L96.769,274   c-0.216,0.106-0.438,0.203-0.668,0.282c-0.458,0.161-0.943,0.266-1.434,0.305c-0.982,0.082-1.988-0.108-2.858-0.522   c-0.216-0.104-0.428-0.218-0.627-0.345l-0.417-0.272l-0.764-0.506c-0.51-0.349-1.018-0.697-1.523-1.043   c-2.02-1.416-3.931-2.956-5.721-4.569c-3.553-3.262-6.564-6.923-8.788-10.815c-2.238-3.886-3.651-7.974-4.409-11.873   c-0.159-0.981-0.39-1.936-0.473-2.89c-0.074-0.954-0.146-1.891-0.218-2.809l-0.051-0.685l-0.011-0.157l0.004-0.049l0.008-0.1   l0.033-0.417c0.013-0.267,0.066-0.643,0.046-0.875c-0.171,0.094-0.361,0.198-0.577,0.301l-0.343,0.161l-0.188,0.098l-0.263,0.14   c-0.173,0.097-0.354,0.176-0.53,0.262c-1.399,0.7-2.786,1.223-4.097,1.647c-2.633,0.837-5.015,1.161-6.955,1.167   C52.039,240.443,50.05,239.435,50.127,239.211z"></path>
	<ellipse fill="#1A2B4A" cx="84.186" cy="100.684" rx="6.476" ry="12.118"></ellipse>
	<path fill="#FFFFFF" d="M36.53,125.011c0,0,24.607,14.251,52.2,4.302c-11.02,7.816-21.092,20.027-35.124,17.677   S36.53,125.011,36.53,125.011z"></path>
	<path fill="#1A2B4A" d="M36.153,123.306c0.248-0.102,0.705,0.552,1.801,1.364c1.096,0.815,2.846,1.809,5.219,2.672   c4.718,1.769,11.722,3.19,19.516,3.625c7.806,0.437,14.874-0.319,19.833-1.478c4.977-1.127,7.872-2.557,8.14-2.105   c0.24,0.345-2.344,2.615-7.456,4.436c-5.071,1.844-12.535,3.038-20.703,2.578c-8.163-0.458-15.462-2.33-20.318-4.837   c-2.432-1.226-4.224-2.686-5.184-3.952C36.028,124.325,35.958,123.364,36.153,123.306z"></path>
	<path fill="#1A2B4A" d="M97.755,96.249c0,0.237-0.344,0.439-1.001,0.599c-0.656,0.157-1.628,0.325-2.829,0.158   c-0.604-0.052-1.274-0.112-1.956-0.348c-0.687-0.209-1.451-0.391-2.163-0.791c-0.365-0.184-0.738-0.373-1.12-0.565   c-0.374-0.207-0.714-0.478-1.08-0.728c-0.751-0.485-1.401-1.124-2.074-1.771c-2.602-2.693-3.909-5.801-4.485-8.048   c-0.56-2.279-0.42-3.78,0.042-3.871c0.466-0.097,1.151,1.114,2.215,2.974c1.079,1.842,2.559,4.354,4.689,6.549   c2.135,2.191,4.539,3.515,6.472,4.23c0.949,0.431,1.785,0.626,2.367,0.876C97.414,95.762,97.754,96.013,97.755,96.249z"></path>
	<path fill="#1A2B4A" d="M36.153,123.306c0.232-0.048,0.698,0.916,1.335,2.674c0.153,0.44,0.323,0.93,0.509,1.466   c0.211,0.524,0.441,1.093,0.688,1.704c0.239,0.61,0.495,1.262,0.767,1.954c0.285,0.683,0.654,1.372,0.995,2.112   c1.416,2.902,3.381,6.334,6.569,8.853c1.541,1.317,3.459,2.227,5.547,2.746c1.039,0.304,2.155,0.358,3.278,0.456   c0.571-0.018,1.146-0.036,1.725-0.054c0.578-0.006,1.165-0.144,1.753-0.205c2.349-0.384,4.647-1.025,6.788-1.93   c2.148-0.874,4.183-1.869,6.063-2.946c3.781-2.118,7.018-4.392,9.688-6.366c5.34-3.967,8.456-6.723,8.806-6.386   c0.338,0.313-2.197,3.714-7.272,8.27c-2.542,2.269-5.726,4.825-9.616,7.21c-1.933,1.209-4.069,2.336-6.382,3.329   c-2.299,1.02-4.854,1.778-7.561,2.216c-5.399,1.002-11.25-0.592-14.831-3.9c-3.701-3.201-5.56-7.13-6.784-10.333   c-0.29-0.817-0.601-1.583-0.818-2.327c-0.192-0.75-0.374-1.458-0.543-2.119c-0.161-0.663-0.322-1.275-0.434-1.845   c-0.083-0.576-0.159-1.103-0.228-1.576C35.944,124.412,35.92,123.353,36.153,123.306z"></path>
	<path fill="#1A2B4A" d="M60.269,138.113c0.09,0.22-0.062,0.51-0.436,0.856c-0.375,0.345-0.963,0.772-1.788,1.083   c-1.608,0.702-4.153,1.096-6.824,0.552c-2.679-0.512-4.813-1.804-6.108-2.955c-1.285-1.162-1.823-2.31-1.396-2.629   c0.343-0.251,1.236,0.023,2.678,0.566c1.436,0.506,3.345,1.243,5.498,1.648c2.148,0.432,4.123,0.479,5.629,0.445   c0.761,0.022,1.387-0.025,1.863,0.03C59.861,137.764,60.18,137.894,60.269,138.113z"></path>
	<path fill="#1A2B4A" d="M61.429,114.131c0,2.681-5.059,7.622-9.38,7.622s-6.266-6.367-6.266-9.048s3.502-4.854,7.823-4.854   S61.429,111.45,61.429,114.131z"></path>
	<g>
		<path fill="#1A2B4A" d="M127.576,23.143c0.024-0.737-1.039-0.893-1.21-0.175c-6.914,29.113-5.997,74.011,1.303,76.811    c6.738,2.585,17.719-26.787,20.512-38.21c0.16-0.656-0.742-1.002-1.065-0.409C139.43,75.29,125.409,88.957,127.576,23.143z"></path>
	</g>
	<path fill="#1A2B4A" d="M83.023,58.869c-0.037-0.279,1.085-0.741,3.213-1.135c2.125-0.371,5.275-0.652,9.165-0.328   c3.879,0.311,8.496,1.317,13.278,3.113c0.589,0.222,1.187,0.447,1.79,0.674c0.295,0.112,0.592,0.225,0.89,0.339l0.437,0.162   l0.106,0.039c0.018,0.006,0.015,0.004,0.015,0.004h0.012c0.063,0.014,0.087-0.035,0.062-0.079l-0.004-0.011   c0-0.009-0.003,0.015-0.001-0.027l0.006-0.241l0.011-0.993c-0.002-0.68-0.005-1.365-0.008-2.055   c-0.011-1.401-0.021-2.822-0.032-4.261c-0.029-5.783,0.158-11.344,0.696-16.386c0.526-5.042,1.404-9.571,2.531-13.281   c1.116-3.714,2.501-6.585,3.693-8.41c1.189-1.835,2.129-2.638,2.36-2.481c0.508,0.341-1.76,4.374-3.107,11.625   c-0.702,3.61-1.238,7.98-1.535,12.878c-0.308,4.899-0.374,10.312-0.345,16.04c0.003,1.439,0.007,2.862,0.01,4.264   c-0.006,0.711-0.013,1.417-0.02,2.117l-0.03,1.068l-0.038,0.754c-0.027,0.334-0.038,0.674-0.085,0.996   c-0.064,0.659-0.214,1.272-0.472,1.742c-0.121,0.248-0.306,0.414-0.488,0.586c-0.092,0.091-0.197,0.171-0.292,0.282   c-0.124,0.057-0.255,0.125-0.375,0.167c-0.904,0.502-2.171,0.186-3.36-0.233l-0.447-0.163l-0.334-0.13l-0.467-0.191   c-0.301-0.127-0.601-0.254-0.898-0.379c-0.582-0.247-1.157-0.491-1.725-0.731c-4.484-1.908-8.639-3.116-12.24-3.788   C87.792,59.097,83.095,59.54,83.023,58.869z"></path>
</g>

            </g>
        </g>
    </g>
    
</svg>