<?xml version="1.0" encoding="UTF-8"?><svg version="1.1" id="Layer_1" xmlns="http://www.w3.org/2000/svg" xmlns:xlink="http://www.w3.org/1999/xlink" x="0px" y="0px" viewBox="0 0 483 644" style="enable-background:new 0 0 483 644;" xml:space="preserve" width="483px" height="644px">

<g>
	<polygon points="8,461.7 15.8,461.7 15.6,456.1 7.8,456.1 	" style="fill:#EEEEEE;"/>
	<polygon points="24.5,461.7 32.3,461.7 32.1,456.2 24.4,456.2 	" style="fill:#EEEEEE;"/>
	<polygon points="41.1,461.8 48.8,461.8 48.7,456.3 40.9,456.2 	" style="fill:#EEEEEE;"/>
	<polygon points="61.7,461.9 69.5,461.9 69.3,456.3 61.5,456.3 	" style="fill:#EEEEEE;"/>
	<polygon points="78.2,461.9 86,461.9 85.8,456.4 78.1,456.4 	" style="fill:#EEEEEE;"/>
	<polygon points="94.8,462 102.5,462 102.4,456.5 94.6,456.4 	" style="fill:#EEEEEE;"/>
	<polygon points="111.3,462 119.1,462.1 118.9,456.5 111.2,456.5 	" style="fill:#EEEEEE;"/>
	<polygon points="127.9,462.1 135.6,462.1 135.4,456.6 127.7,456.6 	" style="fill:#EEEEEE;"/>
	<polygon points="144.4,462.2 152.2,462.2 152,456.6 144.2,456.6 	" style="fill:#EEEEEE;"/>
	<polygon points="161,462.2 168.7,462.3 168.5,456.7 160.8,456.7 	" style="fill:#EEEEEE;"/>
	<polygon points="177.5,462.3 185.3,462.3 185.1,456.8 177.3,456.7 	" style="fill:#EEEEEE;"/>
	<polygon points="193.9,456.8 194.1,462.3 201.8,462.4 201.6,456.8 	" style="fill:#EEEEEE;"/>
	<polygon points="11.4,466.7 3.6,466.6 3.8,472.2 11.5,472.2 	" style="fill:#EEEEEE;"/>
	<polygon points="27.9,466.7 20.2,466.7 20.3,472.2 28.1,472.3 	" style="fill:#EEEEEE;"/>
	<polygon points="48.5,466.8 40.8,466.8 41,472.3 48.7,472.3 	" style="fill:#EEEEEE;"/>
	<polygon points="65.1,466.9 57.3,466.8 57.5,472.4 65.2,472.4 	" style="fill:#EEEEEE;"/>
	<polygon points="81.6,466.9 73.9,466.9 74,472.4 81.8,472.5 	" style="fill:#EEEEEE;"/>
	<polygon points="98.2,467 90.4,466.9 90.6,472.5 98.3,472.5 	" style="fill:#EEEEEE;"/>
	<polygon points="114.7,467 106.9,467 107.1,472.6 114.9,472.6 	" style="fill:#EEEEEE;"/>
	<polygon points="131.2,467.1 123.5,467.1 123.7,472.6 131.4,472.7 	" style="fill:#EEEEEE;"/>
	<polygon points="147.8,467.2 140,467.1 140.2,472.7 148,472.7 	" style="fill:#EEEEEE;"/>
	<polygon points="164.3,467.2 156.6,467.2 156.8,472.7 164.5,472.8 	" style="fill:#EEEEEE;"/>
	<polygon points="180.9,467.3 173.1,467.3 173.3,472.8 181.1,472.8 	" style="fill:#EEEEEE;"/>
	<polygon points="8.7,482.9 16.5,483 16.3,477.4 8.5,477.4 	" style="fill:#EEEEEE;"/>
	<polygon points="25.2,483 33,483 32.8,477.5 25.1,477.5 	" style="fill:#EEEEEE;"/>
	<polygon points="41.8,483.1 49.5,483.1 49.4,477.5 41.6,477.5 	" style="fill:#EEEEEE;"/>
	<polygon points="62.4,483.1 70.2,483.2 70,477.6 62.2,477.6 	" style="fill:#EEEEEE;"/>
	<polygon points="78.9,483.2 86.7,483.2 86.5,477.7 78.8,477.7 	" style="fill:#EEEEEE;"/>
	<polygon points="95.5,483.3 103.2,483.3 103.1,477.7 95.3,477.7 	" style="fill:#EEEEEE;"/>
	<polygon points="112,483.3 119.8,483.4 119.6,477.8 111.9,477.8 	" style="fill:#EEEEEE;"/>
	<polygon points="128.6,483.4 136.3,483.4 136.1,477.9 128.4,477.8 	" style="fill:#EEEEEE;"/>
	<polygon points="145.1,483.5 152.9,483.5 152.7,477.9 144.9,477.9 	" style="fill:#EEEEEE;"/>
	<polygon points="161.7,483.5 169.4,483.5 169.2,478 161.5,478 	" style="fill:#EEEEEE;"/>
	<polygon points="178.2,483.6 186,483.6 185.8,478.1 178,478 	" style="fill:#EEEEEE;"/>
	<polygon points="194.8,483.6 202.5,483.7 202.3,478.1 194.6,478.1 	" style="fill:#EEEEEE;"/>
	<polygon points="12.1,487.9 4.3,487.9 4.5,493.5 12.2,493.5 	" style="fill:#EEEEEE;"/>
	<polygon points="28.6,488 20.9,488 21,493.5 28.8,493.6 	" style="fill:#EEEEEE;"/>
	<polygon points="49.2,488.1 41.5,488.1 41.7,493.6 49.4,493.6 	" style="fill:#EEEEEE;"/>
	<polygon points="65.8,488.1 58,488.1 58.2,493.7 65.9,493.7 	" style="fill:#EEEEEE;"/>
	<polygon points="82.3,488.2 74.6,488.2 74.7,493.7 82.5,493.8 	" style="fill:#EEEEEE;"/>
	<polygon points="98.9,488.3 91.1,488.2 91.3,493.8 99,493.8 	" style="fill:#EEEEEE;"/>
	<polygon points="115.4,488.3 107.6,488.3 107.8,493.9 115.6,493.9 	" style="fill:#EEEEEE;"/>
	<polygon points="131.9,488.4 124.2,488.4 124.4,493.9 132.1,493.9 	" style="fill:#EEEEEE;"/>
	<polygon points="148.5,488.5 140.7,488.4 140.9,494 148.7,494 	" style="fill:#EEEEEE;"/>
	<polygon points="165,488.5 157.3,488.5 157.5,494 165.2,494.1 	" style="fill:#EEEEEE;"/>
	<polygon points="181.6,488.6 173.8,488.5 174,494.1 181.8,494.1 	" style="fill:#EEEEEE;"/>
	<polygon points="9.4,505.2 17.2,505.3 17,499.7 9.3,499.7 	" style="fill:#EEEEEE;"/>
	<polygon points="26,505.3 33.7,505.3 33.6,499.8 25.8,499.7 	" style="fill:#EEEEEE;"/>
	<polygon points="42.5,505.4 50.3,505.4 50.1,499.8 42.3,499.8 	" style="fill:#EEEEEE;"/>
	<polygon points="63.1,505.4 70.9,505.5 70.7,499.9 63,499.9 	" style="fill:#EEEEEE;"/>
	<polygon points="79.7,505.5 87.4,505.5 87.3,500 79.5,499.9 	" style="fill:#EEEEEE;"/>
	<polygon points="96.2,505.6 104,505.6 103.8,500 96,500 	" style="fill:#EEEEEE;"/>
	<polygon points="112.8,505.6 120.5,505.6 120.3,500.1 112.6,500.1 	" style="fill:#EEEEEE;"/>
	<polygon points="129.3,505.7 137.1,505.7 136.9,500.2 129.1,500.1 	" style="fill:#EEEEEE;"/>
	<polygon points="145.9,505.7 153.6,505.8 153.4,500.2 145.7,500.2 	" style="fill:#EEEEEE;"/>
	<polygon points="162.4,505.8 170.2,505.8 170,500.3 162.2,500.2 	" style="fill:#EEEEEE;"/>
	<polygon points="178.9,505.9 186.7,505.9 186.5,500.3 178.8,500.3 	" style="fill:#EEEEEE;"/>
	<polygon points="195.5,505.9 203.2,506 203.1,500.4 195.3,500.4 	" style="fill:#EEEEEE;"/>
	<polygon points="12.8,510.2 5.1,510.2 5.2,515.8 13,515.8 	" style="fill:#EEEEEE;"/>
	<polygon points="29.3,510.3 21.6,510.3 21.8,515.8 29.5,515.8 	" style="fill:#EEEEEE;"/>
	<polygon points="50,510.4 42.2,510.3 42.4,515.9 50.1,515.9 	" style="fill:#EEEEEE;"/>
	<polygon points="66.5,510.4 58.8,510.4 58.9,516 66.7,516 	" style="fill:#EEEEEE;"/>
	<polygon points="83,510.5 75.3,510.5 75.5,516 83.2,516 	" style="fill:#EEEEEE;"/>
	<polygon points="99.6,510.6 91.8,510.5 92,516.1 99.8,516.1 	" style="fill:#EEEEEE;"/>
	<polygon points="116.1,510.6 108.4,510.6 108.6,516.1 116.3,516.2 	" style="fill:#EEEEEE;"/>
	<polygon points="132.7,510.7 124.9,510.6 125.1,516.2 132.9,516.2 	" style="fill:#EEEEEE;"/>
	<polygon points="149.2,510.7 141.5,510.7 141.7,516.3 149.4,516.3 	" style="fill:#EEEEEE;"/>
	<polygon points="165.8,510.8 158,510.8 158.2,516.3 165.9,516.4 	" style="fill:#EEEEEE;"/>
	<polygon points="182.3,510.9 174.6,510.8 174.7,516.4 182.5,516.4 	" style="fill:#EEEEEE;"/>
	<polygon points="10.1,526.5 17.9,526.5 17.7,521 10,521 	" style="fill:#EEEEEE;"/>
	<polygon points="26.7,526.6 34.4,526.6 34.3,521.1 26.5,521 	" style="fill:#EEEEEE;"/>
	<polygon points="43.2,526.6 51,526.7 50.8,521.1 43,521.1 	" style="fill:#EEEEEE;"/>
	<polygon points="63.8,526.7 71.6,526.7 71.4,521.2 63.7,521.2 	" style="fill:#EEEEEE;"/>
	<polygon points="80.4,526.8 88.1,526.8 88,521.3 80.2,521.2 	" style="fill:#EEEEEE;"/>
	<polygon points="96.9,526.8 104.7,526.9 104.5,521.3 96.7,521.3 	" style="fill:#EEEEEE;"/>
	<polygon points="113.5,526.9 121.2,526.9 121,521.4 113.3,521.4 	" style="fill:#EEEEEE;"/>
	<polygon points="130,527 137.8,527 137.6,521.4 129.8,521.4 	" style="fill:#EEEEEE;"/>
	<polygon points="146.6,527 154.3,527.1 154.1,521.5 146.4,521.5 	" style="fill:#EEEEEE;"/>
	<polygon points="163.1,527.1 170.9,527.1 170.7,521.6 162.9,521.5 	" style="fill:#EEEEEE;"/>
	<polygon points="179.7,527.2 187.4,527.2 187.2,521.6 179.5,521.6 	" style="fill:#EEEEEE;"/>
	<polygon points="196.2,527.2 203.9,527.2 203.8,521.7 196,521.7 	" style="fill:#EEEEEE;"/>
	<polygon points="5.9,537 13.7,537.1 13.5,531.5 5.8,531.5 	" style="fill:#EEEEEE;"/>
	<polygon points="22.5,537.1 30.2,537.1 30,531.6 22.3,531.6 	" style="fill:#EEEEEE;"/>
	<polygon points="43.1,537.2 50.8,537.2 50.7,531.7 42.9,531.6 	" style="fill:#EEEEEE;"/>
	<polygon points="59.6,537.2 67.4,537.3 67.2,531.7 59.5,531.7 	" style="fill:#EEEEEE;"/>
	<polygon points="76.2,537.3 83.9,537.3 83.7,531.8 76,531.8 	" style="fill:#EEEEEE;"/>
	<polygon points="92.7,537.4 100.5,537.4 100.3,531.8 92.5,531.8 	" style="fill:#EEEEEE;"/>
	<polygon points="109.3,537.4 117,537.5 116.8,531.9 109.1,531.9 	" style="fill:#EEEEEE;"/>
	<polygon points="125.8,537.5 133.6,537.5 133.4,532 125.6,531.9 	" style="fill:#EEEEEE;"/>
	<polygon points="142.4,537.6 150.1,537.6 149.9,532 142.2,532 	" style="fill:#EEEEEE;"/>
	<polygon points="158.9,537.6 166.6,537.6 166.5,532.1 158.7,532.1 	" style="fill:#EEEEEE;"/>
	<polygon points="175.4,537.7 183.2,537.7 183,532.2 175.3,532.1 	" style="fill:#EEEEEE;"/>
	<polygon points="25.6,560.7 33.3,560.7 33.2,555.1 25.4,555.1 	" style="fill:#E2ECFE;"/>
	<polygon points="42.1,560.7 49.9,560.8 49.7,555.2 41.9,555.2 	" style="fill:#E2ECFE;"/>
	<polygon points="58.7,560.8 66.4,560.8 66.2,555.3 58.5,555.2 	" style="fill:#E2ECFE;"/>
	<polygon points="75.2,560.8 83,560.9 82.8,555.3 75,555.3 	" style="fill:#E2ECFE;"/>
	<polygon points="91.8,560.9 99.5,560.9 99.3,555.4 91.6,555.4 	" style="fill:#E2ECFE;"/>
	<polygon points="108.3,561 116.1,561 115.9,555.4 108.1,555.4 	" style="fill:#E2ECFE;"/>
	<polygon points="124.9,561 132.6,561.1 132.4,555.5 124.7,555.5 	" style="fill:#E2ECFE;"/>
	<polygon points="141.4,561.1 149.1,561.1 149,555.6 141.2,555.5 	" style="fill:#E2ECFE;"/>
	<polygon points="157.9,561.2 165.7,561.2 165.5,555.6 157.8,555.6 	" style="fill:#E2ECFE;"/>
	<polygon points="178.6,561.2 186.3,561.3 186.1,555.7 178.4,555.7 	" style="fill:#E2ECFE;"/>
	<polygon points="195.1,561.3 202.8,561.3 202.7,555.8 194.9,555.7 	" style="fill:#E2ECFE;"/>
	<polygon points="211.6,561.4 219.4,561.4 219.2,555.8 211.5,555.8 	" style="fill:#E2ECFE;"/>
	<polygon points="228.2,561.4 235.9,561.4 235.7,555.9 228,555.9 	" style="fill:#E2ECFE;"/>
	<polygon points="244.7,561.5 252.5,561.5 252.3,556 244.5,555.9 	" style="fill:#E2ECFE;"/>
	<polygon points="261.3,561.5 269,561.6 268.8,556 261.1,556 	" style="fill:#E2ECFE;"/>
	<polygon points="277.8,561.6 285.6,561.6 285.4,556.1 277.6,556 	" style="fill:#E2ECFE;"/>
	<polygon points="294.4,561.7 302.1,561.7 301.9,556.1 294.2,556.1 	" style="fill:#E2ECFE;"/>
	<polygon points="310.9,561.7 318.7,561.8 318.5,556.2 310.7,556.2 	" style="fill:#E2ECFE;"/>
	<polygon points="330.3,561.8 338.1,561.8 337.9,556.3 330.2,556.2 	" style="fill:#E2ECFE;"/>
	<polygon points="346.9,561.9 354.6,561.9 354.5,556.3 346.7,556.3 	" style="fill:#E2ECFE;"/>
	<polygon points="363.4,561.9 371.2,561.9 371,556.4 363.2,556.4 	" style="fill:#E2ECFE;"/>
	<polygon points="380,562 387.7,562 387.5,556.5 379.8,556.4 	" style="fill:#E2ECFE;"/>
	<polygon points="396.5,562 404.3,562.1 404.1,556.5 396.3,556.5 	" style="fill:#E2ECFE;"/>
	<polygon points="413.1,562.1 420.8,562.1 420.6,556.6 412.9,556.6 	" style="fill:#E2ECFE;"/>
	<polygon points="429.6,562.2 437.4,562.2 437.2,556.6 429.4,556.6 	" style="fill:#E2ECFE;"/>
	<polygon points="446.1,562.2 453.9,562.3 453.7,556.7 446,556.7 	" style="fill:#E2ECFE;"/>
	<polygon points="462.7,562.3 470.4,562.3 470.3,556.8 462.5,556.7 	" style="fill:#E2ECFE;"/>
	<polygon points="4.8,571.1 12.6,571.2 12.4,565.6 4.7,565.6 	" style="fill:#E2ECFE;"/>
	<polygon points="28.9,565.7 21.2,565.6 21.4,571.2 29.1,571.2 	" style="fill:#E2ECFE;"/>
	<polygon points="45.5,565.7 37.7,565.7 37.9,571.2 45.7,571.3 	" style="fill:#E2ECFE;"/>
	<polygon points="62,565.8 54.3,565.8 54.5,571.3 62.2,571.3 	" style="fill:#E2ECFE;"/>
	<polygon points="78.6,565.8 70.8,565.8 71,571.4 78.8,571.4 	" style="fill:#E2ECFE;"/>
	<polygon points="95.1,565.9 87.4,565.9 87.6,571.4 95.3,571.5 	" style="fill:#E2ECFE;"/>
	<polygon points="111.7,566 103.9,565.9 104.1,571.5 111.9,571.5 	" style="fill:#E2ECFE;"/>
	<polygon points="128.2,566 120.5,566 120.6,571.6 128.4,571.6 	" style="fill:#E2ECFE;"/>
	<polygon points="144.8,566.1 137,566.1 137.2,571.6 144.9,571.6 	" style="fill:#E2ECFE;"/>
	<polygon points="165.4,566.2 157.6,566.1 157.8,571.7 165.6,571.7 	" style="fill:#E2ECFE;"/>
	<polygon points="181.9,566.2 174.2,566.2 174.3,571.8 182.1,571.8 	" style="fill:#E2ECFE;"/>
	<polygon points="198.5,566.3 190.7,566.3 190.9,571.8 198.6,571.8 	" style="fill:#E2ECFE;"/>
	<polygon points="215,566.4 207.3,566.3 207.4,571.9 215.2,571.9 	" style="fill:#E2ECFE;"/>
	<polygon points="231.5,566.4 223.8,566.4 224,571.9 231.7,572 	" style="fill:#E2ECFE;"/>
	<polygon points="248.1,566.5 240.3,566.4 240.5,572 248.3,572 	" style="fill:#E2ECFE;"/>
	<polygon points="264.6,566.5 256.9,566.5 257.1,572.1 264.8,572.1 	" style="fill:#E2ECFE;"/>
	<polygon points="281.2,566.6 273.4,566.6 273.6,572.1 281.4,572.2 	" style="fill:#E2ECFE;"/>
	<polygon points="297.7,566.7 290,566.6 290.2,572.2 297.9,572.2 	" style="fill:#E2ECFE;"/>
	<polygon points="317.2,566.7 309.4,566.7 309.6,572.3 317.3,572.3 	" style="fill:#E2ECFE;"/>
	<polygon points="333.7,566.8 326,566.8 326.1,572.3 333.9,572.3 	" style="fill:#E2ECFE;"/>
	<polygon points="350.2,566.9 342.5,566.8 342.7,572.4 350.4,572.4 	" style="fill:#E2ECFE;"/>
	<polygon points="366.8,566.9 359,566.9 359.2,572.4 367,572.5 	" style="fill:#E2ECFE;"/>
	<polygon points="383.3,567 375.6,567 375.8,572.5 383.5,572.5 	" style="fill:#E2ECFE;"/>
	<polygon points="399.9,567 392.1,567 392.3,572.6 400.1,572.6 	" style="fill:#E2ECFE;"/>
	<polygon points="416.4,567.1 408.7,567.1 408.9,572.6 416.6,572.7 	" style="fill:#E2ECFE;"/>
	<polygon points="433,567.2 425.2,567.1 425.4,572.7 433.1,572.7 	" style="fill:#E2ECFE;"/>
	<polygon points="449.5,567.2 441.8,567.2 441.9,572.7 449.7,572.8 	" style="fill:#E2ECFE;"/>
	<polygon points="470.1,567.3 462.4,567.3 462.6,572.8 470.3,572.9 	" style="fill:#E2ECFE;"/>
	<polygon points="26.3,582 34,582 33.9,576.4 26.1,576.4 	" style="fill:#E2ECFE;"/>
	<polygon points="42.8,582 50.6,582 50.4,576.5 42.7,576.5 	" style="fill:#E2ECFE;"/>
	<polygon points="59.4,582.1 67.1,582.1 66.9,576.6 59.2,576.5 	" style="fill:#E2ECFE;"/>
	<polygon points="75.9,582.1 83.7,582.2 83.5,576.6 75.7,576.6 	" style="fill:#E2ECFE;"/>
	<polygon points="92.5,582.2 100.2,582.2 100,576.7 92.3,576.6 	" style="fill:#E2ECFE;"/>
	<polygon points="109,582.3 116.8,582.3 116.6,576.7 108.8,576.7 	" style="fill:#E2ECFE;"/>
	<polygon points="125.6,582.3 133.3,582.3 133.1,576.8 125.4,576.8 	" style="fill:#E2ECFE;"/>
	<polygon points="142.1,582.4 149.8,582.4 149.7,576.9 141.9,576.8 	" style="fill:#E2ECFE;"/>
	<polygon points="158.6,582.4 166.4,582.5 166.2,576.9 158.5,576.9 	" style="fill:#E2ECFE;"/>
	<polygon points="179.3,582.5 187,582.5 186.8,577 179.1,577 	" style="fill:#E2ECFE;"/>
	<polygon points="195.8,582.6 203.5,582.6 203.4,577.1 195.6,577 	" style="fill:#E2ECFE;"/>
	<polygon points="212.3,582.6 220.1,582.7 219.9,577.1 212.2,577.1 	" style="fill:#E2ECFE;"/>
	<polygon points="228.9,582.7 236.6,582.7 236.5,577.2 228.7,577.2 	" style="fill:#E2ECFE;"/>
	<polygon points="245.4,582.8 253.2,582.8 253,577.2 245.2,577.2 	" style="fill:#E2ECFE;"/>
	<polygon points="262,582.8 269.7,582.9 269.5,577.3 261.8,577.3 	" style="fill:#E2ECFE;"/>
	<polygon points="278.5,582.9 286.3,582.9 286.1,577.4 278.3,577.3 	" style="fill:#E2ECFE;"/>
	<polygon points="295.1,583 302.8,583 302.6,577.4 294.9,577.4 	" style="fill:#E2ECFE;"/>
	<polygon points="311.6,583 319.4,583 319.2,577.5 311.4,577.5 	" style="fill:#E2ECFE;"/>
	<polygon points="331,583.1 338.8,583.1 338.6,577.6 330.9,577.5 	" style="fill:#E2ECFE;"/>
	<polygon points="347.6,583.1 355.3,583.2 355.2,577.6 347.4,577.6 	" style="fill:#E2ECFE;"/>
	<polygon points="364.1,583.2 371.9,583.2 371.7,577.7 363.9,577.7 	" style="fill:#E2ECFE;"/>
	<polygon points="380.7,583.3 388.4,583.3 388.2,577.7 380.5,577.7 	" style="fill:#E2ECFE;"/>
	<polygon points="397.2,583.3 405,583.4 404.8,577.8 397,577.8 	" style="fill:#E2ECFE;"/>
	<polygon points="413.8,583.4 421.5,583.4 421.3,577.9 413.6,577.8 	" style="fill:#E2ECFE;"/>
	<polygon points="430.3,583.5 438.1,583.5 437.9,577.9 430.1,577.9 	" style="fill:#E2ECFE;"/>
	<polygon points="446.8,583.5 454.6,583.5 454.4,578 446.7,578 	" style="fill:#E2ECFE;"/>
	<polygon points="463.4,583.6 471.1,583.6 471,578.1 463.2,578 	" style="fill:#E2ECFE;"/>
	<polygon points="5.5,592.4 13.3,592.4 13.1,586.9 5.4,586.9 	" style="fill:#E2ECFE;"/>
	<polygon points="29.7,587 21.9,586.9 22.1,592.5 29.8,592.5 	" style="fill:#E2ECFE;"/>
	<polygon points="46.2,587 38.4,587 38.6,592.5 46.4,592.6 	" style="fill:#E2ECFE;"/>
	<polygon points="62.7,587.1 55,587 55.2,592.6 62.9,592.6 	" style="fill:#E2ECFE;"/>
	<polygon points="79.3,587.1 71.5,587.1 71.7,592.7 79.5,592.7 	" style="fill:#E2ECFE;"/>
	<polygon points="95.8,587.2 88.1,587.2 88.3,592.7 96,592.7 	" style="fill:#E2ECFE;"/>
	<polygon points="112.4,587.3 104.6,587.2 104.8,592.8 112.6,592.8 	" style="fill:#E2ECFE;"/>
	<polygon points="128.9,587.3 121.2,587.3 121.3,592.8 129.1,592.9 	" style="fill:#E2ECFE;"/>
	<polygon points="145.5,587.4 137.7,587.4 137.9,592.9 145.6,592.9 	" style="fill:#E2ECFE;"/>
	<polygon points="166.1,587.5 158.3,587.4 158.5,593 166.3,593 	" style="fill:#E2ECFE;"/>
	<polygon points="182.6,587.5 174.9,587.5 175,593 182.8,593.1 	" style="fill:#E2ECFE;"/>
	<polygon points="199.2,587.6 191.4,587.6 191.6,593.1 199.3,593.1 	" style="fill:#E2ECFE;"/>
	<polygon points="215.7,587.6 208,587.6 208.1,593.2 215.9,593.2 	" style="fill:#E2ECFE;"/>
	<polygon points="232.2,587.7 224.5,587.7 224.7,593.2 232.4,593.3 	" style="fill:#E2ECFE;"/>
	<polygon points="248.8,587.8 241,587.7 241.2,593.3 249,593.3 	" style="fill:#E2ECFE;"/>
	<polygon points="265.3,587.8 257.6,587.8 257.8,593.4 265.5,593.4 	" style="fill:#E2ECFE;"/>
	<polygon points="281.9,587.9 274.1,587.9 274.3,593.4 282.1,593.4 	" style="fill:#E2ECFE;"/>
	<polygon points="298.4,588 290.7,587.9 290.9,593.5 298.6,593.5 	" style="fill:#E2ECFE;"/>
	<polygon points="317.9,588 310.1,588 310.3,593.5 318,593.6 	" style="fill:#E2ECFE;"/>
	<polygon points="334.4,588.1 326.7,588.1 326.8,593.6 334.6,593.6 	" style="fill:#E2ECFE;"/>
	<polygon points="350.9,588.1 343.2,588.1 343.4,593.7 351.1,593.7 	" style="fill:#E2ECFE;"/>
	<polygon points="367.5,588.2 359.7,588.2 359.9,593.7 367.7,593.8 	" style="fill:#E2ECFE;"/>
	<polygon points="384,588.3 376.3,588.2 376.5,593.8 384.2,593.8 	" style="fill:#E2ECFE;"/>
	<polygon points="400.6,588.3 392.8,588.3 393,593.9 400.8,593.9 	" style="fill:#E2ECFE;"/>
	<polygon points="417.1,588.4 409.4,588.4 409.6,593.9 417.3,593.9 	" style="fill:#E2ECFE;"/>
	<polygon points="433.7,588.5 425.9,588.4 426.1,594 433.8,594 	" style="fill:#E2ECFE;"/>
	<polygon points="450.2,588.5 442.5,588.5 442.6,594 450.4,594.1 	" style="fill:#E2ECFE;"/>
	<polygon points="470.8,588.6 463.1,588.6 463.3,594.1 471,594.1 	" style="fill:#E2ECFE;"/>
	<polygon points="27,604.2 34.8,604.3 34.6,598.7 26.8,598.7 	" style="fill:#E2ECFE;"/>
	<polygon points="43.6,604.3 51.3,604.3 51.1,598.8 43.4,598.7 	" style="fill:#E2ECFE;"/>
	<polygon points="60.1,604.4 67.9,604.4 67.7,598.8 59.9,598.8 	" style="fill:#E2ECFE;"/>
	<polygon points="76.7,604.4 84.4,604.5 84.2,598.9 76.5,598.9 	" style="fill:#E2ECFE;"/>
	<polygon points="93.2,604.5 101,604.5 100.8,599 93,598.9 	" style="fill:#E2ECFE;"/>
	<polygon points="109.7,604.5 117.5,604.6 117.3,599 109.6,599 	" style="fill:#E2ECFE;"/>
	<polygon points="126.3,604.6 134,604.6 133.9,599.1 126.1,599.1 	" style="fill:#E2ECFE;"/>
	<polygon points="142.8,604.7 150.6,604.7 150.4,599.1 142.6,599.1 	" style="fill:#E2ECFE;"/>
	<polygon points="159.4,604.7 167.1,604.8 166.9,599.2 159.2,599.2 	" style="fill:#E2ECFE;"/>
	<polygon points="180,604.8 187.7,604.8 187.6,599.3 179.8,599.3 	" style="fill:#E2ECFE;"/>
	<polygon points="196.5,604.9 204.3,604.9 204.1,599.3 196.3,599.3 	" style="fill:#E2ECFE;"/>
	<polygon points="213.1,604.9 220.8,605 220.6,599.4 212.9,599.4 	" style="fill:#E2ECFE;"/>
	<polygon points="229.6,605 237.4,605 237.2,599.5 229.4,599.4 	" style="fill:#E2ECFE;"/>
	<polygon points="246.2,605.1 253.9,605.1 253.7,599.5 246,599.5 	" style="fill:#E2ECFE;"/>
	<polygon points="262.7,605.1 270.5,605.1 270.3,599.6 262.5,599.6 	" style="fill:#E2ECFE;"/>
	<polygon points="279.3,605.2 287,605.2 286.8,599.7 279.1,599.6 	" style="fill:#E2ECFE;"/>
	<polygon points="295.8,605.2 303.5,605.3 303.4,599.7 295.6,599.7 	" style="fill:#E2ECFE;"/>
	<polygon points="312.3,605.3 320.1,605.3 319.9,599.8 312.2,599.7 	" style="fill:#E2ECFE;"/>
	<polygon points="331.8,605.4 339.5,605.4 339.3,599.8 331.6,599.8 	" style="fill:#E2ECFE;"/>
	<polygon points="348.3,605.4 356.1,605.5 355.9,599.9 348.1,599.9 	" style="fill:#E2ECFE;"/>
	<polygon points="364.9,605.5 372.6,605.5 372.4,600 364.7,599.9 	" style="fill:#E2ECFE;"/>
	<polygon points="381.4,605.6 389.2,605.6 389,600 381.2,600 	" style="fill:#E2ECFE;"/>
	<polygon points="398,605.6 405.7,605.6 405.5,600.1 397.8,600.1 	" style="fill:#E2ECFE;"/>
	<polygon points="414.5,605.7 422.2,605.7 422.1,600.2 414.3,600.1 	" style="fill:#E2ECFE;"/>
	<polygon points="431,605.7 438.8,605.8 438.6,600.2 430.9,600.2 	" style="fill:#E2ECFE;"/>
	<polygon points="447.6,605.8 455.3,605.8 455.2,600.3 447.4,600.2 	" style="fill:#E2ECFE;"/>
	<polygon points="464.1,605.9 471.9,605.9 471.7,600.3 463.9,600.3 	" style="fill:#E2ECFE;"/>
	<polygon points="6.3,614.7 14,614.7 13.8,609.2 6.1,609.1 	" style="fill:#E2ECFE;"/>
	<polygon points="30.4,609.2 22.6,609.2 22.8,614.8 30.6,614.8 	" style="fill:#E2ECFE;"/>
	<polygon points="46.9,609.3 39.2,609.3 39.4,614.8 47.1,614.9 	" style="fill:#E2ECFE;"/>
	<polygon points="63.5,609.4 55.7,609.3 55.9,614.9 63.7,614.9 	" style="fill:#E2ECFE;"/>
	<polygon points="80,609.4 72.3,609.4 72.5,614.9 80.2,615 	" style="fill:#E2ECFE;"/>
	<polygon points="96.6,609.5 88.8,609.5 89,615 96.7,615 	" style="fill:#E2ECFE;"/>
	<polygon points="113.1,609.5 105.4,609.5 105.5,615.1 113.3,615.1 	" style="fill:#E2ECFE;"/>
	<polygon points="129.6,609.6 121.9,609.6 122.1,615.1 129.8,615.2 	" style="fill:#E2ECFE;"/>
	<polygon points="146.2,609.7 138.4,609.6 138.6,615.2 146.4,615.2 	" style="fill:#E2ECFE;"/>
	<polygon points="166.8,609.7 159.1,609.7 159.2,615.3 167,615.3 	" style="fill:#E2ECFE;"/>
	<polygon points="183.3,609.8 175.6,609.8 175.8,615.3 183.5,615.4 	" style="fill:#E2ECFE;"/>
	<polygon points="199.9,609.9 192.1,609.8 192.3,615.4 200.1,615.4 	" style="fill:#E2ECFE;"/>
	<polygon points="216.4,609.9 208.7,609.9 208.9,615.5 216.6,615.5 	" style="fill:#E2ECFE;"/>
	<polygon points="233,610 225.2,610 225.4,615.5 233.2,615.5 	" style="fill:#E2ECFE;"/>
	<polygon points="249.5,610.1 241.8,610 242,615.6 249.7,615.6 	" style="fill:#E2ECFE;"/>
	<polygon points="266.1,610.1 258.3,610.1 258.5,615.6 266.3,615.7 	" style="fill:#E2ECFE;"/>
	<polygon points="282.6,610.2 274.9,610.1 275,615.7 282.8,615.7 	" style="fill:#E2ECFE;"/>
	<polygon points="299.2,610.2 291.4,610.2 291.6,615.8 299.3,615.8 	" style="fill:#E2ECFE;"/>
	<polygon points="318.6,610.3 310.8,610.3 311,615.8 318.8,615.9 	" style="fill:#E2ECFE;"/>
	<polygon points="335.1,610.4 327.4,610.3 327.6,615.9 335.3,615.9 	" style="fill:#E2ECFE;"/>
	<polygon points="351.7,610.4 343.9,610.4 344.1,616 351.9,616 	" style="fill:#E2ECFE;"/>
	<polygon points="368.2,610.5 360.5,610.5 360.7,616 368.4,616 	" style="fill:#E2ECFE;"/>
	<polygon points="384.8,610.6 377,610.5 377.2,616.1 385,616.1 	" style="fill:#E2ECFE;"/>
	<polygon points="401.3,610.6 393.6,610.6 393.7,616.1 401.5,616.2 	" style="fill:#E2ECFE;"/>
	<polygon points="417.9,610.7 410.1,610.6 410.3,616.2 418,616.2 	" style="fill:#E2ECFE;"/>
	<polygon points="434.4,610.7 426.7,610.7 426.8,616.3 434.6,616.3 	" style="fill:#E2ECFE;"/>
	<polygon points="450.9,610.8 443.2,610.8 443.4,616.3 451.1,616.4 	" style="fill:#E2ECFE;"/>
	<polygon points="471.6,610.9 463.8,610.8 464,616.4 471.7,616.4 	" style="fill:#E2ECFE;"/>
	<polygon points="27.7,625.5 35.5,625.6 35.3,620 27.5,620 	" style="fill:#E2ECFE;"/>
	<polygon points="44.3,625.6 52,625.6 51.8,620.1 44.1,620 	" style="fill:#E2ECFE;"/>
	<polygon points="60.8,625.6 68.6,625.7 68.4,620.1 60.6,620.1 	" style="fill:#E2ECFE;"/>
	<polygon points="77.4,625.7 85.1,625.7 84.9,620.2 77.2,620.2 	" style="fill:#E2ECFE;"/>
	<polygon points="93.9,625.8 101.7,625.8 101.5,620.3 93.7,620.2 	" style="fill:#E2ECFE;"/>
	<polygon points="110.4,625.8 118.2,625.9 118,620.3 110.3,620.3 	" style="fill:#E2ECFE;"/>
	<polygon points="127,625.9 134.7,625.9 134.6,620.4 126.8,620.3 	" style="fill:#E2ECFE;"/>
	<polygon points="143.5,626 151.3,626 151.1,620.4 143.4,620.4 	" style="fill:#E2ECFE;"/>
	<polygon points="160.1,626 167.8,626 167.6,620.5 159.9,620.5 	" style="fill:#E2ECFE;"/>
	<polygon points="180.7,626.1 188.4,626.1 188.3,620.6 180.5,620.5 	" style="fill:#E2ECFE;"/>
	<polygon points="197.2,626.2 205,626.2 204.8,620.6 197.1,620.6 	" style="fill:#E2ECFE;"/>
	<polygon points="213.8,626.2 221.5,626.2 221.3,620.7 213.6,620.7 	" style="fill:#E2ECFE;"/>
	<polygon points="230.3,626.3 238.1,626.3 237.9,620.8 230.1,620.7 	" style="fill:#E2ECFE;"/>
	<polygon points="246.9,626.3 254.6,626.4 254.4,620.8 246.7,620.8 	" style="fill:#E2ECFE;"/>
	<polygon points="263.4,626.4 271.2,626.4 271,620.9 263.2,620.9 	" style="fill:#E2ECFE;"/>
	<polygon points="280,626.5 287.7,626.5 287.5,620.9 279.8,620.9 	" style="fill:#E2ECFE;"/>
	<polygon points="296.5,626.5 304.2,626.6 304.1,621 296.3,621 	" style="fill:#E2ECFE;"/>
	<polygon points="313,626.6 320.8,626.6 320.6,621.1 312.9,621 	" style="fill:#E2ECFE;"/>
	<polygon points="332.5,626.7 340.2,626.7 340,621.1 332.3,621.1 	" style="fill:#E2ECFE;"/>
	<polygon points="349,626.7 356.8,626.7 356.6,621.2 348.8,621.2 	" style="fill:#E2ECFE;"/>
	<polygon points="365.6,626.8 373.3,626.8 373.1,621.3 365.4,621.2 	" style="fill:#E2ECFE;"/>
	<polygon points="382.1,626.8 389.9,626.9 389.7,621.3 381.9,621.3 	" style="fill:#E2ECFE;"/>
	<polygon points="398.7,626.9 406.4,626.9 406.2,621.4 398.5,621.4 	" style="fill:#E2ECFE;"/>
	<polygon points="415.2,627 422.9,627 422.8,621.4 415,621.4 	" style="fill:#E2ECFE;"/>
	<polygon points="431.7,627 439.5,627.1 439.3,621.5 431.6,621.5 	" style="fill:#E2ECFE;"/>
	<polygon points="448.3,627.1 456,627.1 455.9,621.6 448.1,621.5 	" style="fill:#E2ECFE;"/>
	<polygon points="464.8,627.2 472.6,627.2 472.4,621.6 464.6,621.6 	" style="fill:#E2ECFE;"/>
	<polygon points="7,636 14.7,636 14.5,630.5 6.8,630.4 	" style="fill:#E2ECFE;"/>
	<polygon points="23.5,636 31.3,636.1 31.1,630.5 23.3,630.5 	" style="fill:#E2ECFE;"/>
	<polygon points="40.1,636.1 47.8,636.1 47.6,630.6 39.9,630.6 	" style="fill:#E2ECFE;"/>
	<polygon points="56.6,636.2 64.4,636.2 64.2,630.7 56.4,630.6 	" style="fill:#E2ECFE;"/>
	<polygon points="73.2,636.2 80.9,636.3 80.7,630.7 73,630.7 	" style="fill:#E2ECFE;"/>
	<polygon points="89.7,636.3 97.4,636.3 97.3,630.8 89.5,630.7 	" style="fill:#E2ECFE;"/>
	<polygon points="106.2,636.4 114,636.4 113.8,630.8 106.1,630.8 	" style="fill:#E2ECFE;"/>
	<polygon points="122.8,636.4 130.5,636.4 130.4,630.9 122.6,630.9 	" style="fill:#E2ECFE;"/>
	<polygon points="139.3,636.5 147.1,636.5 146.9,631 139.1,630.9 	" style="fill:#E2ECFE;"/>
	<polygon points="159.9,636.6 167.7,636.6 167.5,631 159.8,631 	" style="fill:#E2ECFE;"/>
	<polygon points="176.5,636.6 184.2,636.6 184.1,631.1 176.3,631.1 	" style="fill:#E2ECFE;"/>
	<polygon points="193,636.7 200.8,636.7 200.6,631.2 192.8,631.1 	" style="fill:#E2ECFE;"/>
	<polygon points="209.6,636.7 217.3,636.8 217.1,631.2 209.4,631.2 	" style="fill:#E2ECFE;"/>
	<polygon points="226.1,636.8 233.9,636.8 233.7,631.3 225.9,631.3 	" style="fill:#E2ECFE;"/>
	<polygon points="242.7,636.9 250.4,636.9 250.2,631.3 242.5,631.3 	" style="fill:#E2ECFE;"/>
	<polygon points="259.2,636.9 267,637 266.8,631.4 259,631.4 	" style="fill:#E2ECFE;"/>
	<polygon points="275.7,637 283.5,637 283.3,631.5 275.6,631.4 	" style="fill:#E2ECFE;"/>
	<polygon points="292.3,637 300,637.1 299.9,631.5 292.1,631.5 	" style="fill:#E2ECFE;"/>
	<polygon points="311.7,637.1 319.5,637.1 319.3,631.6 311.5,631.6 	" style="fill:#E2ECFE;"/>
	<polygon points="328.3,637.2 336,637.2 335.8,631.7 328.1,631.6 	" style="fill:#E2ECFE;"/>
	<polygon points="344.8,637.2 352.6,637.3 352.4,631.7 344.6,631.7 	" style="fill:#E2ECFE;"/>
	<polygon points="361.4,637.3 369.1,637.3 368.9,631.8 361.2,631.8 	" style="fill:#E2ECFE;"/>
	<polygon points="377.9,637.4 385.7,637.4 385.5,631.8 377.7,631.8 	" style="fill:#E2ECFE;"/>
	<polygon points="394.5,637.4 402.2,637.5 402,631.9 394.3,631.9 	" style="fill:#E2ECFE;"/>
	<polygon points="411,637.5 418.7,637.5 418.6,632 410.8,631.9 	" style="fill:#E2ECFE;"/>
	<polygon points="427.5,637.6 435.3,637.6 435.1,632 427.4,632 	" style="fill:#E2ECFE;"/>
	<polygon points="444.1,637.6 451.8,637.6 451.6,632.1 443.9,632.1 	" style="fill:#E2ECFE;"/>
	<polygon points="464.7,637.7 472.4,637.7 472.3,632.2 464.5,632.1 	" style="fill:#E2ECFE;"/>
	<path id="texture_20__GY_tqJbKCGgp6EabhMhy" d="M471.7,387.8c0.1,0.5,0.6,0.9,1.1,0.7l0,0c0.5-0.1,0.9-0.6,0.7-1.1l0,0
		c-0.1-0.5-0.6-0.9-1.1-0.7l0,0C471.9,386.8,471.6,387.3,471.7,387.8L471.7,387.8z M478.1,431.7c0.4,0.3,0.9,0.4,1.4,0.3
		c0.3-0.4,0.4-0.9,0.3-1.4c-0.4-0.3-0.9-0.4-1.2-0.2C477.8,430.6,477.7,431.1,478.1,431.7z M465.1,412.8c0.2,0.3,0.9,0.7,1.2,0.2
		c0.3-0.2,0.7-0.9,0.2-1.2c-0.2-0.3-0.9-0.7-1.2-0.2l0,0C464.9,411.7,464.8,412.2,465.1,412.8L465.1,412.8z M454.4,432.1
		c-0.3,0.4-0.2,1,0.2,1.3c0.4,0.3,1,0.2,1.3-0.2c0.3-0.4,0.2-1-0.2-1.3C455.3,431.5,454.8,431.7,454.4,432.1L454.4,432.1z
		 M468.9,412.8c-0.3,0.4-0.2,1,0.2,1.3c0.4,0.3,1,0.2,1.3-0.2c0.3-0.4,0.2-1-0.2-1.3C469.8,412.2,469.2,412.3,468.9,412.8
		L468.9,412.8z M470.2,362c-0.6,0.4-0.7,0.9-0.3,1.4 M462.6,389.5c-0.3,0.4-0.2,1,0.2,1.3l0,0c0.4,0.3,1,0.2,1.5-0.2
		c0.3-0.4,0.2-1-0.2-1.5C463.5,388.9,463,389,462.6,389.5L462.6,389.5z M472.1,387.1c-0.1,0.5,0.1,0.8,0.3,1.1
		c0.5,0.1,0.8-0.1,1.1-0.3c0.1-0.5-0.1-0.8-0.3-1.1l0,0C472.7,386.7,472.2,386.9,472.1,387.1L472.1,387.1L472.1,387.1z" style="fill:#D6D7D8;"/>
	<path id="texture_21__GY_tqJbKCGgp6EabhMhy" d="M5.5,67.5c-0.1,0.5,0.3,1.1,0.8,1.2c0.5,0.1,1.1-0.3,1.2-0.8l0,0
		c0.1-0.5-0.3-1.1-0.8-1.2l0,0C6.2,66.6,5.6,67,5.5,67.5z M9.2,44.2c-0.1,0.5,0.3,1.1,0.8,1.2c0.5,0.1,1.1-0.3,1.2-0.8
		c0.1-0.5-0.3-1.1-0.8-1.2l0,0C9.9,43.3,9.3,43.7,9.2,44.2L9.2,44.2L9.2,44.2z M4.5,46.5c0.1,0.5,0.6,0.9,1.1,0.7
		c0.5-0.1,0.9-0.6,0.7-1.1c-0.1-0.5-0.6-0.9-1.1-0.7C4.7,45.3,4.3,46,4.5,46.5L4.5,46.5z" style="fill:#D6D7D8;"/>
	<rect x="20" y="73.9" width="106" height="298.5" style="fill:#E9F1FE;"/>
	<path d="M74.7,154.7c-1.2,0-2.2-1-2.2-2.2V59.9c0-1.2,1-2.2,2.2-2.2c1.2,0,2.2,1,2.2,2.2v92.6
		C76.9,153.7,75.9,154.7,74.7,154.7z" style="fill:#FFFFFF;"/>
	<rect x="13.1" y="58.9" width="119.9" height="5.9" style="fill:#FFFFFF;"/>
	<rect x="13.1" y="68.3" width="119.9" height="5.9" style="fill:#FFFFFF;"/>
	<rect x="13.1" y="77.7" width="119.9" height="5.9" style="fill:#FFFFFF;"/>
	<rect x="13.1" y="87.1" width="119.9" height="5.9" style="fill:#FFFFFF;"/>
	<rect x="13.1" y="96.5" width="119.9" height="5.9" style="fill:#FFFFFF;"/>
	<rect x="13.1" y="105.9" width="119.9" height="5.9" style="fill:#FFFFFF;"/>
	<rect x="13.1" y="115.3" width="119.9" height="5.9" style="fill:#FFFFFF;"/>
	<rect x="13.1" y="124.8" width="119.9" height="5.9" style="fill:#FFFFFF;"/>
	<rect x="13.1" y="134.2" width="119.9" height="5.9" style="fill:#FFFFFF;"/>
	<polygon points="64.5,373.2 37.4,373.2 32.7,341.7 69.2,341.7 	" style="fill:#FFFFFF;"/>
	<rect x="82.8" y="365" width="37.3" height="7.2" style="fill:#A1C3FC;"/>
	<rect x="77.3" y="357.8" width="37.3" height="7.2" style="fill:#A1C3FC;"/>
	<path d="M47.3,326.7c-0.7-0.8-1.4-1.7-1.7-2.7c-0.8-2.1,0.3-4.4,1.1-6.5c0.8-2.1,1.1-4.9-0.7-6.3
		c-1.5-1.2-4-1.1-4.8-2.8c-0.3-0.6-0.2-1.4-0.3-2.1c-0.4-3-4.3-4.4-7.1-3.4c-2.9,1-4.9,3.5-6.7,5.9c-0.7,0.9-1.3,2.2-0.4,2.9
		c0.8,0.6,2.2-0.1,3,0.6c0.6,0.6,0.2,1.6-0.4,2.2c-0.6,0.6-1.3,1.2-1.5,2c-0.3,1.6,1.7,2.5,3.3,2.7c1.6,0.2,3.6,0.6,3.9,2.2
		c-2.1,2.5-4.4,5.7-3.3,8.8c1.2,3.6,5.7,5.2,9,7c6.2,3.4,8.7,10.3,10.1,17.2C54.8,345.5,53.4,334.4,47.3,326.7z" style="fill:#FFFFFF;"/>
	<path d="M50.5,347.1c-0.3,0-0.5-0.2-0.5-0.5c-0.1-6,0.2-12,1-18c0-0.3,0.3-0.5,0.6-0.5c0.3,0,0.5,0.3,0.5,0.6
		c-0.8,5.9-1.1,11.9-1,17.8C51.1,346.9,50.9,347.1,50.5,347.1C50.6,347.1,50.6,347.1,50.5,347.1z" style="fill:#FFFFFF;"/>
	<ellipse transform="matrix(0.1215 -0.9926 0.9926 0.1215 -280.25 339.5433)" cx="51.7" cy="328.1" rx="1.1" ry="3.1" style="fill:#FFFFFF;"/>
	<path d="M51.6,328.5C51.6,328.5,51.6,328.5,51.6,328.5c-0.4,0-0.6-0.3-0.5-0.6c0.4-3.4,1-6.7,1.7-10.1
		c0.1-0.3,0.4-0.5,0.6-0.4c0.3,0.1,0.5,0.4,0.4,0.6c-0.7,3.3-1.3,6.6-1.7,10C52.1,328.3,51.9,328.5,51.6,328.5z" style="fill:#FFFFFF;"/>
	
		<ellipse transform="matrix(2.420017e-02 -0.9997 0.9997 2.420017e-02 -264.8742 363.0354)" cx="53.5" cy="317.2" rx="1.4" ry="3.7" style="fill:#FFFFFF;"/>
	<path d="M53.6,317.6c0,0-0.1,0-0.1,0c-0.3-0.1-0.5-0.4-0.4-0.7c0.6-2.7,1.3-5.5,2.1-8.2c0.1-0.3,0.4-0.5,0.7-0.4
		c0.3,0.1,0.5,0.4,0.4,0.7c-0.8,2.7-1.5,5.4-2.1,8.1C54,317.4,53.8,317.6,53.6,317.6z" style="fill:#FFFFFF;"/>
	
		<ellipse transform="matrix(0.3303 -0.9439 0.9439 0.3303 -253.2482 259.3519)" cx="56.1" cy="308.1" rx="1.4" ry="3.7" style="fill:#FFFFFF;"/>
	<path d="M56,308.4c-0.1,0-0.1,0-0.2,0c-0.3-0.1-0.5-0.4-0.4-0.7c0.6-2,1.3-4.1,2-6.1c0.1-0.3,0.4-0.4,0.7-0.3
		c0.3,0.1,0.4,0.4,0.3,0.7c-0.7,2-1.4,4-2,6C56.4,308.2,56.2,308.4,56,308.4z" style="fill:#FFFFFF;"/>
	
		<ellipse transform="matrix(0.3303 -0.9439 0.9439 0.3303 -244.7352 256.5052)" cx="58.4" cy="300.7" rx="1.8" ry="4.9" style="fill:#FFFFFF;"/>
	<path d="M58.5,300.9c-0.1,0-0.1,0-0.2,0c-0.3-0.1-0.4-0.4-0.3-0.7c0.5-1.3,1-2.7,1.6-4c0.1-0.3,0.4-0.4,0.7-0.3
		c0.3,0.1,0.4,0.4,0.3,0.7c-0.5,1.3-1.1,2.6-1.5,3.9C58.9,300.8,58.7,300.9,58.5,300.9z" style="fill:#FFFFFF;"/>
	<rect x="326.1" y="73.9" width="106" height="298.5" style="fill:#E9F1FE;"/>
	<path d="M381.9,154.7c-1.2,0-2.2-1-2.2-2.2V59.9c0-1.2,1-2.2,2.2-2.2c1.2,0,2.2,1,2.2,2.2v92.6
		C384.1,153.7,383.1,154.7,381.9,154.7z" style="fill:#FFFFFF;"/>
	<rect x="320.3" y="58.9" width="119.9" height="5.9" style="fill:#FFFFFF;"/>
	<rect x="320.3" y="68.3" width="119.9" height="5.9" style="fill:#FFFFFF;"/>
	<rect x="320.3" y="77.7" width="119.9" height="5.9" style="fill:#FFFFFF;"/>
	<rect x="320.3" y="87.1" width="119.9" height="5.9" style="fill:#FFFFFF;"/>
	<rect x="320.3" y="96.5" width="119.9" height="5.9" style="fill:#FFFFFF;"/>
	<rect x="320.3" y="105.9" width="119.9" height="5.9" style="fill:#FFFFFF;"/>
	<rect x="320.3" y="115.3" width="119.9" height="5.9" style="fill:#FFFFFF;"/>
	<rect x="320.3" y="124.8" width="119.9" height="5.9" style="fill:#FFFFFF;"/>
	<rect x="320.3" y="134.2" width="119.9" height="5.9" style="fill:#FFFFFF;"/>
	<rect x="412.6" y="312.4" width="12.3" height="59.7" style="fill:#A1C3FC;"/>
	
		<rect x="377.6" y="343.5" transform="matrix(0.2421 -0.9703 0.9703 0.2421 -31.301 653.8013)" width="50.5" height="6.9" style="fill:#A1C3FC;"/>
	
		<rect x="367.7" y="343.4" transform="matrix(0.3357 -0.942 0.942 0.3357 -65.7914 600.5479)" width="50.5" height="6.9" style="fill:#A1C3FC;"/>
	<polygon points="155.2,62.3 155.2,62.3 152.7,65.7 170.2,69.6 166.7,64.9 	" style="fill:#A1C3FC;"/>
	<polygon points="147.9,72.1 176.9,78.4 173.4,73.8 150.4,68.7 	" style="fill:#A1C3FC;"/>
	<polygon points="143.1,78.4 183.5,87.3 180,82.6 145.6,75.1 	" style="fill:#A1C3FC;"/>
	<polygon points="138.4,84.8 189,95.9 190,95.9 186.7,91.5 140.9,81.5 	" style="fill:#A1C3FC;"/>
	<polygon points="133.6,91.2 155.2,95.9 173,95.9 136.1,87.8 	" style="fill:#A1C3FC;"/>
	<polygon points="130,95.9 139.3,95.9 131.3,94.2 	" style="fill:#A1C3FC;"/>
	<rect x="159.5" y="0.2" width="1.1" height="65.6" style="fill:#A1C3FC;"/>
	<polygon points="424.4,62.3 424.4,62.3 421.9,65.7 439.5,69.6 436,64.9 	" style="fill:#A1C3FC;"/>
	<polygon points="417.1,72.1 446.1,78.4 442.6,73.8 419.6,68.7 	" style="fill:#A1C3FC;"/>
	<polygon points="412.4,78.4 452.7,87.3 449.3,82.6 414.9,75.1 	" style="fill:#A1C3FC;"/>
	<polygon points="407.6,84.8 458.2,95.9 459.2,95.9 455.9,91.5 410.1,81.5 	" style="fill:#A1C3FC;"/>
	<polygon points="402.8,91.2 424.5,95.9 442.2,95.9 405.3,87.8 	" style="fill:#A1C3FC;"/>
	<polygon points="399.3,95.9 408.5,95.9 400.6,94.2 	" style="fill:#A1C3FC;"/>
	<rect x="428.7" y="0.2" width="1.1" height="65.6" style="fill:#A1C3FC;"/>
</g>
<g>
	<path d="M333.2,579.9c1.1,7.6,2.7,22.9-0.1,23.6c-10.2,0-26.3,0.6-37.6,0.6c-12.5,0-26,0.1-37.8-0.5
		c-7.4-0.4,10.7-22.3,38.6-23c5.7-0.2,8.9-0.5,15.5-0.4C318.8,580.2,330.7,580.4,333.2,579.9z" style="fill:#1D72D8;"/>
	
		<linearGradient id="SVGID_1_" gradientUnits="userSpaceOnUse" x1="-1492.7363" y1="347.9159" x2="-1570.0323" y2="346.839" gradientTransform="matrix(-1.017 0 0 -1.016 -1215.5292 944.778)">
		<stop offset="0" style="stop-color:#428DFC"/>
		<stop offset="1" style="stop-color:#1D72D8"/>
	</linearGradient>
	<path d="M377.7,579.9c1.1,7.6,2.7,22.9-0.1,23.6c-10.2,0-26.3,0.6-37.6,0.6c-12.5,0-26,0.1-37.8-0.5
		c-7.4-0.4,10.7-22.3,38.6-23c5.7-0.2,8.9-0.5,15.5-0.4C363.3,580.2,375.2,580.4,377.7,579.9z" style="fill:url(#SVGID_1_);"/>
	<path d="M325.3,305.6c0,0-0.1,0-0.1,0c-2.2-0.6-3.1-2.9-3.9-4.8c-0.1-0.3-0.2-0.5-0.3-0.8c-0.1-0.3,0-0.6,0.3-0.7
		c0.3-0.1,0.6,0,0.7,0.3c0.1,0.3,0.2,0.5,0.3,0.8c0.7,1.7,1.5,3.7,3.2,4.2c0.3,0.1,0.4,0.4,0.4,0.6
		C325.8,305.4,325.6,305.6,325.3,305.6z" style="fill:#23286B;"/>
	<path d="M357.7,441.3c-14.2,1.7-44.8-1.3-57.7,2.5c-19.6,5.7-19.3,24.1-17.5,42.6c3.2,32.6,3.6,69.9,6.6,94.8
		c7.4-0.1,13.2-0.5,23.5-0.6c6.3,0,21.5,2.1,26.2-2.3c6.3-5.9,1.3-18.5-2.3-24.1c-5.4-8.4-10.8-11.8-9.4-23c1-8,6.6-15.7,6.4-24.2
		c-0.2-7.9-8.8-16.1-7.5-23.1C328.1,472.9,355.2,441.5,357.7,441.3z" style="fill:#151A4F;"/>
	
		<linearGradient id="SVGID_2_" gradientUnits="userSpaceOnUse" x1="46.2881" y1="510.185" x2="58.4241" y2="512.481" gradientTransform="matrix(1.017 0 0 -1.016 268.196 944.778)">
		<stop offset="0" style="stop-color:#FFBEB6"/>
		<stop offset="1" style="stop-color:#F8AFA9"/>
	</linearGradient>
	<path d="M342.4,420.7c-3.6,8.4-21.2,13.4-36.4,14.1c-13.3,0.6-21.4,5.6-24.9,16.8c-1.6,5.1-2.6,8.5-2,13.7
		c1.1,10,6,7,6.6,0c0.9-10.2,2.7-19.5,15.9-20.9c-2.5,3.6-12.6,12-5.2,11.2c4.6-0.5,7.8-4.9,10.9-8.3c3.3-3.6,2.6-3.2,6.7-4
		c2.7-0.5,6-0.2,8.8-0.2c5.7,0,11.5-0.3,17-0.5c6.1-0.3,11.8-0.4,17.6-0.8c8.5-0.7,7.1-3.7,6.1-11.7c-1.8-14.2-3.4-27.3-3.4-41.7
		c0-2.1,0-4.2-0.1-6.2c-4.6,0.6-8.2,0.4-12.7-0.6C342.7,394.5,347.8,408,342.4,420.7z" style="fill:url(#SVGID_2_);"/>
	<path d="M403.9,359.8c18.3,27.6,39.3,75,26.7,109c-6.9,18.6-35,15.3-48.4,5c-8.3-6.4-10.3-16.5-13.7-25.9
		c-3-8.4-11.2-22-9.9-31c1.2-8.4,16-20.6,21.2-29.6C383.6,380.7,397.5,350.1,403.9,359.8z" style="fill:#F2A19C;"/>
	
		<linearGradient id="SVGID_3_" gradientUnits="userSpaceOnUse" x1="98.4206" y1="551.3092" x2="119.7215" y2="515.8078" gradientTransform="matrix(1.017 0 0 -1.016 268.196 944.778)">
		<stop offset="0" style="stop-color:#A1C3FC"/>
		<stop offset="1" style="stop-color:#89B3F4"/>
	</linearGradient>
	<path d="M388.4,340.7c9.5,4.8,19.9,15.3,27,22.7c16.7,17.4,25.6,42.5,35.5,62.9c-14.9,17.5-26.4,16.6-63.2,17.4
		c-16.6,0.4-47.3-1.3-47.3-1.3s-0.7-55.7-0.4-68.7c0.2-10-3.4-29.8,16.7-39.8C366.3,329,380.2,336.5,388.4,340.7z" style="fill:url(#SVGID_3_);"/>
	
		<linearGradient id="SVGID_4_" gradientUnits="userSpaceOnUse" x1="63.5387" y1="602.9026" x2="72.7225" y2="619.3026" gradientTransform="matrix(1.017 0 0 -1.016 268.196 944.778)">
		<stop offset="0" style="stop-color:#FFBEB6"/>
		<stop offset="1" style="stop-color:#F8AFA9"/>
	</linearGradient>
	<path d="M340,289.4c-7.1,1.5-12.5,8.5-20,21.7c-5.8,10.3,0,20.3,10.2,24.4c11.8,4.7,32.6-3.9,33.3-16.7
		c0.3-5.6-2.4-10.4-5.6-15.1c-2.3-3.4-3.9-12.6-6.8-15.3C349.4,286.7,344.7,288,340,289.4z" style="fill:url(#SVGID_4_);"/>
	
		<linearGradient id="SVGID_5_" gradientUnits="userSpaceOnUse" x1="50.9506" y1="426.2614" x2="165.5542" y2="426.2614" gradientTransform="matrix(1.017 0 0 -1.016 268.196 944.778)">
		<stop offset="0" style="stop-color:#23286B"/>
		<stop offset="1" style="stop-color:#151A4F"/>
	</linearGradient>
	<path d="M434.6,443.2c0,0,10.8,47.5-18.7,56.4c-24.1,7.2-41.4-5.3-56.5-13c3,7.3,10.4,13.6,11.4,21.5
		c1.2,8.6-4.7,15.7-3.3,24.2c1.4,8.3,7.1,14.4,10.7,21.9c4.1,8.6-1.6,16.4-0.1,25.4c-16.6,1.8-35.6,2-51.5,0.9
		c-0.4-20.2-8.1-93.4-6.4-111.9c1.9-21,22.1-27.1,45.1-26.4C375.1,442.5,434.6,443.2,434.6,443.2z" style="fill:url(#SVGID_5_);"/>
	<rect x="380.8" y="502.6" width="102.3" height="9.9" style="fill:#D6D7D8;"/>
	
		<linearGradient id="SVGID_6_" gradientUnits="userSpaceOnUse" x1="125.1347" y1="552.1223" x2="152.3586" y2="471.4348" gradientTransform="matrix(1.017 0 0 -1.016 268.196 944.778)">
		<stop offset="0" style="stop-color:#FFBEB6"/>
		<stop offset="1" style="stop-color:#F8AFA9"/>
	</linearGradient>
	<path d="M382.6,346.1c9.4-3.6,23.4,18.7,27.1,24.2c7.5,11.1,18.2,29.3,23.3,41.8c2.4,5.7,1.7,9.5,2,15.7
		c0.4,7.2,5.6,31.3,0.5,64c-1.4,8.9,2.7,6.5,7.1,7.6c5,1.3,5.2,0.1,6.4,4.6c1,4.1,0.3,8.7-0.6,12.7c-0.9,4.1-16.5,2.7-22.7,0.9
		c0-5,0.5-9.8-0.9-14.7c-3.7,0.6-11.4,1.4-15.3,0c-8.9-3.3,6.2-4.1,11.4-5.3c1.5-11.3-4.6-51.4-4.9-58.2c-0.3-7,1.8-17.2-2-22.9
		c-4.3-6.4-24.8-28.8-28.3-34.6c-4-6.7-8.6-13.7-10.2-20.9C374,353.7,375.9,348.6,382.6,346.1z" style="fill:url(#SVGID_6_);"/>
	<path d="M343.1,287c-0.3,14.9-0.2,41.5-0.8,61.4c10.3,5,33.3-3.8,43.4-9c-15.7-11.5-10.7-14.1-12.1-30.1
		c-0.7-7.8-1.1-15.2-7.9-19.7c-2.8-1.8-6.4-3.1-10-3.9C353.9,285.2,349.2,284.7,343.1,287z" style="fill:#23286B;"/>
	<path d="M338.3,285.4c-1.9-0.3-3.7-0.6-5.5-0.5c-2.9,0.1-5.9,0.6-8.6,1.9c-1.5,0.7-4.6,2.2-5.2,3.9
		c-0.9,2.3,18.4,17,19.7,15.6c0.9-0.9,2.6-12,3.9-14.2c0.6-1,0.4-2.4,1.2-3.3C345.4,287,339.3,285.6,338.3,285.4z" style="fill:#23286B;"/>
	<path d="M337.6,348.9c-0.1,0-0.1,0-0.2,0c-0.3-0.1-0.4-0.4-0.3-0.7c1.1-2.5,2-5.5,2.5-8.4c1-5.4,1.8-11.7,2.2-16.7
		l0-0.5c0.8-11.4,1.6-22.1,1.6-33.6c0-0.3,0.2-0.5,0.5-0.5c0.3,0,0.5,0.2,0.5,0.5c0,11.6-0.8,22.3-1.6,33.7l0,0.5
		c-0.4,5.1-1.2,11.4-2.2,16.9c-0.6,3-1.5,6.1-2.6,8.7C338,348.8,337.8,348.9,337.6,348.9z" style="fill:#23286B;"/>
	<path d="M331.7,347.6c-0.1,0-0.1,0-0.2,0c-0.3-0.1-0.4-0.4-0.3-0.7c3.4-7.9,6.1-16.2,8-24.6c1.2-5.4,2.2-10.9,2.9-16.4
		c0.3-2.7,0.6-5.5,0.7-8.3c0.1-1.4,0.1-2.8,0.2-4.1c0-1-0.1-3.7-0.2-4.7c0-0.3,0.2-0.5,0.4-0.6c0.3,0,0.5,0.2,0.6,0.4
		c0.2,1.1,0.3,3.8,0.2,4.9c0,1.4-0.1,2.8-0.2,4.2c-0.2,2.8-0.4,5.6-0.7,8.3c-0.6,5.5-1.6,11-2.9,16.5c-2,8.5-4.7,16.8-8.1,24.8
		C332.1,347.5,331.9,347.6,331.7,347.6z" style="fill:#23286B;"/>
	<path d="M336.6,312.7c-3,0-7.2-2.8-8.1-5.5c-0.1-0.3,0.1-0.6,0.3-0.6c0.3-0.1,0.6,0.1,0.6,0.3c0.8,2.4,5.2,5.1,7.7,4.8
		c0.3,0,0.5,0.1,0.6,0.4c0,0.3-0.1,0.5-0.4,0.6C337.1,312.7,336.8,312.7,336.6,312.7z" style="fill:#23286B;"/>
	<g>
		<path d="M322.4,319.4l-7.9-2.8c0.2-1.5-0.7-3.1-2.2-3.6l-26-9.3c-1.7-0.6-3.7,0.3-4.3,2l-0.3,0.9
			c-0.6,1.7,0.3,3.7,2,4.3l26,9.3c1.6,0.6,3.3-0.1,4.1-1.6l7.9,2.8L322.4,319.4z" style="fill:#D6D7D8;"/>
	</g>
	<rect x="285" y="307.1" transform="matrix(0.3367 -0.9416 0.9416 0.3367 -98.5953 475.3122)" width="6.2" height="1" style="fill:#23286B;"/>
	
		<rect x="288.5" y="308.4" transform="matrix(0.3367 -0.9416 0.9416 0.3367 -97.4501 479.4387)" width="6.2" height="1" style="fill:#23286B;"/>
	<rect x="292" y="309.6" transform="matrix(0.3367 -0.9416 0.9416 0.3367 -96.3061 483.5654)" width="6.2" height="1" style="fill:#23286B;"/>
	
		<rect x="295.5" y="310.9" transform="matrix(0.3367 -0.9416 0.9416 0.3367 -95.162 487.6911)" width="6.2" height="1" style="fill:#23286B;"/>
	<rect x="299" y="312.1" transform="matrix(0.3367 -0.9416 0.9416 0.3367 -94.0169 491.8175)" width="6.2" height="1" style="fill:#23286B;"/>
	
		<rect x="302.5" y="313.4" transform="matrix(0.3367 -0.9416 0.9416 0.3367 -92.8728 495.9443)" width="6.2" height="1" style="fill:#23286B;"/>
	<rect x="306" y="314.6" transform="matrix(0.3367 -0.9416 0.9416 0.3367 -91.7286 500.0698)" width="6.2" height="1" style="fill:#23286B;"/>
	<path id="texture-2_18_Oxs_tsoorMFNYRo_ZCcC4" d="M398.2,442c0.1,0.1,0.2,0,0.2,0c0.1-0.1,0-0.2,0-0.2
		c-0.1-0.1-0.2,0-0.2,0l0,0C398.1,441.8,398.1,441.9,398.2,442L398.2,442z M413.7,446.6c0,0.1,0.1,0.2,0.2,0.1l0,0
		c0.1,0,0.1-0.1,0.1-0.2c0,0,0,0,0,0c0-0.1-0.1-0.1-0.2-0.1C413.7,446.5,413.6,446.6,413.7,446.6L413.7,446.6L413.7,446.6z
		 M406,443.8c0,0.1,0,0.2,0.1,0.2c0.1,0,0.2,0,0.2-0.1c0-0.1,0-0.2-0.1-0.2C406.1,443.7,406,443.7,406,443.8z M393.5,460.7
		c-0.1,0.2,0,0.3,0.2,0.4c0.1,0.1,0.3,0,0.4-0.2c0,0,0,0,0,0c0.1-0.2,0-0.3-0.2-0.4C393.7,460.4,393.6,460.5,393.5,460.7
		L393.5,460.7z M396.1,453.9c-0.1,0.2,0,0.3,0.2,0.4c0.2,0.1,0.3,0,0.4-0.2c0.1-0.2,0-0.3-0.2-0.4l0,0
		C396.4,453.6,396.2,453.7,396.1,453.9z M398.7,447c-0.1,0.2,0,0.3,0.2,0.4c0,0,0,0,0,0c0.1,0.1,0.3,0,0.4-0.2c0,0,0,0,0,0
		c0.1-0.2,0-0.3-0.2-0.4C399,446.8,398.8,446.9,398.7,447z M382.3,449.8c0.1,0.1,0.3,0.1,0.4,0c0.1-0.1,0.1-0.3,0-0.4
		c-0.1-0.1-0.3-0.1-0.4,0C382.2,449.5,382.2,449.7,382.3,449.8L382.3,449.8z M387.3,444.5c0.1,0.1,0.3,0.1,0.4,0
		c0.1-0.1,0.1-0.3,0-0.4c-0.1-0.1-0.3-0.1-0.4,0C387.2,444.2,387.2,444.4,387.3,444.5L387.3,444.5z M408.2,459.8
		c0,0.2,0.1,0.3,0.3,0.3c0.2,0,0.3-0.1,0.3-0.3c0,0,0,0,0,0c0-0.2-0.1-0.3-0.3-0.3c0,0,0,0,0,0C408.4,459.5,408.2,459.6,408.2,459.8
		z M408,452.5c0,0.2,0.1,0.3,0.3,0.3c0.2,0,0.3-0.1,0.3-0.3c0-0.2-0.1-0.3-0.3-0.3c0,0,0,0,0,0C408.2,452.2,408,452.3,408,452.5
		C408,452.5,408,452.5,408,452.5z M407.8,445.2c0,0.2,0.1,0.3,0.3,0.3c0,0,0,0,0,0c0.2,0,0.3-0.1,0.3-0.3c0,0,0,0,0,0
		c0-0.2-0.1-0.3-0.3-0.3C408,444.9,407.8,445,407.8,445.2C407.8,445.2,407.8,445.2,407.8,445.2z M377.2,444.8c0.1,0.1,0.3,0.1,0.4,0
		c0.1-0.1,0.1-0.3,0-0.4c-0.1-0.1-0.3-0.1-0.4,0l0,0C377.2,444.5,377.2,444.6,377.2,444.8z M401.7,456.7c0,0.2,0.1,0.3,0.3,0.3
		c0.1,0,0.3-0.1,0.3-0.2c0,0,0,0,0,0c0-0.1-0.1-0.3-0.2-0.3c0,0,0,0,0,0C401.9,456.5,401.8,456.6,401.7,456.7L401.7,456.7z
		 M402.2,450.3c0,0.1,0.1,0.3,0.3,0.3c0.1,0,0.3-0.1,0.3-0.2c0,0,0,0,0,0c0-0.1-0.1-0.3-0.2-0.3c0,0,0,0,0,0
		C402.3,450,402.2,450.1,402.2,450.3L402.2,450.3z M402.6,443.7c0,0.1,0.1,0.3,0.2,0.3h0c0.1,0,0.3-0.1,0.3-0.2c0,0,0,0,0,0
		c0-0.1-0.1-0.3-0.2-0.3c0,0,0,0,0,0C402.8,443.5,402.7,443.6,402.6,443.7L402.6,443.7z M389.2,449.8c-0.1,0.1,0,0.3,0.1,0.4
		c0.1,0.1,0.3,0,0.4-0.1c0.1-0.1,0-0.3-0.1-0.4C389.5,449.6,389.3,449.7,389.2,449.8L389.2,449.8z M392.1,444
		c-0.1,0.1,0,0.3,0.1,0.3c0,0,0,0,0,0c0.1,0.1,0.3,0,0.4-0.1c0.1-0.1,0-0.3-0.1-0.4C392.4,443.8,392.2,443.9,392.1,444L392.1,444z
		 M414.1,451.9c0,0.1,0.2,0.2,0.3,0.2c0,0,0,0,0,0c0.1,0,0.2-0.2,0.2-0.3c0,0,0,0,0,0c-0.1-0.1-0.2-0.2-0.3-0.2
		C414.1,451.6,414,451.8,414.1,451.9C414.1,451.9,414.1,451.9,414.1,451.9L414.1,451.9z M412,445.8c0,0.1,0.2,0.2,0.3,0.2
		c0.1-0.1,0.2-0.2,0.2-0.3c0-0.1-0.2-0.2-0.3-0.2C412,445.5,412,445.6,412,445.8C412,445.8,412,445.8,412,445.8L412,445.8z
		 M375.1,451.3c-0.1,0.2,0,0.3,0.2,0.4c0.2,0.1,0.3,0,0.4-0.1c0.1-0.2,0-0.3-0.2-0.4C375.4,451.1,375.2,451.2,375.1,451.3
		L375.1,451.3z M378.4,444.6c-0.1,0.2,0,0.3,0.1,0.4s0.3,0,0.4-0.1c0.1-0.2,0-0.3-0.1-0.4C378.7,444.3,378.5,444.4,378.4,444.6
		L378.4,444.6z M406.7,453.4c0.1,0.2,0.2,0.2,0.4,0.2c0.2-0.1,0.2-0.2,0.2-0.4c-0.1-0.2-0.2-0.2-0.4-0.2
		C406.7,453.1,406.7,453.2,406.7,453.4L406.7,453.4z M404.2,446.3c0.1,0.2,0.2,0.2,0.4,0.2c0.2-0.1,0.2-0.2,0.2-0.4
		c-0.1-0.2-0.2-0.2-0.4-0.2C404.3,446,404.2,446.1,404.2,446.3L404.2,446.3z M390.4,451.9c0,0.2,0.1,0.3,0.3,0.3
		c0.2,0,0.3-0.1,0.3-0.3c0-0.2-0.1-0.3-0.3-0.3c0,0,0,0,0,0C390.5,451.6,390.4,451.8,390.4,451.9L390.4,451.9L390.4,451.9z
		 M390.8,444.4c0,0.2,0.1,0.3,0.3,0.3h0c0.2,0,0.3-0.1,0.3-0.3l0,0c0-0.2-0.1-0.3-0.3-0.3C391,444.1,390.8,444.3,390.8,444.4
		L390.8,444.4z M385.3,452.9c0,0.2,0.1,0.3,0.3,0.3c0.2,0,0.3-0.1,0.3-0.3c0-0.2-0.1-0.3-0.3-0.3
		C385.5,452.6,385.3,452.8,385.3,452.9L385.3,452.9z M386.1,445.5c0,0.2,0.1,0.3,0.3,0.3c0.2,0,0.3-0.1,0.3-0.3
		c0-0.2-0.1-0.3-0.3-0.4C386.2,445.2,386.1,445.3,386.1,445.5L386.1,445.5z M400.1,447.7c0.1,0.2,0.2,0.3,0.4,0.2
		c0.2,0,0.3-0.2,0.2-0.4c0-0.2-0.2-0.3-0.4-0.2c0,0,0,0,0,0C400.1,447.4,400.1,447.6,400.1,447.7
		C400.1,447.7,400.1,447.7,400.1,447.7L400.1,447.7z" style="fill:#FFFFFF;"/>
</g>
<g>
	<path d="M231.4,310.4c-4.3,2-9.9,7.2-14.9,5.7c-6-1.8-8.6-8.6-8-14.3c0.6-6,6.3-8.3,11.6-9.8c2.3-0.6,5.4-1.5,7.7-1.6
		c3.5-0.1,3.7,2.1,4.2,5.4c0.6,4.4,1.4,10.1-0.4,14.4C231.3,310.2,231.2,310.9,231.4,310.4z" style="fill:#F2A19C;"/>
	<path d="M173.7,307.7c12-2.7,26-2.4,37.4-7.3c0.1,4.5,1.5,9.8,4.5,13.3c-3.7,3.4-12.1,5.3-16.8,7.1
		c-4.4,1.7-8.5,3.7-12.9,5.4c-3,1.2-8,4.9-11,5c-1.5-4-0.9-8.8-1.6-13C172.9,315.4,170.7,308.4,173.7,307.7z" style="fill:#FFBEB6;"/>
	<path d="M205,302.3c0.9-3.5,1.5-5.8,2.9-8.6c1.9-3.8,6.5-4.8,10.2-5.6c2.6-0.6,9.3-5.5,6.8-0.6
		c-1.7,3.3-5.4,7.1-8.5,8.4c0.4,3.9,1.1,10.4-2.2,13.3C211.4,311.6,203.7,307.2,205,302.3z" style="fill:#FFBEB6;"/>
	<path d="M213.8,315c-0.3,0-0.6-0.1-0.9-0.2c-1.1-0.5-1.5-1.8-1-2.9l28.3-56.8c0.5-1.1,1.8-1.5,2.9-1
		c1.1,0.5,1.5,1.8,1,2.9l-28.3,56.8C215.4,314.6,214.6,315,213.8,315z" style="fill:#23286B;"/>
	<path d="M233.8,286.3c-2.1-2.5-11,8.2-12.6,10.3c-1.6,2.2-3.6,5.5,0.7,4.6c2.6-0.6,5.3-2.9,7.6-4.2
		c-4,3-8.8,6.7-1.5,7.9c-1.4,2.2-2,2.3-0.5,4.5c1.3,1.9,2.4,2.2,4.5,1.1c2.7-1.5,4-4.9,4.4-7.7c0.2-1.3,1.1-3.2,0.9-4.5
		c-0.3-1.7-1.3-2.6-1.5-4.5c-0.2-1.6,0.2-3.2,0-4.8C235.7,288,234.2,284.9,233.8,286.3z" style="fill:#FFBEB6;"/>
	<path d="M67,461.5c-1.5,5.5,4.1,14.2,5.9,21.2c2.1,8,1.6,11,1.6,18.7c0,17.2,7.9,24.2,11.6,39.9
		c2.5,10.4-5.9,33.2,5.1,41.3c6.5,4.8,36.9,0.5,43.9-1c-11.8-6.3-6.2-47.8-5.6-61c1-19.9,4.9-53.4-2.2-73.2c-24-1.2-43.7,2.9-66.3,8
		C64,459.2,62.3,460.9,67,461.5z" style="fill:#23286B;"/>
	
		<linearGradient id="SVGID_7_" gradientUnits="userSpaceOnUse" x1="6.1513" y1="580.8782" x2="21.5545" y2="528.6302" gradientTransform="matrix(1.064 0 0 -1.064 89.02 893.225)">
		<stop offset="0" style="stop-color:#A1C3FC"/>
		<stop offset="1" style="stop-color:#78A9EF"/>
	</linearGradient>
	<path d="M182.2,237.7c-26.8-7.1-59.6,6.6-82.3,21.1c-21.7,14-53.1,35.9-56.1,64.7c-2.3,21.8,1.1,45.6,2.1,67.4
		c1.5,29.5,4.1,59.2,6.5,88.6c6.6,0.5,12.9-2.4,19.8-2c7,0.4,14.2,1.1,21.3,1.4c13.1,0.5,25.4-2.6,38.2-2.2
		c1.6-30.9,0.9-61.9,2.4-92.2c0.3-6.7,1.5-13.8,1.9-20.5c0.2-4.9-1.7-14.6,1.5-18.5c3.6-4.3,13.1-5.8,17.7-9.9
		c5.2-4.6,9.2-10.6,13.5-15.8c9.4-11.2,19-26.7,24.7-40.3c7.3-17.8-3-26.4-11.3-40.8c-0.9,1.1-0.9,2.4,0.1,4" style="fill:url(#SVGID_7_);"/>
	
		<linearGradient id="SVGID_8_" gradientUnits="userSpaceOnUse" x1="461.1781" y1="284.9222" x2="383.8821" y2="283.8453" gradientTransform="matrix(1.064 0 0 -1.064 -325.0704 893.225)">
		<stop offset="0" style="stop-color:#428DFC"/>
		<stop offset="1" style="stop-color:#1D72D8"/>
	</linearGradient>
	<path d="M87,578.1c-1.2,8-2.8,24,0.1,24.7c10.7,0,27.5,0.6,39.4,0.6c13.1,0,27.2,0.1,39.6-0.5
		c7.7-0.4-11.2-23.3-40.4-24.1c-5.9-0.2-9.3-0.5-16.3-0.4C102.1,578.4,89.7,578.6,87,578.1z" style="fill:url(#SVGID_8_);"/>
	<path d="M219.5,249.5c-8.9,7-21.7,9-32.2,16.6c-9.4-3.5-18-20.9-10.9-25c10.4-5.9,16.8-8.2,23.1-11
		c3,7.3,13.3,15,19,19.8C218,250.1,219.9,249.2,219.5,249.5z" style="fill:#F2A19C;"/>
	
		<linearGradient id="SVGID_9_" gradientUnits="userSpaceOnUse" x1="-7.4337" y1="428.7173" x2="46.0731" y2="428.7173" gradientTransform="matrix(1.0099 -0.3346 -0.3346 -1.0099 340.4663 664.5789)">
		<stop offset="0" style="stop-color:#FFBEB6"/>
		<stop offset="1" style="stop-color:#F8AFA9"/>
	</linearGradient>
	<path d="M240.5,207c7.8,21.5-6.9,47.8-31.8,45.2c-11.5-1.2-19.4-13.5-20.4-24.2c-1.1-11.8,5.2-20.3,15.1-25.3
		C217.9,195.3,227.3,199.9,240.5,207z" style="fill:url(#SVGID_9_);"/>
	<path d="M240.1,241.3c-3.4,0-6.7-0.5-9.4-1.5c-8.6-2.9-17.8-7.2-21.3-16.6c-0.1-0.3,0-0.6,0.3-0.7
		c0.3-0.1,0.6,0,0.7,0.3c3.3,9,12.3,13.1,20.7,15.9c8.6,2.9,23.1,1.8,28-7.9c0.1-0.3,0.5-0.4,0.7-0.2c0.3,0.1,0.4,0.5,0.2,0.7
		C256.4,238.5,247.9,241.3,240.1,241.3z" style="fill:#23286B;"/>
	<path d="M216.2,237.8c3.7,1.3,8,2,11.4,4c6.6,4-3.5,14.6-8.1,16.5c-4.8,1.8-13.9,3.4-17.4-1.2
		c-3.5-4.5-6.3-9.8-8.8-14.8c1.2-1.5,12.8-8.4,12.7-8.5C205.7,234,212.8,236.6,216.2,237.8z" style="fill:#EEEEEE;"/>
	<path d="M193.8,243.9c-0.1-1.1-1.2-3.3-2.5-5.7c-2.7-5.3-6.1-11.9-4-15.8c0.9-1.6,2.7-2.6,5.3-2.8
		c4.1-0.4,6.9,3.5,8.9,6.9c2.4,4.2,5,7.2,7.9,10.4l-0.8,0.7c-2.9-3.3-5.6-6.3-8-10.6c-1.9-3.3-4.4-6.7-7.9-6.4
		c-2.3,0.2-3.8,1-4.5,2.3c-1.8,3.4,1.6,9.9,4.1,14.8c1.4,2.7,2.5,4.8,2.6,6.1L193.8,243.9z" style="fill:#EEEEEE;"/>
	<path d="M208.2,219.9c0.7,11.2,28.5,23.6,41,17.9c24.1-11.1,2.2-37.7-14.3-21.8c4.4-15-21.6-16.8-27-5.2
		c-4.1-6.6-16.4-9-21.5-0.4c-6.9,11.8,6.5,17.9,15.4,14.1C204.8,223.2,208.2,219.3,208.2,219.9z" style="fill:#23286B;"/>
	<path d="M193.4,221.6c3.6-0.4,5.2,6.1,4.7,8.8c-0.8,4.3-4.1,7.7-8.6,8.2c-3.8,0.4-7.4-1.5-8.9-5
		c-1.3-2.9-0.5-6.8,1-9.5c1.9-3.6,8.5-6.1,11.7-2.8C193.5,221.1,193.6,221.9,193.4,221.6z" style="fill:#23286B;"/>
	<circle cx="208.4" cy="204.5" r="12.5" style="fill:#23286B;"/>
	<circle cx="230.6" cy="212.7" r="18.3" style="fill:#23286B;"/>
	<path d="M101,427.1h-17c-7.2,0-13.1-5.9-13.1-13.1v-40.8h43.3V414C114.1,421.3,108.2,427.1,101,427.1z" style="fill:#89B3F4;"/>
	<path d="M147.9,330.3c1.8-2.7,3.1-3.2,5.6-4.4c2.4-1.2,4.8-2.3,7.1-3.4c1.7-0.8,5.9-3.1,7.7-2.6
		c5.4,1.3-7.8,8.7-9.5,10c-2.8,2.2-3.7,4.2-7.4,3.4C147.6,332.4,146.8,331.9,147.9,330.3z" style="fill:#F2A19C;"/>
	
		<rect x="142.3" y="314.9" transform="matrix(0.427 -0.9043 0.9043 0.427 -205.4904 358.2628)" width="75.3" height="52.7" style="fill:#E94A47;"/>
	<path d="M130.9,320.5c1.8,1.6-13.2,11.4-14.8,13.7c1.4,0.5,2.6,1.3,4.1,1.8c5.3,1.7,12.5-1.4,15.8,3.6
		c1.6,2.5,4.5,6.7,7.1,8.3c2.3,1.4,4.8,4.3,7.1,5.6c6.3,3.5,7.3,1.2,11.9-3.6c1.6-1.6,2.6-6.3,4.5-6.5c2.1-0.3,5.9-2.4,3.6-5.6
		c-1.7-2.3-4.7-6.2-7.4-6.6c-2.4-0.4-10.7-3-15.8-3.6L130.9,320.5z" style="fill:#FFBEB6;"/>
	<path d="M159.2,248.5c-3-2.7-8-3-12.1-3c-6.3,0-12.3,2.4-17.7,5.1c-12.2,6.1-22.7,14.9-34.8,21.6
		c-12.3,6.8-22.6,13.4-25.5,27.9c-2.5,12.3,9.9,25.3,19.8,31.9c12.3,8.2,27.9,11.7,39.9,20.3c3.8-4.8,15.1-24.3,12.6-28.3
		c-1.8-2.9-12.4-7-15.6-9.7c-4.9-4.1-10-8.3-14.5-12.8c20.2-0.9,63.4-26,52.1-46.2C162.4,253.6,161.8,250.9,159.2,248.5z" style="fill:#A1C3FC;"/>
	<path d="M165.7,332.9c2.1,1.5,2.7,2.6,5.9,6c2.8,3,2.1,7.7,2.5,11.6c0.3,3.5-0.6,8.3-3.7,2.9
		c-1.6-2.9-1.4-6.8-3.4-9.5c-1.2,2.9,1.3,7.1-0.1,10.4c-2.7,6.5-4.7-2.3-6.1-4.7c-1,2.6-0.9,5.6-3,7.6c-1.9,1.7-6.8,3.5-9.2,2.8
		c1.5-2.8,7.1-3.2,5.6-6.3c-0.5-1.1-2.6-2.3-3.3-3.5c-0.8-1.3-1.4-3-1.9-4.5c3.2-2.5,9.9-2.3,12.5-5c2.1-2.2,0.2-5.7,1.1-8.2
		c0.3,0.2,1.3-0.5,1.2,0L165.7,332.9z" style="fill:#FFBEB6;"/>
	<path id="texture-2_17_hOdTZ8YRb90sYt7AJPbsE" d="M103.4,479.6c0.1,0.1,0.2,0,0.2,0c0.1-0.1,0.1-0.2,0-0.2
		c-0.1-0.1-0.2,0-0.2,0l0,0C103.3,479.4,103.3,479.5,103.4,479.6L103.4,479.6z M119.6,484.4c0,0.1,0.1,0.2,0.2,0.2l0,0
		c0.1,0,0.2-0.1,0.1-0.2c0,0,0,0,0,0c0-0.1-0.1-0.2-0.2-0.2C119.6,484.3,119.6,484.3,119.6,484.4L119.6,484.4L119.6,484.4z
		 M111.5,481.4c0,0.1,0,0.2,0.1,0.2c0.1,0,0.2,0,0.2-0.1c0-0.1,0-0.2-0.1-0.2C111.7,481.3,111.6,481.3,111.5,481.4z M98.5,499.1
		c-0.1,0.2,0,0.3,0.2,0.4c0.2,0.1,0.3,0,0.4-0.2c0,0,0,0,0,0c0.1-0.2,0-0.3-0.2-0.4C98.7,498.9,98.6,498.9,98.5,499.1L98.5,499.1z
		 M101.2,492c-0.1,0.2,0,0.3,0.2,0.4c0.2,0.1,0.3,0,0.4-0.2c0.1-0.2,0-0.3-0.2-0.4l0,0C101.5,491.7,101.3,491.8,101.2,492z
		 M104,484.8c-0.1,0.2,0,0.3,0.2,0.4c0,0,0,0,0,0c0.2,0.1,0.3,0,0.4-0.2c0,0,0,0,0,0c0.1-0.2,0-0.3-0.2-0.4
		C104.2,484.6,104,484.7,104,484.8z M86.8,487.7c0.1,0.1,0.3,0.1,0.4,0c0.1-0.1,0.1-0.3,0-0.4c-0.1-0.1-0.3-0.1-0.4,0
		C86.6,487.4,86.7,487.6,86.8,487.7L86.8,487.7z M92,482.2c0.1,0.1,0.3,0.1,0.4,0c0.1-0.1,0.1-0.3,0-0.4c-0.1-0.1-0.3-0.1-0.4,0
		C91.9,481.9,91.9,482.1,92,482.2L92,482.2z M113.9,498.2c0,0.2,0.2,0.3,0.3,0.3c0.2,0,0.3-0.1,0.3-0.3c0,0,0,0,0,0
		c0-0.2-0.1-0.3-0.3-0.3c0,0,0,0,0,0C114,497.9,113.9,498,113.9,498.2z M113.7,490.5c0,0.2,0.2,0.3,0.3,0.3c0.2,0,0.3-0.2,0.3-0.3
		c0-0.2-0.2-0.3-0.3-0.3c0,0,0,0,0,0C113.8,490.2,113.7,490.4,113.7,490.5C113.7,490.5,113.7,490.5,113.7,490.5z M113.5,482.9
		c0,0.2,0.1,0.3,0.3,0.3c0,0,0,0,0,0c0.2,0,0.3-0.1,0.3-0.3c0,0,0,0,0,0c0-0.2-0.2-0.3-0.3-0.3C113.6,482.6,113.5,482.7,113.5,482.9
		C113.5,482.9,113.5,482.9,113.5,482.9z M81.5,482.4c0.1,0.1,0.3,0.1,0.4,0s0.1-0.3,0-0.4c-0.1-0.1-0.3-0.1-0.4,0l0,0
		C81.4,482.2,81.4,482.3,81.5,482.4z M107.1,495c0,0.2,0.1,0.3,0.3,0.3c0.2,0,0.3-0.1,0.3-0.3c0,0,0,0,0,0c0-0.2-0.1-0.3-0.3-0.3
		c0,0,0,0,0,0C107.3,494.7,107.1,494.8,107.1,495L107.1,495z M107.6,488.2c0,0.2,0.1,0.3,0.3,0.3c0.2,0,0.3-0.1,0.3-0.3c0,0,0,0,0,0
		c0-0.2-0.1-0.3-0.3-0.3c0,0,0,0,0,0C107.7,487.9,107.6,488,107.6,488.2L107.6,488.2z M108,481.4c0,0.2,0.1,0.3,0.3,0.3h0
		c0.1,0,0.3-0.1,0.3-0.2c0,0,0,0,0,0c0-0.2-0.1-0.3-0.3-0.3c0,0,0,0,0,0C108.2,481.1,108.1,481.2,108,481.4L108,481.4z M94,487.8
		c-0.1,0.1,0,0.3,0.1,0.4c0.1,0.1,0.3,0,0.4-0.1c0.1-0.1,0-0.3-0.1-0.4C94.3,487.6,94.1,487.6,94,487.8L94,487.8z M97.1,481.7
		c-0.1,0.1,0,0.3,0.1,0.4c0,0,0,0,0,0c0.1,0.1,0.3,0,0.4-0.1c0.1-0.1,0-0.3-0.1-0.4C97.3,481.5,97.1,481.5,97.1,481.7L97.1,481.7z
		 M120,490c0,0.1,0.2,0.2,0.3,0.2c0,0,0,0,0,0c0.1,0,0.2-0.2,0.2-0.4c0,0,0,0,0,0c-0.1-0.1-0.2-0.2-0.4-0.2
		C120.1,489.7,120,489.8,120,490C120,490,120,490,120,490L120,490z M117.9,483.5c0.1,0.1,0.2,0.2,0.4,0.2c0.1-0.1,0.2-0.2,0.2-0.4
		c-0.1-0.1-0.2-0.2-0.3-0.2C117.9,483.2,117.8,483.4,117.9,483.5C117.8,483.5,117.9,483.5,117.9,483.5L117.9,483.5z M79.2,489.3
		c-0.1,0.2,0,0.4,0.2,0.4c0.2,0.1,0.4,0,0.4-0.1c0.1-0.2,0-0.4-0.2-0.4C79.5,489.1,79.3,489.2,79.2,489.3L79.2,489.3z M82.7,482.2
		c-0.1,0.2,0,0.4,0.1,0.4s0.4,0,0.4-0.1c0.1-0.2,0-0.4-0.1-0.4C83,482,82.8,482.1,82.7,482.2L82.7,482.2z M112.3,491.5
		c0.1,0.2,0.3,0.3,0.4,0.2c0.2-0.1,0.3-0.3,0.2-0.4c-0.1-0.2-0.2-0.2-0.4-0.2C112.3,491.2,112.3,491.3,112.3,491.5L112.3,491.5z
		 M109.7,484.1c0.1,0.2,0.2,0.3,0.4,0.2c0.2-0.1,0.3-0.2,0.2-0.4c-0.1-0.2-0.2-0.3-0.4-0.2C109.8,483.7,109.7,483.9,109.7,484.1
		L109.7,484.1z M95.2,490c0,0.2,0.1,0.3,0.3,0.3c0.2,0,0.3-0.1,0.3-0.3c0-0.2-0.1-0.3-0.3-0.3c0,0,0,0,0,0
		C95.4,489.7,95.2,489.8,95.2,490L95.2,490L95.2,490z M95.7,482.1c0,0.2,0.1,0.3,0.3,0.3h0c0.2,0,0.3-0.1,0.3-0.3l0,0
		c0-0.2-0.1-0.3-0.3-0.3C95.8,481.8,95.7,481.9,95.7,482.1L95.7,482.1z M89.9,491c0,0.2,0.1,0.3,0.3,0.3c0.2,0,0.3-0.1,0.3-0.3
		c0-0.2-0.1-0.3-0.3-0.3C90.1,490.7,89.9,490.8,89.9,491L89.9,491z M90.7,483.2c0,0.2,0.1,0.3,0.3,0.4c0.2,0,0.3-0.1,0.4-0.3
		c0-0.2-0.1-0.3-0.3-0.4C90.9,482.9,90.7,483,90.7,483.2L90.7,483.2z M105.4,485.6c0.1,0.2,0.2,0.3,0.4,0.2c0.2-0.1,0.3-0.2,0.2-0.4
		c0-0.2-0.2-0.3-0.4-0.2c0,0,0,0,0,0C105.4,485.2,105.3,485.4,105.4,485.6C105.4,485.6,105.4,485.6,105.4,485.6L105.4,485.6z" style="fill:#FFFFFF;"/>
</g>
</svg>