<?xml version="1.0" encoding="iso-8859-1" ?>
<svg version="1.1" xmlns="http://www.w3.org/2000/svg" xmlns:xlink="http://www.w3.org/1999/xlink" 
    viewBox="0 0 500 500" width="500" height="500">
    
    
    <!-- ITEM 0 -->
    <g>
        <defs>
            <clipPath id="clip-path-id-viewbox-item-0">
                <rect x="0.0" y="0.0" width="686.704" height="435.396"/>
            </clipPath>
        </defs>
        <g transform="translate(54.0 74.0) rotate(0.0 194.0 123.0) scale(0.5650178242736318 0.5650028939172616)">
            <g clip-path="url(#clip-path-id-viewbox-item-0)" transform="translate(-0.0 -0.0)">
                
<g>
	
		<linearGradient id="SVGID_7_-i0" gradientUnits="userSpaceOnUse" x1="5258.0601" y1="-522.4006" x2="5258.0601" y2="-848.9078" gradientTransform="matrix(-0.97 0.23 0.23 0.97 5844.7876 -388.9233)">
		<stop offset="0" style="stop-color:#F9D5FF"></stop>
		<stop offset="0.17" style="stop-color:#F9D5FC"></stop>
		<stop offset="0.32" style="stop-color:#F9D5F1"></stop>
		<stop offset="0.45" style="stop-color:#FAD6E0"></stop>
		<stop offset="0.58" style="stop-color:#FBD7C7"></stop>
		<stop offset="0.71" style="stop-color:#FCD8A7"></stop>
		<stop offset="0.83" style="stop-color:#FDD97F"></stop>
		<stop offset="0.95" style="stop-color:#FEDA52"></stop>
		<stop offset="1" style="stop-color:#FFDB40"></stop>
	</linearGradient>
	<path fill="url(#SVGID_7_-i0)" d="M529.185,257.511c-16.778-28.031-17.187-138.107-25.371-168.9   c-2.762-10.332-13.095-25.575-18.517-40.307c-6.854-18.414,13.913-34.885,30.384-24.041c5.524,3.683,10.537,8.184,14.834,13.197   c1.739,2.046,3.785,3.581,6.138,4.706c7.366,3.785,14.936,7.366,25.371,12.685c36.01,18.21,30.793,59.233,47.775,78.363   c16.982,19.13,41.125,16.573,59.642,44.706C733.789,275.721,602.843,380.171,529.185,257.511z"></path>
	<circle fill="#BFD9FF" cx="362.843" cy="220.068" r="3.069"></circle>
	<circle fill="#BFD9FF" cx="430.362" cy="388.764" r="3.069"></circle>
	
		<linearGradient id="SVGID_18_-i0" gradientUnits="userSpaceOnUse" x1="71.3379" y1="590.8491" x2="71.3379" y2="777.6572" gradientTransform="matrix(1 0 0 1 242.4 -451.4839)">
		<stop offset="0" style="stop-color:#FFEFA1"></stop>
		<stop offset="1" style="stop-color:#FFFFFF"></stop>
	</linearGradient>
	<path fill="url(#SVGID_18_-i0)" d="M117.523,123.905h392.43c30.793,0,55.857,24.962,55.857,55.857v222.302l0,0H61.666l0,0V179.557   C61.666,148.764,86.73,123.905,117.523,123.905z"></path>
	<rect x="122.127" y="258.636" fill="#2B2B2B" width="50.435" height="54.527"></rect>
	<rect x="540.132" y="232.345" fill="#2B2B2B" width="25.678" height="54.834"></rect>
	
		<linearGradient id="SVGID_34_-i0" gradientUnits="userSpaceOnUse" x1="73.3328" y1="773.1491" x2="73.3328" y2="882.0317" gradientTransform="matrix(1 0 0 1 242.4 -451.4839)">
		<stop offset="0" style="stop-color:#FFEFA1"></stop>
		<stop offset="1" style="stop-color:#FFFFFF"></stop>
	</linearGradient>
	<rect x="102.382" y="316.948" fill="url(#SVGID_34_-i0)" width="426.701" height="85.115"></rect>
	<polygon fill="#2B2B2B" points="205.912,316.13 153.226,402.063 115.272,402.063 188.214,316.13  "></polygon>
	<polygon fill="#2B2B2B" points="358.955,319.506 352.919,402.063 324.991,402.063 346.679,316.13  "></polygon>
	
		<linearGradient id="SVGID_35_-i0" gradientUnits="userSpaceOnUse" x1="-144.0588" y1="712.7379" x2="-144.0588" y2="870.2174" gradientTransform="matrix(1 0 0 1 242.4 -451.4839)">
		<stop offset="0" style="stop-color:#FFEFA1"></stop>
		<stop offset="1" style="stop-color:#FFFFFF"></stop>
	</linearGradient>
	<path fill="url(#SVGID_35_-i0)" d="M88.162,260.784h20.256c14.629,0,26.496,11.867,26.496,26.496l0,0v114.783l0,0H61.769l0,0V287.281   C61.666,272.549,73.533,260.784,88.162,260.784z"></path>
	<polygon fill="#2B2B2B" points="557.83,433.777 565.707,433.777 565.707,402.063 545.451,402.063  "></polygon>
	<polygon fill="#2B2B2B" points="69.646,433.777 61.666,433.777 61.666,402.063 82.024,402.063  "></polygon>
	
		<linearGradient id="SVGID_36_-i0" gradientUnits="userSpaceOnUse" x1="12128.8398" y1="655.4946" x2="12128.8398" y2="868.0854" gradientTransform="matrix(-1 0 0 1 12617.7188 -451.4839)">
		<stop offset="0" style="stop-color:#EA979A"></stop>
		<stop offset="0.41" style="stop-color:#F2D38B"></stop>
		<stop offset="0.5" style="stop-color:#7E9DAE"></stop>
		<stop offset="0.6" style="stop-color:#90979D"></stop>
		<stop offset="1" style="stop-color:#7EBDDB"></stop>
	</linearGradient>
	<polygon fill="url(#SVGID_36_-i0)" points="492.766,293.623 565.707,249.736 543.303,175.567 412.05,251.373 417.677,249.122  "></polygon>
	
		<linearGradient id="SVGID_37_-i0" gradientUnits="userSpaceOnUse" x1="286.6832" y1="712.7379" x2="286.6832" y2="870.2174" gradientTransform="matrix(1 0 0 1 242.4 -451.4839)">
		<stop offset="0" style="stop-color:#FFEFA1"></stop>
		<stop offset="1" style="stop-color:#FFFFFF"></stop>
	</linearGradient>
	<path fill="url(#SVGID_37_-i0)" d="M565.707,402.063h-73.248l0,0V287.281c0-14.629,11.867-26.394,26.496-26.394h20.256   c14.629,0,26.496,11.867,26.496,26.496l0,0L565.707,402.063L565.707,402.063z"></path>
	<circle fill="#FFFFFF" cx="529.185" cy="310.299" r="7.57"></circle>
	<circle fill="#FFFFFF" cx="98.29" cy="310.299" r="7.57"></circle>
	
		<linearGradient id="SVGID_38_-i0" gradientUnits="userSpaceOnUse" x1="-63.7388" y1="535.6047" x2="-63.7388" y2="692.1738" gradientTransform="matrix(1 0 0 1 242.4 -451.4839)">
		<stop offset="0" style="stop-color:#F8809A"></stop>
		<stop offset="0.76" style="stop-color:#FFE651"></stop>
		<stop offset="1" style="stop-color:#FFEEC3"></stop>
	</linearGradient>
	<path fill="url(#SVGID_38_-i0)" d="M247.446,149.582l-58.005,73.76c-10.332,9.514-26.598,8.9-36.113-1.432   c-2.148-2.353-3.887-5.013-5.013-7.98l-0.614-1.535l-36.01-93.095c-5.32-13.811,1.432-29.156,15.243-34.476   s29.156,1.432,34.476,15.243l19.437,54.015l33.043-32.02L247.446,149.582z"></path>
	<path fill="#FDC068" d="M213.789,122.063l11.355-10.946c7.161-9.003,20.256-10.435,29.156-3.376   c8.286,6.547,10.332,18.312,4.706,27.212l-11.458,14.629L213.789,122.063z"></path>
	<path fill="#2B2B2B" d="M269.134,316.641l-69.565,0.818c-4.604,0.102-8.389-3.581-8.593-8.184l-0.409-11.151l68.133-1.739   l12.992,5.934l10.026-5.524c4.91-1.228,7.673,5.524,3.069,7.877L269.134,316.641z"></path>
	
		<linearGradient id="SVGID_39_-i0" gradientUnits="userSpaceOnUse" x1="898.6328" y1="-2216.938" x2="898.6328" y2="-1909.1295" gradientTransform="matrix(0.8588 -0.5123 0.5123 0.8588 532.1478 2486.2417)">
		<stop offset="0" style="stop-color:#6B9C83"></stop>
		<stop offset="0.4" style="stop-color:#A6A6A4"></stop>
		<stop offset="0.5" style="stop-color:#9F9FC8"></stop>
		<stop offset="0.59" style="stop-color:#9FCCEC"></stop>
		<stop offset="1" style="stop-color:#FFE7B0"></stop>
	</linearGradient>
	<path fill="url(#SVGID_39_-i0)" d="M57.574,161.04h107.008c0,0,65.575-60.665,88.491-70.077c24.041-8.082,43.171,8.798,43.171,31.816   s-26.701,173.504-26.701,173.504l-68.133,1.739l7.775-63.529l-23.018,10.23L57.574,161.04z"></path>
	<path fill="#2B2B2B" d="M295.835,304.672l-8.593-98.619l3.069-35.294l-10.742-4.706c-2.558-1.228-5.524-0.818-7.775,0.921   c-6.957,5.422-24.143,19.54-40.409,16.573c-21.483-3.887-25.269,114.578-25.269,114.578L295.835,304.672z"></path>
	
		<linearGradient id="SVGID_40_-i0" gradientUnits="userSpaceOnUse" x1="-82.7203" y1="612.5242" x2="-82.7203" y2="920.3326" gradientTransform="matrix(1 0 0 1 242.4 -451.4839)">
		<stop offset="0" style="stop-color:#6B9C83"></stop>
		<stop offset="0.4" style="stop-color:#A6A6A4"></stop>
		<stop offset="0.5" style="stop-color:#9F9FC8"></stop>
		<stop offset="0.59" style="stop-color:#9FCCEC"></stop>
		<stop offset="1" style="stop-color:#FFE7B0"></stop>
	</linearGradient>
	<path fill="url(#SVGID_40_-i0)" d="M263.508,211.987c-2.864-22.302-23.223-37.136-45.627-35.09   c-10.537,0.921-68.133,0.921-68.133,0.921L57.677,161.04c-15.243,97.903,53.504,106.701,99.233,107.519L82.024,383.751   l52.379,19.437L254.71,242.882l0.205-0.205C261.769,234.084,264.94,222.933,263.508,211.987z"></path>
	<g>
		<path fill="#2B2B2B" d="M264.531,213.112c-0.512,0-1.023-0.409-1.125-0.921c-2.762-21.074-22.302-36.113-44.399-34.169    c-10.537,0.921-83.069,0.921-86.138,0.921c-0.614,0-1.125-0.512-1.125-1.125c0-0.614,0.512-1.125,1.125-1.125    c0.716,0,75.499,0,85.933-0.921c23.325-2.046,43.887,13.811,46.752,36.01C265.656,212.396,265.145,213.01,264.531,213.112    L264.531,213.112z"></path>
	</g>
	
		<linearGradient id="SVGID_41_-i0" gradientUnits="userSpaceOnUse" x1="10948.4121" y1="1663.3966" x2="10948.4121" y2="1819.9656" gradientTransform="matrix(-0.98 -0.2 -0.2 0.98 11190.124 637.9227)">
		<stop offset="0" style="stop-color:#F8809A"></stop>
		<stop offset="0.76" style="stop-color:#FFE651"></stop>
		<stop offset="1" style="stop-color:#FFEEC3"></stop>
	</linearGradient>
	<path fill="url(#SVGID_41_-i0)" d="M164.684,161.04c0.409-14.322-17.084-16.061-7.366-34.476s3.887-46.445-18.107-48.798   c-16.982-1.841-18.107-2.66-25.269-3.478c-22.609-2.558-41.944,30.384-56.368,86.752L164.684,161.04L164.684,161.04z"></path>
	<g>
		<path fill="#2B2B2B" d="M164.684,162.166L164.684,162.166c-0.716,0-1.125-0.512-1.125-1.125c0.102-5.524-2.455-8.9-5.217-12.481    c-3.99-5.422-8.184-10.946-2.046-22.404c0.307-0.512,0.921-0.716,1.432-0.409c0.512,0.307,0.716,0.921,0.409,1.432    c-5.422,10.332-2.046,14.834,1.944,20.051c2.762,3.785,5.729,7.673,5.627,13.913C165.707,161.654,165.298,162.166,164.684,162.166    z"></path>
	</g>
	<path fill="#2B2B2B" d="M142.792,78.38c0,0,9.821,2.251,13.402,9.719l-18.517,5.933L142.792,78.38z"></path>
	<path fill="#FDC068" d="M128.981,94.033l-23.734-13.402l18.926-35.703l31.509,5.115l-13.402,37.34   c-0.614,4.91-4.91,8.389-9.821,7.775C131.129,94.953,130.004,94.544,128.981,94.033z"></path>
	<polygon fill="#2B2B2B" points="148.009,71.015 133.891,62.83 142.178,87.281  "></polygon>
	<path fill="#FDC068" d="M166.833,435.107l-83.171-29.974c-4.399-1.535-6.65-6.343-5.217-10.742l3.581-10.537l52.379,19.437   l36.317,24.246C174.812,430.298,171.641,436.846,166.833,435.107z"></path>
	<path fill="#2B2B2B" d="M67.907,127.076l14.936,6.343L57.574,161.04C57.574,161.04,61.973,142.421,67.907,127.076z"></path>
	<path fill="#FDC068" d="M198.137,30.196c0,5.217-1.432,10.537-4.297,15.448l-2.762,4.604l-3.376,5.729l-8.082,13.402   c-6.036,10.026-19.028,13.299-29.054,7.263l0,0L133.38,66.309c-8.9-5.32-11.662-16.777-6.445-25.678l15.448-25.882   c8.491-14.22,26.905-18.824,41.125-10.332l0,0C192.92,10.145,198.137,20.068,198.137,30.196z"></path>
	<path fill="none" d="M150.567,76.539l-17.084-10.332c-8.9-5.32-11.662-16.777-6.445-25.678l15.448-25.882   c8.491-14.22,26.905-18.824,41.125-10.332l0,0l0,0c14.118,8.491,18.721,26.905,10.332,41.125l0,0l-14.22,23.734   C173.687,79.301,160.694,82.575,150.567,76.539L150.567,76.539z"></path>
	<g>
		<path fill="#2B2B2B" d="M191.078,50.247l-3.376,5.729c-0.716-0.614-1.125-1.432-1.125-2.558c0-1.841,1.432-3.376,3.376-3.376    C190.362,49.94,190.771,50.043,191.078,50.247z"></path>
	</g>
	<g>
		<path fill="#2B2B2B" d="M181.359,58.329h-3.274c-0.614,0-1.125-0.512-1.125-1.125c0-0.614,0.512-1.125,1.125-1.125h3.069    c0.716-0.102,1.125-0.716,1.023-1.432l-1.023-6.547c-0.102-0.614,0.307-1.228,0.921-1.228c0.614-0.102,1.228,0.307,1.228,0.921    l1.023,6.547c0.307,1.841-0.921,3.581-2.762,3.887L181.359,58.329z"></path>
	</g>
	<g>
		<path fill="#2B2B2B" d="M174.812,68.457c-0.716,0-1.432-0.102-2.148-0.409c-3.274-1.432-4.194-5.933-4.194-6.036    c-0.102-0.614,0.307-1.228,0.921-1.33c0.614-0.102,1.228,0.307,1.33,0.921c0.205,0.921,1.125,3.683,2.967,4.501    c1.125,0.409,2.455,0.307,3.99-0.716c0.512-0.307,1.228-0.102,1.535,0.409c0.307,0.512,0.102,1.228-0.409,1.535    C177.37,68.15,176.04,68.457,174.812,68.457z"></path>
	</g>
	<circle fill="#2B2B2B" cx="173.278" cy="43.598" r="3.376"></circle>
	<path fill="#565656" d="M198.137,31.526c-1.535,7.673-14.936-2.762-21.381-11.458c-1.33-1.739-3.785-2.046-5.524-0.716   c-0.307,0.205-0.512,0.409-0.716,0.716l-9.105,11.867c-1.637,2.148-4.194,3.274-6.854,2.864l-6.547-0.818l-10.026,10.332   c-3.99,4.194-10.435,4.91-15.243,1.739l0,0c0,0,15.038-23.939,21.586-34.169s22.916-16.777,39.284-7.263   S198.137,31.526,198.137,31.526z"></path>
	<path fill="#FDC068" d="M145.042,38.892L145.042,38.892c-2.353-1.432-3.069-4.604-1.739-7.059l3.887-6.343   c1.432-2.353,4.604-3.069,7.059-1.739l0,0c2.353,1.432,3.069,4.604,1.739,7.059l-3.887,6.343   C150.567,39.506,147.497,40.324,145.042,38.892z"></path>
	<path fill="#FDC068" d="M45.298,249.429l-4.194,20.46c-2.353,11.253-13.402,18.312-24.655,15.959   c-10.23-2.251-17.289-11.662-16.368-22.097l1.432-16.368L45.298,249.429z"></path>
	<path fill="#2B2B2B" d="M88.469,161.04l-29.565,53.606c0,0-4.706-16.266-3.376-32.634l25.166-20.87L88.469,161.04z"></path>
	
		<linearGradient id="SVGID_42_-i0" gradientUnits="userSpaceOnUse" x1="-177.3584" y1="540.1867" x2="-177.3584" y2="695.2975" gradientTransform="matrix(1 0 0 1 242.4 -451.4839)">
		<stop offset="0" style="stop-color:#F8809A"></stop>
		<stop offset="0.76" style="stop-color:#FFE651"></stop>
		<stop offset="1" style="stop-color:#FFEEC3"></stop>
	</linearGradient>
	<path fill="url(#SVGID_42_-i0)" d="M1.513,247.383L8.06,170.35c0.409-5.217,2.762-10.23,6.547-13.913l1.125-1.125L85.196,86.36   c10.435-10.332,22.404-6.547,32.839,3.887c10.332,10.435,15.141,23.632,4.706,33.964l-64.757,64.143L45.4,249.327L1.513,247.383z"></path>
	<path fill="#EA7068" d="M495.733,195.414l-9.719,9.514l-0.921,0.921c-6.036,5.729-16.164,6.036-23.939,3.069l-62.506-23.529   l-17.494-6.547c-9.514-3.887-14.015-14.629-10.23-24.143c3.376-8.389,12.276-12.992,20.972-11.151l0.512,0.102l68.44,16.471   L495.733,195.414z"></path>
	<path fill="#2B2B2B" d="M398.546,185.49l-17.494-6.547c-9.514-3.887-14.015-14.629-10.23-24.143   c3.376-8.389,12.276-12.992,20.972-11.151l0.512,0.102C400.285,150.094,411.641,165.132,398.546,185.49z"></path>
	<path fill="#4C7DE0" d="M460.848,160.324l38.465-37.442c9.412-9.105,24.45-8.798,33.453,0.716   c9.003,9.309,8.798,24.246-0.409,33.35l-38.159,37.136L460.848,160.324z"></path>
	<path fill="#2B2B2B" d="M532.561,407.178c3.581-1.944,5.013-6.445,3.171-10.128l-4.501-9.003l-43.887,24.041l-18.005,14.322   h-10.332c-4.399,1.125-3.581,7.673,0.921,7.57l15.448-0.102c4.604,0,9.207-1.228,13.299-3.376L532.561,407.178z"></path>
	
		<linearGradient id="SVGID_43_-i0" gradientUnits="userSpaceOnUse" x1="12154.2773" y1="655.4946" x2="12154.2773" y2="868.0854" gradientTransform="matrix(-1 0 0 1 12617.7188 -451.4839)">
		<stop offset="0" style="stop-color:#EA979A"></stop>
		<stop offset="0.41" style="stop-color:#F2D38B"></stop>
		<stop offset="0.5" style="stop-color:#7E9DAE"></stop>
		<stop offset="0.6" style="stop-color:#90979D"></stop>
		<stop offset="1" style="stop-color:#7EBDDB"></stop>
	</linearGradient>
	<path fill="url(#SVGID_43_-i0)" d="M417.677,249.122c-16.266,6.138-25.269,23.632-20.767,40.409l90.435,122.558l43.785-24.041   l-38.465-94.527L417.677,249.122z"></path>
	<path fill="#2B2B2B" d="M479.467,315.925c15.959,14.322,30.179,19.13,30.179,19.13l-16.778-41.432c0,0-5.013-21.279,13.913-29.872   l-45.729,5.217C460.95,268.969,460.95,299.352,479.467,315.925z"></path>
	<path fill="#4C7DE0" d="M404.48,267.127h-50.332l1.535,52.788h34.578c11.867,0,21.483-9.616,21.381-21.586   c0-1.739-0.205-3.478-0.716-5.115L404.48,267.127z"></path>
	<path fill="#2B2B2B" d="M363.252,287.281l19.642-2.66c0,0,6.752,20.767,17.289,25.678v-51.662l-44.501,13.708L363.252,287.281z"></path>
	
		<linearGradient id="SVGID_44_-i0" gradientUnits="userSpaceOnUse" x1="12130.4766" y1="655.4946" x2="12130.4766" y2="868.0854" gradientTransform="matrix(-1 0 0 1 12617.7188 -451.4839)">
		<stop offset="0" style="stop-color:#EA979A"></stop>
		<stop offset="0.41" style="stop-color:#F2D38B"></stop>
		<stop offset="0.5" style="stop-color:#7E9DAE"></stop>
		<stop offset="0.6" style="stop-color:#90979D"></stop>
		<stop offset="1" style="stop-color:#7EBDDB"></stop>
	</linearGradient>
	<path fill="url(#SVGID_44_-i0)" d="M386.27,235.516c2.558-19.949,20.767-29.156,40.818-31.407c10.639-1.228,63.632-5.524,63.632-5.524   l95.754-8.593c14.425,77.238-61.995,73.043-119.079,70.793l1.739,154.885l-49.923,1.637   C419.109,417.409,384.94,245.746,386.27,235.516z"></path>
	<path fill="#2B2B2B" d="M421.769,254.851c0,0,19.54,48.798,11.56,61.995c-7.877,12.992-24.962,9.003-33.555,0.818l-7.366-37.852   L421.769,254.851z"></path>
	<path fill="#4C7DE0" d="M586.372,189.889l-95.754,8.593c-2.762-25.678,15.243-22.916,6.547-39.488   c-5.32-10.026-5.422-23.427-0.205-32.737c3.376-5.831,8.696-10.128,16.368-10.946c1.739-0.205,3.274-0.409,4.706-0.512   c10.844-1.228,12.174-1.944,17.903-2.558C556.193,110.094,573.482,139.455,586.372,189.889z"></path>
	<g>
		<path fill="#2B2B2B" d="M491.232,190.81c-0.102,0-0.102,0-0.102,0c-0.512-0.102-0.921-0.614-0.716-1.125    c1.023-5.524,3.171-9.514,5.013-12.89c3.069-5.524,5.217-9.412,1.023-17.289c-1.33-2.558-2.353-5.422-3.069-8.184    c-0.102-0.512,0.205-1.023,0.716-1.228c0.512-0.102,1.023,0.205,1.228,0.716c0.716,2.762,1.637,5.32,2.864,7.775    c4.604,8.798,2.046,13.504-1.023,19.13c-1.739,3.274-3.887,7.059-4.808,12.276C492.152,190.503,491.641,190.81,491.232,190.81z"></path>
	</g>
	<path fill="#2B2B2B" d="M382.587,435.107l79.079-1.739c4.194-0.102,7.468-3.478,7.468-7.673v-10.026l-49.923,1.637l-37.647,10.23   C377.063,428.662,377.983,435.209,382.587,435.107z"></path>
	<path fill="#EA7068" d="M500.029,100.068l19.642-3.376c10.128-1.739,16.982-11.356,15.243-21.586l-5.115-29.668   c-2.762-16.266-18.312-27.212-34.578-24.45l0,0c-16.266,2.762-27.212,18.312-24.45,34.578l4.706,27.212   C477.523,94.237,488.469,102.012,500.029,100.068z"></path>
	<path fill="none" d="M519.671,96.692l-19.642,3.376c-11.56,2.046-22.506-5.729-24.552-17.289l-2.66-15.448l-1.125-6.547   l-0.921-5.217c-0.307-1.739-0.409-3.376-0.409-5.115c0-14.322,10.332-26.905,24.859-29.463c16.266-2.762,31.714,8.184,34.578,24.45   l5.115,29.668C536.654,85.337,529.902,94.953,519.671,96.692z"></path>
	<g>
		<path fill="#2B2B2B" d="M475.068,64.16c0,1.432-0.921,2.66-2.148,3.171l-1.125-6.547C473.636,60.887,475.068,62.319,475.068,64.16    z"></path>
	</g>
	<path fill="#2B2B2B" d="M518.035,114.8l-4.092,16.88l-16.982-5.32c3.376-5.831,8.696-10.128,16.368-10.946   C515.17,115.209,516.705,115.004,518.035,114.8z"></path>
	<path fill="#EA7068" d="M521.308,131.066l23.734-13.606l-12.276-55.55l-31.407,5.422l6.854,57.187   c0.614,4.91,5.013,8.286,9.923,7.673C519.16,131.884,520.285,131.577,521.308,131.066z"></path>
	<g>
		<path fill="#F9F179" d="M468.009,75.004c-5.524,0-10.026-4.501-10.026-10.026s4.501-10.026,10.026-10.026    c5.524,0,10.026,4.501,10.026,10.026S473.533,75.004,468.009,75.004z M468.009,56.692c-4.501,0-8.184,3.581-8.184,8.184    c0,4.501,3.581,8.184,8.184,8.184s8.184-3.581,8.184-8.184C476.091,60.375,472.408,56.692,468.009,56.692z"></path>
	</g>
	<g>
		<path fill="#2B2B2B" d="M481.308,72.958c-0.102,0-0.205,0-0.409-0.102l-3.171-1.228c-0.716-0.409-1.228-1.228-1.432-2.046    c-0.205-0.818-0.102-1.739,0.409-2.558l3.376-5.729c0.307-0.409,0.921-0.614,1.33-0.409c0.409,0.307,0.614,0.921,0.409,1.33    l-3.376,5.729c-0.409,0.716-0.102,1.432,0.409,1.841l2.864,1.125c0.512,0.205,0.716,0.716,0.512,1.228    C482.024,72.754,481.717,72.958,481.308,72.958z"></path>
	</g>
	<g>
		<path fill="#2B2B2B" d="M485.707,83.393c-2.762,0-4.501-2.148-4.604-2.251c-0.409-0.409-0.307-1.023,0.102-1.33    c0.409-0.409,1.023-0.307,1.33,0.102c0,0,1.33,1.535,3.069,1.535c1.33,0,2.66-0.921,3.887-2.455    c0.307-0.409,0.921-0.512,1.33-0.102c0.409,0.307,0.512,0.921,0.102,1.33C489.492,82.37,487.651,83.393,485.707,83.393    L485.707,83.393z"></path>
	</g>
	<polygon fill="#2B2B2B" points="505.042,99.25 517.932,96.999 506.577,111.935  "></polygon>
	<circle fill="#2B2B2B" cx="490.822" cy="60.989" r="3.376"></circle>
	<g>
		<path fill="#F9F179" d="M491.641,70.912c-5.524,0-10.026-4.501-10.026-10.026s4.501-10.026,10.026-10.026    c5.524,0,10.026,4.501,10.026,10.026C501.871,66.411,497.267,70.912,491.641,70.912z M491.641,52.703    c-4.501,0-8.184,3.581-8.184,8.184c0,4.501,3.581,8.184,8.184,8.184s8.184-3.581,8.184-8.184S496.244,52.703,491.641,52.703z"></path>
	</g>
	
		<linearGradient id="SVGID_45_-i0" gradientUnits="userSpaceOnUse" x1="5311.3467" y1="-519.3509" x2="5311.3467" y2="-852.409" gradientTransform="matrix(-0.97 0.23 0.23 0.97 5844.7876 -388.9233)">
		<stop offset="0" style="stop-color:#F9D5FF"></stop>
		<stop offset="0.17" style="stop-color:#F9D5FC"></stop>
		<stop offset="0.32" style="stop-color:#F9D5F1"></stop>
		<stop offset="0.45" style="stop-color:#FAD6E0"></stop>
		<stop offset="0.58" style="stop-color:#FBD7C7"></stop>
		<stop offset="0.71" style="stop-color:#FCD8A7"></stop>
		<stop offset="0.83" style="stop-color:#FDD97F"></stop>
		<stop offset="0.95" style="stop-color:#FEDA52"></stop>
		<stop offset="1" style="stop-color:#FFDB40"></stop>
	</linearGradient>
	<path fill="url(#SVGID_45_-i0)" d="M547.088,114.288c-35.806-10.844-30.384-15.448-40.205-44.194   c-8.184-23.734-38.772-18.414-32.839-33.76c4.194-10.742,17.903-18.414,33.043-15.448c15.141,3.069,30.384,24.143,34.578,40.818   C545.861,78.585,547.088,114.288,547.088,114.288z"></path>
	<path fill="#EA7068" d="M613.175,164.416l17.801,17.801l0.818,0.818c3.069,3.069,5.013,6.957,5.729,11.253l15.652,101.381   c1.534,10.026-5.32,19.54-15.448,21.074c-9.309,1.432-18.312-4.399-20.767-13.504l-24.041-91.765l-13.708-13.708L613.175,164.416z"></path>
	<path fill="#4C7DE0" d="M579.416,197.664l-43.888-43.478c-9.309-9.207-5.933-21.688,3.376-30.895s20.767-11.867,30.077-2.66   l44.297,43.785L579.416,197.664z"></path>
	
		<linearGradient id="SVGID_46_-i0" gradientUnits="userSpaceOnUse" x1="64.91" y1="656.3607" x2="64.91" y2="744.7608" gradientTransform="matrix(1 0 0 1 242.4 -451.4839)">
		<stop offset="0" style="stop-color:#F9D5FF"></stop>
		<stop offset="0.17" style="stop-color:#F9D5FC"></stop>
		<stop offset="0.32" style="stop-color:#F9D5F1"></stop>
		<stop offset="0.45" style="stop-color:#FAD6E0"></stop>
		<stop offset="0.58" style="stop-color:#FBD7C7"></stop>
		<stop offset="0.71" style="stop-color:#FCD8A7"></stop>
		<stop offset="0.83" style="stop-color:#FDD97F"></stop>
		<stop offset="0.95" style="stop-color:#FEDA52"></stop>
		<stop offset="1" style="stop-color:#FFDB40"></stop>
	</linearGradient>
	<path fill="url(#SVGID_46_-i0)" d="M349.339,240.017c-10.026,10.332-21.176,19.335-32.532,28.235   c-10.946,8.696-21.893,16.982-33.862,24.246c-7.366,4.399-16.982,1.841-21.279-5.524c-3.171-5.524-2.762-12.379,1.125-17.391   c4.399-5.627,9.207-10.844,14.015-15.959c14.322-15.345,29.872-30.384,46.547-42.967c8.696-6.547,20.972-4.91,27.621,3.683   C357.012,222.012,356.295,233.061,349.339,240.017L349.339,240.017z"></path>
	
		<linearGradient id="SVGID_47_-i0" gradientUnits="userSpaceOnUse" x1="152.5595" y1="652.9334" x2="152.5595" y2="741.3334" gradientTransform="matrix(1 0 0 1 242.4 -451.4839)">
		<stop offset="0" style="stop-color:#F9D5FF"></stop>
		<stop offset="0.17" style="stop-color:#F9D5FC"></stop>
		<stop offset="0.32" style="stop-color:#F9D5F1"></stop>
		<stop offset="0.45" style="stop-color:#FAD6E0"></stop>
		<stop offset="0.58" style="stop-color:#FBD7C7"></stop>
		<stop offset="0.71" style="stop-color:#FCD8A7"></stop>
		<stop offset="0.83" style="stop-color:#FDD97F"></stop>
		<stop offset="0.95" style="stop-color:#FEDA52"></stop>
		<stop offset="1" style="stop-color:#FFDB40"></stop>
	</linearGradient>
	<path fill="url(#SVGID_47_-i0)" d="M403.252,215.976c7.877,14.425,13.402,30.179,17.289,46.138c1.637,6.445,4.604,14.322,2.66,20.87   c-1.739,5.729-6.547,10.128-12.583,11.151c-13.504,2.251-20.256-13.504-25.882-23.12c-7.161-12.481-13.606-25.985-17.801-39.795   c-3.171-10.435,2.762-21.483,13.197-24.552C389.134,203.802,398.751,207.69,403.252,215.976L403.252,215.976z"></path>
	
		<linearGradient id="SVGID_48_-i0" gradientUnits="userSpaceOnUse" x1="112.719" y1="656.3607" x2="112.719" y2="744.7608" gradientTransform="matrix(1 0 0 1 242.4 -451.4839)">
		<stop offset="0" style="stop-color:#F9D5FF"></stop>
		<stop offset="0.17" style="stop-color:#F9D5FC"></stop>
		<stop offset="0.32" style="stop-color:#F9D5F1"></stop>
		<stop offset="0.45" style="stop-color:#FAD6E0"></stop>
		<stop offset="0.58" style="stop-color:#FBD7C7"></stop>
		<stop offset="0.71" style="stop-color:#FCD8A7"></stop>
		<stop offset="0.83" style="stop-color:#FDD97F"></stop>
		<stop offset="0.95" style="stop-color:#FEDA52"></stop>
		<stop offset="1" style="stop-color:#FFDB40"></stop>
	</linearGradient>
	<path fill="url(#SVGID_48_-i0)" d="M396.193,266.923l-78.875,7.877c-2.046-12.481-6.547-17.187-13.402-32.839l0,0   c0-0.102,0-0.307,0-0.409c0-0.409-0.102-0.921-0.102-1.33h0.102c0.512-12.992,12.685-29.054,29.77-34.271   c3.376-1.023,6.752-1.637,10.23-1.739l20.358-1.33h0.102c3.99-0.102,7.98,0.307,11.867,1.228c1.739,0.409,3.478,1.023,5.217,1.739   c15.243,6.24,24.859,20.767,24.962,31.714C406.423,248.406,395.579,256.999,396.193,266.923z"></path>
	<path fill="#FFFFFF" d="M376.551,207.997c-0.614,11.867-10.639,20.972-22.506,20.358c-11.049-0.512-19.847-9.309-20.358-20.358   c0-0.716,0-1.33,0.102-2.046c3.376-1.023,6.752-1.637,10.23-1.739l20.358-1.33c3.99-0.102,7.98,0.307,11.867,1.228   C376.449,205.337,376.551,206.667,376.551,207.997z"></path>
	<path fill="#2B2B2B" d="M381.359,205.848l-15.038,13.197l-2.046-16.164h0.102c3.99-0.102,7.98,0.307,11.867,1.228   C377.881,204.621,379.723,205.235,381.359,205.848z"></path>
	<path fill="#EA7068" d="M371.538,210.35c-1.637,7.161-7.98,12.276-15.448,12.481h-1.228c-8.9,0.102-16.164-6.854-16.368-15.754   c0-0.102,0-0.307,0-0.409l0.409-49.207l29.565-1.023l2.455,36.317l0.921,12.788C372.05,207.178,371.948,208.815,371.538,210.35z"></path>
	<path fill="#2B2B2B" d="M371.538,210.35l-27.212-11.867l26.598-5.729l0.921,12.788C372.05,207.178,371.948,208.815,371.538,210.35z   "></path>
	<circle fill="#EA7068" cx="325.196" cy="166.769" r="11.151"></circle>
	<circle fill="#EA7068" cx="383.917" cy="166.769" r="11.151"></circle>
	<path id="_Path__3_-i0" fill="#EA7068" d="M354.352,200.529L354.352,200.529c-15.038,0-27.621-11.355-29.156-26.292l-1.432-6.752   c-3.99-18.824,9.412-37.136,28.542-38.465c0.716-0.102,1.432-0.102,2.251-0.102l0,0h1.125c19.642,0.716,33.657,19.437,29.463,38.67   l-1.432,6.65C381.973,189.276,369.288,200.529,354.352,200.529z"></path>
	<circle fill="#2B2B2B" cx="341.359" cy="167.997" r="2.762"></circle>
	<circle fill="#2B2B2B" cx="365.81" cy="167.997" r="2.967"></circle>
	<g>
		<path fill="#2B2B2B" d="M354.659,175.874c-0.205,0-0.409-0.102-0.614-0.102l-2.66-1.739c-1.432-1.228-1.535-3.274-0.409-4.706    c0.716-0.818,1.33-1.739,1.739-2.762c0.205-0.512,0.818-0.818,1.432-0.614c0.512,0.205,0.818,0.818,0.614,1.432    c-0.409,1.228-1.228,2.353-2.046,3.376c-0.409,0.409-0.409,1.228,0.102,1.535l2.455,1.637c0.512,0.307,0.716,0.921,0.307,1.432    C355.375,175.669,355.068,175.874,354.659,175.874z"></path>
	</g>
	<g>
		<path fill="#2B2B2B" d="M353.943,183.444c-2.967,0-6.036-1.944-6.547-6.138c-0.102-0.614,0.409-1.125,0.921-1.228    c0.614-0.102,1.125,0.409,1.228,0.921c0.409,3.171,2.558,4.297,4.501,4.194c2.148-0.102,4.604-1.432,4.808-4.706    c0.102-0.614,0.512-1.023,1.125-0.921c0.614,0.102,1.023,0.512,0.921,1.125C360.592,181.091,357.216,183.342,353.943,183.444    C354.045,183.444,353.943,183.444,353.943,183.444z"></path>
	</g>
	<path fill="#FEC73A" d="M325.4,168.508L325.4,168.508c1.228,0,2.251-0.921,2.251-2.251v-7.775c0-7.673,10.537-8.696,25.269-8.696   c14.629,0,27.11,0.716,27.417,7.366l0.921,9.207c0.102,1.228,1.023,2.046,2.251,2.046h0.409c1.125,0,2.046-0.818,2.251-2.046   l0.512-5.217c2.353-17.494-9.923-33.657-27.417-36.113c-1.432-0.205-2.967-0.307-4.501-0.307l0,0   c-17.698-0.102-32.123,14.22-32.225,31.918c0,1.33,0.102,2.66,0.205,3.887l0.614,5.729   C323.252,167.588,324.275,168.508,325.4,168.508z"></path>
	<path fill="#EA7068" d="M247.446,433.368h49.616c3.376-0.102,6.036-2.864,6.036-6.24l0.102-8.389l-39.182,0.409l-17.289,7.877   C243.252,427.843,243.866,433.368,247.446,433.368z"></path>
	<path fill="#EA7068" d="M253.278,275.004c2.251-10.435,6.24-20.46,10.435-30.179c3.99-9.309,7.877-18.21,13.299-26.803   c4.706-7.366,14.322-9.514,21.688-4.91c4.91,3.069,7.775,8.696,7.263,14.629c-0.921,10.537-3.171,20.87-6.036,31.1   c-2.66,9.719-5.217,19.54-9.412,28.747c-4.501,9.923-16.164,14.322-26.087,9.719C255.835,293.316,251.232,284.109,253.278,275.004   L253.278,275.004z"></path>
	<path fill="#EA7068" d="M391.794,289.736c-0.921-1.535-1.739-3.171-2.353-4.808c-6.854-16.982-12.174-35.499-13.811-53.811   c-0.818-8.696,5.524-16.266,14.22-17.084l0,0c6.036-0.614,12.481-0.716,15.141,4.194c10.23,18.721,19.13,39.284,23.734,58.824   c2.455,10.537-4.092,21.176-14.731,23.734C403.866,303.035,396.398,297.613,391.794,289.736z"></path>
	<path fill="#EA7068" d="M323.866,288.917c0,1.023-0.102,2.148-0.102,3.171c-0.409,3.99-0.921,7.366-1.125,8.798   c-1.432,9.309-17.391,105.064-19.335,116.624l0,0c-0.102,0.716-0.102,1.125-0.102,1.125l-39.182,0.921   c0.102-2.967-1.432-91.458,2.455-118.772c0.409-2.558,0.921-8.389,1.739-15.345c0.205-2.046,0.716-3.887,1.33-5.831l0.102-0.102   l0.102-0.409c5.422-14.425,21.483-21.79,36.01-16.471C316.602,266.923,323.866,277.255,323.866,288.917L323.866,288.917z"></path>
	<g>
		<path fill="#2B2B2B" d="M265.656,299.761c-0.102,0-0.102,0-0.102,0c-0.614-0.102-1.023-0.614-0.921-1.228    c0.102-0.716,1.841-15.55,7.366-23.632c0.409-0.512,1.023-0.716,1.535-0.307s0.716,1.023,0.307,1.535    c-5.217,7.673-6.956,22.506-6.956,22.609C266.679,299.352,266.168,299.761,265.656,299.761z"></path>
	</g>
	<path fill="#EA7068" d="M286.833,433.368h49.514c3.376-0.102,6.036-2.864,6.036-6.24l0.102-8.389l-39.182,0.409l-17.289,7.877   C282.638,427.843,283.252,433.368,286.833,433.368z"></path>
	<path fill="#EA7068" d="M363.252,288.917c0,1.023-0.102,2.148-0.102,3.171c-0.409,3.99-0.921,7.366-1.125,8.798   c-1.535,9.923-19.437,117.749-19.437,117.749l-39.182,0.921c0-0.205,0-0.921,0-2.046l0,0   c-0.102-14.015,2.864-120.102,3.171-122.762c0.307-2.66,0.716-5.729,1.023-9.207c0.716-6.343,3.581-12.072,8.082-16.471   c6.547-6.547,16.061-9.412,25.166-7.57c0.921,0.102,1.739,0.409,2.558,0.716c11.151,3.376,19.13,13.402,19.744,25.064   C363.252,287.894,363.252,288.406,363.252,288.917z"></path>
	<g>
		<path fill="#2B2B2B" d="M283.047,434.493c-0.614,0-1.125-0.409-1.125-1.125v-2.558c0-1.944,1.125-3.581,2.864-4.399l17.391-9.514    c0-16.88,2.864-119.898,3.171-122.251c0.102-0.614,0.614-1.023,1.228-0.921c0.614,0.102,1.023,0.614,0.921,1.228    c-0.307,2.251-3.171,107.928-3.171,122.66v0.716l-18.619,10.026c-0.921,0.409-1.637,1.432-1.637,2.455v2.558    C284.07,433.981,283.661,434.493,283.047,434.493z"></path>
	</g>
	<path fill="#2B2B2B" d="M363.252,287.281c-1.432,0.205-30.384,5.627-39.488,4.808c-5.831-0.409-11.765,0.512-17.187,2.66   l-36.931-15.038l0.102-0.102l0.102-0.409c5.422-14.425,21.483-21.79,35.908-16.471c3.785,1.432,7.059,3.581,10.026,6.343   c5.013-5.013,11.765-7.877,18.926-8.184l6.343,0.512c0.921,0.102,1.739,0.409,2.558,0.716   C354.659,265.593,362.536,275.618,363.252,287.281z"></path>
	<polygon fill="#FFCF30" points="324.991,284.621 281.001,266.923 281.001,173.828 324.991,191.628  "></polygon>
	<polygon fill="#FFCF30" points="396.193,266.923 336.04,284.621 336.04,191.628 396.193,173.828  "></polygon>
	<polygon fill="#FFFB54" points="389.646,230.401 342.587,244.314 342.587,207.69 389.646,193.777  "></polygon>
	<rect x="324.991" y="191.628" fill="#FFFB54" width="11.151" height="93.095"></rect>
	<path fill="#2B2B2B" d="M386.781,219.966c0,0-0.614,18.517,9.412,27.417l0.205-17.187L386.781,219.966z"></path>
	<path fill="#EA7068" d="M405.503,222.83c0,9.105-7.161,23.223-9.309,16.471c-1.228-3.683-6.445-9.003-8.696-16.471   c-2.558-8.696-1.944-16.471,5.217-16.471C399.774,206.36,405.503,213.828,405.503,222.83z"></path>
	<path fill="#EA7068" d="M288.879,225.593c-1.432,7.161-4.91,15.857-10.026,15.857c-5.115,0-4.194-7.673-4.194-15.038   c0-7.366,4.092-13.299,9.105-13.299C288.879,213.112,290.311,218.125,288.879,225.593z"></path>
	<g>
		<path fill="#2B2B2B" d="M469.646,389.173c-0.614,0-1.023-0.409-1.023-1.023l-2.251-120.921c0-0.614,0.409-1.125,1.023-1.125l0,0    c0.614,0,1.023,0.409,1.023,1.023l2.251,120.921C470.771,388.662,470.26,389.173,469.646,389.173L469.646,389.173z"></path>
	</g>
	<g>
		<path fill="#2B2B2B" d="M467.395,268.253c-0.614,0-1.125-0.409-1.125-1.125v-9.821c0-0.614,0.409-1.125,1.125-1.125    s1.125,0.409,1.125,1.125v9.821C468.52,267.741,468.009,268.253,467.395,268.253z"></path>
	</g>
	<g>
		<path fill="#2B2B2B" d="M86.73,162.37c-0.307,0-0.614-0.102-0.818-0.307c-0.409-0.409-0.409-1.125,0-1.535l22.609-22.404    c0.409-0.409,1.125-0.409,1.535,0c0.409,0.409,0.409,1.125,0,1.535l-22.609,22.302C87.242,162.166,87.037,162.37,86.73,162.37z"></path>
	</g>
	<g>
		<path fill="#2B2B2B" d="M156.909,269.582c-0.205,0-0.409-0.102-0.716-0.205c-0.512-0.409-0.614-1.023-0.307-1.535l7.775-11.049    c0.409-0.512,1.023-0.614,1.535-0.307c0.512,0.409,0.614,1.023,0.307,1.535l-7.775,11.049    C157.625,269.378,157.216,269.582,156.909,269.582z"></path>
	</g>
	<g>
		<path fill="#2B2B2B" d="M572.766,192.14c-0.307,0-0.614-0.102-0.818-0.307l-24.655-24.348c-0.409-0.409-0.409-1.125,0-1.535    s1.125-0.409,1.535,0l24.655,24.45c0.409,0.409,0.409,1.125,0,1.535C573.38,192.14,573.073,192.14,572.766,192.14z"></path>
	</g>
</g>

            </g>
        </g>
    </g>
    
</svg>