<?xml version="1.0" encoding="iso-8859-1" ?>
<svg version="1.1" xmlns="http://www.w3.org/2000/svg" xmlns:xlink="http://www.w3.org/1999/xlink" 
    viewBox="0 0 500 500" width="500" height="500">
    
    
    <!-- ITEM 0 -->
    <g>
        <defs>
            <clipPath id="clip-path-id-viewbox-item-0">
                <rect x="0.0" y="0.0" width="168.509" height="680.206"/>
            </clipPath>
        </defs>
        <g transform="translate(287.0 52.0) rotate(0.0 -50.5 204.5) scale(-0.5993745141209076 0.6012884332099393)">
            <g clip-path="url(#clip-path-id-viewbox-item-0)" transform="translate(-0.0 -0.0)">
                
<g>
	<g>
		<path style="fill:#FF564F;" d="M51.866,467.533l-24.788,3.876l14.769,185.484h7.243C48.2,652.663,51.866,467.533,51.866,467.533z"></path>
	</g>
	<g>
		<path style="fill:#FF564F;" d="M73.909,467.533l24.788,3.876L83.928,656.894h-7.243C77.575,652.663,73.909,467.533,73.909,467.533    z"></path>
	</g>
	<g>
		<path style="fill:#324A58;" d="M36.913,649.889l15.1,5.8c0,0,2.7,19,1.9,23.7h-3.9l-4.7-12c0,0-10.5,7-19,10.1    c-8.6,3.1-25.2,2.7-25.2,2.7L36.913,649.889z"></path>
	</g>
	<g>
		<path style="fill:#324A58;" d="M87.506,649.889l-15.1,5.8c0,0-2.7,19-1.9,23.7h3.9l4.7-12c0,0,10.5,7,19,10.1    c8.6,3.1,25.2,2.7,25.2,2.7L87.506,649.889z"></path>
	</g>
	<path style="fill:#FF564F;" d="M104.2,102.591L79.457,76.304l-30.362,5.095l-10.293,61.238c0.031,0,0.063,0,0.093,0   c2.544,0.077,4.737,0.072,6.108-0.806l0.287-0.133c3.097-1.816,11.454-6.798,13.23-30.444c0.013-0.424,0.377-0.767,0.801-0.754   c0.424,0.013,0.767,0.377,0.754,0.801c-1.803,24.493-10.661,29.672-13.976,31.694l-0.287,0.133   c-1.799,1.007-4.133,1.007-6.892,0.994c-2.544-0.077-5.376-0.021-8.16,0.814c-2.57,0.771-4.163,1.997-4.416,3.333   c-0.257,1.478,0.959,3.354,3.513,5.483c4.974,3.97,14.86,6.887,14.929,6.96c0.419,0.154,0.621,0.514,0.535,1.006   c-0.146,0.137-0.218,0.206-0.291,0.274c-0.219,0.206-0.433,0.27-0.784,0.188c-0.225-0.083-3.153-0.943-6.615-2.363   c0.056,7.833,0.999,58.21,15.889,61.922c15.251,3.884,22.23-10.431,29.149-24.586l16.445-39.769c0.67-2.234,1.16-6.878,1.16-6.878   s1.617,2.969,3.062,3.921c0.667,0.412,1.44,0.671,2.318,0.627c3.119-0.188,7.239-3.106,10.151-17.52S104.2,102.591,104.2,102.591z    M45.297,132.95l0.736-16.448c0.07-1.123,1.267-2.078,2.569-2.024c1.302,0.054,2.404,1.08,2.334,2.203l-1.451,17.329   C49.821,135.667,45.175,137.244,45.297,132.95z M66.71,135.301l4.092-18.65c0.299-1.269,1.671-2.143,2.94-1.844   c1.27,0.299,2.143,1.671,1.844,2.941l-4.976,19.525C70.601,139.228,65.71,140.183,66.71,135.301z M80.541,173.75   c-0.476,1.683-1.944,3.478-2.891,4.369c-4.369,4.112-12.362,1.748-12.435,1.817c-0.42-0.154-0.621-0.514-0.608-0.938   c0.154-0.419,0.514-0.621,0.938-0.608c0,0,2.6,0.574,5.44,0.235c3.624-0.527,6.01-2.224,7.024-5.376   c2.018-5.881,0.848-9.312,0.848-9.312c-0.129-0.429,0.025-0.849,0.454-0.977c0.429-0.128,0.848,0.026,0.977,0.454   C80.284,163.555,82.785,167.38,80.541,173.75z M94.885,129.898c-0.077,0.21-0.15,0.279-0.295,0.416   c-0.146,0.137-0.433,0.27-0.643,0.193c-0.42-0.154-0.694-0.445-0.608-0.938c0.004-0.141,0.664-3.234,2.471-6.858   c2.339-4.811,5.547-7.968,9.261-9.129c0.428-0.128,0.848,0.026,1.045,0.527c0.129,0.429-0.025,0.848-0.526,1.045   C97.587,117.742,94.957,129.83,94.885,129.898z M112.138,120.8c-3.116,1.312-5.343,3.043-6.941,4.848   c0.601,0.348,5.397,3.698,4.963,9.1c-0.283,2.326-1.542,4.198-2.853,5.432c-1.675,1.576-3.607,2.296-3.68,2.365   c-0.428,0.128-0.848-0.026-0.977-0.454s0.025-0.848,0.454-0.977c0.073-0.069,5.08-1.898,5.504-6.554   c0.355-4.729-4.297-7.629-4.365-7.702c-0.005-0.003-0.008-0.008-0.013-0.012c-2.997,4.097-3.064,8.174-3.067,8.266   c-0.15,0.278-0.227,0.488-0.373,0.625s-0.36,0.201-0.501,0.197c-0.424-0.013-0.767-0.377-0.754-0.801   c0.004-0.141,0.184-10.747,11.938-15.768c0.359-0.201,0.848,0.026,1.049,0.385C112.725,120.11,112.498,120.598,112.138,120.8z"></path>
	<path style="fill:#324A58;" d="M93.976,433.654c-0.767-0.313-1.135-1.189-0.821-1.956c0.312-0.766,1.184-1.136,1.953-0.822   c0.076,0.03,2.542,0.971,6.385,1.16l-0.668-19.5l-80.417-3.14l0.05,23.529c2.653,0.216,5.761-0.122,9.151-1.611   c0.762-0.337,1.644,0.011,1.977,0.77c0.334,0.759-0.011,1.644-0.77,1.977c-3.217,1.414-6.222,1.934-8.899,1.934   c-0.497,0-0.979-0.021-1.452-0.055l0.209,97.502l84.249-1.351l-3.325-97.014C97.104,434.893,94.194,433.743,93.976,433.654z"></path>
	<g>
		<path style="fill:#FF9B19;" d="M3.276,281.545c-0.43,0-0.827-0.278-0.957-0.711c-0.16-0.529,0.14-1.087,0.668-1.246l4.078-1.229    c0.535-0.167,1.087,0.14,1.246,0.668c0.16,0.529-0.14,1.087-0.668,1.246l-4.078,1.229C3.469,281.531,3.371,281.545,3.276,281.545z    "></path>
	</g>
	<g>
		<path style="fill:#FF9B19;" d="M4.974,289.923c-0.43,0-0.827-0.278-0.957-0.711c-0.16-0.528,0.14-1.087,0.668-1.246l4.574-1.381    c0.533-0.158,1.087,0.14,1.246,0.668c0.16,0.528-0.14,1.087-0.668,1.246l-4.574,1.381C5.167,289.909,5.07,289.923,4.974,289.923z"></path>
	</g>
	<g>
		<path style="fill:#FF9B19;" d="M6.786,297.847c-0.419,0-0.809-0.265-0.948-0.684c-0.175-0.524,0.108-1.091,0.632-1.265    l4.075-1.358c0.526-0.174,1.09,0.108,1.265,0.632c0.175,0.524-0.108,1.091-0.632,1.265l-4.075,1.358    C6.997,297.83,6.89,297.847,6.786,297.847z"></path>
	</g>
	<g>
		<path style="fill:#FF564F;" d="M5.956,256.58c-3.214,0-5.829-2.518-5.951-5.731c-0.061-1.591,0.501-3.11,1.583-4.277    c1.082-1.168,2.553-1.845,4.144-1.905l0.232-0.004c3.214,0,5.829,2.518,5.951,5.731c0.061,1.591-0.501,3.11-1.583,4.278    s-2.553,1.845-4.144,1.905L5.956,256.58z"></path>
	</g>
	<g>
		<path style="fill:#FF9B19;" d="M25.126,297.253l-4.497-23.483c-0.234-1.224-0.983-2.317-2.111-3.078    c-1.268-0.855-2.908-1.242-4.593-1.112l-2.757-13.979c-0.524,0.549-1.122,1.001-1.771,1.354l2.749,13.936    c0.107,0.542,0.637,0.892,1.175,0.788c1.495-0.297,3.02-0.044,4.079,0.672c0.483,0.326,1.095,0.902,1.266,1.796l4.337,22.647    l-14.624,5.318l-4.988-25.294c-0.169-0.853,0.123-1.76,0.82-2.556c0.762-0.869,1.895-1.488,3.255-1.756    c0.26-0.052,0.489-0.204,0.637-0.425c0.148-0.22,0.202-0.49,0.151-0.75l-2.667-13.519c-0.744-0.038-1.457-0.186-2.124-0.43    l2.644,13.405c-1.353,0.424-2.538,1.172-3.4,2.156c-1.116,1.272-1.57,2.786-1.279,4.261l5.215,26.439    c0.057,0.287,0.235,0.534,0.49,0.678c0.151,0.085,0.321,0.129,0.491,0.129c0.115,0,0.231-0.02,0.342-0.061l16.521-6.009    C24.946,298.214,25.218,297.735,25.126,297.253z"></path>
	</g>
	<g>
		
			<rect x="11.251" y="251.272" transform="matrix(0.9829 -0.1839 0.1839 0.9829 -51.1943 6.9586)" style="fill:#FF564F;" width="1.336" height="56.423"></rect>
	</g>
	<g>
		<circle style="fill:#324A58;" cx="59.257" cy="272.852" r="5.721"></circle>
	</g>
	<g>
		<path style="fill:#324A58;" d="M60.295,274.384c-0.364,0-0.733-0.1-1.064-0.309c-0.935-0.589-1.215-1.823-0.625-2.758    c6.207-9.846,7.158-24.047,7.167-24.189c0.069-1.102,1.047-1.927,2.12-1.872c1.102,0.068,1.94,1.017,1.872,2.119    c-0.038,0.621-1.015,15.351-7.776,26.075C61.608,274.054,60.959,274.384,60.295,274.384z"></path>
	</g>
	<g>
		<g>
			<path style="fill:#2568EF;" d="M96.162,58.345l-35.535-4.791c-1.877-0.253-3.32-1.789-3.455-3.678l-2.69-37.555     c-0.448-6.74,4.956-12.425,11.71-12.319l33.198,0.519c5.498,0.086,9.526,5.204,8.319,10.568l-7.063,43.928     C100.301,57.158,98.312,58.635,96.162,58.345z"></path>
		</g>
		<g>
			
				<rect x="71.558" y="13.796" transform="matrix(0.9999 -0.0145 0.0145 0.9999 -0.3861 1.0758)" style="fill:#FF564F;" width="5.129" height="26.822"></rect>
		</g>
		<g>
			
				<rect x="63.722" y="22.399" transform="matrix(0.9999 -0.0145 0.0145 0.9999 -0.3513 1.0743)" style="fill:#FF564F;" width="20.624" height="4.809"></rect>
		</g>
	</g>
	<g>
		<path style="fill:#324A58;" d="M72.695,100.506c1.675-1.576,4.125-0.724,7.638,2.424c1.448,1.246,5.089,4.823,3.98,6.417    c-1.109,1.594-4.545,0.57-8.751-3.024C72.592,103.899,71.821,101.329,72.695,100.506z"></path>
	</g>
	<g>
		<path style="fill:#324A58;" d="M52.266,97.953c-1.675-1.576-4.125-0.724-7.638,2.424c-1.448,1.246-5.089,4.823-3.98,6.417    s4.545,0.57,8.751-3.024C52.369,101.346,53.14,98.775,52.266,97.953z"></path>
	</g>
	<g>
		<path style="fill:#324A58;" d="M0.059,105.17c0,0,0.844,7.171,7.951,8.447s10.306,3.071,12.692,8.378    c2.318,5.234,8.233-0.883,11.013,7.761s8.456,5.774,8.456,5.774l7.794-47.162c0,0,1.555-2.287,5.046-0.767    s6.571,9.608,10.491,6.331c3.915-3.136,7.646-7.197,14.311-0.699s12.855,0.672,12.855,0.672s3.727,12.422,10.358,20.051    c6.631,7.629,12.487,17.672,12.487,17.672s3.153,3.176,1.731,8.085c-1.349,4.84-2.437,8.062-2.437,8.062s7.903,5.333,13.133-3.847    c5.23-9.18,6.536-5.603,13.142-6.464c6.605-0.861,7.629-6.631,7.916-9.099c0.355-2.395,2.116-6.798,7.097-7.779    c4.982-0.981,6.382-2.849,6.498-6.665c0.115-3.817,0.231-7.633,7.916-9.099c0,0-40.901-34.699-54.133-43.942    c-13.995-9.762-24.991-18.088-38.865-6.128c0,0-4.07-8.117-14.076-7.076c-9.655,1.123-14.701,11.228-19.498,17.803    C35.876,74.065,22.547,98.422,0.059,105.17z"></path>
	</g>
	<g>
		<g>
			<circle style="fill:#2568EF;" cx="106.842" cy="152.008" r="1.1"></circle>
		</g>
		<g>
			<path style="fill:#2568EF;" d="M115.244,211.379c-0.343,0-0.662-0.176-0.846-0.466l-12.447-19.725     c-0.207-0.328-0.206-0.746,0.004-1.073l13.021-20.298c0.188-0.293,0.531-0.432,0.863-0.46c0.349,0.008,0.668,0.196,0.843,0.497     l10.915,18.766c0.176,0.302,0.181,0.672,0.016,0.979l-11.489,21.256c-0.169,0.313-0.491,0.512-0.846,0.523     C115.266,211.379,115.255,211.379,115.244,211.379z M103.982,190.66l11.195,17.739l10.409-19.259l-9.811-16.866L103.982,190.66z"></path>
		</g>
		<g>
			
				<rect x="114.361" y="179.854" transform="matrix(0.8087 -0.5882 0.5882 0.8087 -89.9467 103.9573)" style="fill:#2568EF;" width="1" height="20.836"></rect>
		</g>
		<g>
			
				<rect x="103.786" y="189.676" transform="matrix(0.5722 -0.8201 0.8201 0.5722 -106.6247 175.9623)" style="fill:#2568EF;" width="23.108" height="1"></rect>
		</g>
		<g>
			<path style="fill:#2568EF;" d="M115.318,170.374c-0.37-11.298-8.723-17.939-8.808-18.005l0.614-0.789     c0.088,0.068,8.807,6.982,9.193,18.761L115.318,170.374z"></path>
		</g>
	</g>
	<g>
		<path style="fill:#2568EF;" d="M57.183,347.346v-22.217c-9.331-0.472-23.66-1.614-25.62-4.214    c-2.745-3.642,2.479-7.985,3.084-8.469l3.384-2.626c-0.195-0.135-0.312-0.263-0.332-0.382    c-0.328-1.967,46.598-80.072,46.598-80.072s-72.24,63.022-78.142,102.368c-1.032,6.878,0.191,11.754,2.902,15.126    C19.334,355.351,50.783,348.796,57.183,347.346z M36.567,306.598l10.391-19.958c0.253-0.489,0.855-0.682,1.349-0.425    c0.489,0.255,0.68,0.858,0.425,1.349l-10.391,19.958c-0.178,0.342-0.526,0.538-0.888,0.538c-0.155,0-0.313-0.036-0.461-0.113    C36.503,307.691,36.312,307.088,36.567,306.598z"></path>
	</g>
	<g>
		<path style="fill:#2568EF;" d="M47.894,349.195c0.151-0.051,0.31-0.079,0.472-0.08c4.117-0.699,7.378-1.4,9.008-1.77v-22.217    c-9.331-0.472-23.66-1.614-25.62-4.214c-0.264-0.351-0.539-0.436-0.667-0.796c-2.292,9.616-4.182,19.913-5.914,30.973    C32.844,351.333,41.376,350.284,47.894,349.195z"></path>
		<path style="fill:#2568EF;" d="M48.328,352.184c-5.86,0.976-13.326,1.908-20.496,1.908c-1.046,0-2.084-0.022-3.111-0.065    c-3.88,25.632-6.401,53.623-8.031,78.261c3.218,0.917,7.63,1.235,12.662-0.974c0.762-0.337,1.644,0.011,1.977,0.77    c0.334,0.759-0.011,1.644-0.77,1.977c-3.217,1.414-6.222,1.934-8.899,1.934c-1.903,0-3.635-0.266-5.168-0.656    c-2.381,37.241-2.729,66.083-2.729,66.083s13.55,0.119,26.104,0.026l-0.176-70.119c6.572-0.152,36.4-4.355,42.792-4.642    l-4.415,73.358c0,0,47.66-2.604,48.566-1.698c0,0-7.945-103.478-9.31-121.94C108.906,373.506,90.194,366.959,48.328,352.184z     M115.75,432.22c-4.859,2.22-9.343,2.883-12.961,2.883c-5.169,0-8.576-1.352-8.813-1.448c-0.767-0.313-1.135-1.189-0.821-1.956    c0.312-0.766,1.184-1.136,1.953-0.822c0.144,0.057,8.859,3.428,19.396-1.385c0.758-0.346,1.644-0.012,1.987,0.741    C116.836,430.985,116.504,431.876,115.75,432.22z"></path>
		<g>
			<path style="fill:#2568EF;" d="M115.542,237.29c-30.566-39.17-69.603,43.716-69.603,43.716     c-5.351,7.641-9.977,19.46-13.703,33.878c0.989-1.341,2.333-2.224,2.602-2.438l9.237-7.17c0.032-0.025,0.07-0.038,0.104-0.06     l9.672-18.577c0.253-0.489,0.855-0.682,1.349-0.425c0.489,0.255,0.68,0.858,0.425,1.349l-9.303,17.868l56.605,27.017     c3.026-30.331,3.901-53.638,3.911-53.876c0.02-0.54,0.463-0.964,0.998-0.964c0.013,0,0.025,0,0.037,0.001     c0.553,0.02,0.983,0.483,0.963,1.035c-0.009,0.246-0.937,24.968-4.184,56.634c-0.053,0.516-0.487,0.898-0.994,0.898     c-0.034,0-0.068-0.002-0.103-0.005c-0.375-0.039-0.668-0.287-0.806-0.611c-0.191-0.01-0.384-0.056-0.568-0.144l-56.997-27.204     l-8.489,6.59c-1.206,0.97-3.285,3.324-2.545,4.306c1.463,1.249,14.025,2.596,24.794,3.094c0.801,0.036,1.431,0.696,1.431,1.498     v24.836c0,0.689-0.471,1.291-1.14,1.456c-0.338,0.083-2.175,0.53-4.986,1.1c19.659,6.932,55.509,19.553,66.915,23.475     c2.289,0.529,4.561,0.275,9.396-4.299C140.007,361.331,130.594,256.577,115.542,237.29z"></path>
		</g>
	</g>
	<g>
		<path style="fill:#FFE7E6;" d="M91.524,327.098c3.079-35.486,6.029-69.48,7.263-83.694c0,0-4.151-8.063-6.224-6.469    c0,0-26.57,17.774-41.106,71.04L91.524,327.098z"></path>
		<path style="fill:#FFE7E6;" d="M57.183,325.129c-2.886-0.146-6.249-0.356-9.577-0.653c-1.532,7.802-2.799,16.226-3.719,25.312    c6.102-0.879,11.133-1.952,13.296-2.442V325.129z"></path>
		<path style="fill:#FFE7E6;" d="M43.592,352.877c-0.481,5.289-0.853,10.785-1.084,16.518l-3.267,65.781h42.906    c0,0,2.715-31.289,5.99-69.036c-10.137-3.563-23.114-8.133-39.738-14C46.895,352.393,45.281,352.644,43.592,352.877z"></path>
	</g>
	<g>
		<polygon style="fill:#2568EF;" points="95.344,328.829 95.348,328.757 94.201,328.284   "></polygon>
		<polygon style="fill:#2568EF;" points="42.096,306.813 41.24,306.461 40.862,307.771   "></polygon>
		<path style="fill:#2568EF;" d="M57.375,347.346v-22.217c-6.491-0.328-15.398-0.981-20.88-2.224l-6.513,22.573l14.204,4.294    C50.239,348.896,55.224,347.833,57.375,347.346z"></path>
		<path style="fill:#2568EF;" d="M45.184,308.213l-5.734,4.451l-2.141,7.419c4.706,0.916,13.66,1.75,21.635,2.119    c0.801,0.036,1.431,0.696,1.431,1.498v24.836c0,0.689-0.471,1.291-1.14,1.456c-0.463,0.114-3.729,0.909-8.473,1.769l42.251,12.774    l2.12-32.482L45.184,308.213z"></path>
	</g>
	<g>
		<path style="fill:#FF564F;" d="M157.899,316.904c5.268-3.098,9.372-4.245,8.158-7.85c-0.26-0.772-1.218-2.913-9.576,1.442    c-18.304,9.537-37.296,11.009-37.296,11.009s7.887-4.3,19.936-10.553c8.798-4.566,16.294-10.755,14.757-12.499    c-1.402-1.59-8.125,0.14-17.82,5.457c-6.323,3.468-12.999,6.97-16.691,8.354c-7.781,2.918-19.454,5.224-19.227,0.923    c0.154-2.923,3.032-6.408,3.59-7.329c0.678,0.106,4.826,0.165,5.57,0.165c4.101,0,10.998-3.882,10.998-6.014    s-9.784-2.124-13.885-2.124c-0.701,0-1.377,0.054-2.021,0.149v-0.149l-0.223,0.18c-3.003,0.495-5.478,0.85-6.48,2.389    c-0.085,0.13-13.853,22.323-13.853,22.323l-23.675,2.862l-0.092,20.797c0,0,42.316-0.208,47.773-0.876    c2.308-0.283,6.413-0.041,9.615,0.472c2.784,0.445,9.802,0.592,14.06,0.379c15.923-0.795,26.425-0.24,23.38-4.615    c-0.45-0.647-12.667,0.408-19.073-0.154c-8.768-0.769-13.69-2.461-13.69-2.461c11.075-2.153,26.684-4.79,30.517-5.761    c10.494-2.659,11.306-5.773,10.246-6.656c-1.337-1.114-6.328-0.212-13.253,0.668c-4.574,0.581-8.105,1.213-13.142,1.893    c-10.773,1.454-15.446,1.194-15.446,1.194s12.076-1.926,27.612-9.002C153.715,319.221,153.564,319.453,157.899,316.904z"></path>
	</g>
	<g>
		<path style="fill:#FF564F;" d="M35.252,313.023l7.963-6.628c0,0-11.731-10.303-17.32-11.589    c-4.488-1.033-15.025,1.684-17.674,5.88c-0.339,0.537-1.001,3.199-1.001,3.199l-3.301,9.706c0,0,0.07,14.869,2.491,15.396    c2.194,0.478,2.411-9.393,4.642-12.019c0.857-1.008,3.9-5.126,5.377-6.056c7.588-4.782,5.095-4.099,5.095-4.099L35.252,313.023z"></path>
	</g>
	<g>
		<path style="fill:#324A58;" d="M73.302,287.475l-3.412-3.654c30.51-28.486,32.917-42.973,31.636-49.072    c-1.199-5.711-6.057-7.474-6.263-7.546l1.598-4.738c0.313,0.104,7.682,2.649,9.531,11.13    C109.155,246.266,98.022,264.395,73.302,287.475z"></path>
	</g>
	<g>
		<circle style="fill:#324A58;" cx="35.653" cy="261.909" r="5.721"></circle>
	</g>
	<g>
		<path style="fill:#324A58;" d="M38.787,260.12c-0.469,0-0.939-0.164-1.319-0.498c-0.83-0.729-0.911-1.993-0.182-2.822    c7.689-8.748,15.158-13.395,22.197-13.815c3.403-0.201,5.966,0.658,7.594,1.476c9.049-14.844,25.085-23.503,25.789-23.879    c0.978-0.516,2.186-0.149,2.705,0.825s0.15,2.186-0.824,2.705c-0.169,0.091-17.022,9.209-25.227,24.105    c-0.294,0.534-0.815,0.904-1.417,1.007c-0.598,0.101-1.215-0.074-1.669-0.482c-0.375-0.319-9.737-7.965-26.145,10.699    C39.894,259.89,39.343,260.12,38.787,260.12z"></path>
	</g>
	<path style="fill:#FF564F;" d="M99.357,164.86l-16.105,38.703c-0.413,14.438-0.757,31.44-0.61,35.775   c0.223,8.906,2.814,14.359,9.851,12.599c7.036-1.76,7.122-6.059,6.8-9.966c-0.324-3.807-0.325-33.913,0.007-40.508   C99.659,195.264,99.526,177.972,99.357,164.86z"></path>
	<g>
		<ellipse style="fill:#324A58;" cx="72.556" cy="283.425" rx="7.381" ry="11.827"></ellipse>
	</g>
	<g>
		<ellipse style="fill:#FF9B19;" cx="72.556" cy="283.425" rx="4.179" ry="6.877"></ellipse>
	</g>
	<g>
		<path style="fill:#FF9B19;" d="M98.864,431.696l8.297-28.14c0.597-2.123,2.748-3.41,4.901-2.931h0    c2.235,0.497,3.647,2.707,3.157,4.944l-8.054,26.098C107.165,431.667,102.976,433.484,98.864,431.696z"></path>
	</g>
</g>

            </g>
        </g>
    </g>
    
</svg>