<?xml version="1.0" encoding="iso-8859-1" ?>
<svg version="1.1" xmlns="http://www.w3.org/2000/svg" xmlns:xlink="http://www.w3.org/1999/xlink" 
    viewBox="0 0 500 500" width="500" height="500">
    
    
    <!-- ITEM 0 -->
    <g>
        <defs>
            <clipPath id="clip-path-id-viewbox-item-0">
                <rect x="0.0" y="0.0" width="317.203" height="822.267"/>
            </clipPath>
        </defs>
        <g transform="translate(311.0 78.0) rotate(0.0 62.5 162.5) scale(0.39406941296267695 0.3952487452372526)">
            <g clip-path="url(#clip-path-id-viewbox-item-0)" transform="translate(-0.0 -0.0)">
                
<linearGradient id="SVGID_6_-i0" gradientUnits="userSpaceOnUse" x1="49.7087" y1="155.4341" x2="50.0925" y2="372.6835">
	<stop offset="0" style="stop-color:#B8A7D3"></stop>
	<stop offset="0.4" style="stop-color:#ED4861"></stop>
	<stop offset="0.5" style="stop-color:#F4837D"></stop>
	<stop offset="0.59" style="stop-color:#FECEAA"></stop>
	<stop offset="1" style="stop-color:#B7D5EA"></stop>
</linearGradient>
<path fill="url(#SVGID_6_-i0)" d="M85.03,283.19l-0.1-0.076l12.119-84.657l-57.564-21.339L4.431,292.28  c-4.765,15.539,0.576,32.659,13.144,42.131l2.394,1.898l8.992,6.834c19.514,14.831,46.65,2.789,50.428-22.378L85.03,283.19z"></path>
<g>
	<g>
		
			<linearGradient id="SVGID_7_-i0" gradientUnits="userSpaceOnUse" x1="-224.6245" y1="383.3074" x2="-224.2407" y2="600.5569" gradientTransform="matrix(1 0 0 1 344 -228)">
			<stop offset="0" style="stop-color:#B8A7D3"></stop>
			<stop offset="0.4" style="stop-color:#ED4861"></stop>
			<stop offset="0.5" style="stop-color:#F4837D"></stop>
			<stop offset="0.59" style="stop-color:#FECEAA"></stop>
			<stop offset="1" style="stop-color:#B7D5EA"></stop>
		</linearGradient>
		<path fill="url(#SVGID_7_-i0)" d="M203.774,162.574c-9.918-1.478-6.651,6.408-30.042,3.093    c-30.307-4.448-62.088,25.919-85.083,61.821c-2.307,3.603-4.346,6.694-6.216,9.463C39.316,255.53,0,296.452,0,335.437    c0,52.602,45.329,95.245,101.245,95.245s62.247-50.892,62.247-103.495c0-5.494,0.219-10.936,0.544-16.278    c15.448-26.212,19.764-34.023,28.146-45.351c4.052-5.475,16.936-18.963,21.733-24.101    C241.811,210.985,256.581,168.103,203.774,162.574z"></path>
	</g>
</g>
<g>
	<g>
		<linearGradient id="SVGID_9_-i0" gradientUnits="userSpaceOnUse" x1="81.7253" y1="314.0714" x2="81.7253" y2="806.5748">
			<stop offset="0" style="stop-color:#77879D"></stop>
			<stop offset="0.089" style="stop-color:#A1978E"></stop>
			<stop offset="0.188" style="stop-color:#C9A780"></stop>
			<stop offset="0.279" style="stop-color:#E5B275"></stop>
			<stop offset="0.358" style="stop-color:#F7B96F"></stop>
			<stop offset="0.415" style="stop-color:#FDBB6D"></stop>
			<stop offset="0.499" style="stop-color:#FDBB9F"></stop>
			<stop offset="0.599" style="stop-color:#D1D2D1"></stop>
			<stop offset="1" style="stop-color:#FECEAA"></stop>
		</linearGradient>
		<path fill="url(#SVGID_9_-i0)" d="M141.14,520.031l-4.909-56.638l-3.46-40.371c25.442-15.21,30.217-51.049,30.679-88.92H0.028    C0.018,334.548,0,334.993,0,335.437c0,24.974,10.222,47.698,26.939,64.685c0.145,2.555,0.284,4.996,0.41,7.28    c1.134,18.781,2.662,37.607,4.586,56.48c1.009,9.431,2.018,18.86,3.215,28.265l1.796,14.108l1.89,14.095l1.002,7.088l1.096,7.077    l2.101,14.164c1.479,9.369,2.885,18.844,4.364,28.211c5.956,37.661,12.589,75.331,20.391,113.046    c3.843,18.813,8.015,37.649,12.514,56.507l3.433,14.087l1.773,7.084l1.867,7.072c1.276,4.711,2.459,9.435,3.735,14.145    c1.37,4.699,2.553,9.422,4.017,14.107l68.198,0.074l-17.489-226.419C144.498,557.742,142.782,538.939,141.14,520.031z"></path>
	</g>
</g>
<g opacity="0.25">
	<g>
		<g>
			<defs>
				<path id="SVGID_20_-i0" d="M141.14,520.031l-4.909-56.638l-3.46-40.371c25.442-15.21,30.217-51.049,30.679-88.92H0.028      C0.018,334.548,0,334.993,0,335.437c0,24.974,10.222,47.698,26.939,64.685c0.145,2.555,0.284,4.996,0.41,7.28      c1.134,18.781,2.662,37.607,4.586,56.48c1.009,9.431,2.018,18.86,3.215,28.265l1.796,14.108l1.89,14.095l1.002,7.088      l1.096,7.077l2.101,14.164c1.479,9.369,2.885,18.844,4.364,28.211c5.956,37.661,12.589,75.331,20.391,113.046      c3.843,18.813,8.015,37.649,12.514,56.507l3.433,14.087l1.773,7.084l1.867,7.072c1.276,4.711,2.459,9.435,3.735,14.145      c1.37,4.699,2.553,9.422,4.017,14.107l68.198,0.074l-17.489-226.419C144.498,557.742,142.782,538.939,141.14,520.031z"></path>
			</defs>
			<clipPath id="SVGID_10_-i0">
				<use xlink:href="#SVGID_20_-i0" overflow="visible"></use>
			</clipPath>
			<g clip-path="url(#SVGID_10_-i0)">
				<rect x="139.926" y="246.49" fill="none" width="93.478" height="169.694"></rect>
				<g>
					<path fill="#FFFFFF" d="M213.4,403.782l-2.968-5.14c-0.809-1.402-0.809-3.128,0-4.53l2.968-5.14       c0.809-1.401,2.305-2.265,3.923-2.265h5.936c1.618,0,3.114,0.863,3.923,2.265l2.968,5.14c0.809,1.402,0.809,3.128,0,4.53       l-2.968,5.14c-0.809,1.402-2.305,2.265-3.923,2.265h-5.936C215.705,406.047,214.209,405.184,213.4,403.782z"></path>
				</g>
				<g>
					<path fill="#FFFFFF" d="M166.661,318.936l-2.968-5.14c-0.809-1.402-0.809-3.128,0-4.53l2.968-5.14       c0.809-1.402,2.305-2.265,3.923-2.265h5.936c1.618,0,3.114,0.863,3.923,2.265l2.968,5.14c0.809,1.402,0.809,3.128,0,4.53       l-2.968,5.14c-0.809,1.401-2.305,2.265-3.923,2.265h-5.936C168.966,321.201,167.47,320.337,166.661,318.936z"></path>
					<path fill="#FFFFFF" d="M209.151,350.803l-2.968-5.14c-0.809-1.402-0.809-3.128,0-4.53l2.968-5.14       c0.809-1.402,2.305-2.265,3.923-2.265h5.936c1.618,0,3.114,0.863,3.923,2.265l2.968,5.14c0.809,1.402,0.809,3.128,0,4.53       l-2.968,5.14c-0.809,1.401-2.305,2.265-3.923,2.265h-5.936C211.456,353.068,209.96,352.205,209.151,350.803z"></path>
					<path fill="#FFFFFF" d="M157.101,370.986l-2.968-5.14c-0.809-1.401-0.809-3.128,0-4.53l2.968-5.14       c0.809-1.402,2.305-2.265,3.923-2.265h5.936c1.618,0,3.114,0.863,3.923,2.265l2.968,5.14c0.809,1.402,0.809,3.128,0,4.53       l-2.968,5.14c-0.809,1.401-2.305,2.265-3.923,2.265h-5.936C159.405,373.251,157.91,372.387,157.101,370.986z"></path>
				</g>
				<g>
					<path fill="#FFFFFF" d="M203.84,286.139l-2.968-5.14c-0.809-1.401-0.809-3.128,0-4.53l2.968-5.14       c0.809-1.401,2.305-2.265,3.923-2.265h5.936c1.618,0,3.114,0.863,3.923,2.265l2.968,5.14c0.809,1.401,0.809,3.128,0,4.53       l-2.968,5.14c-0.809,1.402-2.305,2.265-3.923,2.265h-5.936C206.144,288.404,204.649,287.54,203.84,286.139z"></path>
				</g>
				<g>
					<path fill="#FFFFFF" d="M162.412,265.956l-2.968-5.14c-0.809-1.401-0.809-3.128,0-4.53l2.968-5.14       c0.809-1.402,2.305-2.265,3.923-2.265h5.936c1.618,0,3.114,0.863,3.923,2.265l2.968,5.14c0.809,1.401,0.809,3.128,0,4.53       l-2.968,5.14c-0.809,1.402-2.305,2.265-3.923,2.265h-5.936C164.717,268.221,163.221,267.358,162.412,265.956z"></path>
				</g>
			</g>
			<g clip-path="url(#SVGID_10_-i0)">
				<rect x="139.926" y="416.184" fill="none" width="93.478" height="169.694"></rect>
				<g>
					<path fill="#FFFFFF" d="M213.4,573.476l-2.968-5.14c-0.809-1.402-0.809-3.128,0-4.53l2.968-5.14       c0.809-1.401,2.305-2.265,3.923-2.265h5.936c1.618,0,3.114,0.863,3.923,2.265l2.968,5.14c0.809,1.402,0.809,3.128,0,4.53       l-2.968,5.14c-0.809,1.402-2.305,2.265-3.923,2.265h-5.936C215.705,575.741,214.209,574.878,213.4,573.476z"></path>
				</g>
				<g>
					<path fill="#FFFFFF" d="M166.661,488.629l-2.968-5.14c-0.809-1.401-0.809-3.128,0-4.53l2.968-5.14       c0.809-1.401,2.305-2.265,3.923-2.265h5.936c1.618,0,3.114,0.863,3.923,2.265l2.968,5.14c0.809,1.401,0.809,3.128,0,4.53       l-2.968,5.14c-0.809,1.402-2.305,2.265-3.923,2.265h-5.936C168.966,490.894,167.47,490.031,166.661,488.629z"></path>
					<path fill="#FFFFFF" d="M209.151,520.497l-2.968-5.14c-0.809-1.402-0.809-3.128,0-4.53l2.968-5.14       c0.809-1.401,2.305-2.265,3.923-2.265h5.936c1.618,0,3.114,0.863,3.923,2.265l2.968,5.14c0.809,1.402,0.809,3.128,0,4.53       l-2.968,5.14c-0.809,1.401-2.305,2.265-3.923,2.265h-5.936C211.456,522.762,209.96,521.898,209.151,520.497z"></path>
					<path fill="#FFFFFF" d="M157.101,540.679l-2.968-5.14c-0.809-1.401-0.809-3.128,0-4.53l2.968-5.14       c0.809-1.401,2.305-2.265,3.923-2.265h5.936c1.618,0,3.114,0.863,3.923,2.265l2.968,5.14c0.809,1.401,0.809,3.128,0,4.53       l-2.968,5.14c-0.809,1.401-2.305,2.265-3.923,2.265h-5.936C159.405,542.944,157.91,542.081,157.101,540.679z"></path>
				</g>
				<g>
					<path fill="#FFFFFF" d="M203.84,455.833l-2.968-5.14c-0.809-1.402-0.809-3.128,0-4.53l2.968-5.14       c0.809-1.401,2.305-2.265,3.923-2.265h5.936c1.618,0,3.114,0.863,3.923,2.265l2.968,5.14c0.809,1.402,0.809,3.128,0,4.53       l-2.968,5.14c-0.809,1.402-2.305,2.265-3.923,2.265h-5.936C206.144,458.097,204.649,457.234,203.84,455.833z"></path>
				</g>
				<g>
					<path fill="#FFFFFF" d="M162.412,435.65l-2.968-5.14c-0.809-1.402-0.809-3.128,0-4.53l2.968-5.14       c0.809-1.401,2.305-2.265,3.923-2.265h5.936c1.618,0,3.114,0.863,3.923,2.265l2.968,5.14c0.809,1.402,0.809,3.128,0,4.53       l-2.968,5.14c-0.809,1.402-2.305,2.265-3.923,2.265h-5.936C164.717,437.915,163.221,437.051,162.412,435.65z"></path>
				</g>
			</g>
			<g clip-path="url(#SVGID_10_-i0)">
				<rect x="139.926" y="585.878" fill="none" width="93.478" height="169.694"></rect>
				<g>
					<path fill="#FFFFFF" d="M213.4,743.17l-2.968-5.14c-0.809-1.401-0.809-3.128,0-4.53l2.968-5.14       c0.809-1.401,2.305-2.265,3.923-2.265h5.936c1.618,0,3.114,0.863,3.923,2.265l2.968,5.14c0.809,1.401,0.809,3.128,0,4.53       l-2.968,5.14c-0.809,1.401-2.305,2.265-3.923,2.265h-5.936C215.705,745.435,214.209,744.571,213.4,743.17z"></path>
				</g>
				<g>
					<path fill="#FFFFFF" d="M166.661,658.323l-2.968-5.14c-0.809-1.401-0.809-3.128,0-4.53l2.968-5.14       c0.809-1.401,2.305-2.265,3.923-2.265h5.936c1.618,0,3.114,0.863,3.923,2.265l2.968,5.14c0.809,1.401,0.809,3.128,0,4.53       l-2.968,5.14c-0.809,1.402-2.305,2.265-3.923,2.265h-5.936C168.966,660.588,167.47,659.724,166.661,658.323z"></path>
					<path fill="#FFFFFF" d="M209.151,690.19l-2.968-5.14c-0.809-1.401-0.809-3.128,0-4.53l2.968-5.14       c0.809-1.401,2.305-2.265,3.923-2.265h5.936c1.618,0,3.114,0.863,3.923,2.265l2.968,5.14c0.809,1.401,0.809,3.128,0,4.53       l-2.968,5.14c-0.809,1.402-2.305,2.265-3.923,2.265h-5.936C211.456,692.455,209.96,691.592,209.151,690.19z"></path>
					<path fill="#FFFFFF" d="M157.101,710.373l-2.968-5.14c-0.809-1.401-0.809-3.128,0-4.53l2.968-5.14       c0.809-1.401,2.305-2.265,3.923-2.265h5.936c1.618,0,3.114,0.863,3.923,2.265l2.968,5.14c0.809,1.401,0.809,3.128,0,4.53       l-2.968,5.14c-0.809,1.401-2.305,2.265-3.923,2.265h-5.936C159.405,712.638,157.91,711.775,157.101,710.373z"></path>
				</g>
				<g>
					<path fill="#FFFFFF" d="M203.84,625.526l-2.968-5.14c-0.809-1.401-0.809-3.128,0-4.53l2.968-5.14       c0.809-1.401,2.305-2.265,3.923-2.265h5.936c1.618,0,3.114,0.863,3.923,2.265l2.968,5.14c0.809,1.401,0.809,3.128,0,4.53       l-2.968,5.14c-0.809,1.401-2.305,2.265-3.923,2.265h-5.936C206.144,627.791,204.649,626.928,203.84,625.526z"></path>
				</g>
				<g>
					<path fill="#FFFFFF" d="M162.412,605.344l-2.968-5.14c-0.809-1.402-0.809-3.128,0-4.53l2.968-5.14       c0.809-1.401,2.305-2.265,3.923-2.265h5.936c1.618,0,3.114,0.863,3.923,2.265l2.968,5.14c0.809,1.402,0.809,3.128,0,4.53       l-2.968,5.14c-0.809,1.402-2.305,2.265-3.923,2.265h-5.936C164.717,607.608,163.221,606.745,162.412,605.344z"></path>
				</g>
			</g>
			<g clip-path="url(#SVGID_10_-i0)">
				<rect x="139.926" y="755.571" fill="none" width="93.478" height="169.694"></rect>
				<g>
					<path fill="#FFFFFF" d="M166.661,828.017l-2.968-5.14c-0.809-1.401-0.809-3.128,0-4.53l2.968-5.14       c0.809-1.401,2.305-2.265,3.923-2.265h5.936c1.618,0,3.114,0.863,3.923,2.265l2.968,5.14c0.809,1.401,0.809,3.128,0,4.53       l-2.968,5.14c-0.809,1.401-2.305,2.265-3.923,2.265h-5.936C168.966,830.281,167.47,829.418,166.661,828.017z"></path>
				</g>
				<g>
					<path fill="#FFFFFF" d="M203.84,795.22l-2.968-5.14c-0.809-1.401-0.809-3.128,0-4.53l2.968-5.14       c0.809-1.402,2.305-2.265,3.923-2.265h5.936c1.618,0,3.114,0.863,3.923,2.265l2.968,5.14c0.809,1.402,0.809,3.128,0,4.53       l-2.968,5.14c-0.809,1.401-2.305,2.265-3.923,2.265h-5.936C206.144,797.485,204.649,796.621,203.84,795.22z"></path>
				</g>
				<g>
					<path fill="#FFFFFF" d="M162.412,775.037l-2.968-5.14c-0.809-1.401-0.809-3.128,0-4.53l2.968-5.14       c0.809-1.401,2.305-2.265,3.923-2.265h5.936c1.618,0,3.114,0.863,3.923,2.265l2.968,5.14c0.809,1.401,0.809,3.128,0,4.53       l-2.968,5.14c-0.809,1.401-2.305,2.265-3.923,2.265h-5.936C164.717,777.302,163.221,776.439,162.412,775.037z"></path>
				</g>
			</g>
			<g clip-path="url(#SVGID_10_-i0)">
				<rect x="46.448" y="246.49" fill="none" width="93.478" height="169.694"></rect>
				<g>
					<path fill="#FFFFFF" d="M119.922,403.782l-2.968-5.14c-0.809-1.402-0.809-3.128,0-4.53l2.968-5.14       c0.809-1.401,2.305-2.265,3.923-2.265h5.936c1.618,0,3.114,0.863,3.923,2.265l2.968,5.14c0.809,1.402,0.809,3.128,0,4.53       l-2.968,5.14c-0.809,1.402-2.305,2.265-3.923,2.265h-5.936C122.227,406.047,120.731,405.184,119.922,403.782z"></path>
				</g>
				<g>
					<path fill="#FFFFFF" d="M73.183,318.936l-2.968-5.14c-0.809-1.402-0.809-3.128,0-4.53l2.968-5.14       c0.809-1.402,2.305-2.265,3.923-2.265h5.936c1.618,0,3.114,0.863,3.923,2.265l2.968,5.14c0.809,1.402,0.809,3.128,0,4.53       l-2.968,5.14c-0.809,1.401-2.305,2.265-3.923,2.265h-5.936C75.488,321.201,73.993,320.337,73.183,318.936z"></path>
					<path fill="#FFFFFF" d="M115.673,350.803l-2.968-5.14c-0.809-1.402-0.809-3.128,0-4.53l2.968-5.14       c0.809-1.402,2.305-2.265,3.923-2.265h5.936c1.618,0,3.114,0.863,3.923,2.265l2.968,5.14c0.809,1.402,0.809,3.128,0,4.53       l-2.968,5.14c-0.809,1.401-2.305,2.265-3.923,2.265h-5.936C117.978,353.068,116.482,352.205,115.673,350.803z"></path>
					<path fill="#FFFFFF" d="M63.623,370.986l-2.968-5.14c-0.809-1.401-0.809-3.128,0-4.53l2.968-5.14       c0.809-1.402,2.305-2.265,3.923-2.265h5.936c1.618,0,3.114,0.863,3.923,2.265l2.968,5.14c0.809,1.402,0.809,3.128,0,4.53       l-2.968,5.14c-0.809,1.401-2.305,2.265-3.923,2.265h-5.936C65.928,373.251,64.432,372.387,63.623,370.986z"></path>
				</g>
				<g>
					<path fill="#FFFFFF" d="M110.362,286.139l-2.968-5.14c-0.809-1.401-0.809-3.128,0-4.53l2.968-5.14       c0.809-1.401,2.305-2.265,3.923-2.265h5.936c1.618,0,3.114,0.863,3.923,2.265l2.968,5.14c0.809,1.401,0.809,3.128,0,4.53       l-2.968,5.14c-0.809,1.402-2.305,2.265-3.923,2.265h-5.936C112.667,288.404,111.171,287.54,110.362,286.139z"></path>
				</g>
				<g>
					<path fill="#FFFFFF" d="M68.934,265.956l-2.968-5.14c-0.809-1.401-0.809-3.128,0-4.53l2.968-5.14       c0.809-1.402,2.305-2.265,3.923-2.265h5.936c1.618,0,3.114,0.863,3.923,2.265l2.968,5.14c0.809,1.401,0.809,3.128,0,4.53       l-2.968,5.14c-0.809,1.402-2.305,2.265-3.923,2.265h-5.936C71.239,268.221,69.744,267.358,68.934,265.956z"></path>
				</g>
			</g>
			<g clip-path="url(#SVGID_10_-i0)">
				<rect x="46.448" y="416.184" fill="none" width="93.478" height="169.694"></rect>
				<g>
					<path fill="#FFFFFF" d="M119.922,573.476l-2.968-5.14c-0.809-1.402-0.809-3.128,0-4.53l2.968-5.14       c0.809-1.401,2.305-2.265,3.923-2.265h5.936c1.618,0,3.114,0.863,3.923,2.265l2.968,5.14c0.809,1.402,0.809,3.128,0,4.53       l-2.968,5.14c-0.809,1.402-2.305,2.265-3.923,2.265h-5.936C122.227,575.741,120.731,574.878,119.922,573.476z"></path>
				</g>
				<g>
					<path fill="#FFFFFF" d="M73.183,488.629l-2.968-5.14c-0.809-1.401-0.809-3.128,0-4.53l2.968-5.14       c0.809-1.401,2.305-2.265,3.923-2.265h5.936c1.618,0,3.114,0.863,3.923,2.265l2.968,5.14c0.809,1.401,0.809,3.128,0,4.53       l-2.968,5.14c-0.809,1.402-2.305,2.265-3.923,2.265h-5.936C75.488,490.894,73.993,490.031,73.183,488.629z"></path>
					<path fill="#FFFFFF" d="M115.673,520.497l-2.968-5.14c-0.809-1.402-0.809-3.128,0-4.53l2.968-5.14       c0.809-1.401,2.305-2.265,3.923-2.265h5.936c1.618,0,3.114,0.863,3.923,2.265l2.968,5.14c0.809,1.402,0.809,3.128,0,4.53       l-2.968,5.14c-0.809,1.401-2.305,2.265-3.923,2.265h-5.936C117.978,522.762,116.482,521.898,115.673,520.497z"></path>
					<path fill="#FFFFFF" d="M63.623,540.679l-2.968-5.14c-0.809-1.401-0.809-3.128,0-4.53l2.968-5.14       c0.809-1.401,2.305-2.265,3.923-2.265h5.936c1.618,0,3.114,0.863,3.923,2.265l2.968,5.14c0.809,1.401,0.809,3.128,0,4.53       l-2.968,5.14c-0.809,1.401-2.305,2.265-3.923,2.265h-5.936C65.928,542.944,64.432,542.081,63.623,540.679z"></path>
				</g>
				<g>
					<path fill="#FFFFFF" d="M110.362,455.833l-2.968-5.14c-0.809-1.402-0.809-3.128,0-4.53l2.968-5.14       c0.809-1.401,2.305-2.265,3.923-2.265h5.936c1.618,0,3.114,0.863,3.923,2.265l2.968,5.14c0.809,1.402,0.809,3.128,0,4.53       l-2.968,5.14c-0.809,1.402-2.305,2.265-3.923,2.265h-5.936C112.667,458.097,111.171,457.234,110.362,455.833z"></path>
				</g>
				<g>
					<path fill="#FFFFFF" d="M68.934,435.65l-2.968-5.14c-0.809-1.402-0.809-3.128,0-4.53l2.968-5.14       c0.809-1.401,2.305-2.265,3.923-2.265h5.936c1.618,0,3.114,0.863,3.923,2.265l2.968,5.14c0.809,1.402,0.809,3.128,0,4.53       l-2.968,5.14c-0.809,1.402-2.305,2.265-3.923,2.265h-5.936C71.239,437.915,69.744,437.051,68.934,435.65z"></path>
				</g>
			</g>
			<g clip-path="url(#SVGID_10_-i0)">
				<rect x="46.448" y="585.878" fill="none" width="93.478" height="169.694"></rect>
				<g>
					<path fill="#FFFFFF" d="M119.922,743.17l-2.968-5.14c-0.809-1.401-0.809-3.128,0-4.53l2.968-5.14       c0.809-1.401,2.305-2.265,3.923-2.265h5.936c1.618,0,3.114,0.863,3.923,2.265l2.968,5.14c0.809,1.401,0.809,3.128,0,4.53       l-2.968,5.14c-0.809,1.401-2.305,2.265-3.923,2.265h-5.936C122.227,745.435,120.731,744.571,119.922,743.17z"></path>
				</g>
				<g>
					<path fill="#FFFFFF" d="M73.183,658.323l-2.968-5.14c-0.809-1.401-0.809-3.128,0-4.53l2.968-5.14       c0.809-1.401,2.305-2.265,3.923-2.265h5.936c1.618,0,3.114,0.863,3.923,2.265l2.968,5.14c0.809,1.401,0.809,3.128,0,4.53       l-2.968,5.14c-0.809,1.402-2.305,2.265-3.923,2.265h-5.936C75.488,660.588,73.993,659.724,73.183,658.323z"></path>
					<path fill="#FFFFFF" d="M115.673,690.19l-2.968-5.14c-0.809-1.401-0.809-3.128,0-4.53l2.968-5.14       c0.809-1.401,2.305-2.265,3.923-2.265h5.936c1.618,0,3.114,0.863,3.923,2.265l2.968,5.14c0.809,1.401,0.809,3.128,0,4.53       l-2.968,5.14c-0.809,1.402-2.305,2.265-3.923,2.265h-5.936C117.978,692.455,116.482,691.592,115.673,690.19z"></path>
					<path fill="#FFFFFF" d="M63.623,710.373l-2.968-5.14c-0.809-1.401-0.809-3.128,0-4.53l2.968-5.14       c0.809-1.401,2.305-2.265,3.923-2.265h5.936c1.618,0,3.114,0.863,3.923,2.265l2.968,5.14c0.809,1.401,0.809,3.128,0,4.53       l-2.968,5.14c-0.809,1.401-2.305,2.265-3.923,2.265h-5.936C65.928,712.638,64.432,711.775,63.623,710.373z"></path>
				</g>
				<g>
					<path fill="#FFFFFF" d="M110.362,625.526l-2.968-5.14c-0.809-1.401-0.809-3.128,0-4.53l2.968-5.14       c0.809-1.401,2.305-2.265,3.923-2.265h5.936c1.618,0,3.114,0.863,3.923,2.265l2.968,5.14c0.809,1.401,0.809,3.128,0,4.53       l-2.968,5.14c-0.809,1.401-2.305,2.265-3.923,2.265h-5.936C112.667,627.791,111.171,626.928,110.362,625.526z"></path>
				</g>
				<g>
					<path fill="#FFFFFF" d="M68.934,605.344l-2.968-5.14c-0.809-1.402-0.809-3.128,0-4.53l2.968-5.14       c0.809-1.401,2.305-2.265,3.923-2.265h5.936c1.618,0,3.114,0.863,3.923,2.265l2.968,5.14c0.809,1.402,0.809,3.128,0,4.53       l-2.968,5.14c-0.809,1.402-2.305,2.265-3.923,2.265h-5.936C71.239,607.608,69.744,606.745,68.934,605.344z"></path>
				</g>
			</g>
			<g clip-path="url(#SVGID_10_-i0)">
				<rect x="46.448" y="755.571" fill="none" width="93.478" height="169.694"></rect>
				<g>
					<path fill="#FFFFFF" d="M73.183,828.017l-2.968-5.14c-0.809-1.401-0.809-3.128,0-4.53l2.968-5.14       c0.809-1.401,2.305-2.265,3.923-2.265h5.936c1.618,0,3.114,0.863,3.923,2.265l2.968,5.14c0.809,1.401,0.809,3.128,0,4.53       l-2.968,5.14c-0.809,1.401-2.305,2.265-3.923,2.265h-5.936C75.488,830.281,73.993,829.418,73.183,828.017z"></path>
				</g>
				<g>
					<path fill="#FFFFFF" d="M110.362,795.22l-2.968-5.14c-0.809-1.401-0.809-3.128,0-4.53l2.968-5.14       c0.809-1.402,2.305-2.265,3.923-2.265h5.936c1.618,0,3.114,0.863,3.923,2.265l2.968,5.14c0.809,1.402,0.809,3.128,0,4.53       l-2.968,5.14c-0.809,1.401-2.305,2.265-3.923,2.265h-5.936C112.667,797.485,111.171,796.621,110.362,795.22z"></path>
				</g>
				<g>
					<path fill="#FFFFFF" d="M68.934,775.037l-2.968-5.14c-0.809-1.401-0.809-3.128,0-4.53l2.968-5.14       c0.809-1.401,2.305-2.265,3.923-2.265h5.936c1.618,0,3.114,0.863,3.923,2.265l2.968,5.14c0.809,1.401,0.809,3.128,0,4.53       l-2.968,5.14c-0.809,1.401-2.305,2.265-3.923,2.265h-5.936C71.239,777.302,69.744,776.439,68.934,775.037z"></path>
				</g>
			</g>
			<g clip-path="url(#SVGID_10_-i0)">
				<rect x="-47.03" y="246.49" fill="none" width="93.478" height="169.694"></rect>
				<g>
					<path fill="#FFFFFF" d="M26.444,403.782l-2.968-5.14c-0.809-1.402-0.809-3.128,0-4.53l2.968-5.14       c0.809-1.401,2.305-2.265,3.923-2.265h5.936c1.618,0,3.114,0.863,3.923,2.265l2.968,5.14c0.809,1.402,0.809,3.128,0,4.53       l-2.968,5.14c-0.809,1.402-2.305,2.265-3.923,2.265h-5.936C28.749,406.047,27.254,405.184,26.444,403.782z"></path>
				</g>
				<g>
					<path fill="#FFFFFF" d="M22.195,350.803l-2.968-5.14c-0.809-1.402-0.809-3.128,0-4.53l2.968-5.14       c0.809-1.402,2.305-2.265,3.923-2.265h5.936c1.618,0,3.114,0.863,3.923,2.265l2.968,5.14c0.809,1.402,0.809,3.128,0,4.53       l-2.968,5.14c-0.809,1.401-2.305,2.265-3.923,2.265h-5.936C24.5,353.068,23.005,352.205,22.195,350.803z"></path>
				</g>
				<g>
					<path fill="#FFFFFF" d="M16.884,286.139l-2.968-5.14c-0.809-1.401-0.809-3.128,0-4.53l2.968-5.14       c0.809-1.401,2.305-2.265,3.923-2.265h5.936c1.618,0,3.114,0.863,3.923,2.265l2.968,5.14c0.809,1.401,0.809,3.128,0,4.53       l-2.968,5.14c-0.809,1.402-2.305,2.265-3.923,2.265h-5.936C19.189,288.404,17.693,287.54,16.884,286.139z"></path>
				</g>
			</g>
			<g clip-path="url(#SVGID_10_-i0)">
				<rect x="-47.03" y="416.184" fill="none" width="93.478" height="169.694"></rect>
				<g>
					<path fill="#FFFFFF" d="M26.444,573.476l-2.968-5.14c-0.809-1.402-0.809-3.128,0-4.53l2.968-5.14       c0.809-1.401,2.305-2.265,3.923-2.265h5.936c1.618,0,3.114,0.863,3.923,2.265l2.968,5.14c0.809,1.402,0.809,3.128,0,4.53       l-2.968,5.14c-0.809,1.402-2.305,2.265-3.923,2.265h-5.936C28.749,575.741,27.254,574.878,26.444,573.476z"></path>
				</g>
				<g>
					<path fill="#FFFFFF" d="M22.195,520.497l-2.968-5.14c-0.809-1.402-0.809-3.128,0-4.53l2.968-5.14       c0.809-1.401,2.305-2.265,3.923-2.265h5.936c1.618,0,3.114,0.863,3.923,2.265l2.968,5.14c0.809,1.402,0.809,3.128,0,4.53       l-2.968,5.14c-0.809,1.401-2.305,2.265-3.923,2.265h-5.936C24.5,522.762,23.005,521.898,22.195,520.497z"></path>
				</g>
				<g>
					<path fill="#FFFFFF" d="M16.884,455.833l-2.968-5.14c-0.809-1.402-0.809-3.128,0-4.53l2.968-5.14       c0.809-1.401,2.305-2.265,3.923-2.265h5.936c1.618,0,3.114,0.863,3.923,2.265l2.968,5.14c0.809,1.402,0.809,3.128,0,4.53       l-2.968,5.14c-0.809,1.402-2.305,2.265-3.923,2.265h-5.936C19.189,458.097,17.693,457.234,16.884,455.833z"></path>
				</g>
			</g>
			<g clip-path="url(#SVGID_10_-i0)">
				<rect x="-47.03" y="585.878" fill="none" width="93.478" height="169.694"></rect>
				<g>
					<path fill="#FFFFFF" d="M26.444,743.17l-2.968-5.14c-0.809-1.401-0.809-3.128,0-4.53l2.968-5.14       c0.809-1.401,2.305-2.265,3.923-2.265h5.936c1.618,0,3.114,0.863,3.923,2.265l2.968,5.14c0.809,1.401,0.809,3.128,0,4.53       l-2.968,5.14c-0.809,1.401-2.305,2.265-3.923,2.265h-5.936C28.749,745.435,27.254,744.571,26.444,743.17z"></path>
				</g>
				<g>
					<path fill="#FFFFFF" d="M22.195,690.19l-2.968-5.14c-0.809-1.401-0.809-3.128,0-4.53l2.968-5.14       c0.809-1.401,2.305-2.265,3.923-2.265h5.936c1.618,0,3.114,0.863,3.923,2.265l2.968,5.14c0.809,1.401,0.809,3.128,0,4.53       l-2.968,5.14c-0.809,1.402-2.305,2.265-3.923,2.265h-5.936C24.5,692.455,23.005,691.592,22.195,690.19z"></path>
				</g>
				<g>
					<path fill="#FFFFFF" d="M16.884,625.526l-2.968-5.14c-0.809-1.401-0.809-3.128,0-4.53l2.968-5.14       c0.809-1.401,2.305-2.265,3.923-2.265h5.936c1.618,0,3.114,0.863,3.923,2.265l2.968,5.14c0.809,1.401,0.809,3.128,0,4.53       l-2.968,5.14c-0.809,1.401-2.305,2.265-3.923,2.265h-5.936C19.189,627.791,17.693,626.928,16.884,625.526z"></path>
				</g>
			</g>
			<g clip-path="url(#SVGID_10_-i0)">
				<rect x="-47.03" y="755.571" fill="none" width="93.478" height="169.694"></rect>
				<g>
				</g>
				<g>
					<path fill="#FFFFFF" d="M16.884,795.22l-2.968-5.14c-0.809-1.401-0.809-3.128,0-4.53l2.968-5.14       c0.809-1.402,2.305-2.265,3.923-2.265h5.936c1.618,0,3.114,0.863,3.923,2.265l2.968,5.14c0.809,1.402,0.809,3.128,0,4.53       l-2.968,5.14c-0.809,1.401-2.305,2.265-3.923,2.265h-5.936C19.189,797.485,17.693,796.621,16.884,795.22z"></path>
				</g>
			</g>
		</g>
	</g>
</g>
<path fill="#BE6361" d="M97.048,198.458l4.188-29.612c2.326-16.554-8.345-32.093-23.835-34.706  c-13.699-2.311-26.88,6.292-31.175,20.348l-6.842,22.543"></path>
<path fill="#2B2B2B" d="M97.266,508.303l53.315,120.8l6.667,93c0,0-16.667-54.667-28.667-66.667c-8.34-8.34-12-20-13.333-42.667  c-1.282-21.802-15.087-29.095-21.087-51.594C88.161,538.677,97.266,508.303,97.266,508.303z"></path>
<linearGradient id="SVGID_11_-i0" gradientUnits="userSpaceOnUse" x1="127.1226" y1="234.46" x2="127.1226" y2="-113.6432" gradientTransform="matrix(0.6677 0.2859 -0.3936 0.9193 32.9687 75.222)">
	<stop offset="0" style="stop-color:#77879D"></stop>
	<stop offset="0.41" style="stop-color:#FDBB6D"></stop>
	<stop offset="0.5" style="stop-color:#FDBB9F"></stop>
	<stop offset="0.6" style="stop-color:#D1D2D1"></stop>
	<stop offset="1" style="stop-color:#FECEAA"></stop>
</linearGradient>
<path fill="url(#SVGID_11_-i0)" d="M183.628,42.368c-6.196,14.469-24.894,20.342-41.764,13.118s-25.523-24.809-19.328-39.278  S147.43-4.134,164.3,3.09S189.824,27.899,183.628,42.368z"></path>
<ellipse transform="matrix(0.9193 0.3936 -0.3936 0.9193 37.9582 -50.4967)" fill="#2B2B2B" cx="142.082" cy="67.288" rx="33.229" ry="28.499"></ellipse>
<path fill="#BE6361" d="M174.745,190.033l29.24-27.6l-36.631-75.341l-43.068,18.471l29.284,79.471  c2.487,6.719,9.937,10.164,16.667,7.708C171.904,192.148,173.437,191.227,174.745,190.033z"></path>
<path fill="#BE6361" d="M138.731,161.724l26.964-11.491c13.965-5.956,20.459-22.105,14.503-36.07  c-0.005-0.013-0.011-0.026-0.016-0.038l-17.421-40.663c-9.593-22.334-35.475-32.662-57.809-23.069  c-0.009,0.004-0.018,0.008-0.027,0.012l0,0c-22.334,9.593-32.662,35.475-23.068,57.809c0.004,0.009,0.008,0.019,0.012,0.028  l16.062,37.331C104.805,161.23,123.003,168.434,138.731,161.724L138.731,161.724z"></path>
<g>
	<path fill="#2B2B2B" d="M102.546,129.403c-0.073,0-0.148-0.006-0.223-0.018l-5.099-0.854c-2.524-0.798-3.938-3.437-3.198-6   l2.776-9.271c0.226-0.752,1.021-1.177,1.768-0.953c0.751,0.225,1.178,1.017,0.953,1.768l-2.772,9.258   c-0.306,1.059,0.286,2.162,1.35,2.498l0.089,0.029l4.575,0.721c0.775,0.122,1.304,0.849,1.182,1.624   C103.836,128.904,103.233,129.403,102.546,129.403z"></path>
</g>
<path fill="#FFFFFF" d="M100.149,138.907c7.596,10.859,18.639,6.719,16.164-8.091L100.149,138.907z"></path>
<polygon fill="#2B2B2B" points="144.04,159.333 161.626,151.92 150.651,177.165 "></polygon>
<linearGradient id="SVGID_12_-i0" gradientUnits="userSpaceOnUse" x1="-59.0179" y1="-867.5056" x2="-59.0179" y2="-511.6801" gradientTransform="matrix(-0.8942 0.4476 -0.4476 -0.8942 -171.7426 -382.9437)">
	<stop offset="0" style="stop-color:#77879D"></stop>
	<stop offset="0.41" style="stop-color:#FDBB6D"></stop>
	<stop offset="0.5" style="stop-color:#FDBB9F"></stop>
	<stop offset="0.6" style="stop-color:#D1D2D1"></stop>
	<stop offset="1" style="stop-color:#FECEAA"></stop>
</linearGradient>
<path fill="url(#SVGID_12_-i0)" d="M189.1,130.64c-10.825-2.851-27.247-6.378-39.901-24.773  c-15.748-24.678-47.341-13.186-63.145-25.954c-6.099,27.897-11.167,17.472-7.591,0.25c3.449-16.541,20.597-33.15,43.309-34.023  s49.63,13.344,61.182,35.803C194.506,104.402,189.1,130.64,189.1,130.64z"></path>
<path fill="#2B2B2B" d="M42.029,811.828l52.192-13.12l68.949-0.958l-0.287,13.79c-0.055,5.726-4.712,10.34-10.438,10.342  L43.37,822.266c-2.924,0.049-5.333-2.282-5.382-5.206C37.947,814.586,39.625,812.413,42.029,811.828z"></path>
<path fill="#2B2B2B" d="M104.586,145.27c-4.915-3.291-9.034-4.81-16.07-5.104c-16.139-0.675-29.63,8.507-30.131,20.508  c-0.502,12.001,12.175,22.277,28.315,22.952c4.129,0.173,8.92-0.126,12.529-1.126L104.586,145.27z"></path>
<path fill="#BE6361" d="M113.535,152.446c0,12.012-13.095,21.749-29.249,21.749s-29.249-9.737-29.249-21.749  s2.67-18.892,18.824-18.892S113.535,140.435,113.535,152.446z"></path>
<g>
	<path fill="#2B2B2B" d="M32.888,271.018c-0.391,0-0.781-0.152-1.075-0.454c-0.578-0.594-0.564-1.544,0.029-2.122   c8.602-8.363,17.316-15.467,26.642-21.719c0.686-0.462,1.618-0.278,2.081,0.411c0.461,0.688,0.277,1.62-0.411,2.082   c-9.173,6.149-17.75,13.142-26.22,21.378C33.642,270.877,33.265,271.018,32.888,271.018z M66.06,245.164   c-0.506,0-1-0.256-1.282-0.721c-0.431-0.708-0.206-1.63,0.502-2.061c5.6-3.405,11.567-6.616,17.738-9.545   c0.749-0.356,1.644-0.037,1.999,0.712c0.354,0.749,0.036,1.643-0.712,1.998c-6.078,2.885-11.955,6.047-17.467,9.398   C66.595,245.093,66.325,245.164,66.06,245.164z"></path>
</g>
<g>
	<g>
		<path fill="#2B2B2B" d="M108.054,110.001c-0.405,0-0.817-0.016-1.237-0.046c-0.826-0.062-1.446-0.781-1.385-1.607    c0.062-0.828,0.796-1.441,1.607-1.385c4.737,0.355,8.418-1.71,11.285-6.334c0.437-0.706,1.362-0.919,2.064-0.484    c0.704,0.437,0.921,1.361,0.484,2.065C117.668,107.38,113.355,110.001,108.054,110.001z"></path>
	</g>
</g>
<g>
	<g>
		<path fill="#2B2B2B" d="M86.676,121.039c-0.478,0-0.948-0.228-1.238-0.653c-0.469-0.684-0.294-1.617,0.39-2.085    c1.526-1.044,2.915-2.567,4.129-4.526c0.438-0.705,1.362-0.919,2.065-0.484c0.704,0.437,0.921,1.361,0.485,2.065    c-1.436,2.315-3.112,4.139-4.984,5.42C87.263,120.954,86.968,121.039,86.676,121.039z"></path>
	</g>
</g>
<g>
	<g>
		<linearGradient id="SVGID_13_-i0" gradientUnits="userSpaceOnUse" x1="155.2409" y1="314.0714" x2="155.2409" y2="806.5748">
			<stop offset="0" style="stop-color:#77879D"></stop>
			<stop offset="0.089" style="stop-color:#A1978E"></stop>
			<stop offset="0.188" style="stop-color:#C9A780"></stop>
			<stop offset="0.279" style="stop-color:#E5B275"></stop>
			<stop offset="0.358" style="stop-color:#F7B96F"></stop>
			<stop offset="0.415" style="stop-color:#FDBB6D"></stop>
			<stop offset="0.499" style="stop-color:#FDBB9F"></stop>
			<stop offset="0.599" style="stop-color:#D1D2D1"></stop>
			<stop offset="1" style="stop-color:#FECEAA"></stop>
		</linearGradient>
		<path fill="url(#SVGID_13_-i0)" d="M229.413,572.504c-3.104-8.688-6.019-17.41-8.932-26.132l-8.934-26.132    c0,0-35.906-82.889-53.929-131.011c4.362-16.043,5.619-35.306,5.832-55.126H19.357c-0.009,0.445-0.025,0.889-0.025,1.333    c0,37.552,20.371,70.023,49.964,85.533l0.494,1.862c1.183,4.459,2.461,8.901,3.738,13.342c1.372,4.425,2.551,8.883,4.004,13.197    c5.375,17.622,11.221,35.159,17.411,52.442l2.323,6.492l2.418,6.475l4.741,12.968c3.287,8.655,6.467,17.233,9.947,25.854    l5.118,12.901l5.289,12.773c3.464,8.526,7.026,17.035,10.862,25.495c15.028,33.768,30.944,67.249,47.748,100.441    c8.496,16.579,17.165,33.031,26.21,49.414l6.844,12.209l3.417,6.105l3.61,6.071l7.125,12.159c2.463,4.035,4.837,8.08,7.479,11.994    l53.075-41.162L229.413,572.504z"></path>
	</g>
</g>
<polygon fill="#2B2B2B" points="192.63,264.919 180.694,245.416 179.54,284.82 "></polygon>
<g opacity="0.25">
	<defs>
		<path id="SVGID_53_-i0" opacity="0.25" d="M229.413,572.504c-3.104-8.688-6.019-17.41-8.932-26.132l-8.934-26.132    c0,0-35.906-82.889-53.929-131.011c4.362-16.043,5.619-35.306,5.832-55.126H19.357c-0.009,0.445-0.025,0.889-0.025,1.333    c0,37.552,20.371,70.023,49.964,85.533l0.494,1.862c1.183,4.459,2.461,8.901,3.738,13.342c1.372,4.425,2.551,8.883,4.004,13.197    c5.375,17.622,11.221,35.159,17.411,52.442l2.323,6.492l2.418,6.475l4.741,12.968c3.287,8.655,6.467,17.233,9.947,25.854    l5.118,12.901l5.289,12.773c3.464,8.526,7.026,17.035,10.862,25.495c15.028,33.768,30.944,67.249,47.748,100.441    c8.496,16.579,17.165,33.031,26.21,49.414l6.844,12.209l3.417,6.105l3.61,6.071l7.125,12.159c2.463,4.035,4.837,8.08,7.479,11.994    l53.075-41.162L229.413,572.504z"></path>
	</defs>
	<clipPath id="SVGID_14_-i0">
		<use xlink:href="#SVGID_53_-i0" overflow="visible"></use>
	</clipPath>
	<rect x="233.404" y="246.49" clip-path="url(#SVGID_14_-i0)" fill="none" width="93.478" height="169.694"></rect>
	<path clip-path="url(#SVGID_14_-i0)" fill="#FFFFFF" d="M306.878,403.782l-2.968-5.14c-0.809-1.402-0.809-3.128,0-4.53l2.968-5.14   c0.809-1.401,2.305-2.265,3.923-2.265h5.936c1.618,0,3.114,0.863,3.923,2.265l2.968,5.14c0.809,1.402,0.809,3.128,0,4.53   l-2.968,5.14c-0.809,1.402-2.305,2.265-3.923,2.265h-5.936C309.182,406.047,307.687,405.184,306.878,403.782z"></path>
	<path clip-path="url(#SVGID_14_-i0)" fill="#FFFFFF" d="M260.139,318.936l-2.968-5.14c-0.809-1.402-0.809-3.128,0-4.53l2.968-5.14   c0.809-1.402,2.305-2.265,3.923-2.265h5.936c1.618,0,3.114,0.863,3.923,2.265l2.968,5.14c0.809,1.402,0.809,3.128,0,4.53   l-2.968,5.14c-0.809,1.401-2.305,2.265-3.923,2.265h-5.936C262.443,321.201,260.948,320.337,260.139,318.936z"></path>
	<path clip-path="url(#SVGID_14_-i0)" fill="#FFFFFF" d="M302.629,350.803l-2.968-5.14c-0.809-1.402-0.809-3.128,0-4.53l2.968-5.14   c0.809-1.402,2.305-2.265,3.923-2.265h5.936c1.618,0,3.114,0.863,3.923,2.265l2.968,5.14c0.809,1.402,0.809,3.128,0,4.53   l-2.968,5.14c-0.809,1.401-2.305,2.265-3.923,2.265h-5.936C304.933,353.068,303.438,352.205,302.629,350.803z"></path>
	<path clip-path="url(#SVGID_14_-i0)" fill="#FFFFFF" d="M250.579,370.986l-2.968-5.14c-0.809-1.401-0.809-3.128,0-4.53l2.968-5.14   c0.809-1.402,2.305-2.265,3.923-2.265h5.936c1.618,0,3.114,0.863,3.923,2.265l2.968,5.14c0.809,1.402,0.809,3.128,0,4.53   l-2.968,5.14c-0.809,1.401-2.305,2.265-3.923,2.265h-5.936C252.883,373.251,251.388,372.387,250.579,370.986z"></path>
	<path clip-path="url(#SVGID_14_-i0)" fill="#FFFFFF" d="M297.318,286.139l-2.968-5.14c-0.809-1.401-0.809-3.128,0-4.53l2.968-5.14   c0.809-1.401,2.305-2.265,3.923-2.265h5.936c1.618,0,3.114,0.863,3.923,2.265l2.968,5.14c0.809,1.401,0.809,3.128,0,4.53   l-2.968,5.14c-0.809,1.402-2.305,2.265-3.923,2.265h-5.936C299.622,288.404,298.127,287.54,297.318,286.139z"></path>
	<path clip-path="url(#SVGID_14_-i0)" fill="#FFFFFF" d="M255.89,265.956l-2.968-5.14c-0.809-1.401-0.809-3.128,0-4.53l2.968-5.14   c0.809-1.402,2.305-2.265,3.923-2.265h5.936c1.618,0,3.114,0.863,3.923,2.265l2.968,5.14c0.809,1.401,0.809,3.128,0,4.53   l-2.968,5.14c-0.809,1.402-2.305,2.265-3.923,2.265h-5.936C258.194,268.221,256.699,267.358,255.89,265.956z"></path>
	<rect x="233.404" y="416.184" clip-path="url(#SVGID_14_-i0)" fill="none" width="93.478" height="169.694"></rect>
	<path clip-path="url(#SVGID_14_-i0)" fill="#FFFFFF" d="M306.878,573.476l-2.968-5.14c-0.809-1.402-0.809-3.128,0-4.53l2.968-5.14   c0.809-1.401,2.305-2.265,3.923-2.265h5.936c1.618,0,3.114,0.863,3.923,2.265l2.968,5.14c0.809,1.402,0.809,3.128,0,4.53   l-2.968,5.14c-0.809,1.402-2.305,2.265-3.923,2.265h-5.936C309.182,575.741,307.687,574.878,306.878,573.476z"></path>
	<path clip-path="url(#SVGID_14_-i0)" fill="#FFFFFF" d="M260.139,488.629l-2.968-5.14c-0.809-1.401-0.809-3.128,0-4.53l2.968-5.14   c0.809-1.401,2.305-2.265,3.923-2.265h5.936c1.618,0,3.114,0.863,3.923,2.265l2.968,5.14c0.809,1.401,0.809,3.128,0,4.53   l-2.968,5.14c-0.809,1.402-2.305,2.265-3.923,2.265h-5.936C262.443,490.894,260.948,490.031,260.139,488.629z"></path>
	<path clip-path="url(#SVGID_14_-i0)" fill="#FFFFFF" d="M302.629,520.497l-2.968-5.14c-0.809-1.402-0.809-3.128,0-4.53l2.968-5.14   c0.809-1.401,2.305-2.265,3.923-2.265h5.936c1.618,0,3.114,0.863,3.923,2.265l2.968,5.14c0.809,1.402,0.809,3.128,0,4.53   l-2.968,5.14c-0.809,1.401-2.305,2.265-3.923,2.265h-5.936C304.933,522.762,303.438,521.898,302.629,520.497z"></path>
	<path clip-path="url(#SVGID_14_-i0)" fill="#FFFFFF" d="M250.579,540.679l-2.968-5.14c-0.809-1.401-0.809-3.128,0-4.53l2.968-5.14   c0.809-1.401,2.305-2.265,3.923-2.265h5.936c1.618,0,3.114,0.863,3.923,2.265l2.968,5.14c0.809,1.401,0.809,3.128,0,4.53   l-2.968,5.14c-0.809,1.401-2.305,2.265-3.923,2.265h-5.936C252.883,542.944,251.388,542.081,250.579,540.679z"></path>
	<path clip-path="url(#SVGID_14_-i0)" fill="#FFFFFF" d="M297.318,455.833l-2.968-5.14c-0.809-1.402-0.809-3.128,0-4.53l2.968-5.14   c0.809-1.401,2.305-2.265,3.923-2.265h5.936c1.618,0,3.114,0.863,3.923,2.265l2.968,5.14c0.809,1.402,0.809,3.128,0,4.53   l-2.968,5.14c-0.809,1.402-2.305,2.265-3.923,2.265h-5.936C299.622,458.097,298.127,457.234,297.318,455.833z"></path>
	<path clip-path="url(#SVGID_14_-i0)" fill="#FFFFFF" d="M255.89,435.65l-2.968-5.14c-0.809-1.402-0.809-3.128,0-4.53l2.968-5.14   c0.809-1.401,2.305-2.265,3.923-2.265h5.936c1.618,0,3.114,0.863,3.923,2.265l2.968,5.14c0.809,1.402,0.809,3.128,0,4.53   l-2.968,5.14c-0.809,1.402-2.305,2.265-3.923,2.265h-5.936C258.194,437.915,256.699,437.051,255.89,435.65z"></path>
	<rect x="233.404" y="585.878" clip-path="url(#SVGID_14_-i0)" fill="none" width="93.478" height="169.694"></rect>
	<path clip-path="url(#SVGID_14_-i0)" fill="#FFFFFF" d="M306.878,743.17l-2.968-5.14c-0.809-1.401-0.809-3.128,0-4.53l2.968-5.14   c0.809-1.401,2.305-2.265,3.923-2.265h5.936c1.618,0,3.114,0.863,3.923,2.265l2.968,5.14c0.809,1.401,0.809,3.128,0,4.53   l-2.968,5.14c-0.809,1.401-2.305,2.265-3.923,2.265h-5.936C309.182,745.435,307.687,744.571,306.878,743.17z"></path>
	<path clip-path="url(#SVGID_14_-i0)" fill="#FFFFFF" d="M260.139,658.323l-2.968-5.14c-0.809-1.401-0.809-3.128,0-4.53l2.968-5.14   c0.809-1.401,2.305-2.265,3.923-2.265h5.936c1.618,0,3.114,0.863,3.923,2.265l2.968,5.14c0.809,1.401,0.809,3.128,0,4.53   l-2.968,5.14c-0.809,1.402-2.305,2.265-3.923,2.265h-5.936C262.443,660.588,260.948,659.724,260.139,658.323z"></path>
	<path clip-path="url(#SVGID_14_-i0)" fill="#FFFFFF" d="M302.629,690.19l-2.968-5.14c-0.809-1.401-0.809-3.128,0-4.53l2.968-5.14   c0.809-1.401,2.305-2.265,3.923-2.265h5.936c1.618,0,3.114,0.863,3.923,2.265l2.968,5.14c0.809,1.401,0.809,3.128,0,4.53   l-2.968,5.14c-0.809,1.402-2.305,2.265-3.923,2.265h-5.936C304.933,692.455,303.438,691.592,302.629,690.19z"></path>
	<path clip-path="url(#SVGID_14_-i0)" fill="#FFFFFF" d="M250.579,710.373l-2.968-5.14c-0.809-1.401-0.809-3.128,0-4.53l2.968-5.14   c0.809-1.401,2.305-2.265,3.923-2.265h5.936c1.618,0,3.114,0.863,3.923,2.265l2.968,5.14c0.809,1.401,0.809,3.128,0,4.53   l-2.968,5.14c-0.809,1.401-2.305,2.265-3.923,2.265h-5.936C252.883,712.638,251.388,711.775,250.579,710.373z"></path>
	<path clip-path="url(#SVGID_14_-i0)" fill="#FFFFFF" d="M297.318,625.526l-2.968-5.14c-0.809-1.401-0.809-3.128,0-4.53l2.968-5.14   c0.809-1.401,2.305-2.265,3.923-2.265h5.936c1.618,0,3.114,0.863,3.923,2.265l2.968,5.14c0.809,1.401,0.809,3.128,0,4.53   l-2.968,5.14c-0.809,1.401-2.305,2.265-3.923,2.265h-5.936C299.622,627.791,298.127,626.928,297.318,625.526z"></path>
	<path clip-path="url(#SVGID_14_-i0)" fill="#FFFFFF" d="M255.89,605.344l-2.968-5.14c-0.809-1.402-0.809-3.128,0-4.53l2.968-5.14   c0.809-1.401,2.305-2.265,3.923-2.265h5.936c1.618,0,3.114,0.863,3.923,2.265l2.968,5.14c0.809,1.402,0.809,3.128,0,4.53   l-2.968,5.14c-0.809,1.402-2.305,2.265-3.923,2.265h-5.936C258.194,607.608,256.699,606.745,255.89,605.344z"></path>
	<rect x="233.404" y="755.571" clip-path="url(#SVGID_14_-i0)" fill="none" width="93.478" height="169.694"></rect>
	<path clip-path="url(#SVGID_14_-i0)" fill="#FFFFFF" d="M260.139,828.017l-2.968-5.14c-0.809-1.401-0.809-3.128,0-4.53l2.968-5.14   c0.809-1.401,2.305-2.265,3.923-2.265h5.936c1.618,0,3.114,0.863,3.923,2.265l2.968,5.14c0.809,1.401,0.809,3.128,0,4.53   l-2.968,5.14c-0.809,1.401-2.305,2.265-3.923,2.265h-5.936C262.443,830.281,260.948,829.418,260.139,828.017z"></path>
	<path clip-path="url(#SVGID_14_-i0)" fill="#FFFFFF" d="M297.318,795.22l-2.968-5.14c-0.809-1.401-0.809-3.128,0-4.53l2.968-5.14   c0.809-1.402,2.305-2.265,3.923-2.265h5.936c1.618,0,3.114,0.863,3.923,2.265l2.968,5.14c0.809,1.402,0.809,3.128,0,4.53   l-2.968,5.14c-0.809,1.401-2.305,2.265-3.923,2.265h-5.936C299.622,797.485,298.127,796.621,297.318,795.22z"></path>
	<path clip-path="url(#SVGID_14_-i0)" fill="#FFFFFF" d="M255.89,775.037l-2.968-5.14c-0.809-1.401-0.809-3.128,0-4.53l2.968-5.14   c0.809-1.401,2.305-2.265,3.923-2.265h5.936c1.618,0,3.114,0.863,3.923,2.265l2.968,5.14c0.809,1.401,0.809,3.128,0,4.53   l-2.968,5.14c-0.809,1.401-2.305,2.265-3.923,2.265h-5.936C258.194,777.302,256.699,776.439,255.89,775.037z"></path>
	<rect x="139.926" y="246.49" clip-path="url(#SVGID_14_-i0)" fill="none" width="93.478" height="169.694"></rect>
	<path clip-path="url(#SVGID_14_-i0)" fill="#FFFFFF" d="M213.4,403.782l-2.968-5.14c-0.809-1.402-0.809-3.128,0-4.53l2.968-5.14   c0.809-1.401,2.305-2.265,3.923-2.265h5.936c1.618,0,3.114,0.863,3.923,2.265l2.968,5.14c0.809,1.402,0.809,3.128,0,4.53   l-2.968,5.14c-0.809,1.402-2.305,2.265-3.923,2.265h-5.936C215.705,406.047,214.209,405.184,213.4,403.782z"></path>
	<path clip-path="url(#SVGID_14_-i0)" fill="#FFFFFF" d="M166.661,318.936l-2.968-5.14c-0.809-1.402-0.809-3.128,0-4.53l2.968-5.14   c0.809-1.402,2.305-2.265,3.923-2.265h5.936c1.618,0,3.114,0.863,3.923,2.265l2.968,5.14c0.809,1.402,0.809,3.128,0,4.53   l-2.968,5.14c-0.809,1.401-2.305,2.265-3.923,2.265h-5.936C168.966,321.201,167.47,320.337,166.661,318.936z"></path>
	<path clip-path="url(#SVGID_14_-i0)" fill="#FFFFFF" d="M209.151,350.803l-2.968-5.14c-0.809-1.402-0.809-3.128,0-4.53l2.968-5.14   c0.809-1.402,2.305-2.265,3.923-2.265h5.936c1.618,0,3.114,0.863,3.923,2.265l2.968,5.14c0.809,1.402,0.809,3.128,0,4.53   l-2.968,5.14c-0.809,1.401-2.305,2.265-3.923,2.265h-5.936C211.456,353.068,209.96,352.205,209.151,350.803z"></path>
	<path clip-path="url(#SVGID_14_-i0)" fill="#FFFFFF" d="M157.101,370.986l-2.968-5.14c-0.809-1.401-0.809-3.128,0-4.53l2.968-5.14   c0.809-1.402,2.305-2.265,3.923-2.265h5.936c1.618,0,3.114,0.863,3.923,2.265l2.968,5.14c0.809,1.402,0.809,3.128,0,4.53   l-2.968,5.14c-0.809,1.401-2.305,2.265-3.923,2.265h-5.936C159.405,373.251,157.91,372.387,157.101,370.986z"></path>
	<path clip-path="url(#SVGID_14_-i0)" fill="#FFFFFF" d="M203.84,286.139l-2.968-5.14c-0.809-1.401-0.809-3.128,0-4.53l2.968-5.14   c0.809-1.401,2.305-2.265,3.923-2.265h5.936c1.618,0,3.114,0.863,3.923,2.265l2.968,5.14c0.809,1.401,0.809,3.128,0,4.53   l-2.968,5.14c-0.809,1.402-2.305,2.265-3.923,2.265h-5.936C206.144,288.404,204.649,287.54,203.84,286.139z"></path>
	<path clip-path="url(#SVGID_14_-i0)" fill="#FFFFFF" d="M162.412,265.956l-2.968-5.14c-0.809-1.401-0.809-3.128,0-4.53l2.968-5.14   c0.809-1.402,2.305-2.265,3.923-2.265h5.936c1.618,0,3.114,0.863,3.923,2.265l2.968,5.14c0.809,1.401,0.809,3.128,0,4.53   l-2.968,5.14c-0.809,1.402-2.305,2.265-3.923,2.265h-5.936C164.717,268.221,163.221,267.358,162.412,265.956z"></path>
	<rect x="139.926" y="416.184" clip-path="url(#SVGID_14_-i0)" fill="none" width="93.478" height="169.694"></rect>
	<path clip-path="url(#SVGID_14_-i0)" fill="#FFFFFF" d="M213.4,573.476l-2.968-5.14c-0.809-1.402-0.809-3.128,0-4.53l2.968-5.14   c0.809-1.401,2.305-2.265,3.923-2.265h5.936c1.618,0,3.114,0.863,3.923,2.265l2.968,5.14c0.809,1.402,0.809,3.128,0,4.53   l-2.968,5.14c-0.809,1.402-2.305,2.265-3.923,2.265h-5.936C215.705,575.741,214.209,574.878,213.4,573.476z"></path>
	<path clip-path="url(#SVGID_14_-i0)" fill="#FFFFFF" d="M166.661,488.629l-2.968-5.14c-0.809-1.401-0.809-3.128,0-4.53l2.968-5.14   c0.809-1.401,2.305-2.265,3.923-2.265h5.936c1.618,0,3.114,0.863,3.923,2.265l2.968,5.14c0.809,1.401,0.809,3.128,0,4.53   l-2.968,5.14c-0.809,1.402-2.305,2.265-3.923,2.265h-5.936C168.966,490.894,167.47,490.031,166.661,488.629z"></path>
	<path clip-path="url(#SVGID_14_-i0)" fill="#FFFFFF" d="M209.151,520.497l-2.968-5.14c-0.809-1.402-0.809-3.128,0-4.53l2.968-5.14   c0.809-1.401,2.305-2.265,3.923-2.265h5.936c1.618,0,3.114,0.863,3.923,2.265l2.968,5.14c0.809,1.402,0.809,3.128,0,4.53   l-2.968,5.14c-0.809,1.401-2.305,2.265-3.923,2.265h-5.936C211.456,522.762,209.96,521.898,209.151,520.497z"></path>
	<path clip-path="url(#SVGID_14_-i0)" fill="#FFFFFF" d="M157.101,540.679l-2.968-5.14c-0.809-1.401-0.809-3.128,0-4.53l2.968-5.14   c0.809-1.401,2.305-2.265,3.923-2.265h5.936c1.618,0,3.114,0.863,3.923,2.265l2.968,5.14c0.809,1.401,0.809,3.128,0,4.53   l-2.968,5.14c-0.809,1.401-2.305,2.265-3.923,2.265h-5.936C159.405,542.944,157.91,542.081,157.101,540.679z"></path>
	<path clip-path="url(#SVGID_14_-i0)" fill="#FFFFFF" d="M203.84,455.833l-2.968-5.14c-0.809-1.402-0.809-3.128,0-4.53l2.968-5.14   c0.809-1.401,2.305-2.265,3.923-2.265h5.936c1.618,0,3.114,0.863,3.923,2.265l2.968,5.14c0.809,1.402,0.809,3.128,0,4.53   l-2.968,5.14c-0.809,1.402-2.305,2.265-3.923,2.265h-5.936C206.144,458.097,204.649,457.234,203.84,455.833z"></path>
	<path clip-path="url(#SVGID_14_-i0)" fill="#FFFFFF" d="M162.412,435.65l-2.968-5.14c-0.809-1.402-0.809-3.128,0-4.53l2.968-5.14   c0.809-1.401,2.305-2.265,3.923-2.265h5.936c1.618,0,3.114,0.863,3.923,2.265l2.968,5.14c0.809,1.402,0.809,3.128,0,4.53   l-2.968,5.14c-0.809,1.402-2.305,2.265-3.923,2.265h-5.936C164.717,437.915,163.221,437.051,162.412,435.65z"></path>
	<rect x="139.926" y="585.878" clip-path="url(#SVGID_14_-i0)" fill="none" width="93.478" height="169.694"></rect>
	<path clip-path="url(#SVGID_14_-i0)" fill="#FFFFFF" d="M213.4,743.17l-2.968-5.14c-0.809-1.401-0.809-3.128,0-4.53l2.968-5.14   c0.809-1.401,2.305-2.265,3.923-2.265h5.936c1.618,0,3.114,0.863,3.923,2.265l2.968,5.14c0.809,1.401,0.809,3.128,0,4.53   l-2.968,5.14c-0.809,1.401-2.305,2.265-3.923,2.265h-5.936C215.705,745.435,214.209,744.571,213.4,743.17z"></path>
	<path clip-path="url(#SVGID_14_-i0)" fill="#FFFFFF" d="M166.661,658.323l-2.968-5.14c-0.809-1.401-0.809-3.128,0-4.53l2.968-5.14   c0.809-1.401,2.305-2.265,3.923-2.265h5.936c1.618,0,3.114,0.863,3.923,2.265l2.968,5.14c0.809,1.401,0.809,3.128,0,4.53   l-2.968,5.14c-0.809,1.402-2.305,2.265-3.923,2.265h-5.936C168.966,660.588,167.47,659.724,166.661,658.323z"></path>
	<path clip-path="url(#SVGID_14_-i0)" fill="#FFFFFF" d="M209.151,690.19l-2.968-5.14c-0.809-1.401-0.809-3.128,0-4.53l2.968-5.14   c0.809-1.401,2.305-2.265,3.923-2.265h5.936c1.618,0,3.114,0.863,3.923,2.265l2.968,5.14c0.809,1.401,0.809,3.128,0,4.53   l-2.968,5.14c-0.809,1.402-2.305,2.265-3.923,2.265h-5.936C211.456,692.455,209.96,691.592,209.151,690.19z"></path>
	<path clip-path="url(#SVGID_14_-i0)" fill="#FFFFFF" d="M157.101,710.373l-2.968-5.14c-0.809-1.401-0.809-3.128,0-4.53l2.968-5.14   c0.809-1.401,2.305-2.265,3.923-2.265h5.936c1.618,0,3.114,0.863,3.923,2.265l2.968,5.14c0.809,1.401,0.809,3.128,0,4.53   l-2.968,5.14c-0.809,1.401-2.305,2.265-3.923,2.265h-5.936C159.405,712.638,157.91,711.775,157.101,710.373z"></path>
	<path clip-path="url(#SVGID_14_-i0)" fill="#FFFFFF" d="M203.84,625.526l-2.968-5.14c-0.809-1.401-0.809-3.128,0-4.53l2.968-5.14   c0.809-1.401,2.305-2.265,3.923-2.265h5.936c1.618,0,3.114,0.863,3.923,2.265l2.968,5.14c0.809,1.401,0.809,3.128,0,4.53   l-2.968,5.14c-0.809,1.401-2.305,2.265-3.923,2.265h-5.936C206.144,627.791,204.649,626.928,203.84,625.526z"></path>
	<path clip-path="url(#SVGID_14_-i0)" fill="#FFFFFF" d="M162.412,605.344l-2.968-5.14c-0.809-1.402-0.809-3.128,0-4.53l2.968-5.14   c0.809-1.401,2.305-2.265,3.923-2.265h5.936c1.618,0,3.114,0.863,3.923,2.265l2.968,5.14c0.809,1.402,0.809,3.128,0,4.53   l-2.968,5.14c-0.809,1.402-2.305,2.265-3.923,2.265h-5.936C164.717,607.608,163.221,606.745,162.412,605.344z"></path>
	<rect x="139.926" y="755.571" clip-path="url(#SVGID_14_-i0)" fill="none" width="93.478" height="169.694"></rect>
	<path clip-path="url(#SVGID_14_-i0)" fill="#FFFFFF" d="M166.661,828.017l-2.968-5.14c-0.809-1.401-0.809-3.128,0-4.53l2.968-5.14   c0.809-1.401,2.305-2.265,3.923-2.265h5.936c1.618,0,3.114,0.863,3.923,2.265l2.968,5.14c0.809,1.401,0.809,3.128,0,4.53   l-2.968,5.14c-0.809,1.401-2.305,2.265-3.923,2.265h-5.936C168.966,830.281,167.47,829.418,166.661,828.017z"></path>
	<path clip-path="url(#SVGID_14_-i0)" fill="#FFFFFF" d="M203.84,795.22l-2.968-5.14c-0.809-1.401-0.809-3.128,0-4.53l2.968-5.14   c0.809-1.402,2.305-2.265,3.923-2.265h5.936c1.618,0,3.114,0.863,3.923,2.265l2.968,5.14c0.809,1.402,0.809,3.128,0,4.53   l-2.968,5.14c-0.809,1.401-2.305,2.265-3.923,2.265h-5.936C206.144,797.485,204.649,796.621,203.84,795.22z"></path>
	<path clip-path="url(#SVGID_14_-i0)" fill="#FFFFFF" d="M162.412,775.037l-2.968-5.14c-0.809-1.401-0.809-3.128,0-4.53l2.968-5.14   c0.809-1.401,2.305-2.265,3.923-2.265h5.936c1.618,0,3.114,0.863,3.923,2.265l2.968,5.14c0.809,1.401,0.809,3.128,0,4.53   l-2.968,5.14c-0.809,1.401-2.305,2.265-3.923,2.265h-5.936C164.717,777.302,163.221,776.439,162.412,775.037z"></path>
	<rect x="46.448" y="246.49" clip-path="url(#SVGID_14_-i0)" fill="none" width="93.478" height="169.694"></rect>
	<path clip-path="url(#SVGID_14_-i0)" fill="#FFFFFF" d="M119.922,403.782l-2.968-5.14c-0.809-1.402-0.809-3.128,0-4.53l2.968-5.14   c0.809-1.401,2.305-2.265,3.923-2.265h5.936c1.618,0,3.114,0.863,3.923,2.265l2.968,5.14c0.809,1.402,0.809,3.128,0,4.53   l-2.968,5.14c-0.809,1.402-2.305,2.265-3.923,2.265h-5.936C122.227,406.047,120.731,405.184,119.922,403.782z"></path>
	<path clip-path="url(#SVGID_14_-i0)" fill="#FFFFFF" d="M73.183,318.936l-2.968-5.14c-0.809-1.402-0.809-3.128,0-4.53l2.968-5.14   c0.809-1.402,2.305-2.265,3.923-2.265h5.936c1.618,0,3.114,0.863,3.923,2.265l2.968,5.14c0.809,1.402,0.809,3.128,0,4.53   l-2.968,5.14c-0.809,1.401-2.305,2.265-3.923,2.265h-5.936C75.488,321.201,73.993,320.337,73.183,318.936z"></path>
	<path clip-path="url(#SVGID_14_-i0)" fill="#FFFFFF" d="M115.673,350.803l-2.968-5.14c-0.809-1.402-0.809-3.128,0-4.53l2.968-5.14   c0.809-1.402,2.305-2.265,3.923-2.265h5.936c1.618,0,3.114,0.863,3.923,2.265l2.968,5.14c0.809,1.402,0.809,3.128,0,4.53   l-2.968,5.14c-0.809,1.401-2.305,2.265-3.923,2.265h-5.936C117.978,353.068,116.482,352.205,115.673,350.803z"></path>
	<path clip-path="url(#SVGID_14_-i0)" fill="#FFFFFF" d="M63.623,370.986l-2.968-5.14c-0.809-1.401-0.809-3.128,0-4.53l2.968-5.14   c0.809-1.402,2.305-2.265,3.923-2.265h5.936c1.618,0,3.114,0.863,3.923,2.265l2.968,5.14c0.809,1.402,0.809,3.128,0,4.53   l-2.968,5.14c-0.809,1.401-2.305,2.265-3.923,2.265h-5.936C65.928,373.251,64.432,372.387,63.623,370.986z"></path>
	<path clip-path="url(#SVGID_14_-i0)" fill="#FFFFFF" d="M110.362,286.139l-2.968-5.14c-0.809-1.401-0.809-3.128,0-4.53l2.968-5.14   c0.809-1.401,2.305-2.265,3.923-2.265h5.936c1.618,0,3.114,0.863,3.923,2.265l2.968,5.14c0.809,1.401,0.809,3.128,0,4.53   l-2.968,5.14c-0.809,1.402-2.305,2.265-3.923,2.265h-5.936C112.667,288.404,111.171,287.54,110.362,286.139z"></path>
	<path clip-path="url(#SVGID_14_-i0)" fill="#FFFFFF" d="M68.934,265.956l-2.968-5.14c-0.809-1.401-0.809-3.128,0-4.53l2.968-5.14   c0.809-1.402,2.305-2.265,3.923-2.265h5.936c1.618,0,3.114,0.863,3.923,2.265l2.968,5.14c0.809,1.401,0.809,3.128,0,4.53   l-2.968,5.14c-0.809,1.402-2.305,2.265-3.923,2.265h-5.936C71.239,268.221,69.744,267.358,68.934,265.956z"></path>
	<rect x="46.448" y="416.184" clip-path="url(#SVGID_14_-i0)" fill="none" width="93.478" height="169.694"></rect>
	<path clip-path="url(#SVGID_14_-i0)" fill="#FFFFFF" d="M119.922,573.476l-2.968-5.14c-0.809-1.402-0.809-3.128,0-4.53l2.968-5.14   c0.809-1.401,2.305-2.265,3.923-2.265h5.936c1.618,0,3.114,0.863,3.923,2.265l2.968,5.14c0.809,1.402,0.809,3.128,0,4.53   l-2.968,5.14c-0.809,1.402-2.305,2.265-3.923,2.265h-5.936C122.227,575.741,120.731,574.878,119.922,573.476z"></path>
	<path clip-path="url(#SVGID_14_-i0)" fill="#FFFFFF" d="M73.183,488.629l-2.968-5.14c-0.809-1.401-0.809-3.128,0-4.53l2.968-5.14   c0.809-1.401,2.305-2.265,3.923-2.265h5.936c1.618,0,3.114,0.863,3.923,2.265l2.968,5.14c0.809,1.401,0.809,3.128,0,4.53   l-2.968,5.14c-0.809,1.402-2.305,2.265-3.923,2.265h-5.936C75.488,490.894,73.993,490.031,73.183,488.629z"></path>
	<path clip-path="url(#SVGID_14_-i0)" fill="#FFFFFF" d="M115.673,520.497l-2.968-5.14c-0.809-1.402-0.809-3.128,0-4.53l2.968-5.14   c0.809-1.401,2.305-2.265,3.923-2.265h5.936c1.618,0,3.114,0.863,3.923,2.265l2.968,5.14c0.809,1.402,0.809,3.128,0,4.53   l-2.968,5.14c-0.809,1.401-2.305,2.265-3.923,2.265h-5.936C117.978,522.762,116.482,521.898,115.673,520.497z"></path>
	<path clip-path="url(#SVGID_14_-i0)" fill="#FFFFFF" d="M63.623,540.679l-2.968-5.14c-0.809-1.401-0.809-3.128,0-4.53l2.968-5.14   c0.809-1.401,2.305-2.265,3.923-2.265h5.936c1.618,0,3.114,0.863,3.923,2.265l2.968,5.14c0.809,1.401,0.809,3.128,0,4.53   l-2.968,5.14c-0.809,1.401-2.305,2.265-3.923,2.265h-5.936C65.928,542.944,64.432,542.081,63.623,540.679z"></path>
	<path clip-path="url(#SVGID_14_-i0)" fill="#FFFFFF" d="M110.362,455.833l-2.968-5.14c-0.809-1.402-0.809-3.128,0-4.53l2.968-5.14   c0.809-1.401,2.305-2.265,3.923-2.265h5.936c1.618,0,3.114,0.863,3.923,2.265l2.968,5.14c0.809,1.402,0.809,3.128,0,4.53   l-2.968,5.14c-0.809,1.402-2.305,2.265-3.923,2.265h-5.936C112.667,458.097,111.171,457.234,110.362,455.833z"></path>
	<path clip-path="url(#SVGID_14_-i0)" fill="#FFFFFF" d="M68.934,435.65l-2.968-5.14c-0.809-1.402-0.809-3.128,0-4.53l2.968-5.14   c0.809-1.401,2.305-2.265,3.923-2.265h5.936c1.618,0,3.114,0.863,3.923,2.265l2.968,5.14c0.809,1.402,0.809,3.128,0,4.53   l-2.968,5.14c-0.809,1.402-2.305,2.265-3.923,2.265h-5.936C71.239,437.915,69.744,437.051,68.934,435.65z"></path>
	<rect x="46.448" y="585.878" clip-path="url(#SVGID_14_-i0)" fill="none" width="93.478" height="169.694"></rect>
	<path clip-path="url(#SVGID_14_-i0)" fill="#FFFFFF" d="M119.922,743.17l-2.968-5.14c-0.809-1.401-0.809-3.128,0-4.53l2.968-5.14   c0.809-1.401,2.305-2.265,3.923-2.265h5.936c1.618,0,3.114,0.863,3.923,2.265l2.968,5.14c0.809,1.401,0.809,3.128,0,4.53   l-2.968,5.14c-0.809,1.401-2.305,2.265-3.923,2.265h-5.936C122.227,745.435,120.731,744.571,119.922,743.17z"></path>
	<path clip-path="url(#SVGID_14_-i0)" fill="#FFFFFF" d="M73.183,658.323l-2.968-5.14c-0.809-1.401-0.809-3.128,0-4.53l2.968-5.14   c0.809-1.401,2.305-2.265,3.923-2.265h5.936c1.618,0,3.114,0.863,3.923,2.265l2.968,5.14c0.809,1.401,0.809,3.128,0,4.53   l-2.968,5.14c-0.809,1.402-2.305,2.265-3.923,2.265h-5.936C75.488,660.588,73.993,659.724,73.183,658.323z"></path>
	<path clip-path="url(#SVGID_14_-i0)" fill="#FFFFFF" d="M115.673,690.19l-2.968-5.14c-0.809-1.401-0.809-3.128,0-4.53l2.968-5.14   c0.809-1.401,2.305-2.265,3.923-2.265h5.936c1.618,0,3.114,0.863,3.923,2.265l2.968,5.14c0.809,1.401,0.809,3.128,0,4.53   l-2.968,5.14c-0.809,1.402-2.305,2.265-3.923,2.265h-5.936C117.978,692.455,116.482,691.592,115.673,690.19z"></path>
	<path clip-path="url(#SVGID_14_-i0)" fill="#FFFFFF" d="M63.623,710.373l-2.968-5.14c-0.809-1.401-0.809-3.128,0-4.53l2.968-5.14   c0.809-1.401,2.305-2.265,3.923-2.265h5.936c1.618,0,3.114,0.863,3.923,2.265l2.968,5.14c0.809,1.401,0.809,3.128,0,4.53   l-2.968,5.14c-0.809,1.401-2.305,2.265-3.923,2.265h-5.936C65.928,712.638,64.432,711.775,63.623,710.373z"></path>
	<path clip-path="url(#SVGID_14_-i0)" fill="#FFFFFF" d="M110.362,625.526l-2.968-5.14c-0.809-1.401-0.809-3.128,0-4.53l2.968-5.14   c0.809-1.401,2.305-2.265,3.923-2.265h5.936c1.618,0,3.114,0.863,3.923,2.265l2.968,5.14c0.809,1.401,0.809,3.128,0,4.53   l-2.968,5.14c-0.809,1.401-2.305,2.265-3.923,2.265h-5.936C112.667,627.791,111.171,626.928,110.362,625.526z"></path>
	<path clip-path="url(#SVGID_14_-i0)" fill="#FFFFFF" d="M68.934,605.344l-2.968-5.14c-0.809-1.402-0.809-3.128,0-4.53l2.968-5.14   c0.809-1.401,2.305-2.265,3.923-2.265h5.936c1.618,0,3.114,0.863,3.923,2.265l2.968,5.14c0.809,1.402,0.809,3.128,0,4.53   l-2.968,5.14c-0.809,1.402-2.305,2.265-3.923,2.265h-5.936C71.239,607.608,69.744,606.745,68.934,605.344z"></path>
	<rect x="46.448" y="755.571" clip-path="url(#SVGID_14_-i0)" fill="none" width="93.478" height="169.694"></rect>
	<path clip-path="url(#SVGID_14_-i0)" fill="#FFFFFF" d="M73.183,828.017l-2.968-5.14c-0.809-1.401-0.809-3.128,0-4.53l2.968-5.14   c0.809-1.401,2.305-2.265,3.923-2.265h5.936c1.618,0,3.114,0.863,3.923,2.265l2.968,5.14c0.809,1.401,0.809,3.128,0,4.53   l-2.968,5.14c-0.809,1.401-2.305,2.265-3.923,2.265h-5.936C75.488,830.281,73.993,829.418,73.183,828.017z"></path>
	<path clip-path="url(#SVGID_14_-i0)" fill="#FFFFFF" d="M110.362,795.22l-2.968-5.14c-0.809-1.401-0.809-3.128,0-4.53l2.968-5.14   c0.809-1.402,2.305-2.265,3.923-2.265h5.936c1.618,0,3.114,0.863,3.923,2.265l2.968,5.14c0.809,1.402,0.809,3.128,0,4.53   l-2.968,5.14c-0.809,1.401-2.305,2.265-3.923,2.265h-5.936C112.667,797.485,111.171,796.621,110.362,795.22z"></path>
	<path clip-path="url(#SVGID_14_-i0)" fill="#FFFFFF" d="M68.934,775.037l-2.968-5.14c-0.809-1.401-0.809-3.128,0-4.53l2.968-5.14   c0.809-1.401,2.305-2.265,3.923-2.265h5.936c1.618,0,3.114,0.863,3.923,2.265l2.968,5.14c0.809,1.401,0.809,3.128,0,4.53   l-2.968,5.14c-0.809,1.401-2.305,2.265-3.923,2.265h-5.936C71.239,777.302,69.744,776.439,68.934,775.037z"></path>
	<rect x="-47.03" y="246.49" clip-path="url(#SVGID_14_-i0)" fill="none" width="93.478" height="169.694"></rect>
	<path clip-path="url(#SVGID_14_-i0)" fill="#FFFFFF" d="M26.444,403.782l-2.968-5.14c-0.809-1.402-0.809-3.128,0-4.53l2.968-5.14   c0.809-1.401,2.305-2.265,3.923-2.265h5.936c1.618,0,3.114,0.863,3.923,2.265l2.968,5.14c0.809,1.402,0.809,3.128,0,4.53   l-2.968,5.14c-0.809,1.402-2.305,2.265-3.923,2.265h-5.936C28.749,406.047,27.254,405.184,26.444,403.782z"></path>
	<path clip-path="url(#SVGID_14_-i0)" fill="#FFFFFF" d="M22.195,350.803l-2.968-5.14c-0.809-1.402-0.809-3.128,0-4.53l2.968-5.14   c0.809-1.402,2.305-2.265,3.923-2.265h5.936c1.618,0,3.114,0.863,3.923,2.265l2.968,5.14c0.809,1.402,0.809,3.128,0,4.53   l-2.968,5.14c-0.809,1.401-2.305,2.265-3.923,2.265h-5.936C24.5,353.068,23.005,352.205,22.195,350.803z"></path>
	<path clip-path="url(#SVGID_14_-i0)" fill="#FFFFFF" d="M16.884,286.139l-2.968-5.14c-0.809-1.401-0.809-3.128,0-4.53l2.968-5.14   c0.809-1.401,2.305-2.265,3.923-2.265h5.936c1.618,0,3.114,0.863,3.923,2.265l2.968,5.14c0.809,1.401,0.809,3.128,0,4.53   l-2.968,5.14c-0.809,1.402-2.305,2.265-3.923,2.265h-5.936C19.189,288.404,17.693,287.54,16.884,286.139z"></path>
	<rect x="-47.03" y="416.184" clip-path="url(#SVGID_14_-i0)" fill="none" width="93.478" height="169.694"></rect>
	<path clip-path="url(#SVGID_14_-i0)" fill="#FFFFFF" d="M26.444,573.476l-2.968-5.14c-0.809-1.402-0.809-3.128,0-4.53l2.968-5.14   c0.809-1.401,2.305-2.265,3.923-2.265h5.936c1.618,0,3.114,0.863,3.923,2.265l2.968,5.14c0.809,1.402,0.809,3.128,0,4.53   l-2.968,5.14c-0.809,1.402-2.305,2.265-3.923,2.265h-5.936C28.749,575.741,27.254,574.878,26.444,573.476z"></path>
	<path clip-path="url(#SVGID_14_-i0)" fill="#FFFFFF" d="M22.195,520.497l-2.968-5.14c-0.809-1.402-0.809-3.128,0-4.53l2.968-5.14   c0.809-1.401,2.305-2.265,3.923-2.265h5.936c1.618,0,3.114,0.863,3.923,2.265l2.968,5.14c0.809,1.402,0.809,3.128,0,4.53   l-2.968,5.14c-0.809,1.401-2.305,2.265-3.923,2.265h-5.936C24.5,522.762,23.005,521.898,22.195,520.497z"></path>
	<path clip-path="url(#SVGID_14_-i0)" fill="#FFFFFF" d="M16.884,455.833l-2.968-5.14c-0.809-1.402-0.809-3.128,0-4.53l2.968-5.14   c0.809-1.401,2.305-2.265,3.923-2.265h5.936c1.618,0,3.114,0.863,3.923,2.265l2.968,5.14c0.809,1.402,0.809,3.128,0,4.53   l-2.968,5.14c-0.809,1.402-2.305,2.265-3.923,2.265h-5.936C19.189,458.097,17.693,457.234,16.884,455.833z"></path>
	<rect x="-47.03" y="585.878" clip-path="url(#SVGID_14_-i0)" fill="none" width="93.478" height="169.694"></rect>
	<path clip-path="url(#SVGID_14_-i0)" fill="#FFFFFF" d="M26.444,743.17l-2.968-5.14c-0.809-1.401-0.809-3.128,0-4.53l2.968-5.14   c0.809-1.401,2.305-2.265,3.923-2.265h5.936c1.618,0,3.114,0.863,3.923,2.265l2.968,5.14c0.809,1.401,0.809,3.128,0,4.53   l-2.968,5.14c-0.809,1.401-2.305,2.265-3.923,2.265h-5.936C28.749,745.435,27.254,744.571,26.444,743.17z"></path>
	<path clip-path="url(#SVGID_14_-i0)" fill="#FFFFFF" d="M22.195,690.19l-2.968-5.14c-0.809-1.401-0.809-3.128,0-4.53l2.968-5.14   c0.809-1.401,2.305-2.265,3.923-2.265h5.936c1.618,0,3.114,0.863,3.923,2.265l2.968,5.14c0.809,1.401,0.809,3.128,0,4.53   l-2.968,5.14c-0.809,1.402-2.305,2.265-3.923,2.265h-5.936C24.5,692.455,23.005,691.592,22.195,690.19z"></path>
	<path clip-path="url(#SVGID_14_-i0)" fill="#FFFFFF" d="M16.884,625.526l-2.968-5.14c-0.809-1.401-0.809-3.128,0-4.53l2.968-5.14   c0.809-1.401,2.305-2.265,3.923-2.265h5.936c1.618,0,3.114,0.863,3.923,2.265l2.968,5.14c0.809,1.401,0.809,3.128,0,4.53   l-2.968,5.14c-0.809,1.401-2.305,2.265-3.923,2.265h-5.936C19.189,627.791,17.693,626.928,16.884,625.526z"></path>
	<rect x="-47.03" y="755.571" clip-path="url(#SVGID_14_-i0)" fill="none" width="93.478" height="169.694"></rect>
	<path clip-path="url(#SVGID_14_-i0)" fill="#FFFFFF" d="M16.884,795.22l-2.968-5.14c-0.809-1.401-0.809-3.128,0-4.53l2.968-5.14   c0.809-1.402,2.305-2.265,3.923-2.265h5.936c1.618,0,3.114,0.863,3.923,2.265l2.968,5.14c0.809,1.402,0.809,3.128,0,4.53   l-2.968,5.14c-0.809,1.401-2.305,2.265-3.923,2.265h-5.936C19.189,797.485,17.693,796.621,16.884,795.22z"></path>
</g>
<path fill="#2B2B2B" d="M190.742,811.732l20.303-5.076l18.673-17.907l61.48-31.22l5.841,12.545  c2.381,5.188,0.221,11.33-4.883,13.886l-77.09,38.21l-22.983,0.096C185.859,822.362,184.71,813.36,190.742,811.732z"></path>
<g>
	<path fill="#2B2B2B" d="M150.249,639.27c-0.579,0-1.131-0.337-1.376-0.901c-19.295-44.319-39.315-94.317-56.354-137.381   c-0.305-0.771,0.072-1.642,0.843-1.946c0.768-0.308,1.643,0.072,1.946,0.843c17.03,43.04,37.038,93.009,56.314,137.287   c0.331,0.76-0.017,1.644-0.776,1.974C150.652,639.23,150.448,639.27,150.249,639.27z"></path>
</g>
<g>
	<path fill="#2B2B2B" d="M82.021,462.953c-0.659,0-1.229-0.42-1.43-1.05l-11.97-37.36c-2.7-1.67-5.4-3.58-8.03-5.67   c-0.31-0.25-0.51-0.6-0.56-1c-0.04-0.4,0.069-0.79,0.319-1.1c0.5-0.63,1.48-0.75,2.11-0.24c2.689,2.14,5.45,4.07,8.2,5.73   c0.31,0.19,0.54,0.48,0.649,0.83l12.141,37.9c0.04,0.141,0.069,0.29,0.069,0.44c0,0.66-0.42,1.239-1.04,1.439   C82.321,462.923,82.171,462.953,82.021,462.953z M55.491,413.953c-0.38,0-0.75-0.14-1.03-0.41c-6.61-6.26-13.11-14.1-19.311-23.31   c-0.46-0.69-0.279-1.62,0.41-2.08c0.66-0.45,1.63-0.26,2.08,0.41c6.08,9.03,12.431,16.7,18.88,22.8c0.29,0.28,0.46,0.65,0.471,1.05   c0.01,0.4-0.13,0.78-0.41,1.07C56.301,413.783,55.911,413.953,55.491,413.953z"></path>
</g>
<g>
	<g>
		
			<linearGradient id="SVGID_15_-i0" gradientUnits="userSpaceOnUse" x1="-108.1573" y1="382.7152" x2="-107.7728" y2="600.3271" gradientTransform="matrix(1 0 0 1 344 -228)">
			<stop offset="0" style="stop-color:#B8A7D3"></stop>
			<stop offset="0.4" style="stop-color:#ED4861"></stop>
			<stop offset="0.5" style="stop-color:#F4837D"></stop>
			<stop offset="0.59" style="stop-color:#FECEAA"></stop>
			<stop offset="1" style="stop-color:#B7D5EA"></stop>
		</linearGradient>
		<path fill="url(#SVGID_15_-i0)" d="M310.369,292.308l-75.761-115.583c-3.203-4.887-9.761-6.252-14.648-3.048l-28.082,18.407    c-18.152,11.898-23.222,36.258-11.324,54.411l33.275,50.765l-58.764,26.576l16.076,63.027l117.254-31.496    c12.676-3.375,22.376-13.083,26.019-25.221C319.051,318.046,318.014,303.972,310.369,292.308z"></path>
	</g>
</g>
<path fill="#2B2B2B" d="M213.603,298.496c0.276,0.018,0.559-0.099,0.835-0.082l16.849-8.324c0.796-0.395,1.121-1.361,0.725-2.157  c-0.395-0.796-1.361-1.121-2.157-0.725c-0.015,0.007-0.029,0.015-0.044,0.022l-16.85,8.324c-0.774,0.357-1.112,1.274-0.755,2.048  c0.251,0.545,0.796,0.895,1.396,0.897L213.603,298.496z"></path>
<path fill="#2B2B2B" d="M139.93,341.694l-10.153,4.614c-15.254,6.949-21.987,24.948-15.037,40.203  c6.146,13.491,21.138,20.568,35.46,16.738l11.668-3.145L139.93,341.694z"></path>
<path fill="#BE6361" d="M155.066,323.835l-27.302,12.407c-15.254,6.949-21.987,24.949-15.037,40.203  c6.146,13.491,21.138,20.568,35.46,16.738L171.127,387L155.066,323.835z"></path>

            </g>
        </g>
    </g>
    
    <!-- ITEM 1 -->
    <g>
        <defs>
            <clipPath id="clip-path-id-viewbox-item-1">
                <rect x="0.0" y="0.0" width="216.398" height="404.158"/>
            </clipPath>
        </defs>
        <g transform="translate(73.0 91.0) rotate(0.0 86.5 162.5) scale(0.7994528600079484 0.8041409547751127)">
            <g clip-path="url(#clip-path-id-viewbox-item-1)" transform="translate(-0.0 -0.0)">
                
<g id="woman-i1">
	
		<linearGradient id="L_hand_1_-i1" gradientUnits="userSpaceOnUse" x1="157.3296" y1="266.911" x2="155.5937" y2="343.7266" gradientTransform="matrix(1 0 0 1 0 -190)">
		<stop offset="0" style="stop-color:#978280"></stop>
		<stop offset="1" style="stop-color:#8a6566"></stop>
	</linearGradient>
	<path id="L_hand-i1" fill="url(#L_hand_1_-i1)" d="M169.498,94.858c-6.9,4-19,16.7-22.7,20c-3.1,2.5-6.3,4.7-9.8,6.6l-2.5-19.5   c0,0,22.1-7.7,22.5-10.4s1.3-7.5,0.2-12.7s0.6-7.1,2.3-4.6s1.7,9.6,5.6,6.1s6-8.8,7.3-10.4c1.3-1.5,4.8-2.9,6.7,5.8   C180.998,84.558,176.398,90.858,169.498,94.858z"></path>
	
		<linearGradient id="doc_1_-i1" gradientUnits="userSpaceOnUse" x1="193.9225" y1="240.8978" x2="140.9761" y2="312.5056" gradientTransform="matrix(1 0 0 1 0 -190)">
		<stop offset="0" style="stop-color:#A1C3FC"></stop>
		<stop offset="0.6955" style="stop-color:#81AEF2"></stop>
		<stop offset="1" style="stop-color:#78A9EF"></stop>
	</linearGradient>
	<polygon id="doc-i1" fill="url(#doc_1_-i1)" points="180.298,95.258 137.198,95.258 173.398,52.858 216.398,52.858  "></polygon>
	
		<linearGradient id="R_hand_1_-i1" gradientUnits="userSpaceOnUse" x1="196.6145" y1="259.9674" x2="128.4787" y2="326.8015" gradientTransform="matrix(1 -0.0082 0.0082 1 -1.4668 -183.111)">
		<stop offset="0" style="stop-color:#978280"></stop>
		<stop offset="1" style="stop-color:#8a6566"></stop>
	</linearGradient>
	<path id="R_hand-i1" fill="url(#R_hand_1_-i1)" d="M190.498,99.158c-8,7-13,10.7-19.5,18c-5.7,6.5-18.8,20.5-21.7,23.6l-5-26.1   c0,0,22.9-5.2,25.2-11.6c2.2-6.4,4.5-19.5,5.6-22.9c1.1-3.5,4.6,0.4,4.5,3.2c-0.2,2.9-1.4,14.2,3.9,7.7s12.6-15,12.6-15   S198.598,92.158,190.498,99.158z"></path>
	
		<linearGradient id="L_shoe_1_-i1" gradientUnits="userSpaceOnUse" x1="183.841" y1="614.0085" x2="74.2057" y2="569.6777" gradientTransform="matrix(1 0 0 1 0 -190)">
		<stop offset="0" style="stop-color:#A1C3FC"></stop>
		<stop offset="0.6955" style="stop-color:#81AEF2"></stop>
		<stop offset="1" style="stop-color:#78A9EF"></stop>
	</linearGradient>
	<path id="L_shoe-i1" fill="url(#L_shoe_1_-i1)" d="M88.998,372.358l-11.4,31.8h80.4c0,0-4.1-8-17.9-13.8s-26.6-17.9-26.6-17.9h-24.5"></path>
	
		<linearGradient id="R_shoe_1_-i1" gradientUnits="userSpaceOnUse" x1="66.0901" y1="596.6591" x2="-57.8455" y2="546.6082" gradientTransform="matrix(1 0 0 1 0 -190)">
		<stop offset="0" style="stop-color:#A1C3FC"></stop>
		<stop offset="0.6955" style="stop-color:#81AEF2"></stop>
		<stop offset="1" style="stop-color:#78A9EF"></stop>
	</linearGradient>
	<path id="R_shoe-i1" fill="url(#R_shoe_1_-i1)" d="M13.598,372.358l-11.4,31.8h80.4c0,0-4.1-8-17.9-13.8s-25.6-17.9-25.6-17.9   L13.598,372.358"></path>
	
		<linearGradient id="L_leg_1_-i1" gradientUnits="userSpaceOnUse" x1="146.371" y1="543.9027" x2="73.6373" y2="452.2324" gradientTransform="matrix(1 0 0 1 0 -190)">
		<stop offset="0" style="stop-color:#23286B"></stop>
		<stop offset="1" style="stop-color:#151A4F"></stop>
	</linearGradient>
	<path id="L_leg-i1" fill="url(#L_leg_1_-i1)" d="M32.598,167.558c0,0-2.2,17,9.4,37.6s15.2,49.2,15.7,78.8s2.2,34.5,7.6,45.2   s6.8,17.7,4.5,25.3s4.4,18,4.4,18h39.4c0,0-10.3-110-13.8-127s-19.7-84.6-19.7-84.6L32.598,167.558"></path>
	<path id="R_leg-i1" fill="#23286B" d="M82.698,223.658c-2.3-28.3-5.1-57.7-5.1-57.7l-45.3-2.8c0,0-3.4,14.7,1.1,41.9   c4.5,27.2,2.9,42-2.8,50.4c-7.5,11-9.7,17.9-12,36.6s-3.3,21.7-11.8,37.5c-8.3,15.4-8.5,27.1-3.3,42.8h35.5   c4.6-10.9,36.5-87.6,39.6-103.4C82.098,252.058,84.998,252.058,82.698,223.658z"></path>
	<path id="texture-i1" opacity="0.86" fill="#FFFFFF" enable-background="new    " d="M49.198,239.158c0-0.1-0.1-0.1-0.2-0.1   s-0.1,0.1-0.1,0.2s0.1,0.1,0.2,0.1l0,0C49.198,239.358,49.198,239.258,49.198,239.158L49.198,239.158z M47.598,235.258   c0-0.1-0.1-0.1-0.2-0.1l0,0c-0.1,0-0.1,0.1-0.1,0.2s0.1,0.1,0.2,0.1C47.598,235.458,47.598,235.358,47.598,235.258L47.598,235.258z    M55.198,232.258c-0.1-0.1-0.2-0.1-0.2,0c-0.1,0.1-0.1,0.2,0,0.2c0.1,0.1,0.2,0.1,0.2,0l0,0   C55.298,232.458,55.298,232.358,55.198,232.258L55.198,232.258L55.198,232.258z M40.098,238.658c-0.1,0-0.2,0.1-0.2,0.2   s0.1,0.2,0.2,0.2s0.2-0.1,0.2-0.2C40.298,238.658,40.198,238.658,40.098,238.658z M40.098,234.358c-0.1,0-0.2,0.1-0.2,0.2   s0.1,0.2,0.2,0.2l0,0c0.1,0,0.2-0.1,0.2-0.2l0,0C40.298,234.458,40.198,234.358,40.098,234.358L40.098,234.358z M72.298,239.958   c-0.1-0.1-0.3-0.1-0.5,0l0,0c-0.1,0.1-0.1,0.3,0,0.5l0,0c0.1,0.1,0.3,0.1,0.5,0l0,0C72.398,240.358,72.398,240.058,72.298,239.958   L72.298,239.958L72.298,239.958z M66.198,234.658c-0.1-0.1-0.3-0.1-0.5,0l0,0c-0.1,0.1-0.1,0.4,0,0.5s0.4,0.1,0.5,0l0,0   C66.298,235.058,66.298,234.858,66.198,234.658L66.198,234.658z M47.698,260.358c-0.2,0-0.3,0.2-0.3,0.4c0,0.2,0.2,0.3,0.3,0.3l0,0   c0.2,0,0.3-0.2,0.3-0.4C48.098,260.458,47.898,260.358,47.698,260.358L47.698,260.358z M47.198,252.258c-0.2,0-0.3,0.2-0.3,0.4l0,0   c0,0.2,0.2,0.3,0.4,0.3s0.3-0.2,0.3-0.4l0,0C47.498,252.458,47.298,252.258,47.198,252.258L47.198,252.258z M46.598,244.258   c-0.2,0-0.3,0.2-0.3,0.4c0,0.2,0.2,0.3,0.3,0.3l0,0c0.2,0,0.3-0.2,0.3-0.3l0,0C46.898,244.358,46.798,244.258,46.598,244.258   L46.598,244.258z M45.998,236.258c-0.2,0-0.3,0.2-0.3,0.4l0,0c0,0.2,0.2,0.3,0.4,0.3s0.3-0.2,0.3-0.4   S46.198,236.158,45.998,236.258L45.998,236.258z M63.598,252.358c-0.1-0.2-0.3-0.2-0.5-0.2c-0.2,0.1-0.2,0.3-0.2,0.5   c0.1,0.2,0.3,0.2,0.5,0.2l0,0C63.598,252.658,63.598,252.458,63.598,252.358z M59.998,245.058c-0.1-0.2-0.3-0.2-0.5-0.2   s-0.2,0.3-0.2,0.5c0.1,0.2,0.3,0.2,0.5,0.2l0,0C59.998,245.458,59.998,245.258,59.998,245.058z M56.398,237.858   c-0.1-0.2-0.3-0.2-0.5-0.1s-0.2,0.3-0.1,0.5s0.3,0.2,0.4,0.1C56.398,238.258,56.398,238.058,56.398,237.858L56.398,237.858z    M32.598,254.558c-0.2-0.1-0.3,0-0.4,0.2l0,0c-0.1,0.2,0,0.4,0.2,0.4l0,0c0.2,0.1,0.4,0,0.4-0.2   C32.898,254.858,32.798,254.658,32.598,254.558L32.598,254.558z M35.198,246.958c-0.2-0.1-0.4,0-0.4,0.2l0,0   c-0.1,0.2,0,0.4,0.2,0.4s0.4,0,0.4-0.2C35.398,247.158,35.298,246.958,35.198,246.958L35.198,246.958L35.198,246.958z    M37.698,239.258c-0.2-0.1-0.4,0-0.4,0.2c-0.1,0.2,0,0.4,0.2,0.4l0,0c0.2,0.1,0.3,0,0.4-0.2l0,0   C37.998,239.558,37.898,239.358,37.698,239.258L37.698,239.258z M40.298,231.658c-0.2-0.1-0.4,0-0.4,0.2c-0.1,0.2,0,0.3,0.2,0.4   l0,0c0.2,0.1,0.4,0,0.4-0.2C40.498,231.858,40.398,231.658,40.298,231.658L40.298,231.658z M70.498,248.658   c-0.1-0.1-0.3-0.2-0.4-0.1s-0.2,0.3-0.1,0.4s0.3,0.2,0.4,0.1S70.598,248.758,70.498,248.658z M66.698,242.558   c-0.1-0.1-0.3-0.2-0.4-0.1s-0.2,0.3-0.1,0.4s0.3,0.2,0.4,0.1l0,0C66.698,242.858,66.798,242.658,66.698,242.558L66.698,242.558   L66.698,242.558z M62.898,236.458c0-0.1-0.1-0.1-0.1-0.1l0,0c-0.1,0-0.2,0-0.3,0c-0.1,0.1-0.2,0.3-0.1,0.4l0,0   c0.1,0.1,0.3,0.2,0.4,0.1c0.1,0,0.1-0.1,0.1-0.2C62.898,236.558,62.898,236.458,62.898,236.458L62.898,236.458z M40.398,253.458   c-0.2,0-0.3,0.1-0.4,0.2l0,0c0,0.2,0,0.3,0.2,0.4l0,0c0.2,0,0.3-0.1,0.4-0.2C40.698,253.658,40.598,253.558,40.398,253.458z    M41.998,246.458c-0.2,0-0.3,0.1-0.4,0.2l0,0c0,0.2,0.1,0.3,0.2,0.4l0,0c0.2,0,0.3-0.1,0.4-0.2   C42.298,246.658,42.198,246.558,41.998,246.458z M43.698,239.458c-0.2,0-0.3,0.1-0.4,0.2l0,0c0,0.1,0,0.3,0.2,0.3l0,0   c0.2,0,0.3-0.1,0.4-0.2l0,0C43.898,239.658,43.798,239.558,43.698,239.458z M45.298,232.458c-0.2,0-0.3,0.1-0.4,0.2   c0,0.2,0.1,0.3,0.2,0.4c0.2,0,0.3-0.1,0.4-0.2C45.498,232.658,45.398,232.458,45.298,232.458L45.298,232.458z M73.298,231.358   c-0.1-0.1-0.3-0.1-0.4,0.1l0,0c-0.1,0.1-0.1,0.3,0,0.4l0,0c0.1,0.1,0.3,0.1,0.4-0.1l0,0   C73.498,231.658,73.498,231.458,73.298,231.358L73.298,231.358z M55.698,250.358c-0.2,0-0.3,0.2-0.2,0.4c0,0.2,0.2,0.3,0.3,0.2   c0.2,0,0.3-0.2,0.3-0.3C56.098,250.358,55.898,250.258,55.698,250.358z M54.498,243.258c-0.2,0-0.3,0.2-0.2,0.4   c0,0.2,0.2,0.3,0.3,0.2c0.2,0,0.3-0.2,0.2-0.3l0,0C54.898,243.358,54.698,243.158,54.498,243.258z M53.398,236.158   c-0.2,0-0.3,0.2-0.2,0.3l0,0c0,0.2,0.2,0.3,0.3,0.2c0.2,0,0.3-0.2,0.2-0.3l0,0C53.698,236.258,53.498,236.058,53.398,236.158   L53.398,236.158z M53.098,237.158c-0.1,0-0.2,0.1-0.2,0.2s0.1,0.2,0.2,0.2s0.2-0.1,0.2-0.2l0,0   C53.198,237.258,53.198,237.158,53.098,237.158L53.098,237.158L53.098,237.158z M53.198,232.958c-0.1,0-0.2,0.1-0.2,0.2l0,0   c0,0.1,0.1,0.2,0.2,0.2l0,0c0.1,0,0.2-0.1,0.2-0.2S53.298,232.958,53.198,232.958L53.198,232.958L53.198,232.958z M61.598,233.558   c0-0.1-0.1-0.1-0.2-0.1l0,0c-0.1,0-0.1,0.1-0.1,0.2l0,0c0,0.1,0.1,0.1,0.2,0.1S61.598,233.658,61.598,233.558L61.598,233.558z    M45.198,233.058c-0.1,0-0.2,0-0.2,0.1l0,0c0,0.1,0,0.2,0.1,0.2s0.2,0,0.2-0.1C45.398,233.258,45.298,233.158,45.198,233.058z    M72.998,235.158c-0.1-0.1-0.2-0.1-0.3-0.1l0,0c-0.1,0.1-0.1,0.2-0.1,0.3l0,0c0.1,0.1,0.2,0.1,0.3,0.1l0,0   C72.998,235.358,73.098,235.258,72.998,235.158L72.998,235.158z M52.798,238.658c-0.1,0-0.2,0.1-0.2,0.2s0,0.2,0.1,0.2   s0.2,0,0.2-0.1l0,0C52.998,238.758,52.898,238.658,52.798,238.658L52.798,238.658z M53.898,233.858c-0.1,0-0.2,0.1-0.2,0.2   s0,0.2,0.1,0.2s0.2,0,0.2-0.1l0,0C53.998,234.058,53.998,233.958,53.898,233.858z M62.998,236.458c0-0.1-0.1-0.2-0.2-0.2l0,0l0,0   c-0.1,0-0.2,0.1-0.2,0.2s0.1,0.2,0.2,0.2l0,0h0.1C62.998,236.658,62.998,236.558,62.998,236.458z M44.698,232.458   c-0.1-0.1-0.2,0-0.3,0l0,0c-0.1,0.1,0,0.2,0,0.3c0.1,0.1,0.2,0,0.3,0l0,0C44.898,232.658,44.798,232.558,44.698,232.458z    M70.098,256.458c-0.2,0-0.3,0.2-0.3,0.4c0,0.2,0.2,0.3,0.4,0.3c0.2,0,0.3-0.2,0.3-0.4   C70.498,256.458,70.298,256.358,70.098,256.458L70.098,256.458z M68.898,248.158c-0.2,0-0.3,0.2-0.3,0.4s0.2,0.3,0.4,0.3   c0.2,0,0.3-0.2,0.3-0.4C69.198,248.258,68.998,248.158,68.898,248.158L68.898,248.158z M67.598,239.958c-0.2,0-0.3,0.2-0.3,0.4   c0,0.2,0.2,0.3,0.4,0.3l0,0c0.2,0,0.3-0.2,0.3-0.4C67.898,240.058,67.798,239.958,67.598,239.958L67.598,239.958z M36.398,248.258   c-0.2-0.1-0.4-0.1-0.5,0.1s-0.1,0.4,0.1,0.5s0.4,0.1,0.5-0.1S36.498,248.358,36.398,248.258z M41.298,241.558   c-0.2-0.1-0.4-0.1-0.5,0.1s-0.1,0.4,0.1,0.5l0,0c0.2,0.1,0.4,0.1,0.5-0.1C41.498,241.858,41.398,241.658,41.298,241.558   L41.298,241.558z M46.198,234.858c-0.1-0.1-0.4-0.1-0.5,0.1l0,0c-0.1,0.2-0.1,0.4,0.1,0.5s0.4,0.1,0.5-0.1   S46.298,234.958,46.198,234.858L46.198,234.858L46.198,234.858z M76.898,232.758c-0.1-0.2-0.3-0.2-0.5-0.1s-0.2,0.3-0.1,0.5   s0.3,0.2,0.5,0.1C76.898,233.158,76.998,232.958,76.898,232.758L76.898,232.758z M53.898,252.058c-0.2,0-0.4,0.1-0.4,0.2l0,0   c0,0.2,0.1,0.4,0.2,0.4c0.2,0,0.4-0.1,0.4-0.3C54.198,252.258,54.098,252.058,53.898,252.058L53.898,252.058z M55.898,243.958   c-0.2,0-0.4,0.1-0.4,0.2l0,0c0,0.2,0.1,0.4,0.2,0.4l0,0c0.2,0,0.4-0.1,0.4-0.3l0,0C56.198,244.158,56.098,243.958,55.898,243.958   L55.898,243.958L55.898,243.958z M57.798,235.858c-0.2,0-0.4,0.1-0.4,0.3c0,0.2,0.1,0.4,0.3,0.4c0.2,0,0.4-0.1,0.4-0.2l0,0   C58.098,236.058,57.998,235.858,57.798,235.858L57.798,235.858L57.798,235.858z M58.998,254.658c-0.2,0-0.4,0.1-0.4,0.3   c0,0.2,0.1,0.4,0.3,0.4c0.2,0,0.4-0.1,0.4-0.3C59.298,254.958,59.198,254.758,58.998,254.658L58.998,254.658L58.998,254.658z    M60.598,246.558c-0.2,0-0.4,0.1-0.4,0.3c0,0.2,0.1,0.4,0.3,0.4c0.2,0,0.4-0.1,0.4-0.3S60.798,246.658,60.598,246.558z    M62.198,238.458c-0.2,0-0.4,0.1-0.4,0.3c0,0.2,0.1,0.4,0.3,0.4l0,0c0.2,0,0.4-0.1,0.4-0.3   C62.498,238.658,62.398,238.458,62.198,238.458z M74.398,242.058c-0.2,0-0.3,0.2-0.3,0.4c0,0.2,0.2,0.3,0.4,0.3   c0.2,0,0.3-0.2,0.3-0.4l0,0C74.798,242.158,74.598,242.058,74.398,242.058z M72.798,233.958c-0.2,0-0.3,0.2-0.3,0.4   c0,0.2,0.2,0.3,0.4,0.3c0.2,0,0.3-0.2,0.3-0.4l0,0C73.198,234.058,72.998,233.958,72.798,233.958L72.798,233.958z M45.198,244.358   c-0.2-0.1-0.4-0.1-0.5,0.1l0,0c-0.1,0.2-0.1,0.4,0.1,0.5s0.4,0.1,0.5-0.1C45.398,244.758,45.298,244.458,45.198,244.358   L45.198,244.358L45.198,244.358z M49.798,237.458c-0.2-0.1-0.4-0.1-0.5,0.1l0,0c-0.1,0.2-0.1,0.4,0.1,0.5s0.4,0.1,0.5-0.1   C49.998,237.858,49.898,237.658,49.798,237.458L49.798,237.458L49.798,237.458z M58.898,240.458c-0.1-0.1-0.3,0-0.3,0.1l0,0   c-0.1,0.1,0,0.3,0.1,0.3s0.3,0,0.3-0.1C59.098,240.658,59.098,240.558,58.898,240.458z M61.398,234.758c-0.1-0.1-0.3,0-0.3,0.1l0,0   c-0.1,0.1,0,0.3,0.1,0.3c0.1,0.1,0.3,0,0.3-0.1C61.598,234.958,61.498,234.758,61.398,234.758L61.398,234.758z M71.998,239.958   c-0.1,0-0.3,0.1-0.3,0.3l0,0c0,0.1,0.1,0.3,0.3,0.3c0.1,0,0.3-0.1,0.3-0.3S72.198,239.958,71.998,239.958   C72.098,239.958,71.998,239.958,71.998,239.958z M72.098,233.658c-0.1,0-0.2,0.1-0.3,0.2l0,0c0,0.1,0.1,0.3,0.3,0.3l0,0   c0.1,0,0.3-0.1,0.3-0.3C72.398,233.758,72.298,233.658,72.098,233.658L72.098,233.658z"></path>
	
		<linearGradient id="_1-2_1_-i1" gradientUnits="userSpaceOnUse" x1="176.9446" y1="243.5288" x2="188.7876" y2="243.5288" gradientTransform="matrix(1 0 0 1 0 -190)">
		<stop offset="0.1291" style="stop-color:#428DFC"></stop>
		<stop offset="0.9987" style="stop-color:#1D72D8"></stop>
	</linearGradient>
	<path id="_1-2-i1" fill="url(#_1-2_1_-i1)" d="M182.298,59.158c-0.4,0-0.9-0.1-1.3-0.2c-1.2-0.4-2.2-1.4-2.7-2.7c-0.5-1.4-0.5-2.9,0-4.3   c0.7-2.3,2.7-3.9,5.1-4.1c0.5,0,0.9,0.1,1.3,0.2c1.9,0.8,3.2,2.7,3.1,4.8h1c0.1-2.5-1.4-4.8-3.7-5.7c-3-1-6.5,1-7.7,4.5   c-0.6,1.6-0.6,3.4,0.1,5c0.6,1.5,1.8,2.7,3.3,3.2c0.5,0.2,1.1,0.3,1.6,0.3L182.298,59.158z"></path>
	
		<linearGradient id="_2-2_1_-i1" gradientUnits="userSpaceOnUse" x1="192.5041" y1="243.5288" x2="204.3471" y2="243.5288" gradientTransform="matrix(1 0 0 1 0 -190)">
		<stop offset="0.1291" style="stop-color:#428DFC"></stop>
		<stop offset="0.9987" style="stop-color:#1D72D8"></stop>
	</linearGradient>
	<path id="_2-2-i1" fill="url(#_2-2_1_-i1)" d="M197.898,59.158c-0.4,0-0.9-0.1-1.3-0.2c-1.2-0.4-2.2-1.4-2.7-2.7c-0.5-1.4-0.5-2.9,0-4.3   c0.7-2.3,2.7-3.9,5.1-4.1c0.5,0,0.9,0.1,1.3,0.2c1.9,0.8,3.2,2.7,3.1,4.8h1c0.1-2.5-1.4-4.8-3.7-5.7c-3-1-6.5,1-7.7,4.5   c-0.6,1.6-0.6,3.4,0.1,5c0.6,1.5,1.8,2.7,3.3,3.2c0.5,0.2,1.1,0.3,1.6,0.3v-1H197.898z"></path>
	
		<linearGradient id="L_sleeve_1_-i1" gradientUnits="userSpaceOnUse" x1="165.9641" y1="194.998" x2="115.4909" y2="276.8979" gradientTransform="matrix(1 0 0 1 0 -190)">
		<stop offset="0.0898" style="stop-color:#86b2b8"></stop>
		<stop offset="0.8178" style="stop-color:#6e9ba2"></stop>
	</linearGradient>
	<path id="L_sleeve-i1" fill="url(#L_sleeve_1_-i1)" d="M140.898,152.058c0,0-10.4,6.1-20.9-0.6c-7.4-4.8-13.9-0.3-21.4,1.7   c-3.2,1-6.6,1.1-10,0.5c-12.3-2.8-27-5.8-28.9-32.9c-1-17.2-0.6-34.4,1.1-51.5c1.3-1.2,2.6-2.4,3.9-3.6l0,0   c6.6-4.9,19.7-14.6,22.5-16.2c0,0,0.1,0,0.1-0.1c0.1,0,0.2-0.1,0.2-0.1l10.9,10.1l0,0c0,0-11.2,27.1-2.2,38.4c0.8,1,1.8,1.9,3,2.7   c14.1,8.9,35,1.5,35,1.5L140.898,152.058z"></path>
	
		<linearGradient id="laboratory_gown_1_-i1" gradientUnits="userSpaceOnUse" x1="40.7475" y1="304.5285" x2="97.887" y2="415.9504" gradientTransform="matrix(1 0 0 1 0 -190)">
		<stop offset="0.0898" style="stop-color:#86b2b8"></stop>
		<stop offset="0.8178" style="stop-color:#6e9ba2"></stop>
	</linearGradient>
	<path id="laboratory_gown-i1" fill="url(#laboratory_gown_1_-i1)" d="M105.598,222.158c-43.9,22.3-95.8,0-95.8,0   c-6.4-81.6,26.2-128.9,51.2-152.9c1.6-1.6,3.3-3.1,4.8-4.4l0,0c5.3-4.7,11-8.9,17-12.7c0.2-0.1,0.4-0.2,0.6-0.4   c1-0.6,1.9-1.1,2.6-1.5l0.1-0.1c0.6-0.3,1-0.6,1.3-0.7c0,0,0.1,0,0.1-0.1c0.1,0,0.2-0.1,0.2-0.1c6.6,10,10.7,10.1,10.9,10.1l0,0   v0.1v0.1c-1.5,12.7-2.3,25.5-2.2,38.2c0,18,0.9,37.4,2.2,55.3c0.4,4.9,0.7,9.7,1.1,14.4   C102.398,198.458,105.598,222.158,105.598,222.158z"></path>
	
		<linearGradient id="R_sleeve_1_-i1" gradientUnits="userSpaceOnUse" x1="135.5685" y1="356.6873" x2="370.5132" y2="605.7584" gradientTransform="matrix(1 0 0 1 0 -190)">
		<stop offset="0.0898" style="stop-color:#86b2b8"></stop>
		<stop offset="0.8178" style="stop-color:#6e9ba2"></stop>
	</linearGradient>
	<path id="R_sleeve-i1" fill="url(#R_sleeve_1_-i1)" d="M153.698,165.758c0,0-6,8.9-24.2,3.7c-15.7-4.4-20.3-5.4-29.6-2   c-1.5,0.5-3.1,1.2-4.9,2c-13,5.6-30.8-1.9-36.4-23.8c-5.2-20.4,1.5-69.8,2.4-76.4c1.6-1.6,3.3-3.1,4.8-4.4l0,0   c5.3-4.7,11-8.9,17-12.7c0.2-0.1,0.4-0.2,0.6-0.4c1-0.6,1.8-1.1,2.6-1.5l0.1-0.1c0.5-0.3,0.9-0.5,1.3-0.7c0,0,0.1,0,0.1-0.1   c0.1,0,0.2-0.1,0.2-0.1l10.9,10.1l0,0v0.1v0.1c-0.2,2.8-2.7,34.6-0.5,48.4c2.3,14.5,5.9,12.5,17.2,11.7c9.8-0.9,19.4-2.6,28.9-5.1   L153.698,165.758z"></path>
	
		<linearGradient id="neck_1_-i1" gradientUnits="userSpaceOnUse" x1="1416.0131" y1="264.7708" x2="1402.7905" y2="240.8577" gradientTransform="matrix(-1 0 0 1 1498.201 -190)">
		<stop offset="0" style="stop-color:#978280"></stop>
		<stop offset="1" style="stop-color:#8a6566"></stop>
	</linearGradient>
	<path id="neck-i1" fill="url(#neck_1_-i1)" d="M105.898,47.258c-2.9,3.7-5.3,7.8-7.2,12.1c0,0-7,1.2-10.9-10.1l9.4-12.2L105.898,47.258"></path>
	<path id="face-i1" fill="#978280" d="M127.698,29.658c0,0.1,0,0.2,0,0.2l0,0c-0.1,0.4-0.2,0.9-0.3,1.3c-1.1,4.8,1,9.6,0.5,10.9   s-3.3,1.2-4.5,0.9s-4.8,5.1-10.9,6.7c-5.7,1.6-12.4-1.3-16-5.5c1.8-10.5,5.1-14.6,16.3-15.6c12.2-1,14.2-8.1,14.2-8.1   C127.898,23.558,128.198,26.558,127.698,29.658z"></path>
	<path id="hair-i1" fill="#E94A47" d="M78.898,18.458c4.1-3.9,7.4-9.6,8.8-11.6c1.9-2.8,11.7-9.9,23.2-5.4s24.3,13.6,16.9,28.5   c0.5-3.1,0.2-6.3-0.7-9.3c0,0-2,7.1-14.2,8.1c-1.3,0.1-2.5,0.3-3.8,0.5c-7.1,4-12.2,10.1-9.2,19.7c0.2,0.6-0.7,0.8-0.9,0.2   c-2.8-8.9,1.2-15,7.3-19.2c-6.8,2.2-8.8,7.3-10.2,17.5c0,0-18.7-2.7-30.4-18.3c1.9-3.3,4.9-5.8,8.4-7.2c1.3-0.6,2.5-1.3,3.5-2.2   c-5.4,1.7-11.1,2.9-12.8,8.8c-0.1,0.2-0.3,0.4-0.6,0.3c-0.2-0.1-0.4-0.3-0.3-0.5C65.898,21.358,72.998,20.558,78.898,18.458z"></path>
	<path id="eyeglasses-i1" fill="#23286B" d="M134.098,35.758c1.9-2.8,2.1-6.3,0.4-7.9l0,0c-1.7-1.6-4.5-0.6-6.4,2.1   c-0.2,0.3-0.4,0.7-0.6,1c-1.2-0.7-2.7-0.4-4,0.2c0-0.2,0.1-0.4,0.1-0.6c0.2-1.5-0.3-3-1.3-4.1c-1.9-1.8-5.3-0.7-7.4,2.5   c-1,1.5-1.6,3.2-1.8,5c-0.1,1.2,0.2,2.4,0.8,3.4c0.2,0.2,0.3,0.5,0.5,0.7c1,0.9,2.4,1.2,3.7,0.6c1.6-0.6,2.9-1.7,3.8-3.1   c0.7-1.1,1.2-2.2,1.5-3.5c1.2-0.5,2.7-1,3.8-0.3c0,0.1,0,0.1-0.1,0.2c0,0.1,0,0.2,0,0.2l0,0l0,0c-0.2,1.1-0.2,2.2,0,3.3   c0.1,0.5,0.3,0.9,0.4,1.4c0,0.1,0.1,0.2,0.1,0.3s0.1,0.3,0.1,0.4l0.1,0.1C129.298,39.458,132.198,38.458,134.098,35.758z    M121.198,35.058c-0.8,1.3-2,2.2-3.3,2.8c-1,0.4-2.2,0.2-3-0.5c-0.8-0.9-1.2-2.2-1.1-3.4c0.1-1.6,0.7-3.1,1.6-4.5   c1.9-2.8,4.8-3.8,6.4-2.3c0.2,0.2,0.3,0.3,0.4,0.5c0.5,0.9,0.7,1.9,0.6,2.9C122.698,32.158,122.098,33.758,121.198,35.058z    M128.098,37.158c-1.4-1.3-1.2-4.3,0.4-6.6c1.6-2.4,4-3.2,5.4-1.9s1.2,4.3-0.4,6.6C131.898,37.558,129.498,38.458,128.098,37.158   L128.098,37.158z"></path>
</g>

            </g>
        </g>
    </g>
    
</svg>