<?xml version="1.0" encoding="iso-8859-1" ?>
<svg version="1.1" xmlns="http://www.w3.org/2000/svg" xmlns:xlink="http://www.w3.org/1999/xlink" 
    viewBox="0 0 500 500" width="500" height="500">
    
    
    <!-- ITEM 0 -->
    <g>
        <defs>
            <clipPath id="clip-path-id-viewbox-item-0">
                <rect x="0.0" y="0.0" width="162.0" height="500.0"/>
            </clipPath>
        </defs>
        <g transform="translate(308.0 2.0) rotate(0.0 80.0 248.0) scale(0.9876543209876543 0.992)">
            <g clip-path="url(#clip-path-id-viewbox-item-0)" transform="translate(-0.0 -0.0)">
                
<linearGradient id="SVGID_1_-i0" gradientUnits="userSpaceOnUse" x1="1752.7941" y1="1617.6847" x2="1851.6469" y2="1459.7379" gradientTransform="matrix(0.1503 0 0 0.1503 -232.5418 -119.7942)">
	<stop offset="0" style="stop-color:#926965"></stop>
	<stop offset="1" style="stop-color:#854c4b"></stop>
</linearGradient>
<path fill="url(#SVGID_1_-i0)" d="M59.934,124.115c-4.198,4.283-18.772,12.324-22.906,5.894c-4.172-6.49-13.995-25.72-9.288-48.014  c0.701-3.047,0.964-6.196,1.399-9.698c0.144-1.161,0.246-2.891-0.095-4.011c-0.341-1.118-1.312-2.56-2.481-2.579  c-0.714,0.001-2.099,0-2.349,1.62c-0.342,3.429-0.687,6.858-1.029,10.288c-1.833-0.668-5.707-4.632-7.035-1.255  c-2.361,6.004,0.128,4.854-8.105,22.049c-1.12,2.339,0.338,5.171,0.777,7.727c1.622,9.443,3.424,18.978,7.457,27.668  c2.284,4.921,5.429,9.676,10.085,12.456c3.085,1.841,6.637,2.705,10.129,3.543c7.342,1.762,15.456,3.443,22.131-0.088  c-0.227-15.32,14.352-26.987,17.386-42.004C70.653,113.178,65.293,118.647,59.934,124.115z"></path>
<polygon fill="#23286B" points="103.632,120.804 55.632,162.622 0,98.657 48,56.839 "></polygon>
<path fill="#DEEAFE" d="M130.837,61.264c-1.233-1.897-4.833-5.394-4.833-5.394s-2.49,0.451-3.592,0.242  c-5.857-1.108-15.821,0.995-15.821,0.995s-11.089,11.551-15.32,16.573c-21.309,25.289-41.743,53.586-45.767,86.421  c17.969,2.819,36.122,4.45,54.305,4.878c9.785-14.717,19.634-29.555,26.368-45.898s10.225-34.491,6.771-51.827  C132.531,65.163,131.997,63.05,130.837,61.264z"></path>
<g id="shoes_2_-i0">
	<path id="R_shoe_2_-i0" fill="#1D72D8" d="M121.452,464.574l12.687,35.423L44.57,500c0,0,4.593-8.866,19.904-15.433   C79.784,478,92.22,464.571,92.22,464.571L121.452,464.574"></path>
</g>
<linearGradient id="R_trousers_3_-i0" gradientUnits="userSpaceOnUse" x1="1985.3823" y1="3072.6116" x2="2363.2039" y2="3072.6116" gradientTransform="matrix(0.1503 0 0 0.1503 -232.5418 -119.7942)">
	<stop offset="0" style="stop-color:#28306D"></stop>
	<stop offset="0.51" style="stop-color:#1F275F"></stop>
	<stop offset="1" style="stop-color:#171F51"></stop>
</linearGradient>
<path id="R_trousers_2_-i0" fill="url(#R_trousers_3_-i0)" d="M68.618,337.866c0.064,22.609,23.878,127.016,23.878,127.016h30.152  c0,0-2.25-29.626-3.529-48.763c-1.295-19.117-6.462-15.196-4.454-29.992c2.001-14.786,0.383-24.355-2.785-40  c-7.703-17.742-8.256-25.38-1.803-66.126c-0.875-14.93-0.82-33.65-0.32-47.367c-2.449,2.282-9.381-13.479-9.381-13.479  c-11.513,2.442-23.054,3.571-34.515,3.38C68.093,259.629,69.803,318.2,68.618,337.866z"></path>
<g id="head-i0">
	
		<linearGradient id="neck_1_-i0" gradientUnits="userSpaceOnUse" x1="1310.8402" y1="-626.5117" x2="1376.4716" y2="-249.8406" gradientTransform="matrix(-0.0835 0 0 -0.0835 228.9238 20.8426)">
		<stop offset="0" style="stop-color:#926965"></stop>
		<stop offset="1" style="stop-color:#854c4b"></stop>
	</linearGradient>
	<path id="neck-i0" fill="url(#neck_1_-i0)" d="M108.339,43.413c0,0,2.062,8.402-1.767,13.707c0,0,9.478,8.198,19.492-1.234l0,0   l-3.292-21.758L108.339,43.413z"></path>
	<path id="face-i0" fill="#926965" d="M90.789,28.017c0.007,0.112,0.016,0.195,0.017,0.245c-0.004,0.017-0.004,0.033,0.001,0.051   c0.027,0.45,0.073,0.907,0.132,1.378c0.634,5.072-1.964,9.786-1.612,11.137c0.352,1.352,3.223,1.583,4.518,1.38   c1.295-0.204,4.433,5.698,10.505,8.02c5.698,2.18,12.82-0.102,16.922-3.971c-0.812-10.999-3.713-15.54-15.087-17.659   C93.768,26.28,92.48,18.853,92.48,18.853C91.235,21.743,90.661,24.873,90.789,28.017z"></path>
	
		<linearGradient id="eyeglasses_1_-i0" gradientUnits="userSpaceOnUse" x1="2101.4023" y1="1021.876" x2="2232.3694" y2="1021.876" gradientTransform="matrix(0.1503 0 0 0.1503 -232.5418 -119.7942)">
		<stop offset="0" style="stop-color:#28306D"></stop>
		<stop offset="0.51" style="stop-color:#1F275F"></stop>
		<stop offset="1" style="stop-color:#171F51"></stop>
	</linearGradient>
	<path id="eyeglasses-i0" fill="url(#eyeglasses_1_-i0)" d="M83.594,33.227c-0.839-2.403,0.049-4.908,1.98-5.588h0.001   c1.932-0.676,4.188,0.729,5.028,3.131c0.096,0.276,0.171,0.558,0.222,0.844c1.265-0.087,2.512,0.322,3.48,1.14   c0.035-0.138,0.055-0.28,0.101-0.415c0.352-1.163,1.225-2.096,2.363-2.522c2.236-0.783,4.847,0.848,5.822,3.635   c0.466,1.272,0.494,2.664,0.078,3.954c-0.288,0.91-0.885,1.689-1.688,2.201c-0.213,0.13-0.439,0.237-0.673,0.32   c-1.155,0.377-2.418,0.193-3.419-0.496c-1.128-0.748-1.974-1.854-2.402-3.139c-0.319-0.904-0.428-1.866-0.32-2.816   c-0.884-0.818-2.058-1.247-3.26-1.194c0.171,1.484-0.484,2.944-1.706,3.803c-0.182,0.111-0.375,0.203-0.576,0.273   C86.692,37.035,84.436,35.63,83.594,33.227z M97.251,38.864c1.36,1.006,3.28,0.718,4.284-0.644c0.228-0.309,0.396-0.66,0.496-1.031   c0.366-1.147,0.34-2.382-0.076-3.511c-0.852-2.436-3.078-3.882-4.961-3.221c-0.19,0.066-0.371,0.152-0.544,0.258   c-0.67,0.431-1.168,1.084-1.406,1.845C94.335,34.918,95.225,37.464,97.251,38.864L97.251,38.864z M88.401,35.721   c1.584-0.557,2.283-2.674,1.565-4.727c-0.718-2.052-2.589-3.272-4.169-2.719c-1.587,0.556-2.283,2.676-1.565,4.727   C84.949,35.056,86.819,36.275,88.401,35.721L88.401,35.721z"></path>
	<path id="hair-i0" fill="#23286B" d="M110.99,0.807c12.167-3.406,21.558,4.876,23.196,7.941c1.557,3.203,3.289,6.317,5.187,9.331   c0.471,0.588,0.958,1.164,1.48,1.711c2.379,2.491,5.126,3.776,8.104,5.31c3.363,1.731,6.214,3.88,6.715,7.835   c0.06,0.488-0.705,0.483-0.765,0c-0.771-6.097-7.599-7.18-11.832-10.171c1.011,1.071,2.176,1.985,3.456,2.711   c3.495,1.777,6.281,4.696,7.893,8.271c-13.554,14.878-32.977,15.693-32.977,15.693c-0.299-7.528-1.17-12.462-4.109-15.75   c3.393,4.944,3.963,11.299,1.504,16.768c-0.193,0.453-0.852,0.062-0.662-0.386c2.987-6.615,1.204-14.412-4.36-19.067   c-2.414-1.178-4.989-1.991-7.641-2.409c-12.418-2.316-13.702-9.745-13.702-9.745c-1.273,2.986-1.846,6.224-1.672,9.467   C84.746,12.307,98.822,4.213,110.99,0.807z"></path>
</g>
<g id="shoes_1_-i0">
	
		<linearGradient id="R_shoe_3_-i0" gradientUnits="userSpaceOnUse" x1="2029.0901" y1="4005.8525" x2="2625.0288" y2="4005.8525" gradientTransform="matrix(0.1503 0 0 0.1503 -232.5418 -119.7942)">
		<stop offset="0" style="stop-color:#3E8AF8"></stop>
		<stop offset="1" style="stop-color:#1479F2"></stop>
	</linearGradient>
	<path id="R_shoe_1_-i0" fill="url(#R_shoe_3_-i0)" d="M149.313,464.574L162,499.997L72.43,500c0,0,4.593-8.866,19.904-15.433   c15.31-6.567,27.746-19.996,27.746-19.996L149.313,464.574"></path>
</g>
<path id="R_trousers_1_-i0" fill="#23286B" d="M71.637,337.866c2.307,22.609,48.444,126.708,48.444,126.708h29.263  c0,0,4.684-29.318,1.011-48.455c-3.693-19.117-10.581-15.196-9.203-29.992c1.367-14.786,0.063-25.229-7.836-40  c-10.257-19.178-14.588-23.333-9.014-66.126c1.959-15.044-9.318-69.713-9.958-83.429c-4.047-5.738-12.467-4.73-12.467-4.73  c-15.958,2.442-32.088,3.571-48.229,3.38C60.419,232.314,71.378,318.2,71.637,337.866z"></path>
<path fill="#DEEAFE" d="M67.412,310.17c-1.37,0.277-2.885,0.531-4.091-0.178c-1.301-0.762-1.791-2.369-2.172-3.829  c-12.498-47.744-23.883-97.643-15.98-146.361c19.383,0.473,37.554,1.392,56.937,1.863c2.466,15.896,11.674,29.775,19.798,43.654  c15.147,25.876,27.206,53.562,35.838,82.28C127.993,296.478,97.841,304.011,67.412,310.17z"></path>
<polygon fill="#FFFFFF" points="105.808,70.176 102.656,66.178 106.65,63.023 109.802,67.02 "></polygon>
<polygon fill="#FFFFFF" points="92.831,88 89.679,84.002 93.673,80.847 96.825,84.844 "></polygon>
<polygon fill="#FFFFFF" points="79.601,108.626 76.448,104.629 80.442,101.473 83.595,105.471 "></polygon>
<polygon fill="#FFFFFF" points="68.659,133.072 65.506,129.075 69.5,125.919 72.653,129.917 "></polygon>
<polygon fill="#FFFFFF" points="52.375,191.132 49.222,187.134 53.216,183.979 56.369,187.976 "></polygon>
<polygon fill="#FFFFFF" points="53.899,225.51 50.746,221.513 54.74,218.357 57.893,222.354 "></polygon>
<g>
	<path fill="#FFFFFF" d="M99.515,171.139c-0.161,0-0.322-0.001-0.482-0.003c-6.405-0.076-12.804-1.234-18.992-2.354   c-2.891-0.523-5.88-1.064-8.827-1.486c-11.57-1.661-20.218-0.858-27.219,2.52l-0.464-0.899c4.616-2.556,9.597-4.28,14.803-5.124   c5.211-0.845,10.628-0.769,15.299-0.63c4.923,0.145,9.906,0.398,14.815,0.749c3.68,0.263,7.465,0.592,11.196,1.278   c-1.45-0.665-3.018-1.139-4.473-1.517c-16.241-4.22-33.621-5.297-50.261-3.118l-0.132-1.003   c16.765-2.199,34.279-1.109,50.645,3.142c2.459,0.639,5.229,1.547,7.327,3.161c2.499,0.615,4.953,1.431,7.313,2.536l-0.336,0.949   l-2.602-0.641l0.102-0.408c-0.972-0.369-1.959-0.694-2.956-0.982c0.519,0.628,0.947,1.338,1.256,2.138l0.165,0.428l-0.411,0.206   C103.494,170.977,101.472,171.139,99.515,171.139z M60.534,165.448c3.314,0,6.905,0.282,10.823,0.844   c2.965,0.425,5.963,0.968,8.863,1.493c6.148,1.112,12.503,2.263,18.824,2.338c1.818,0.023,3.706-0.06,5.349-0.749   c-0.485-1.028-1.217-1.878-2.101-2.59c-4.583-1.106-9.334-1.537-13.921-1.865c-4.895-0.35-9.864-0.601-14.773-0.747   c-4.622-0.139-9.984-0.213-15.107,0.618c-1.779,0.289-3.53,0.681-5.249,1.179C55.519,165.622,57.942,165.448,60.534,165.448z"></path>
</g>
<linearGradient id="SVGID_2_-i0" gradientUnits="userSpaceOnUse" x1="1624.545" y1="1345.3372" x2="1745.9304" y2="1415.781" gradientTransform="matrix(0.1503 0 0 0.1503 -232.5418 -119.7942)">
	<stop offset="0" style="stop-color:#926965"></stop>
	<stop offset="1" style="stop-color:#854c4b"></stop>
</linearGradient>
<path fill="url(#SVGID_2_-i0)" d="M32.859,85.22c-0.169-0.639-0.646-1.143-1.112-1.611c-3.692-3.706-5.909-5.753-10.334-8.542  c-0.986-0.622-1.228-1.167-2.481-1.241c-1.071,0.281-2.615,1.499-2.863,2.579c-0.263,1.151,0.596,3.38,1.526,4.106  c0.134,0.104,0.272,0.19,0.408,0.288c-0.277-0.136-0.54-0.267-0.833-0.407c-2.119-1.006-1.371-0.994-2.623-0.902  c-1.025,0.421-2.395,1.832-2.497,2.935c-0.048,0.517,0.184,1.07,0.536,1.582c-0.514-0.368-0.412-0.341-1.183-0.363  c-0.907,0.267-2.193,1.346-2.375,2.273c-0.018,0.089-0.115,0.605-0.117,0.706c-0.77,0.347-1.146,0.478-1.803,0.979  c-0.782,0.335-1.816,1.435-1.881,2.284c-0.07,0.905,0.837,2.501,1.627,2.945c2.206,1.244,4.158,1.819,6.543,2.673  c1.335,0.478,2.171,0.996,3.142,1.142c0.619,0.093,1.16-0.007,2.081-0.643c0.418-0.289,0.563-0.865,0.362-1.331  c-0.201-0.465,0.588-0.101,1.639,0.187c0.67,0.183,1.281,0.144,2.381-0.435c0.499-0.263,0.736-0.88,0.575-1.421  c-0.161-0.541-0.582-0.958-0.991-1.346c-1.457-1.376-2.658-2.459-3.885-3.45c1.315,0.743,2.645,1.422,4.045,1.949  c1.195,0.451,2.627,1.094,3.888,1.303c0.804,0.134,1.511,0.016,2.723-0.793c0.549-0.367,0.751-1.114,0.5-1.725  c-0.252-0.611-0.792-1.048-1.316-1.45c-2.315-1.777-3.806-3.129-2.741-2.3c1.009,0.786,2.309,1.726,3.53,2.101  c0.779,0.239,1.495,0.215,2.804-0.426C32.73,86.573,33.028,85.859,32.859,85.22z"></path>
<g>
	<path fill="#23286B" d="M104.784,116.574l-0.883-0.493c2.128-3.816,0.108-8.457-0.859-10.275c-0.777-1.46-1.728-2.868-2.647-4.23   c-1.154-1.708-2.347-3.474-3.235-5.392c-3.385-7.312-2.112-15.433-0.241-24.525c1.333-6.478,6.958-14.909,9.468-16.128   c0.444-0.216,0.832-0.242,1.156-0.081l-0.452,0.907c0.006,0.003,0.01,0.004,0.01,0.004c-1.176-0.222-7.726,8.381-9.191,15.504   c-1.835,8.912-3.087,16.86,0.168,23.894c0.854,1.843,2.023,3.576,3.155,5.251c0.935,1.384,1.901,2.813,2.703,4.322   C104.981,107.295,107.156,112.325,104.784,116.574z"></path>
</g>
<circle fill="#23286B" cx="104.709" cy="120.332" r="4.966"></circle>
<g>
	<path fill="#428DFC" d="M80.114,168.347l-0.171-0.997c16.717-2.868,15.692-22.086,15.355-28.401l1.011-0.055   C97.243,156.433,91.795,166.342,80.114,168.347z"></path>
</g>
<g>
	<path fill="#428DFC" d="M98.599,168.459c-1.257,0-5.966-1.389-10.03-5.855c-3.501-3.85-7.428-11.074-6.249-23.625l1.008,0.096   c-1.146,12.184,2.625,19.151,5.989,22.848c3.787,4.164,8.191,5.524,9.282,5.524V168.459L98.599,168.459z"></path>
</g>
<g>
	<path fill="#23286B" d="M96.943,141.468H94.92v-4.275c0-3.052-2.481-5.536-5.532-5.536h-0.273c-3.05,0-5.532,2.483-5.532,5.536   v4.275h-2.023v-4.275c0-4.17,3.389-7.561,7.555-7.561h0.273c4.166,0,7.555,3.392,7.555,7.561V141.468z"></path>
</g>
<rect x="77.229" y="166.361" fill="#428DFC" width="3.436" height="3.439"></rect>
<rect x="97.648" y="166.361" fill="#428DFC" width="3.436" height="3.439"></rect>
<linearGradient id="SVGID_3_-i0" gradientUnits="userSpaceOnUse" x1="2159.6675" y1="1853.3549" x2="2552.8083" y2="1853.3549" gradientTransform="matrix(0.1503 0 0 0.1503 -232.5418 -119.7942)">
	<stop offset="0" style="stop-color:#926965"></stop>
	<stop offset="1" style="stop-color:#854c4b"></stop>
</linearGradient>
<path fill="url(#SVGID_3_-i0)" d="M133.334,79.841c-6.877,5.104-10.935,26.588-14.503,34.378c-7.549,16.478-16,28.326-19.912,43.809  c-5.708,22.592-5.013,48.901-4.743,75.352c0.019,0.001-0.939,4.344-2.12,8.423h16.88c-1.314-1.397-2.632-2.868-3.927-4.434  c-3.425-4.568-3.071-17.094-2.206-23.833c1.121-8.731,4.628-19.55,8.397-27.503c7.02-14.816,18.17-33.315,25.19-48.13  c8.702-18.365,13.94-38.849,14.756-59.158C143.766,74.395,140.212,74.737,133.334,79.841z"></path>
<linearGradient id="SVGID_4_-i0" gradientUnits="userSpaceOnUse" x1="2355.3416" y1="1535.9288" x2="2620.7019" y2="1839.6663" gradientTransform="matrix(0.1503 0 0 0.1503 -232.5418 -119.7942)">
	<stop offset="0" style="stop-color:#DEEAFE"></stop>
	<stop offset="1" style="stop-color:#A1C3FC"></stop>
</linearGradient>
<path fill="url(#SVGID_4_-i0)" d="M128.799,55.855c12.245,0.55,20.992,11.131,23.928,23.043c2.935,11.912,0.085,24.427-3.258,36.231  c-6.295,22.225-14.363,43.948-24.102,64.895c-4.628-9.651-18.941-18.512-29.817-24.549c12.365-19.657,18.002-35.334,21.892-58.233  c-0.308-0.252,5.112-15.268,5.921-22.234c0.761-6.555,1.918-12.597,2.679-19.152C127.071,55.781,127.536,55.798,128.799,55.855z"></path>
<path fill="#E7EFFE" d="M80.349,275.58c-1.243-16.867-3.777-52.539-4.737-58.597c13.317-0.505,26.635-1.009,39.952-1.514  c1.086,19.157,2.173,38.311,3.259,57.468C105.958,272.967,93.097,273.851,80.349,275.58z"></path>
<g>
	<path fill="#23286B" d="M88.569,131.09c-0.99-7.672-0.706-15.402,0.85-22.978c0.9-4.383,2.065-7.721,3.666-10.507   c1.714-2.981,4.101-5.57,6.21-7.709c4.379-4.441,9.156-8.551,14.199-12.215c0.852-0.619,1.717-1.232,2.588-1.849   c5.42-3.84,11.024-7.812,13.867-13.696c0.926-1.917,1.844-4.764,0.963-7.443c-0.732-2.222-3.146-4.231-5.58-3.679l-0.148-0.983   c3.061-0.694,5.824,1.713,6.691,4.345c0.988,3.001-0.006,6.116-1.013,8.2c-2.957,6.118-8.668,10.167-14.193,14.081   c-0.866,0.614-1.729,1.225-2.577,1.841c-4.998,3.632-9.734,7.706-14.073,12.107c-2.168,2.199-4.402,4.629-6.054,7.503   c-1.547,2.689-2.676,5.931-3.552,10.204c-1.533,7.466-1.814,15.085-0.836,22.645L88.569,131.09z"></path>
</g>

            </g>
        </g>
    </g>
    
    <!-- ITEM 1 -->
    <g>
        <defs>
            <clipPath id="clip-path-id-viewbox-item-1">
                <rect x="0.0" y="0.0" width="197.0" height="405.0"/>
            </clipPath>
        </defs>
        <g transform="translate(14.0 17.0) rotate(0.0 116.0 238.0) scale(1.1776649746192893 1.1753086419753087)">
            <g clip-path="url(#clip-path-id-viewbox-item-1)" transform="translate(-0.0 -0.0)">
                
<path fill="#0A134F" d="M60.241,282.917c2.821-7.586,7.26-14.459,10.5-21.876c6.892-15.777,8.114-33.365,9.243-50.551  c1.058-16.119,2.117-32.239,3.174-48.359c0.165-2.515,0.349-5.103,1.444-7.371c2.901-6.005,10.568-7.391,16.701-9.986  c8.876-3.755,13.945-2.281,16.843-11.491c-2.285,89.291-36.261,165.259-56.013,252.357c-3.598,0.031-9.127-0.487-12.725-0.455  c0.734-22.365,5.098-44.519,5.832-66.884C55.633,306.341,56.072,294.132,60.241,282.917z"></path>
<path fill="#0073DC" d="M99.916,404.318c-1.444-2.732-8.782-7.669-11.114-8.882c-6.011-3.128-11.45-4.615-17.461-7.743  c-4.957-2.58-6.342-3.383-8.452-8.448c-5.337,0.159-10.746,0.697-13.503,1.16c-2.929,7.976-4.288,16.278-6.32,24.451  C50.566,405.021,91.839,405.228,99.916,404.318z"></path>
<path fill="#1B236D" d="M46.075,293.409c-1.904,8.985-1.776,18.269-1.377,27.446c0.929,21.388,3.28,42.714,7.03,63.789  c4.193,1.197,8.821,0.794,12.745-1.111c-2.49-70.169,21.085-138.727,24.841-208.841c-7.614,1.961-15.229,3.923-22.843,5.883  c-2.251,0.58-4.631,1.234-6.215,2.937c-1.658,1.783-2.108,4.349-2.456,6.761c-2.107,14.583-3.218,29.311-3.325,44.044  c-0.091,12.529,0.53,25.223-2.278,37.433C50.518,279.066,47.632,286.067,46.075,293.409z"></path>
<g>
	<path fill="#FF4945" d="M146.613,12.515c-0.12,0-0.239-0.043-0.335-0.13c-0.204-0.186-0.219-0.501-0.034-0.706   c0.709-0.782,0.877-2.111,0.47-3.74c-0.687-2.755-2.84-5.646-4.699-6.312c-2.822-1.007-7.311-0.676-10.289,0.176   c-0.264,0.074-0.54-0.079-0.615-0.343c-0.076-0.266,0.078-0.541,0.343-0.617c3.033-0.868,7.737-1.288,10.896-0.156   c2.206,0.79,4.547,3.869,5.331,7.009c0.49,1.965,0.242,3.617-0.698,4.654C146.884,12.459,146.748,12.515,146.613,12.515z"></path>
</g>
<path fill="#f17a75" d="M133.047,25.235c0-0.118,0-0.237,0-0.354c1.343,3.641,3.349,7.626,2.627,11.44  c2.661-0.67,4.006,1.125,6.657,0.412c1.511-0.406,2.683-1.576,3.736-2.736c0.167-0.185,0.338-0.375,0.433-0.606  c0.16-0.383,0.096-0.82,0.035-1.231c-0.524-3.59-3.207-7.42-2.605-10.997c-3.845,2.603-5.922,3.912-10.525,3.336  C133.756,23.917,132.695,25.816,133.047,25.235z"></path>
<linearGradient id="SVGID_1_-i1" gradientUnits="userSpaceOnUse" x1="12.8804" y1="346.0199" x2="67.0525" y2="346.0199" gradientTransform="matrix(1 0 0 -1 0 478)">
	<stop offset="0" style="stop-color:#008EFF"></stop>
	<stop offset="1" style="stop-color:#0073DC"></stop>
</linearGradient>
<path fill="url(#SVGID_1_-i1)" d="M64.047,137.127c-0.61,5.277,14.263,5.022,28.562,2.364s26.484-8.262,25.54-10.187  c-1.325-2.703-14.408-8.674-28.708-6.016C75.143,125.946,64.732,131.2,64.047,137.127z"></path>
<g>
	<path fill="#1B236D" d="M72.414,16.848c-0.159,0-0.319-0.005-0.478-0.016c-0.274-0.019-0.481-0.258-0.463-0.532   c0.02-0.276,0.26-0.481,0.531-0.464c2.222,0.161,4.51-0.995,5.721-2.855c0.15-0.231,0.459-0.294,0.689-0.146   c0.23,0.151,0.295,0.46,0.145,0.691C77.223,15.578,74.85,16.848,72.414,16.848z"></path>
</g>
<linearGradient id="SVGID_2_-i1" gradientUnits="userSpaceOnUse" x1="0" y1="275.5774" x2="116.5752" y2="275.5774" gradientTransform="matrix(1 0 0 -1 0 478)">
	<stop offset="0" style="stop-color:#FF4945"></stop>
	<stop offset="1" style="stop-color:#F92424"></stop>
</linearGradient>
<path fill="url(#SVGID_2_-i1)" d="M14.863,269.957c11.503-0.551,22.466-1.728,32.943-2.643c-2.678,3.247-4.393,7.282-4.872,11.467  c7.248-0.962,56.784-3.948,66.17-4.942c2.023-28.12,4.045-56.24,6.068-84.36c1.525-21.206,3.009-42.884-2.494-63.416  c-9.582,1.217-19.165,2.435-28.748,3.652c-1.728,0.22-3.504,0.455-5.023,1.309c-2.02,1.136-3.312,3.208-4.467,5.22  c-4.773,8.314-8.689,17.091-13.09,25.609c-8.835,17.099-19.598,33.108-30.335,49.075C20.676,226.302,10.338,241.675,0,257.049  c6.529,1.254,13.059,2.508,19.589,3.762C17.675,263.667,16.087,266.743,14.863,269.957z"></path>
<path fill="#008EFF" d="M145.479,87.641c1.4,5.052,5.072,12.045,2.366,16.532c-0.914,1.516-2.385,4.421-3.797,5.485  c-2.429,1.831-4.914,2.351-7.482,0.784c-7.457-8.393-14.198-18.69-22.864-25.821c-3.81-3.135-8.318-6.736-12.574-9.227  c-2.919-1.709-2.951-4.376-5.569-6.519c-5.325-4.361-10.649-8.721-15.974-13.081c1.62-4.729,4.045-9.18,7.14-13.102  c4.202,3.843,8.405,7.686,12.606,11.529c2.709,2.478,5.425,4.961,8.388,7.126c8.241,6.023,18.189,9.444,26.194,15.779  c2.261,1.79,4.378,3.818,6.948,5.124c0.99,0.503,2.062,0.91,2.855,1.688C144.701,84.906,145.109,86.306,145.479,87.641z"></path>
<linearGradient id="SVGID_3_-i1" gradientUnits="userSpaceOnUse" x1="51.568" y1="388.3438" x2="112.4206" y2="388.3438" gradientTransform="matrix(1 0 0 -1 0 478)">
	<stop offset="0" style="stop-color:#008EFF"></stop>
	<stop offset="1" style="stop-color:#0073DC"></stop>
</linearGradient>
<path fill="url(#SVGID_3_-i1)" d="M95.214,53.232c-3.064-6.852-6.129-9.686-20.036-10.631c-11.24-0.764-24.514,0.945-23.562,14.366  c0.635,8.957,5.516,16.796,10.251,24.42c9.774,15.735,6.475,15.079,2.232,55.479c10.124-6.137,36.064-8.742,48.321-10.631  c-0.943-11.813-2.17-17.156-3.064-28.35C107.943,80.164,100.962,66.08,95.214,53.232z"></path>
<path fill="#f17a75" d="M76.36,43.279c-0.214,3.358-5.239,4.366-11.99,1.785c0.005-7.297-0.671-14.594-2.017-21.765  c3.241-1.548,6.483-3.097,9.725-4.645C72.533,26.989,74.188,35.22,76.36,43.279z"></path>
<linearGradient id="SVGID_4_-i1" gradientUnits="userSpaceOnUse" x1="129.001" y1="201.959" x2="150.3926" y2="201.959" gradientTransform="matrix(0.9617 -0.2741 -0.2741 -0.9617 11.3674 277.7147)">
	<stop offset="0" style="stop-color:#f1978f"></stop>
	<stop offset="1" style="stop-color:#f17a75"></stop>
</linearGradient>
<path fill="url(#SVGID_4_-i1)" d="M99.882,42.527c0.607,0.003,1.061,0.605,1.169,1.203c0.11,0.598-0.023,1.21-0.042,1.818  c-0.035,1.094,0.312,2.196,0.966,3.073c-2.598,0.595-1.872-0.298-4.499,0.144c-0.349,0.059-2.998,1.38-3.351,1.343  c-0.372-0.039-1.769-0.033-2.115-0.174c-2.116-0.858-4.231-1.715-6.348-2.573c-1.071-0.434-2.342-1.181-2.215-2.332  c1.897,0.397,3.755,0.875,5.652,1.272c0.877,0.184,1.34,0.896,2.122,0.112c-2.346-0.224-4.374-0.927-6.354-2.254  c-1.836-1.231-7.255-0.132-6.266-2.112c0.508-1.016,5.129-0.473,6.254-0.335c3.291,0.401,4.021,1.016,7.279,1.628  c0.394,0.074,0.791,0.152,1.191,0.143c0.589-0.013,1.155-0.21,1.724-0.361C96.622,42.701,98.259,42.613,99.882,42.527z"></path>
<linearGradient id="SVGID_5_-i1" gradientUnits="userSpaceOnUse" x1="289.7065" y1="-56.231" x2="244.0704" y2="-52.2494" gradientTransform="matrix(0.7233 -0.4754 -0.5492 -0.8357 -113.8179 128.4402)">
	<stop offset="0" style="stop-color:#EFEFEF"></stop>
	<stop offset="0.5538" style="stop-color:#c9b0b1"></stop>
</linearGradient>
<path fill="url(#SVGID_5_-i1)" d="M136.215,38.357c-0.318-1.452-1.636-2.598-2.987-3.055c-1.352-0.457-2.26-2.379-3.604-2.259  c-8.698,0.777-17.726,4.373-25.883,6.983c-3.104,0.993-6.218,2.146-9.583,2.09c1.496,3.297,2.82,6.661,3.963,10.071  c7.049,1.499,14.26,2.193,20.962,0.775c6.702-1.419,12.886-5.124,16.317-11.142C135.98,40.804,136.491,39.618,136.215,38.357z"></path>
<path fill="#f1978f" d="M132.419,7.37c-1.346,0.53-2.336,1.703-3.095,2.937c-3.006,4.892-3.536,10.06-0.559,14.97  c1.174,1.938,3.062,4.584,5.108,5.552c2.238,1.058,5.078,1.641,7.533,1.335c2.35-0.294,4.6-1.153,5.822-3.186  c0.483-0.805-0.18-1.204,0.554-1.789c2.401-1.912,0.965-7.556,0.235-11.026c-0.665-3.163-0.463-5.135-2.976-6.933  c-2.635-1.885-6.065-2.137-9.3-2.227C134.619,6.973,133.463,6.959,132.419,7.37z"></path>
<linearGradient id="SVGID_6_-i1" gradientUnits="userSpaceOnUse" x1="128.3946" y1="326.1199" x2="156.4952" y2="326.1199" gradientTransform="matrix(1.0142 -0.1765 -0.1714 -0.9852 44.6291 355.7074)">
	<stop offset="0" style="stop-color:#FF4945"></stop>
	<stop offset="1" style="stop-color:#F92424"></stop>
</linearGradient>
<path fill="url(#SVGID_6_-i1)" d="M126.111,16.1c1.362,0.131,2.722-0.221,4.048-0.569c3.353-0.882,4.132-0.378,7.484-1.26  c2.256-0.593,7.481-2.444,9.759-1.9c1.652-3.004-0.416-5.503-3.169-7.557c-2.752-2.054-6.571-2.38-9.954-1.546  c-3.383,0.833-6.409,2.697-9.23,4.713c-1.911,1.367-4.361,2.886-6.44,1.818C120.417,12.637,122.69,15.771,126.111,16.1z"></path>
<linearGradient id="SVGID_7_-i1" gradientUnits="userSpaceOnUse" x1="123.5087" y1="418.0801" x2="159.6087" y2="418.0801" gradientTransform="matrix(1 0 0 -1 0 478)">
	<stop offset="0" style="stop-color:#EFEFEF"></stop>
	<stop offset="0.5538" style="stop-color:#c9b0b1"></stop>
</linearGradient>
<path fill="url(#SVGID_7_-i1)" d="M135.591,33.043c0.215,2.151,3.283,3.173,5.386,2.692c2.103-0.481,3.89-3.043,5.505-4.476  c1.616-1.433,3.855-1.001,6.01-1.063c2.469-0.071,4.859-0.42,5.987,1.782c1.13,2.202,0.687,6.041,0.846,8.513  c0.989,15.396-0.595,30.988-5.04,45.758c-0.204,0.677-0.427,1.378-0.909,1.895c-0.659,0.707-1.671,0.937-2.625,1.094  c-8.316,1.371-17.097-0.286-24.347-4.594c-1.369-13.545-0.123-18.576-1.491-32.121c-0.322-3.186-2.762-15.97-0.354-18.073  C127.616,31.781,132.274,33.534,135.591,33.043z"></path>
<linearGradient id="SVGID_8_-i1" gradientUnits="userSpaceOnUse" x1="90.9127" y1="321.2317" x2="122.1373" y2="321.2317" gradientTransform="matrix(1 0 0 -1 0 478)">
	<stop offset="0" style="stop-color:#92C4FE"></stop>
	<stop offset="1" style="stop-color:#5BABF2"></stop>
</linearGradient>
<path fill="url(#SVGID_8_-i1)" d="M121.329,142.037c0.25,3.513,0.499,7.025,0.749,10.539c0.07,0.974,0.135,1.978-0.166,2.907  c-0.481,1.483-1.799,2.509-3.063,3.417c-7.803,5.608-16.252,10.311-25.126,13.985c-4.837,2.512-2.528-11.576,0.211-16.656  c1.173-2.175,2.779-4.08,4.384-5.959c1.512-1.769,3.042-3.538,4.83-5.026c4.643-3.862,10.982-5.594,16.937-4.628  c0.333,0.054,0.688,0.128,0.921,0.373C121.264,141.26,121.304,141.665,121.329,142.037z"></path>
<linearGradient id="SVGID_9_-i1" gradientUnits="userSpaceOnUse" x1="102.4426" y1="365.7668" x2="154.1633" y2="365.7668" gradientTransform="matrix(1 0 0 -1 0 478)">
	<stop offset="0" style="stop-color:#EFEFEF"></stop>
	<stop offset="0.5538" style="stop-color:#c9b0b1"></stop>
</linearGradient>
<path fill="url(#SVGID_9_-i1)" d="M153.563,85.326c-7.602,0.979-14.483-4.348-21.969-5.996c-9.996-2.201-21.151,3.058-25.832,12.18  c-3.607,7.028-3.451,15.321-3.212,23.221c0.263,8.707,0.527,17.414,0.79,26.121c0.024,0.786,0.052,1.591,0.351,2.318  c1.111,2.704,4.88,2.699,7.759,2.232c2.924-0.473,6.653-0.973,9.576-1.448c1.928-4.296,2.314-5.272,4.243-9.568  c1.085-2.415-0.354-5.67-0.506-9.934c2.683-3.564,3.546-8.435,2.25-12.707c-0.593-1.952-1.521-4.322-0.126-5.807  c6.227,3.376,15.337,3.946,20.944-0.386C153.44,101.219,155.236,92.221,153.563,85.326z"></path>
<linearGradient id="SVGID_10_-i1" gradientUnits="userSpaceOnUse" x1="45.8935" y1="458.3841" x2="79.9354" y2="458.3841" gradientTransform="matrix(1 0 0 -1 0 478)">
	<stop offset="0" style="stop-color:#f1978f"></stop>
	<stop offset="1" style="stop-color:#f17a75"></stop>
</linearGradient>
<path fill="url(#SVGID_10_-i1)" d="M79.935,21.189c0.043-1.202-1.784-1.546-2.59-2.439c-0.428-0.474-1.225-2.424-1.384-2.602  c-1.209-1.347-2.278-6.035-3.585-7.73c-2.619-3.396-6.676-5.756-11.144-6.72C55.449,0.45,47.729,2.404,46.187,7.805  c-0.415,1.457-0.314,2.97-0.155,4.444c0.598,5.537,1.96,10.971,4.046,16.131c1.295,3.203,4.136,5.457,6.847,7.755  c2.71,2.298,10.405,2.326,14.597,0.206c2.536-1.283,5.991-3.912,6.227-6.576c0.147-1.665,0.101-3.964-0.093-6.212  C78.524,22.879,79.896,22.29,79.935,21.189z"></path>
<linearGradient id="SVGID_11_-i1" gradientUnits="userSpaceOnUse" x1="130.1577" y1="372.9699" x2="154.4952" y2="372.9699" gradientTransform="matrix(1 0 0 -1 0 478)">
	<stop offset="0" style="stop-color:#f1978f"></stop>
	<stop offset="1" style="stop-color:#f17a75"></stop>
</linearGradient>
<path fill="url(#SVGID_11_-i1)" d="M152.293,105.805c-0.281,0.827-0.567,1.664-1.053,2.39c-0.584,0.871-1.424,1.533-2.29,2.123  c-1.595,1.087-3.323,1.978-5.133,2.646c-1.275,0.47-2.674,0.832-3.981,0.457c-1.338-0.383-2.343-1.465-3.275-2.499  c-1.895-2.103-3.789-4.205-5.684-6.307c-0.441-0.489-0.913-1.149-0.638-1.749c0.389-0.851,1.672-0.517,2.449,0.003  c1.152,0.772,2.216,1.676,3.164,2.69c0.089-0.311-0.112-0.676-0.422-0.766c1.119,1.312,2.498,2.401,4.033,3.183  c-2.081-2.493-3.958-5.156-5.607-7.955c-0.455-0.773-0.866-1.838-0.243-2.482c2.782,0.975,8.184,5.82,9.765,8.314  c-0.009-0.92-3.673-4.569-4.145-5.358c-0.472-0.789-0.639-1.996,0.142-2.478c0.78-0.482,1.746,0.181,2.418,0.805  c1.995,1.852,4.503,3.836,6.498,5.689c1.443-1.028,1.963-2.686,2.792-4.254c0.784-1.482,3.454-5.008,3.41-3.332  C154.434,99.136,153.277,102.909,152.293,105.805z"></path>
<linearGradient id="SVGID_12_-i1" gradientUnits="userSpaceOnUse" x1="134.8272" y1="399.7478" x2="161.1532" y2="399.7478" gradientTransform="matrix(1 0 0 -1 0 478)">
	<stop offset="0" style="stop-color:#f1978f"></stop>
	<stop offset="1" style="stop-color:#f17a75"></stop>
</linearGradient>
<path fill="url(#SVGID_12_-i1)" d="M143.981,73.057c5.021-1.979,7.884-2.913,13.692-5.6c1.452-0.672,1.528,0.373,1.607,0.729  c-0.99,2.324-2.881,4.25-5.184,5.28c-0.422,0.189-0.876,0.361-1.171,0.718c-0.296,0.356-0.345,0.967,0.032,1.236  c0.195,0.14,0.45,0.153,0.69,0.167c2.411,0.141,4.791,0.82,6.914,1.975c2.764,1.656-4.968,5.654-6.25,9.165  c-0.189,0.517-0.365,1.052-0.702,1.487c-0.724,0.932-2.055,1.198-3.214,0.986c-1.159-0.212-2.204-0.813-3.253-1.351  c-3.826-1.96-8.032-3.172-12.313-3.547c2.827-2.702,5.746-5.541,7.079-9.221c0.194-0.535,0.369-1.111,0.791-1.493  c0.231-0.21,0.52-0.342,0.804-0.473c1.814-0.833,3.629-1.665,5.443-2.497C149.201,71.042,144.288,72.668,143.981,73.057z"></path>
<linearGradient id="SVGID_13_-i1" gradientUnits="userSpaceOnUse" x1="52.0585" y1="400.5759" x2="151.8302" y2="400.5759" gradientTransform="matrix(1 0 0 -1 0 478)">
	<stop offset="0" style="stop-color:#008EFF"></stop>
	<stop offset="1" style="stop-color:#0073DC"></stop>
</linearGradient>
<path fill="url(#SVGID_13_-i1)" d="M68.398,82.221c-4.889-3.492-8.345-8.599-11.694-13.593c-1.439-2.146-2.887-4.308-3.905-6.684  c-0.515-1.202-0.921-2.525-0.659-3.806c0.539-2.635,3.76-3.951,6.391-3.424c2.632,0.528,4.79,2.339,6.884,4.02  c13.93,11.187,31.146,19.407,48.98,18.652c11.083-0.469,21.743-4.344,32.752-5.708c1.52,8.106,3.039,16.21,4.559,24.316  c0.175,0.936,0.276,2.087-0.48,2.665c-0.36,0.276-0.832,0.341-1.281,0.398c-6.181,0.786-12.421,1.572-18.624,0.987  c-4.472-0.421-8.845-1.549-13.195-2.674c-10.915-2.82-21.831-5.641-32.746-8.461C79.457,87.379,73.382,85.78,68.398,82.221z"></path>
<linearGradient id="SVGID_14_-i1" gradientUnits="userSpaceOnUse" x1="27.7794" y1="433.1452" x2="64.5394" y2="433.1452" gradientTransform="matrix(1 0 0 -1 0 478)">
	<stop offset="0" style="stop-color:#1B236D"></stop>
	<stop offset="1" style="stop-color:#0A134F"></stop>
</linearGradient>
<path fill="url(#SVGID_14_-i1)" d="M57.875,9.561c0.426-1.797,0.937-3.621,2.008-5.125c1.072-1.503,2.817-2.645,4.657-2.521  c-5.813-2.408-12.806-0.46-17.51,3.726s-7.379,10.254-8.753,16.407C36.9,28.2,36.695,34.543,36.129,40.823  c-1.37,15.185-4.865,30.085-8.35,44.926c9.17,1.712,18.465,2.747,27.786,3.094c-0.124-13.985-0.248-27.969-0.372-41.954  C55.082,34.382,54.986,21.729,57.875,9.561z"></path>
<g>
	<path fill="#1B236D" d="M57.29,89.168c-0.272,0-0.495-0.22-0.498-0.493c-0.211-18.138-0.167-36.497,0.131-54.565   c0.167-10.136,0.459-18.564,2.53-27.04c0.528-2.166,1.349-4.523,3.418-5.568c0.241-0.125,0.544-0.026,0.668,0.221   c0.124,0.247,0.025,0.546-0.221,0.67c-1.707,0.863-2.422,2.969-2.898,4.914c-2.046,8.375-2.335,16.746-2.501,26.82   c-0.299,18.059-0.343,36.408-0.131,54.536c0.003,0.276-0.217,0.501-0.492,0.505C57.294,89.168,57.292,89.168,57.29,89.168z"></path>
</g>
<linearGradient id="SVGID_15_-i1" gradientUnits="userSpaceOnUse" x1="168.9117" y1="-233.9275" x2="181.3241" y2="-233.9275" gradientTransform="matrix(0.7121 -0.7021 -0.7021 -0.7121 -103.0167 30.9472)">
	<stop offset="0" style="stop-color:#f1978f"></stop>
	<stop offset="1" style="stop-color:#f17a75"></stop>
</linearGradient>
<path fill="url(#SVGID_15_-i1)" d="M175.727,67.197c1.033-0.999,12.075,3.731,14.275,4.595c0.531,0.209,3.124,1.151,3.337,1.433  c0.981,1.299,1.963,2.598,2.944,3.897c0.336,0.444,0.685,0.925,0.715,1.483c0.022,0.41-0.134,0.808-0.303,1.183  c-0.725,1.623-1.703,3.133-2.89,4.456c-1.152-0.077-1.913-1.365-1.85-2.52c0.064-1.156,0.712-2.185,1.341-3.157  c-1.054-0.775-2.108-1.549-3.162-2.324c-0.549,0.094-1.098,0.188-1.646,0.282c1.97,1.81,2.833,3.561,2.95,6.237  c-1.118,0.628-2.03,0.366-2.821-0.644c-1.265-1.616-2.53-3.232-3.794-4.848c-2.551-3.134-9.221-7.734-11.531-6.696  C172.581,69.219,176.44,68.549,175.727,67.197z"></path>
<linearGradient id="SVGID_16_-i1" gradientUnits="userSpaceOnUse" x1="172.4561" y1="414.1075" x2="157.3234" y2="442.8526" gradientTransform="matrix(1 0 0 -1 0 478)">
	<stop offset="0" style="stop-color:#EFEFEF"></stop>
	<stop offset="0.5538" style="stop-color:#c9b0b1"></stop>
</linearGradient>
<path fill="url(#SVGID_16_-i1)" d="M155.104,38.13c0.221-2.469,0.999-8.856,2.569-6.941c3.056,3.73,4.928,9.294,7.56,13.335  c1.441,2.212,2.883,4.424,4.323,6.636c4.814,7.389,10.197,15.242,18.488,18.212c-2.651,4.639-4.268,6.766-6.918,11.405  c-6.318-5.854-11.775-8.809-18.093-14.664c-1.916-1.776-4.871-4.881-5.919-7.276c-1.282-2.929-2.469-6.654-2.346-9.851  C154.961,44.032,154.701,42.643,155.104,38.13z"></path>
<linearGradient id="SVGID_17_-i1" gradientUnits="userSpaceOnUse" x1="52.9908" y1="91.8144" x2="85.3995" y2="72.2799" gradientTransform="matrix(1 0 0 -1 0 478)">
	<stop offset="0" style="stop-color:#008EFF"></stop>
	<stop offset="1" style="stop-color:#0073DC"></stop>
</linearGradient>
<path fill="url(#SVGID_17_-i1)" d="M110.531,404.318c4.533-0.488-11.743-7.669-14.543-8.882c-7.22-3.128-13.231-4.615-20.45-7.743  c-5.953-2.58-7.015-3.173-11.079-8.237c-5.276,0.159-11.109,0.486-13.688,0.949c0.148,7.976,1.995,16.278,3.118,24.451  C61.452,405.021,102.805,405.228,110.531,404.318z"></path>
<linearGradient id="SVGID_18_-i1" gradientUnits="userSpaceOnUse" x1="57.4643" y1="463.5156" x2="70.7016" y2="463.5156" gradientTransform="matrix(1 0 0 -1 0 478)">
	<stop offset="0" style="stop-color:#1B236D"></stop>
	<stop offset="1" style="stop-color:#0A134F"></stop>
</linearGradient>
<path fill="url(#SVGID_18_-i1)" d="M63.685,1.232c-0.5-0.066-1.025-0.124-1.495,0.058c-0.44,0.171-0.777,0.532-1.06,0.911  c-1.667,2.239-2.903,7.634-3.064,10.424c-0.341,5.881-0.367,8.395-0.602,15.175c3.044-6.384,9.098-10.93,12.182-17.296  c0.892-1.843,1.51-4.054,0.627-5.901C69.159,2.276,66.24,1.567,63.685,1.232z"></path>
<g>
	<path fill="#1B236D" d="M66.536,22.184c-0.573,0-1.178-0.077-1.823-0.248c-0.267-0.07-0.425-0.343-0.355-0.61   c0.069-0.267,0.347-0.426,0.608-0.355c2.556,0.675,4.374-0.27,6.834-2.246c0.213-0.171,0.527-0.139,0.7,0.078   c0.171,0.215,0.137,0.529-0.078,0.702C70.653,20.925,68.856,22.184,66.536,22.184z"></path>
</g>
<path id="texture-2_12_-i1" fill="#FFFFFF" d="M71.236,148.967c0.068-0.045,0.086-0.138,0.041-0.206s-0.137-0.086-0.205-0.041  s-0.086,0.138-0.041,0.206l0,0C71.075,148.994,71.167,149.013,71.236,148.967L71.236,148.967z M79.497,136.199  c0.082,0.017,0.162-0.036,0.179-0.119l0,0c0.018-0.075-0.029-0.15-0.103-0.167c-0.006-0.002-0.013-0.003-0.019-0.003  c-0.079-0.018-0.156,0.031-0.175,0.109C79.364,136.101,79.416,136.182,79.497,136.199L79.497,136.199L79.497,136.199z   M74.898,142.396c0.073,0.041,0.164,0.021,0.213-0.046c0.046-0.071,0.026-0.167-0.046-0.214c-0.071-0.046-0.166-0.026-0.213,0.046  C74.812,142.255,74.832,142.346,74.898,142.396z M86.887,158.151c0.127,0.093,0.304,0.066,0.399-0.059  c0.096-0.118,0.079-0.291-0.038-0.386c-0.004-0.003-0.008-0.007-0.012-0.009c-0.126-0.093-0.304-0.066-0.399,0.059  C86.743,157.878,86.765,158.056,86.887,158.151L86.887,158.151z M81.412,153.998c0.127,0.093,0.306,0.064,0.397-0.065  c0.091-0.126,0.065-0.3-0.059-0.394c-0.123-0.096-0.299-0.073-0.394,0.05l0,0C81.266,153.72,81.29,153.898,81.412,153.998z   M75.93,149.833c0.124,0.095,0.298,0.072,0.392-0.052c0.002-0.003,0.004-0.005,0.005-0.008c0.096-0.118,0.079-0.291-0.038-0.386  c-0.004-0.003-0.008-0.007-0.012-0.009c-0.129-0.091-0.307-0.067-0.408,0.055C75.779,149.561,75.806,149.738,75.93,149.833z   M74.124,165.437c0.131-0.083,0.171-0.258,0.088-0.389c-0.083-0.132-0.257-0.172-0.388-0.088c-0.129,0.082-0.17,0.252-0.093,0.383  C73.814,165.475,73.988,165.516,74.124,165.437L74.124,165.437z M70.647,159.491c0.131-0.083,0.171-0.258,0.088-0.389  c-0.083-0.132-0.257-0.172-0.388-0.088c-0.129,0.082-0.17,0.252-0.093,0.383C70.338,159.529,70.513,159.571,70.647,159.491  L70.647,159.491z M89.961,144.587c0.152,0.036,0.307-0.056,0.345-0.209c0.04-0.149-0.048-0.3-0.196-0.341  c-0.001,0-0.002-0.001-0.002-0.001c-0.143-0.048-0.298,0.031-0.345,0.174c-0.002,0.007-0.004,0.014-0.007,0.022  C89.723,144.385,89.811,144.54,89.961,144.587z M83.308,142.842c0.153,0.035,0.307-0.054,0.355-0.204  c0.036-0.153-0.057-0.307-0.208-0.345c-0.15-0.039-0.306,0.052-0.344,0.203c-0.001,0.002-0.001,0.004-0.002,0.005  c-0.04,0.149,0.048,0.301,0.195,0.34C83.306,142.841,83.307,142.842,83.308,142.842z M76.665,141.101  c0.144,0.042,0.296-0.041,0.337-0.186c0.001-0.004,0.003-0.009,0.003-0.013c0.045-0.15-0.041-0.307-0.189-0.351  c-0.005-0.002-0.009-0.003-0.014-0.004c-0.153-0.039-0.308,0.054-0.347,0.207c-0.039,0.154,0.054,0.309,0.206,0.347  C76.663,141.1,76.664,141.101,76.665,141.101z M68.219,168.696c0.126-0.059,0.181-0.209,0.125-0.335  c-0.058-0.127-0.208-0.183-0.335-0.125c-0.128,0.058-0.182,0.209-0.125,0.335l0,0C67.944,168.697,68.092,168.753,68.219,168.696z   M85.5,149.656c0.135,0.044,0.281-0.025,0.333-0.159c0.048-0.127-0.017-0.269-0.143-0.316c-0.004-0.001-0.007-0.002-0.011-0.003  c-0.13-0.051-0.277,0.014-0.326,0.145c-0.001,0.002-0.001,0.003-0.002,0.005C85.308,149.458,85.371,149.601,85.5,149.656  L85.5,149.656z M79.752,147.537c0.13,0.046,0.273-0.023,0.32-0.153c0.048-0.127-0.017-0.269-0.143-0.316  c-0.004-0.001-0.007-0.002-0.011-0.003c-0.13-0.051-0.277,0.014-0.328,0.144c-0.001,0.002-0.001,0.003-0.002,0.005  C79.548,147.347,79.62,147.491,79.752,147.537L79.752,147.537z M73.982,145.421c0.13,0.051,0.277-0.014,0.328-0.144  c0.001-0.002,0.001-0.003,0.002-0.005c0.05-0.122-0.009-0.262-0.13-0.312c-0.007-0.003-0.015-0.006-0.023-0.008  c-0.13-0.051-0.277,0.014-0.328,0.144c-0.001,0.002-0.001,0.003-0.002,0.005C73.787,145.231,73.854,145.372,73.982,145.421  L73.982,145.421z M75.969,159.167c0.106,0.091,0.265,0.082,0.359-0.022c0.095-0.102,0.089-0.261-0.013-0.354  c-0.105-0.093-0.264-0.09-0.364,0.008C75.857,158.905,75.865,159.068,75.969,159.167L75.969,159.167z M71.457,154.996  c0.096,0.095,0.25,0.094,0.344-0.001c0.003-0.003,0.007-0.007,0.011-0.011c0.095-0.102,0.089-0.261-0.013-0.354  c-0.105-0.093-0.264-0.09-0.364,0.008C71.344,154.742,71.354,154.902,71.457,154.996L71.457,154.996z M84.41,137.2  c0.132-0.003,0.238-0.112,0.236-0.245c0-0.005,0-0.011-0.001-0.015c-0.002-0.139-0.117-0.252-0.256-0.25c-0.003,0-0.006,0-0.009,0  c-0.138,0.012-0.244,0.13-0.24,0.271c0.004,0.138,0.121,0.246,0.258,0.241C84.402,137.201,84.406,137.2,84.41,137.2L84.41,137.2z   M78.276,137.457c0.14-0.007,0.251-0.124,0.249-0.266c-0.01-0.142-0.131-0.25-0.273-0.24c-0.134,0.009-0.239,0.121-0.239,0.257  c0,0.138,0.113,0.251,0.25,0.25C78.266,137.458,78.272,137.458,78.276,137.457L78.276,137.457z M73.607,172.367  c0.125,0.104,0.308,0.092,0.418-0.028c0.109-0.12,0.101-0.304-0.019-0.414c-0.124-0.106-0.31-0.094-0.418,0.028  C73.48,172.073,73.488,172.258,73.607,172.367L73.607,172.367z M68.348,167.608c0.12,0.109,0.304,0.101,0.413-0.019  c0.109-0.119,0.101-0.304-0.019-0.414c-0.12-0.109-0.304-0.101-0.413,0.019C68.221,167.314,68.23,167.498,68.348,167.608  L68.348,167.608z M83.791,144.275c0.163-0.013,0.288-0.152,0.284-0.316c-0.014-0.163-0.157-0.285-0.321-0.27  c-0.157,0.013-0.275,0.149-0.27,0.305C83.497,144.156,83.631,144.279,83.791,144.275L83.791,144.275z M76.719,144.641  c0.16-0.011,0.283-0.146,0.28-0.307c-0.008-0.162-0.144-0.288-0.307-0.281c-0.161,0.008-0.287,0.145-0.28,0.307  C76.423,144.522,76.559,144.646,76.719,144.641L76.719,144.641z M78.183,158.692c0.153,0.047,0.318-0.033,0.379-0.182  c0.048-0.154-0.034-0.317-0.186-0.369c-0.148-0.057-0.315,0.018-0.372,0.168c-0.001,0.002-0.001,0.004-0.002,0.006  C77.947,158.467,78.027,158.636,78.183,158.692C78.182,158.691,78.183,158.692,78.183,158.692L78.183,158.692z M71.502,156.313  c0.154,0.054,0.324-0.027,0.378-0.181c0,0,0,0,0-0.001c0.052-0.149-0.027-0.313-0.176-0.364l0,0  c-0.151-0.054-0.318,0.024-0.372,0.176C71.276,156.091,71.354,156.256,71.502,156.313L71.502,156.313z M77.744,163.542  c0.149,0.056,0.317-0.022,0.374-0.173c0.056-0.151-0.022-0.317-0.172-0.374c-0.146-0.054-0.31,0.017-0.369,0.162  C77.518,163.311,77.593,163.482,77.744,163.542L77.744,163.542z M71.198,160.901c0.152,0.059,0.323-0.016,0.382-0.169  c0.055-0.148-0.015-0.314-0.158-0.379c-0.153-0.057-0.325,0.015-0.391,0.164C70.975,160.669,71.05,160.838,71.198,160.901  L71.198,160.901z M76.934,148.775c0.162-0.005,0.291-0.141,0.289-0.303c-0.003-0.16-0.133-0.288-0.293-0.285  c-0.157-0.005-0.289,0.119-0.294,0.277c0,0.004-0.001,0.008,0,0.013c-0.003,0.163,0.126,0.296,0.288,0.298  C76.927,148.775,76.931,148.775,76.934,148.775L76.934,148.775z"></path>
<g>
	<path fill="#0D236A" d="M136.565,20.608c-0.673,0-1.489-0.161-2.501-0.573c-0.255-0.104-0.378-0.395-0.273-0.651   c0.103-0.255,0.393-0.379,0.648-0.275c2.591,1.056,3.453,0.232,4.287-0.565c0.12-0.114,0.234-0.224,0.351-0.324   c0.208-0.182,0.522-0.159,0.702,0.048c0.181,0.208,0.159,0.523-0.049,0.705c-0.104,0.091-0.208,0.191-0.316,0.294   C138.793,19.863,138.012,20.608,136.565,20.608z"></path>
</g>
<g>
	<path fill="#0D236A" d="M148.114,18.385c-0.579,0-1.279-0.164-2.139-0.584c-0.248-0.121-0.351-0.419-0.229-0.667   c0.122-0.249,0.422-0.35,0.665-0.23c2.065,1.008,2.722,0.254,3.42-0.547c0.101-0.115,0.196-0.225,0.293-0.325   c0.189-0.2,0.507-0.207,0.704-0.016c0.198,0.19,0.206,0.506,0.016,0.706c-0.087,0.091-0.172,0.19-0.262,0.293   C150.073,17.596,149.386,18.385,148.114,18.385z"></path>
</g>
<linearGradient id="SVGID_19_-i1" gradientUnits="userSpaceOnUse" x1="141.2588" y1="456.9474" x2="141.9361" y2="456.9474" gradientTransform="matrix(1 0 0 -1 0 478)">
	<stop offset="0" style="stop-color:#f1978f"></stop>
	<stop offset="1" style="stop-color:#f17a75"></stop>
</linearGradient>
<circle fill="url(#SVGID_19_-i1)" cx="141.597" cy="21.053" r="0.339"></circle>
<linearGradient id="SVGID_20_-i1" gradientUnits="userSpaceOnUse" x1="147.7512" y1="457.9657" x2="148.4285" y2="457.9657" gradientTransform="matrix(1 0 0 -1 0 478)">
	<stop offset="0" style="stop-color:#f1978f"></stop>
	<stop offset="1" style="stop-color:#f17a75"></stop>
</linearGradient>
<circle fill="url(#SVGID_20_-i1)" cx="148.09" cy="20.034" r="0.339"></circle>
<linearGradient id="SVGID_21_-i1" gradientUnits="userSpaceOnUse" x1="147.0749" y1="456.4232" x2="147.7522" y2="456.4232" gradientTransform="matrix(1 0 0 -1 0 478)">
	<stop offset="0" style="stop-color:#f1978f"></stop>
	<stop offset="1" style="stop-color:#f17a75"></stop>
</linearGradient>
<circle fill="url(#SVGID_21_-i1)" cx="147.414" cy="21.577" r="0.339"></circle>
<linearGradient id="SVGID_22_-i1" gradientUnits="userSpaceOnUse" x1="139.0734" y1="454.4495" x2="139.7508" y2="454.4495" gradientTransform="matrix(1 0 0 -1 0 478)">
	<stop offset="0" style="stop-color:#f1978f"></stop>
	<stop offset="1" style="stop-color:#f17a75"></stop>
</linearGradient>
<circle fill="url(#SVGID_22_-i1)" cx="139.412" cy="23.55" r="0.339"></circle>
<linearGradient id="SVGID_23_-i1" gradientUnits="userSpaceOnUse" x1="132.7962" y1="455.7454" x2="133.4735" y2="455.7454" gradientTransform="matrix(1 0 0 -1 0 478)">
	<stop offset="0" style="stop-color:#f1978f"></stop>
	<stop offset="1" style="stop-color:#f17a75"></stop>
</linearGradient>
<circle fill="url(#SVGID_23_-i1)" cx="133.135" cy="22.255" r="0.339"></circle>
<linearGradient id="SVGID_24_-i1" gradientUnits="userSpaceOnUse" x1="134.8272" y1="455.1903" x2="135.5045" y2="455.1903" gradientTransform="matrix(1 0 0 -1 0 478)">
	<stop offset="0" style="stop-color:#f1978f"></stop>
	<stop offset="1" style="stop-color:#f17a75"></stop>
</linearGradient>
<circle fill="url(#SVGID_24_-i1)" cx="135.166" cy="22.81" r="0.339"></circle>
<linearGradient id="SVGID_25_-i1" gradientUnits="userSpaceOnUse" x1="145.4433" y1="458.0895" x2="146.1206" y2="458.0895" gradientTransform="matrix(1 0 0 -1 0 478)">
	<stop offset="0" style="stop-color:#f1978f"></stop>
	<stop offset="1" style="stop-color:#f17a75"></stop>
</linearGradient>
<circle fill="url(#SVGID_25_-i1)" cx="145.782" cy="19.911" r="0.339"></circle>
<g>
	
		<linearGradient id="SVGID_26_-i1" gradientUnits="userSpaceOnUse" x1="52.053" y1="265.3139" x2="68.4536" y2="255.4284" gradientTransform="matrix(1 0 0 -1 0 478)">
		<stop offset="0" style="stop-color:#008EFF"></stop>
		<stop offset="1" style="stop-color:#0073DC"></stop>
	</linearGradient>
	<path fill="url(#SVGID_26_-i1)" d="M57.178,229.475v-0.998c6.408,0,11.62-5.224,11.62-11.648s-5.212-11.648-11.62-11.648v-0.998   c6.957,0,12.616,5.674,12.616,12.646C69.795,223.801,64.135,229.475,57.178,229.475z"></path>
</g>
<g>
	
		<linearGradient id="SVGID_27_-i1" gradientUnits="userSpaceOnUse" x1="-1711.1273" y1="703.5901" x2="-1694.726" y2="693.704" gradientTransform="matrix(-1 0 0 1 -1604.1666 -453)">
		<stop offset="0" style="stop-color:#008EFF"></stop>
		<stop offset="1" style="stop-color:#0073DC"></stop>
	</linearGradient>
	<path fill="url(#SVGID_27_-i1)" d="M101.835,259.093c-6.957,0-12.617-5.673-12.617-12.646c0-6.973,5.661-12.646,12.617-12.646v0.998   c-6.409,0-11.621,5.224-11.621,11.648s5.212,11.648,11.621,11.648V259.093z"></path>
</g>
<g>
	
		<linearGradient id="SVGID_28_-i1" gradientUnits="userSpaceOnUse" x1="-1643.3943" y1="700.2618" x2="-1626.9933" y2="690.376" gradientTransform="matrix(-1 0 0 1 -1604.1666 -453)">
		<stop offset="0" style="stop-color:#008EFF"></stop>
		<stop offset="1" style="stop-color:#0073DC"></stop>
	</linearGradient>
	<path fill="url(#SVGID_28_-i1)" d="M34.102,255.765c-6.957,0-12.617-5.674-12.617-12.646s5.661-12.645,12.617-12.645v0.998   c-6.408,0-11.621,5.224-11.621,11.648s5.213,11.647,11.621,11.647V255.765z"></path>
</g>
<g>
	
		<linearGradient id="SVGID_29_-i1" gradientUnits="userSpaceOnUse" x1="-1711.1271" y1="648.3473" x2="-1694.7261" y2="638.4616" gradientTransform="matrix(-1 0 0 1 -1604.1666 -453)">
		<stop offset="0" style="stop-color:#008EFF"></stop>
		<stop offset="1" style="stop-color:#0073DC"></stop>
	</linearGradient>
	<path fill="url(#SVGID_29_-i1)" d="M101.835,203.85c-6.957,0-12.617-5.674-12.617-12.646c0-6.973,5.661-12.645,12.617-12.645v0.998   c-6.409,0-11.621,5.224-11.621,11.648c0,6.423,5.212,11.648,11.621,11.648V203.85z"></path>
</g>
<g>
	
		<linearGradient id="SVGID_30_-i1" gradientUnits="userSpaceOnUse" x1="-1697.9991" y1="596.3093" x2="-1688.5459" y2="590.6113" gradientTransform="matrix(-1 0 0 1 -1604.1666 -453)">
		<stop offset="0" style="stop-color:#008EFF"></stop>
		<stop offset="1" style="stop-color:#0073DC"></stop>
	</linearGradient>
	<path fill="url(#SVGID_30_-i1)" d="M90.879,148.21c-4.009,0-7.272-3.27-7.272-7.289c0-4.018,3.262-7.288,7.272-7.288v0.998   c-3.461,0-6.276,2.821-6.276,6.29s2.815,6.291,6.276,6.291V148.21z"></path>
</g>

            </g>
        </g>
    </g>
    
</svg>