<?xml version="1.0" encoding="iso-8859-1" ?>
<svg version="1.1" xmlns="http://www.w3.org/2000/svg" xmlns:xlink="http://www.w3.org/1999/xlink" 
    viewBox="0 0 500 500" width="500" height="500">
    
    
    <!-- ITEM 0 -->
    <g>
        <defs>
            <clipPath id="clip-path-id-viewbox-item-0">
                <rect x="0.0" y="0.0" width="278.791" height="218.287"/>
            </clipPath>
        </defs>
        <g transform="translate(89.0 101.0) rotate(0.0 81.5 63.5) scale(0.5846673673109964 0.5818028558732311)">
            <g clip-path="url(#clip-path-id-viewbox-item-0)" transform="translate(-0.0 -0.0)">
                
<g id="Night-i0">
	<path style="fill:#46647c;" d="M278.783,112.646c0.4-22.8-14.7-40.9-41.1-41.2s-12.3-16-12.3-43.8c0-30.2-47.5-36.3-75.1-9.3   c-24.4,23.8-45.6,20-62.5,3.5s-71.9,10.8-86.1,95.5c-14.2,84.7,66.1,95.8,66.1,95.8s127.6,17.9,170-13.1   S278.383,135.446,278.783,112.646z"></path>
	<g>
		<path style="fill:#FF9B19;" d="M212.483,92.546c0,0-12.3,15-22.6,13c-5.5-1-6.8-4-6.8-6.6c-1.8,4.5-4.4,7.6-7.7,9.1    c-1.6,0.8-3.3,1.1-4.8,1.1c-4.1,0.2-7.5-1.6-7.7-1.7c-0.4-0.2-0.6-0.8-0.4-1.2s0.8-0.6,1.2-0.4c0.1,0,5.6,2.9,10.8,0.5    c3.5-1.6,6-5.2,7.7-10.6c-3.4,1.8-10.9,5.2-12.2,0.7c-1.8-5.8,3.6-6.8,2.1-15.7c0,0-13.9,5.4-18.5-2.7    c-5.1-8.9-2.4-30.5,24.8-34.4c0,0-28.1-9-43.4,11.1c-15.2,20.2-6.6,46.6,4.8,57.9c11.4,11.3,32,20.9,54.3,11.8    C215.683,115.746,212.483,92.546,212.483,92.546z M139.183,79.346L139.183,79.346c-0.6,0-1-0.5-1-1c0.3-5.4,4.2-7.2,5.5-7.4    s1.6,0.2,1.8,0.7c0.2,0.5-0.1,1-0.6,1.2c-0.2,0.1-4.6,1.5-4.9,5.6C140.083,79.046,139.683,79.346,139.183,79.346z M152.683,94.246    c-0.8,0.5-2.7,0.8-4.4,0.2c-3.6-1.3-6.1-5.9-6.2-6.1c-0.2-0.5,0-1,0.4-1.2c0.5-0.2,1,0,1.2,0.4c0,0,2.2,4.3,5.1,5.2    c0.9,0.3,1.8,0.1,2.7-0.4c3.1-1.9,0.9-8.2,0.9-8.3c-0.2-0.5,0.1-1,0.5-1.2c0.5-0.2,1,0.1,1.2,0.5    C154.183,83.646,157.083,91.546,152.683,94.246z"></path>
	</g>
	<g>
		<path style="fill:#FF9B19;" d="M89.283,82.346c-1,0-1.8-0.7-1.7-1.5l0.4-22.9c0-0.8,0.8-1.5,1.8-1.5s1.8,0.7,1.7,1.5l-0.4,22.9    C91.083,81.646,90.283,82.346,89.283,82.346z"></path>
		<path style="fill:#FF9B19;" d="M87.883,71.046c-2.2,0-4-0.1-4.5-0.2c-0.8-0.2-1.3-1-1.1-1.8s1-1.3,1.8-1.1    c0.8,0.1,7.2,0.2,12.9,0.2c0.8,0,1.5,0.7,1.5,1.5s-0.7,1.5-1.5,1.5C94.783,71.146,90.983,71.146,87.883,71.046z"></path>
	</g>
	<g>
		<path style="fill:#FF9B19;" d="M144.695,211.492c-1,0-1.8-0.7-1.7-1.5l0.4-22.9c0-0.8,0.8-1.5,1.8-1.5s1.8,0.7,1.7,1.5l-0.4,22.9    C146.495,210.792,145.695,211.492,144.695,211.492z"></path>
		<path style="fill:#FF9B19;" d="M143.295,200.192c-2.2,0-4-0.1-4.5-0.2c-0.8-0.2-1.3-1-1.1-1.8s1-1.3,1.8-1.1    c0.8,0.1,7.2,0.2,12.9,0.2c0.8,0,1.5,0.7,1.5,1.5s-0.7,1.5-1.5,1.5C150.195,200.292,146.395,200.292,143.295,200.192z"></path>
	</g>
	<g>
		<path style="fill:#FF9B19;" d="M37.983,101.946L37.983,101.946c-0.8,0-1.5-0.4-1.5-0.9l0.7-22.3c0-0.5,0.7-0.8,1.5-0.8    s1.5,0.4,1.5,0.9l-0.7,22.3C39.483,101.546,38.883,101.946,37.983,101.946z"></path>
		<path style="fill:#FF9B19;" d="M46.883,91.246l-16-0.3c-0.8,0-1.4-0.7-1.4-1.4c0-0.8,0.7-1.4,1.4-1.4l16,0.3    c0.8,0,1.4,0.7,1.4,1.4C48.283,90.646,47.683,91.246,46.883,91.246z"></path>
	</g>
	<g>
		<path style="fill:#FF9B19;" d="M90.592,198.542L90.592,198.542c-0.8,0-1.5-0.4-1.5-0.9l0.7-22.3c0-0.5,0.7-0.8,1.5-0.8    s1.5,0.4,1.5,0.9l-0.7,22.3C92.092,198.143,91.492,198.542,90.592,198.542z"></path>
		<path style="fill:#FF9B19;" d="M99.492,187.842l-16-0.3c-0.8,0-1.4-0.7-1.4-1.4c0-0.8,0.7-1.4,1.4-1.4l16,0.3    c0.8,0,1.4,0.7,1.4,1.4C100.892,187.243,100.292,187.842,99.492,187.842z"></path>
	</g>
	<path style="fill:#FF9B19;" d="M197.383,37.046c-0.7,0-1.2-0.6-1.2-1.2l0.3-19c0-0.7,0.6-1.2,1.2-1.2c0.7,0,1.2,0.6,1.2,1.2   l-0.3,19C198.583,36.546,197.983,37.046,197.383,37.046z"></path>
	<path style="fill:#FF9B19;" d="M195.283,27.146c-2.3,0-3.7-0.1-4-0.2c-0.6-0.2-1-0.9-0.7-1.5c0.2-0.6,0.9-0.9,1.5-0.8   c0.8,0.1,6.1,0.2,10.8,0.1l0,0c0.7,0,1.2,0.5,1.2,1.2s-0.5,1.2-1.2,1.2C199.683,27.146,197.183,27.146,195.283,27.146z    M191.983,24.546C191.983,24.546,192.083,24.546,191.983,24.546C192.083,24.546,192.083,24.546,191.983,24.546z"></path>
	<path style="fill:#FF9B19;" d="M254.383,121.146L254.383,121.146c-0.6,0-1.1-0.4-1-0.9c0.2-9.4,0.6-23.8,0.4-24.9   c-0.1-0.4,0.2-0.9,0.7-1c0.6-0.1,1.1,0.1,1.3,0.6c0.1,0.2,0.3,0.7-0.4,25.3C255.483,120.746,254.983,121.146,254.383,121.146z"></path>
	<path style="fill:#FF9B19;" d="M247.583,108.446c-0.7,0-1.3-0.5-1.4-1.2c-0.1-0.8,0.4-1.5,1.2-1.6c0.4-0.1,10.5-1.7,14.7-0.8   c0.8,0.2,1.2,0.9,1.1,1.7c-0.2,0.8-0.9,1.2-1.7,1.1c-3-0.7-10.9,0.3-13.6,0.8C247.683,108.446,247.683,108.446,247.583,108.446z"></path>
	<circle style="fill:#FF9B19;" cx="202.083" cy="75.246" r="3.2"></circle>
	<path style="fill:#FF9B19;" d="M225.483,138.446c-2.8,0-5-2.3-4.9-5.1c0-2.8,2.3-5,5.1-4.9c2.8,0,5,2.3,4.9,5.1   C230.483,136.246,228.183,138.446,225.483,138.446z M225.583,131.546c-1,0-1.9,0.8-1.9,1.8s0.8,1.9,1.8,1.9s1.9-0.8,1.9-1.8   C227.383,132.446,226.583,131.546,225.583,131.546z"></path>
	<path style="fill:#FF9B19;" d="M188.487,203c-2.8,0-5-2.3-4.9-5.1c0-2.8,2.3-5,5.1-4.9c2.8,0,5,2.3,4.9,5.1   C193.487,200.8,191.187,203,188.487,203z M188.587,196.1c-1,0-1.9,0.8-1.9,1.8s0.8,1.9,1.8,1.9s1.9-0.8,1.9-1.8   C190.387,197,189.587,196.1,188.587,196.1z"></path>
	<circle style="fill:#FF9B19;" cx="241.783" cy="139.846" r="3"></circle>
	<circle style="fill:#FF9B19;" cx="138.183" cy="135.246" r="2.5"></circle>
	<circle style="fill:#FF9B19;" cx="124.312" cy="186.598" r="2.5"></circle>
	<circle style="fill:#FF9B19;" cx="212.651" cy="155.296" r="2.5"></circle>
	<path style="fill:#FF9B19;" d="M92.692,125.446c-3-0.1-5.3-2.5-5.3-5.5c0.1-3,2.5-5.3,5.5-5.3c3,0.1,5.3,2.5,5.3,5.5   C98.092,123.146,95.592,125.446,92.692,125.446z M92.792,117.146c-1.6,0-3,1.3-3,2.9c0,1.6,1.3,3,2.9,3c1.6,0,3-1.3,3-2.9   C95.692,118.446,94.392,117.146,92.792,117.146z"></path>
	<path style="fill:#FF9B19;" d="M48.183,151.846c-4-0.1-7.2-3.4-7.2-7.4c0.1-4,3.4-7.2,7.4-7.2c4,0.1,7.2,3.4,7.2,7.4   C55.583,148.746,52.183,151.946,48.183,151.846z M48.383,140.346c-2.3,0-4.3,1.8-4.3,4.2c0,2.3,1.8,4.3,4.2,4.3   c2.3,0,4.3-1.8,4.3-4.2C52.583,142.346,50.683,140.346,48.383,140.346z"></path>
	<path style="fill:#FF9B19;" d="M223.583,186.596c-4-0.1-7.2-3.4-7.2-7.4c0.1-4,3.4-7.2,7.4-7.2c4,0.1,7.2,3.4,7.2,7.4   C230.983,183.496,227.583,186.696,223.583,186.596z M223.783,175.096c-2.3,0-4.3,1.8-4.3,4.2c0,2.3,1.8,4.3,4.2,4.3   c2.3,0,4.3-1.8,4.3-4.2C227.983,177.096,226.083,175.096,223.783,175.096z"></path>
	<circle style="fill:#FF9B19;" cx="63.683" cy="45.846" r="3.6"></circle>
	<circle style="fill:#FF9B19;" cx="102.583" cy="81.546" r="2.8"></circle>
	<circle style="fill:#FF9B19;" cx="55.583" cy="172.246" r="2.8"></circle>
	<circle style="fill:#FF9B19;" cx="183.583" cy="21.046" r="2"></circle>
	<circle style="fill:#FF9B19;" cx="50.083" cy="107.246" r="3.2"></circle>
	<g>
		<path style="fill:#FF9B19;" d="M181.383,165.446c-1,0-1.7-0.5-1.7-1.2l0.4-23.2c0-0.6,0.8-1.1,1.8-1.1s1.7,0.5,1.7,1.2l-0.4,23.2    C183.183,164.946,182.383,165.446,181.383,165.446z"></path>
		<path style="fill:#FF9B19;" d="M189.083,152.646l-16.7-0.3c-0.6,0-1.1-0.8-1.1-1.8s0.5-1.8,1.2-1.8l16.7,0.3    c0.6,0,1.1,0.8,1.1,1.8S189.683,152.646,189.083,152.646z"></path>
	</g>
	<circle style="fill:#FF9B19;" cx="152.366" cy="162.646" r="4.6"></circle>
	<circle style="fill:#FF9B19;" cx="106.383" cy="153.446" r="4.6"></circle>
</g>

            </g>
        </g>
    </g>
    
    <!-- ITEM 1 -->
    <g>
        <defs>
            <clipPath id="clip-path-id-viewbox-item-1">
                <rect x="0.0" y="0.0" width="448.932" height="275.8"/>
            </clipPath>
        </defs>
        <g transform="translate(159.0 193.0) rotate(0.0 127.5 78.5) scale(0.5680147550185775 0.5692530819434373)">
            <g clip-path="url(#clip-path-id-viewbox-item-1)" transform="translate(-0.0 -0.0)">
                
<g id="Sleeping_Queen-i1">
	<g>
		<path style="fill:#FF564F;" d="M204.261,78.3c0,0-9.2-12-1.6-20.8c7.7-8.8,23.3-15.8,23.3-15.8s45.6,8.3,50.4,35    s7.7,73.7-1.5,88.3l-1.7,2.1c0,0-13.9-9.7-25-11.6c0,0,19.6-6.4,22.7-27.9c2.7-18.6-10.5-34.1-32.6-42.2    C223.061,79.8,204.261,78.3,204.261,78.3z"></path>
		<path style="fill:#FF564F;" d="M244.561,156.9c0,0,13.4,1.8,26.4,11.7l-22.1,40.3c0,0-14,8.2-53.2-0.9s-62.6-24.1-62.6-24.1    l18.9-4.7c0,0,42.2,13,50.9,12l-1-2.2c0,0-12.7-0.3-45.4-10.6l24.7-5.3c0,0,12.5,3.1,19.6,2.8l0.7-1.7c0,0-9.2,0.1-15.8-1.8    C185.561,172.4,224.161,166.5,244.561,156.9z"></path>
		<path style="fill:#FF564F;" d="M266.561,117.5c-1.4-16.6-21.6-29.2-46.1-34s-39.4-4.5-39.4-4.5c8.1-8.3-4.8-16.5-7.2-18.8    c-2.4-2.3-33.2-17.8-43.6-6.9c-13.7,14.4,10.8,28.8,10.8,28.8l-79.7,1.3l-3.1,55l30.4,53.2c0,0,48-12.8,81.6-19.8    c13.1-2.7,24.1-4.7,34.3-6.7c2.9-1.7,5.6-1.4,5.8-1.4c0.1,0,0.2,0,0.3,0.1c9.4-2.1,18.2-4.4,27.5-7.9    C259.361,148.1,267.961,134.1,266.561,117.5z M136.461,63.6c-0.3-2.1,0.2-3.7,1.4-4.8c2.1-1.9,5.6-1.1,6-1c0.7,0.2,1.2,0.9,1,1.6    s-0.9,1.2-1.6,1c-0.6-0.2-2.7-0.4-3.6,0.4c-0.5,0.4-0.7,1.3-0.5,2.4c0.5,3.7,5.5,9.3,12.5,12.2c-1.5-1.3-2.9-3-3.3-4.8    c-0.3-1.5,0.1-3,1.2-4.3c4.8-5.6,13.2-0.3,13.5,0c0.6,0.4,0.8,1.2,0.4,1.9c-0.4,0.6-1.2,0.8-1.9,0.4c-0.1,0-6.7-4.3-10-0.5    c-0.6,0.7-0.8,1.3-0.6,2c0.5,2.4,3.9,6.8,12.2,7.2c0.7,0,1.4,0.5,1.5,1.2s-0.5,1.4-1.2,1.5c-1.1,0.1-2.1,0.2-3.2,0.1    C147.361,79.9,137.261,69.8,136.461,63.6z M111.461,132.8c-0.7,0-1.3-0.7-1.3-1.4c0-0.7,0.7-1.3,1.4-1.3c13.1,0.8,27-3.3,31.7-5.4    c2.9-1.3,7.1-5.5,7.5-10c0.3-3.1-1.2-5.9-4.5-8.3c-10.2-7.5-37.1-0.5-37.4-0.4c-0.7,0.2-1.5-0.2-1.6-1c-0.2-0.7,0.2-1.5,1-1.6    c1.2-0.3,28.5-7.4,39.7,0.9c5.1,3.8,6.8,7.9,6.5,10.7c-0.6,5.7-4.1,9.5-10.1,12.2c-5.4,2.4-18,6-30.3,5.8    C113.261,132.9,112.361,132.9,111.461,132.8z M162.161,160.2c-2.7,8.3-9.2,10-15.1,11.3c-5.4,1.2-18.1,2.9-27.7,3.4h-0.1    c-0.7,0-1.3-0.6-1.3-1.3c0-0.7,0.5-1.4,1.3-1.4c9.4-0.5,21.9-2.1,27.2-3.3c5.6-1.2,12.1-3.1,13.1-10.4c0.2-1.5,0.1-2.7-0.7-3.9    c-2.2-3-8.2-5.2-16.4-5.9c-11.4-1-26,2.8-26.1,2.9c-0.7,0.2-1.5-0.2-1.6-0.9c-0.2-0.7,0.2-1.5,1-1.6c0.6-0.2,15.2-4,27.1-3    c9.2,0.8,15.7,3.3,18.4,7C162.261,154.9,162.861,158,162.161,160.2z M180.361,159.3c-0.3,0-0.5,0-0.8,0c-1.4,0-2.7-0.5-3.7-1.5    c-3.3-3.1-3.4-10-3.4-12.3c-3.6-3-16.1-3.6-20.8-3.6c-0.7,0-1.3-0.6-1.4-1.3c0-0.7,0.6-1.3,1.3-1.4c1.9,0,18.7,0,23.1,4.8    c0.2,0.3,0.4,0.6,0.4,1c-0.1,2.2,0.1,8.6,2.5,10.8c0.6,0.6,1.4,0.8,2.3,0.8c4.8-0.5,6.6-12.7,6.9-16.9c0-0.7,0.7-1.3,1.4-1.3    c0.7,0,1.3,0.7,1.3,1.4C189.561,141.7,188.261,158.5,180.361,159.3z M202.261,151.5c-0.2,0.1-0.5,0.2-0.7,0.2    c-0.5,0-0.9-0.3-1.1-0.7c-0.4-0.6-0.1-1.5,0.5-1.8c0.1-0.1,10.9-6.3,10.9-17.8c0-14.4-9.6-23-27.8-24.7c-0.7-0.1-1.3-0.7-1.2-1.5    c0.1-0.7,0.7-1.3,1.5-1.2c25,2.3,30.2,16.1,30.2,27.3C214.461,144.4,202.761,151.2,202.261,151.5z"></path>
		<path style="fill:#324A58;" d="M23.161,157.4c0,0-41-37.7-13.9-79.7s114-77.7,114-77.7s-1.3,13.6,9.2,14.7    c10.5,1.1,19.2,3.2,18.3,19.7s3.1,17.4,3.1,17.4s-15.2-5.8-23.2,2s-2,17.5,0.8,20.3c2.8,2.9,13.2,10,13.2,10s-49.4,1.1-65.4,7.3    c0,0,5.1,9.4-6.6,23.5c-11.7,14.2,8.7,28,11.9,30.3s12.2,12.9,4.5,26s7,18.3,7,18.3l33.6-8.4c0,0,27.2,13.8,34.3,16    c0,0-0.3,9-16.3,16.2c-15.2,6.9-12.6,29.2-12.6,29.2s-13.7-23-39.4-20.8c-17.2,1.5-38.8,11.8-62.3-6.9    C9.861,196.3,9.161,182.3,23.161,157.4z"></path>
		<path style="fill:#324A58;" d="M83.761,128c3.4,0.6,5.3-7.4,6.7-11.7c1.7-5.4,2.1-17.3-5.2-4.3    C77.361,126.1,83.761,128,83.761,128z"></path>
		<path style="fill:#324A58;" d="M96.461,166.3c4.3-2.5,7.9,3.9,9.6,6.6c1.7,2.7,6.8,17.5-4.9,4.2    C95.361,170.6,93.961,167.8,96.461,166.3z"></path>
	</g>
	<g>
		<path style="fill:#FFE7E6;" d="M215.561,44.4c0,0,47.2-42.4,113.8-38.8c66.7,3.6,86.9,25.7,116.2,48.2c0,0-46.9,79.8-11.2,109.3    s0.8,100.4-50.7,77.3c-31.9-14.3-60.8-16.7-108-0.6c-29.7,10.1-51.7,36-51.7,36s-6.2-35.9,37.2-96    C306.561,117,237.261,42.2,215.561,44.4z"></path>
		<path style="fill:#2568EF;" d="M422.861,112.1c5.8-29.4,22.7-58.3,22.7-58.3c-13.6-10.4-25.3-20.8-40.5-29.3    c-16.5,8.3-44.3,24.9-57.8,47.2C347.261,71.8,393.961,77.4,422.861,112.1z"></path>
		<g>
			<path style="fill:#FF564F;" d="M420.961,129.2c-36.1-38.3-98.5-43.1-99.1-43.1c-0.7,0-1.3-0.4-1.7-1c-0.4-0.6-0.4-1.3,0-1.9     c19.6-37.4,46.7-57.3,65.7-67.3l5.1,1.9c-19,10.1-46.9,29.8-65.8,64.4c13.1,1,63.9,7,96.2,41.3L420.961,129.2z"></path>
		</g>
	</g>
</g>

            </g>
        </g>
    </g>
    
</svg>