<?xml version="1.0" encoding="iso-8859-1" ?>
<svg version="1.1" xmlns="http://www.w3.org/2000/svg" xmlns:xlink="http://www.w3.org/1999/xlink" 
    viewBox="0 0 800 800" width="800" height="800">
    
    
    <!-- ITEM 0 -->
    <g>
        <defs>
            <clipPath id="clip-path-id-viewbox-item-0">
                <rect x="0.0" y="0.0" width="365.03" height="586.163"/>
            </clipPath>
        </defs>
        <g transform="translate(466.0 190.0) rotate(0.0 133.0 213.5) scale(0.7287072295427773 0.7284663139775114)">
            <g clip-path="url(#clip-path-id-viewbox-item-0)" transform="translate(-0.0 -0.0)">
                
<g>
	
		<linearGradient id="SVGID_7_-i0" gradientUnits="userSpaceOnUse" x1="11201.2266" y1="10110.7432" x2="11201.2266" y2="10448.9756" gradientTransform="matrix(-1 0 0 -1 11467.3398 10453.377)">
		<stop offset="0" style="stop-color:#F9D5FF"></stop>
		<stop offset="0.17" style="stop-color:#F9D5FC"></stop>
		<stop offset="0.32" style="stop-color:#F9D5F1"></stop>
		<stop offset="0.45" style="stop-color:#FAD6E0"></stop>
		<stop offset="0.58" style="stop-color:#FBD7C7"></stop>
		<stop offset="0.71" style="stop-color:#FCD8A7"></stop>
		<stop offset="0.83" style="stop-color:#FDD97F"></stop>
		<stop offset="0.95" style="stop-color:#FEDA52"></stop>
		<stop offset="1" style="stop-color:#FFDB40"></stop>
	</linearGradient>
	<path fill="url(#SVGID_7_-i0)" d="M192.024,251.228c-9.881-30.549,3.529-34.179-17.039-65.334   c-20.669-31.255,6.453-87.212,5.444-118.669c-0.403-10.486-6.755-27.424-8.772-42.85C169.339,5.118,192.932-5.973,206.24,8.042   c4.436,4.84,8.268,10.183,11.191,15.93c1.21,2.218,2.823,4.335,4.84,5.949c6.251,5.243,12.704,10.385,21.475,17.846   c30.449,25.508,16.233,63.72,28.331,85.902s64.729,23.089,85.397,72.391C402.241,312.629,235.277,385.423,192.024,251.228z"></path>
	<path fill="#EA7068" d="M49.662,69.241L29.598,58.857c-9.881-5.142-22.181-1.21-27.323,8.671   c-4.537,8.772-2.117,19.56,5.747,25.508l11.998,9.074L49.662,69.241z"></path>
	
		<linearGradient id="SVGID_18_-i0" gradientUnits="userSpaceOnUse" x1="-74.2895" y1="10346.4824" x2="-221.1765" y2="10331.8916" gradientTransform="matrix(1 0 0 -1 242.4 10453.377)">
		<stop offset="0" style="stop-color:#B8A7D3"></stop>
		<stop offset="0.4" style="stop-color:#ED4861"></stop>
		<stop offset="0.5" style="stop-color:#F4837D"></stop>
		<stop offset="0.59" style="stop-color:#FECEAA"></stop>
		<stop offset="1" style="stop-color:#B7D5EA"></stop>
	</linearGradient>
	<path fill="url(#SVGID_18_-i0)" d="M20.02,102.211l63.015,59.587c3.428,1.21,6.957,1.714,10.687,1.815l84.389-13.712   c15.224-2.722,25.508-17.241,22.786-32.566c-2.621-14.922-16.737-25.004-31.759-22.786l-76.122,12.805l-43.455-38.01L20.02,102.211   z"></path>
	
		<linearGradient id="SVGID_34_-i0" gradientUnits="userSpaceOnUse" x1="-53.1857" y1="10356.7529" x2="-53.1857" y2="10164.0947" gradientTransform="matrix(1 0 0 -1 242.4 10453.377)">
		<stop offset="0" style="stop-color:#B8A7D3"></stop>
		<stop offset="0.4" style="stop-color:#ED4861"></stop>
		<stop offset="0.5" style="stop-color:#F4837D"></stop>
		<stop offset="0.59" style="stop-color:#FECEAA"></stop>
		<stop offset="1" style="stop-color:#B7D5EA"></stop>
	</linearGradient>
	<path fill="url(#SVGID_34_-i0)" d="M241.831,191.641L136.37,181.458c3.226-28.231,22.484-24.803,17.14-44.564   c-4.335-16.233,2.621-36.397,17.241-41.842c3.428-1.21,7.058-1.714,10.687-1.21c16.737,1.916,17.947,1.311,25.004,2.117   c2.218,0.202,4.436,0.706,6.554,1.412c18.148,6.049,27.626,27.626,19.761,46.076c-1.512,3.529-2.521,7.259-2.823,10.99   C229.329,161.091,244.049,172.182,241.831,191.641z"></path>
	<path fill="#FFFFFF" d="M214.407,104.227c0,10.788-10.385,19.459-23.189,19.459c-12.805,0-23.189-8.772-23.189-19.459   c0-3.226,0.907-6.453,2.722-9.074c3.428-1.21,7.058-1.714,10.687-1.21c16.737,1.916,17.947,1.311,25.004,2.117   c2.218,0.202,4.436,0.706,6.554,1.412C213.903,99.589,214.407,101.908,214.407,104.227z"></path>
	<path fill="#FFFFFF" d="M214.407,104.227c0,10.788-10.385,19.459-23.189,19.459c-12.805,0-23.189-8.772-23.189-19.459   c0-3.226,0.907-6.453,2.722-9.074c3.428-1.21,7.058-1.714,10.687-1.21c16.737,1.916,17.947,1.311,25.004,2.117   c2.218,0.202,4.436,0.706,6.554,1.412C213.903,99.589,214.407,101.908,214.407,104.227z"></path>
	<polygon fill="#FFFFFF" points="135.362,179.643 221.061,190.935 222.675,178.635 136.975,167.342  "></polygon>
	
		<linearGradient id="SVGID_35_-i0" gradientUnits="userSpaceOnUse" x1="11736.6553" y1="9953.5146" x2="11736.6553" y2="10347.6963" gradientTransform="matrix(-1.03 -0.01 0.13 -0.97 10901.7207 10336.7598)">
		<stop offset="0" style="stop-color:#EA979A"></stop>
		<stop offset="0.41" style="stop-color:#F2D38B"></stop>
		<stop offset="0.5" style="stop-color:#7E9DAE"></stop>
		<stop offset="0.6" style="stop-color:#90979D"></stop>
		<stop offset="1" style="stop-color:#7EBDDB"></stop>
	</linearGradient>
	<path fill="url(#SVGID_35_-i0)" d="M138.185,186.801c-17.846,41.338-31.054,83.784-47.387,125.525   c-19.459,49.504-43.455,240.867-43.152,254.982l53.84-0.403l56.159-200.437l-0.907,3.025l57.873-157.789   C215.012,210.293,145.343,189.423,138.185,186.801L138.185,186.801z"></path>
	
		<linearGradient id="SVGID_36_-i0" gradientUnits="userSpaceOnUse" x1="11218.8682" y1="9890.7549" x2="11218.8682" y2="10260.6572" gradientTransform="matrix(-1 0 0 -1 11467.3398 10453.377)">
		<stop offset="0" style="stop-color:#EA979A"></stop>
		<stop offset="0.41" style="stop-color:#F2D38B"></stop>
		<stop offset="0.5" style="stop-color:#7E9DAE"></stop>
		<stop offset="0.6" style="stop-color:#90979D"></stop>
		<stop offset="1" style="stop-color:#7EBDDB"></stop>
	</linearGradient>
	<path fill="url(#SVGID_36_-i0)" d="M169.44,209.688l-0.101,2.521l-0.101,2.521l-0.101,5.041l-0.101,10.082   c-0.101,3.327,0.101,6.755,0.101,10.082l0.202,10.082c0.403,13.41,1.21,26.819,2.218,40.128   c0.907,13.309,2.319,26.718,3.831,40.027c1.412,13.309,3.327,26.517,5.142,39.926l0.807,5.444c0.403,2.42,1.109,4.739,2.117,6.957   c4.134,8.368,15.023,30.549,20.87,41.842l5.444,10.486l5.545,10.486c3.63,6.957,7.562,13.914,11.191,20.971   c7.663,13.813,16.938,32.868,25.105,46.48c8.167,13.611,16.535,27.323,25.508,40.632l50.815-19.963l-70.476-180.676l2.722,11.998   l-22.988-160.309L169.44,209.688z"></path>
	
		<linearGradient id="SVGID_37_-i0" gradientUnits="userSpaceOnUse" x1="11278.25" y1="9896.001" x2="11278.25" y2="10260.4893" gradientTransform="matrix(-1 0 0 -1 11467.3398 10453.377)">
		<stop offset="0" style="stop-color:#EA979A"></stop>
		<stop offset="0.41" style="stop-color:#F2D38B"></stop>
		<stop offset="0.5" style="stop-color:#7E9DAE"></stop>
		<stop offset="0.6" style="stop-color:#90979D"></stop>
		<stop offset="1" style="stop-color:#7EBDDB"></stop>
	</linearGradient>
	<path fill="url(#SVGID_37_-i0)" d="M241.831,191.641c-1.714,14.922-19.761,35.49-45.774,32.768l-20.971-2.823   c-23.693-2.521-40.329-25.71-38.615-41.842L241.831,191.641z"></path>
	<path fill="#2B2B2B" d="M216.524,311.923l20.467-25.307c6.755-4.638,10.284-12.603,9.377-20.669l-4.335-63.72l-31.255-29.642   l15.728,52.126l-43.253,62.309c-4.235,6.15-4.84,14.014-1.714,20.77l0,0c4.84,10.385,17.342,14.922,27.726,9.982   C212.088,316.359,214.609,314.444,216.524,311.923z"></path>
	<path fill="#EA7068" d="M174.179,77.307l19.661,1.21c10.183,0.605,18.854-7.158,19.459-17.241l1.714-29.642   c0.907-16.233-11.494-30.247-27.726-31.255l0,0c-16.233-0.907-30.247,11.494-31.154,27.726l0,0l-1.613,27.121   C153.913,66.721,162.685,76.702,174.179,77.307z"></path>
	<path fill="none" d="M215.012,31.533l-1.714,29.642c-0.605,10.183-9.377,17.846-19.459,17.241l-19.661-1.21   c-11.494-0.706-20.266-10.586-19.661-22.08l0.907-15.426l0.403-6.453l0.302-5.243l0,0c0.907-15.728,13.914-27.726,29.44-27.726   c0.605,0,1.21,0,1.714,0.101C203.619,1.387,216.02,15.301,215.012,31.533z"></path>
	<g>
		<path fill="#2B2B2B" d="M158.349,36.575c0,1.714-1.21,3.025-2.823,3.327l0.403-6.453C157.24,33.651,158.349,34.961,158.349,36.575    z"></path>
	</g>
	<path fill="#2B2B2B" d="M180.43,110.781l-23.29-13.813c0,0,15.93-3.932,31.86-3.226L180.43,110.781z"></path>
	<path fill="#EA7068" d="M187.588,111.789l25.71-7.763l0.706-56.159l-31.255-1.916l-6.352,56.461   c-0.504,4.84,2.924,9.074,7.763,9.679C185.37,112.293,186.479,112.091,187.588,111.789z"></path>
	
		<circle fill="none" stroke="#F9F179" stroke-width="2.61" stroke-linecap="round" stroke-miterlimit="10" cx="151.292" cy="36.474" r="8.973"></circle>
	<path fill="none" stroke="#2B2B2B" stroke-width="2.61" stroke-linecap="round" stroke-miterlimit="10" d="M164.298,36.474   l-4.436,4.739c-0.907,0.907-0.807,2.319,0.101,3.226l0.101,0.101l2.621,1.714"></path>
	<path fill="none" stroke="#2B2B2B" stroke-width="2.61" stroke-linecap="round" stroke-miterlimit="10" d="M161.172,54.521   c0,0,2.722,5.444,8.469,1.008"></path>
	<polygon fill="#2B2B2B" points="179.22,77.61 192.024,78.416 177.808,90.213  "></polygon>
	<circle fill="#2B2B2B" cx="174.078" cy="37.885" r="3.327"></circle>
	
		<ellipse transform="matrix(0.2298 -0.9732 0.9732 0.2298 97.91 199.4851)" fill="none" stroke="#F9F179" stroke-width="2.61" stroke-linecap="round" stroke-miterlimit="10" cx="174.985" cy="37.885" rx="8.973" ry="8.973"></ellipse>
	<path fill="#2B2B2B" d="M5.602,585.86l87.111,0.302c4.537,0,8.268-3.63,8.368-8.167l0.302-10.99l-53.84,0.403   c-0.807,0-1.714,0.101-2.42,0.302l-40.531,9.881C-0.347,578.702,0.561,585.76,5.602,585.86z"></path>
	<path fill="#2B2B2B" d="M246.469,585.054l22.685-0.101l55.453-38.414c4.134-2.016,5.848-6.957,3.831-11.091l-4.638-9.982   l-49.101,24.903l-13.208,20.77l-16.233,5.646C240.42,577.996,241.428,585.155,246.469,585.054z"></path>
	
		<linearGradient id="SVGID_38_-i0" gradientUnits="userSpaceOnUse" x1="11275.0566" y1="10129.9443" x2="11275.0566" y2="10452.5723" gradientTransform="matrix(-1 0 0 -1 11467.3398 10453.377)">
		<stop offset="0" style="stop-color:#F9D5FF"></stop>
		<stop offset="0.17" style="stop-color:#F9D5FC"></stop>
		<stop offset="0.32" style="stop-color:#F9D5F1"></stop>
		<stop offset="0.45" style="stop-color:#FAD6E0"></stop>
		<stop offset="0.58" style="stop-color:#FBD7C7"></stop>
		<stop offset="0.71" style="stop-color:#FCD8A7"></stop>
		<stop offset="0.83" style="stop-color:#FDD97F"></stop>
		<stop offset="0.95" style="stop-color:#FEDA52"></stop>
		<stop offset="1" style="stop-color:#FFDB40"></stop>
	</linearGradient>
	<path fill="url(#SVGID_38_-i0)" d="M218.138,99.791c-31.961-18.35-27.726-19.963-30.751-49.706   c-2.521-24.601-33.07-26.416-23.895-39.724c6.453-9.377,21.274-13.712,35.187-7.36c13.813,6.352,23.794,29.945,24.097,46.883   S218.138,99.791,218.138,99.791z"></path>
	<g>
		<path fill="#2B2B2B" d="M174.279,325.131c-0.504,0-0.907-0.403-1.109-0.907l-12.502-68.862c-0.101-0.605,0.302-1.21,0.907-1.21    c0.605-0.101,1.21,0.302,1.21,0.907l12.502,68.862c0.101,0.605-0.302,1.21-0.907,1.21    C174.38,325.131,174.38,325.131,174.279,325.131z"></path>
	</g>
	<g>
		<path fill="#2B2B2B" d="M142.016,201.118c-0.403,0-0.807-0.202-1.008-0.706l-4.638-10.687c-0.202-0.605,0-1.21,0.605-1.412    c0.605-0.202,1.21,0,1.412,0.605l4.638,10.687c0.202,0.605,0,1.21-0.605,1.412C142.318,201.118,142.117,201.118,142.016,201.118z"></path>
	</g>
	<g>
		<path fill="#2B2B2B" d="M141.31,168.452c-0.101,0-0.403-0.101-0.504-0.101c-0.504-0.302-0.706-0.907-0.403-1.412    c1.613-3.025,3.63-5.747,5.646-8.268c5.041-6.654,9.881-12.805,5.747-24.601c-0.202-0.605,0.101-1.21,0.706-1.412    c0.605-0.202,1.21,0.101,1.412,0.706c4.436,12.805-0.907,19.862-6.15,26.617c-1.916,2.521-3.932,5.142-5.444,8.066    C142.117,168.25,141.713,168.452,141.31,168.452z"></path>
	</g>
	<path fill="#2B2B2B" d="M213.399,96.968c5.848,3.126,11.393,6.856,16.535,11.091l-16.535-4.134V96.968z"></path>
	<g>
		<path fill="#2B2B2B" d="M257.358,376.854c-0.605,0-1.109-0.504-1.109-1.109v-23.189c0-0.605,0.504-1.109,1.109-1.109    s1.109,0.504,1.109,1.109v23.189C258.467,376.45,257.963,376.854,257.358,376.854z"></path>
	</g>
	<path fill="#EA7068" d="M209.366,267.763l-10.586,17.039c-5.949,9.477-3.025,22.08,6.554,27.928   c8.469,5.243,19.358,3.529,26.012-3.831l10.486-11.998"></path>
	
		<linearGradient id="SVGID_39_-i0" gradientUnits="userSpaceOnUse" x1="4.045" y1="10350.917" x2="4.045" y2="10159.2871" gradientTransform="matrix(1 0 0 -1 242.4 10453.377)">
		<stop offset="0" style="stop-color:#B8A7D3"></stop>
		<stop offset="0.4" style="stop-color:#ED4861"></stop>
		<stop offset="0.5" style="stop-color:#F4837D"></stop>
		<stop offset="0.59" style="stop-color:#FECEAA"></stop>
		<stop offset="1" style="stop-color:#B7D5EA"></stop>
	</linearGradient>
	<path fill="url(#SVGID_39_-i0)" d="M297.889,205.857l-1.21-1.815l-53.436-86.406c-6.251-10.082-17.846-15.325-28.835-13.309   c-0.302,4.739-2.621,17.543-21.778,19.459c-2.521,7.763-1.412,16.333,2.823,23.391l44.362,71.786l-30.449,48.899l32.364,29.138   l53.638-61.301C302.628,227.332,303.636,215.234,297.889,205.857z"></path>
	<g>
		<path fill="#2B2B2B" d="M217.633,186.902c-0.403,0-0.706-0.202-0.907-0.605l-19.156-33.675c-0.302-0.504-0.101-1.21,0.403-1.412    c0.504-0.302,1.21-0.101,1.412,0.403l19.156,33.675c0.302,0.504,0.101,1.21-0.403,1.412    C218.037,186.801,217.835,186.902,217.633,186.902z"></path>
	</g>
	<g>
		<path fill="#2B2B2B" d="M99.67,115.721c-0.302,0-0.605-0.101-0.807-0.403l-6.654-7.259c-0.403-0.403-0.403-1.21,0.101-1.512    c0.403-0.403,1.21-0.403,1.512,0.101l6.654,7.259c0.403,0.403,0.403,1.21-0.101,1.512    C100.275,115.62,99.973,115.721,99.67,115.721z"></path>
	</g>
	
		<line fill="none" stroke="#F9F179" stroke-width="2.61" stroke-linecap="round" stroke-miterlimit="10" x1="160.265" y1="35.264" x2="166.213" y2="35.264"></line>
</g>

            </g>
        </g>
    </g>
    
    <!-- ITEM 1 -->
    <g>
        <defs>
            <clipPath id="clip-path-id-viewbox-item-1">
                <rect x="0.0" y="0.0" width="304.34" height="506.415"/>
            </clipPath>
        </defs>
        <g transform="translate(77.0 168.0) rotate(0.0 135.5 226.0) scale(0.8904514687520537 0.8925486014434801)">
            <g clip-path="url(#clip-path-id-viewbox-item-1)" transform="translate(-0.0 -0.0)">
                <g><path d="M136.367 496.455c-.578-2.314-4.432-4.651-6.092-5.979-.429-.058-.73-.284-.902-.677-.476-1.054-.814-2.145-1.015-3.272.564-1.015.451-2.369-.338-3.272 1.464-1.464 2.379-13.528.902-15.004.21-.168 1.783-4.061.226-4.061 1.241-1.354 1.241-2.369.113-4.061 1.502-1.127 1.143-5.786.677-7.107-.113-.113-.113-.338 0-.451.677-1.015.564-2.482-.338-3.384 6.44-6.44-4.156-38.261-13.763-28.654-1.472 2.208-5.57 2.34-7.22 5.641-.972.972-1.478 2.473-1.579 3.836h-1.467c0 3.496-.387 7.347 0 10.83-.113.564 0 1.241.338 1.692v1.692c-.338.564-.338 1.241-.226 1.805-1.268 6.975-1.391 18.429 0 25.383 0 .79.338 1.467.903 2.031-1.35 1.08-.907 2.857 0 3.948-1.305 1.174-.946 2.904 0 4.061-.451.338-.677.79-.79 1.354 0 1.918-.226 4.174 1.015 5.979.113.113.113.338.113.564-.226 1.354.564 2.595 1.918 3.046-1.089 6.534 8.443 4.573 9.476 7.671.731 1.218 8.138 3.203 9.138 3.384 3.499-.001 11.639-.63 8.911-6.995zm80.508-.981c-.646-2.584-4.949-5.194-6.803-6.677-.479-.065-.815-.317-1.008-.756-.531-1.177-.909-2.395-1.134-3.653.63-1.134.504-2.645-.378-3.653 1.635-1.635 2.656-15.106 1.008-16.755.235-.188 1.99-4.535.252-4.535 1.386-1.512 1.386-2.645.126-4.535 1.678-1.258 1.277-6.461.756-7.936-.126-.126-.126-.378 0-.504.756-1.134.63-2.771-.378-3.779 2.237-2.237 1.235-12.978.882-16.314-.807-7.614-3.027-15.032-11.842-16.251-5.738-.793-10.184 2.542-12.346 6.866-1.086 1.086-1.65 2.761-1.764 4.283h-1.386c0 3.904-.432 8.204 0 12.094-.126.504 0 1.008.126 1.386-.529 9.985-2.929 23.063-.252 32.879 0 .252.126.504.252.756h.126c.126.504.504 1.008.882 1.512-1.507 1.206-1.013 3.191 0 4.409-1.457 1.312-1.057 3.243 0 4.535-.504.378-.756.882-.882 1.512 0 2.142-.252 4.661 1.134 6.677.126.126.126.378.126.63-.252 1.386.504 2.897 1.89 3.401-1.216 7.296 9.429 5.107 10.582 8.566.816 1.36 9.087 3.576 10.204 3.779 4.127-.001 12.918-.725 9.827-7.937z" fill="#382D16"></path><path d="M224.661 341.46c0-.524 0-1.005-.041-1.485-.163-5.471.119-10.965-.373-16.422-2.738-16.582-18.998-28.337-34.742-31.446-.957-.252-2.001-.405-2.985-.568-1.56-.197-3.196-.48-4.768-.48-5.223-.423-12.406-.824-17.288.568-.746.262-1.575.349-2.363.218-3.043-.337-6.529.167-9.411 1.048-.829.306-1.7.524-2.612.655-9.868.557-19.522 2.684-29.353 3.625l-.332.044c-20.918 3.362-33.115 16.135-34.038 37.43-.969 22.359.679 46.739 3.317 68.964 0 14.285.142 32.053 3.814 46.078-1.149 6.202-.666 18.072 3.275 23.41.962 1.328 2.233 2.289 3.814 2.883 6.988 5.726 27.023 1.168 35.033.917.726-.013 1.43-.144 2.114-.393.456-.218.829-.524 1.119-.917.761-.916.546-1.819.788-2.839.219-10.742 3.521-23.469 1.078-33.98 1.161-4.499 1.368-9.216.622-13.801 1.161-4.237 1.244-10.569.539-13.889 2.372-8.745-1.389-17.839-.207-26.555.251-3.697.499-7.312.041-11.006 1.108-5.546 1.098-11.522 6.509-14.631 2.416-1.157 4.961-1.859 7.587-1.616 2.482.619 5.368 1.756 7.504 3.363l.912.699.29.262c.203.198.383.417.539.655.208.309.36.644.456 1.005 1.206 3.81 2.967 7.753 3.441 11.749-.355 11.915-2.058 24.414-1.036 36.251.083.48.083.961.083 1.441-.433 6.272-.019 12.658.358 18.926.58 9.63 4.077 23.51 2.129 32.742-.303 2.674-.276 5.339.083 7.993.129 1.63.627 3.007 2.197 3.669 4.217 1.11 8.771 1.199 13.059.655 18.237 4.594 37.874-2.753 30.804-26.162 1.01-4.523 1.157-9.244.705-13.845 1.285-4.848 1.534-8.167 1.036-14.02 2.981-8.215.195-17.643 2.322-25.856.711-3.747 1.058-7.586.705-11.399 4.027-13.03 3.82-30.177 3.276-43.94z" fill="#4F73B8"></path><path d="M228.722 349.911c.443-3.143.326-7.553-2.011-9.951 2.14-2.695 2.919-6.151 1.686-8.638-2.371-4.912 1.539-9.26-1.492-14.858 1.297-1.52 1.946-3.524 1.816-5.598l-1.795-8.054c0-8.308-1.517-16.171-3.206-24.26.427-2.908.275-6.986-1.969-9.148 2.097-2.477 2.859-5.654 1.652-7.941-2.318-4.507 1.542-8.453-1.461-13.658 1.271-1.398 1.906-3.24 1.779-5.146.187-8.074-.804-16.772-2.202-24.7-1.148-6.509-2.65-25.053-8.914-28.47.826-2.223.953-4.129.508-5.844-.635-1.906-1.969-3.557-3.748-4.574 1.306-3.92-.847-8.697-4.892-9.91.663-4.418-4.359-25.135-8.894-26.308-1.211-4.844-9.554-12.313-14.484-12.832-.826.064-1.588-.445-1.906-1.143-.762-1.334-1.906-2.478-3.24-3.24-2.072-1.036-4.749-1.877-6.575-2.668-.97-.42-8.76-3.362-8.607-3.176-6.307-6.307-15.086-6.282-22.996-9.338-1.016-.318-2.096-.318-3.049.064-2.817.805-5.237-1.369-8.004-1.715-3.303-.191-6.607-.191-9.91 0-7.037 0-16.33 1.905-22.297 5.654-3.244 2.435-8.501 3.518-10.164 7.75-.127.635-.635 1.207-1.271 1.398-3.697 1.643-5.091 4.974-4.637 8.83-4.389 3.243-3.684 13.153-4.423 17.938-.836 5.415-4.31 18.324.23 22.527-2.986 3.557-3.24 6.67-.826 10.799-2.922 3.684-3.049 6.225-.699 10.926-4.107 2.966-3.407 14.759-2.35 18.93 1.488 2.976-2.244 6.311.508 10.164-4.859 5.399-2.086 20.102-2.346 26.744-.362 9.252-.68 19.298.038 28.516-1.556 4.723-1.742 13.125-.588 17.98 1.545 3.292-2.268 6.899.519 11.057-4.549 5.386-1.954 19.738-2.205 26.329-.334 8.789-.545 17.611-.616 26.398-.081 10.022-1.779 22.096.876 31.996 2.575 16.461 22.134 16.424 34.244 17.346 1.167 0 2.335-.276 3.308-.898 2.814-1.399 7.573.903 10.847 1.075 5.485.288 10.947-1.979 16.392-.868 4.767-2.898 12.393-.048 17.771-.138 8.243-.138 16.348-.206 24.568-.605 15.898-.772 36.005 1.8 50.6-6.029.195-.138.454-.276.649-.484l1.297-1.037c1.557-1.451 2.789-3.179 3.762-5.183l.389-1.037c2.386-3.813 3.178-9.138 3.178-13.545-.567-9.664-3.945-19.352-4.775-29.078l-.065-2.349z" fill="#edebeb"></path><path d="M142.718 69.845c-1.15-1.859-.486-4.113-1.616-6.01-.826-1.386-2.829-3.757-4.002-4.877-1.514-1.446-7.097-4.635-9.095-4.492l-1.035 3.258 1.035-3.258c-1.344-1.111-4.889-1.418-6.541-1.889-2.188-.623-4.301-1.802-5.683.788-.146-.56-.58-1.917-1.207-2.175-.991-.408-1.325.79-1.916.724-.38-.042-2.65-1.04-3.109-.779l-.066.005c-.694.559-1.175 1.294-1.449 2.142-1.402-2.149-3.673-1.03-5.481-.118-2.368 1.965-13.349 9.894-9.191 13.331-3.196.101-3.742 1.796-1.15 3.521-2.637.507-3.076 2.971-.202 3.708-3.293 1.483-1.09 4.471.123 6.6-.262-.459 2.23 2.726 1.382 2.129 1.042.733 1.033.99 2.698.586-1.131 3.836 2.633 3.564 4.437 4.539.374.202-.642 1.568-.044 1.946.541.342 2.179-.374 2.332-.055.065.136-.822 1.642-.688 2.219.043.183 1.995.486 1.96.525-1.439 1.907-1.024 4.22-.151 6.284-.152-.359.578 1.902.586 1.423.394.02.595.176.603.47.123.468-.178.78-.903.936-.014.873-.475 1.921-.461 2.947.011.822.838 1.511.832 2.13-.013 1.469-1.579 1.895-1.206 3.848.182.949 1.82 2.296 1.838 2.547.04.554-1.689.791-1.642 1.773.044.923 1.378.996 1.461 1.655.226 1.776-2.881 2.152.734 3.379-2.757 2.287.269 1.917.771 3.32.293.821-.743 1.447-.435 2.324.226.642 1.418.319 1.642.679.994 1.599 2.721 7.847 6.477 4.6-.314 3.079 1.609 3.834 3.712 1.518.83 2.727 3.19 2.747 4.206.018 1.117 2.077 3.691 1.241 5.281.132 1.097-.524 1.755-1.59 1.873-2.745-.117-1.633 3.869-.491 1.477-3.608 6.617.268 3.253-15.284 2.909-18.474-.174-1.615-.415-3.375-.583-5.002-.129-1.248.193-2.764-.015-3.947-.1-.566-1.316-3.814-1.604-3.062.228-.596 1.912-.084 2.181-.992.224-.755-1.503-1.661-1.28-2.034.249-.417 1.797-.125 2.28-.776.295-.398-1.122-2.048-.818-2.107 3.819-1.07 2.227-4.43 5.041-6.028l.062-.068c.331-.554-.308-1.585-.041-2.169.238-.522 1.796-1.32 2.262-2.394.769-1.771 1.569-5.143 1.758-6.993.159-.587-.023-1.274-.339-1.952z" fill="#382D15"></path><path d="M294.621 104.666c-.191-.762-.318-1.525-.381-2.287-.064-.381-.064-.762 0-1.143 0-.381.064-.826.127-1.207v-.127c-.55-.748-1.206-1.383-1.969-1.906-.202-1.411.367-2.214-.381-3.557l-.445-.572c-.254-.381-.572-.762-.953-1.143-.318-.381-.699-.699-1.016-1.016-1.519-1.013-3.396-1.503-4.638-2.922-1.27-1.143-2.859-1.842-4.574-1.969-.602 0-1.363-.18-1.969-.318-4.379-1.314-6.888-.432-11.371-1.016-3.09-.114-7.791 3.472-9.91 5.59l-.762.953c-.445.699-.889 1.398-1.271 2.096l-.127.445c-.127.127-.254.254-.317.445-.826 1.398-1.715 2.795-1.906 4.32-.15 3.15-5.198 7.72-1.588 10.545-2.72.605-4.346 6.698-2.922 8.639-4.339.685-2.893 6.445-4.828 9.084-.826 1.27-1.334 2.795-1.334 4.32.173 3.285-4.865 7.311-1.334 10.227-3.113.635-3.494 1.969-1.397 4.32-1.839.221-2.693 1.06-2.684 2.072-1.029-2.125-2.473-1.524-4.182.037-1.017-5.056-6.785-2.808-10.085-5.193-1.421-.906-3.093-1.417-4.73-1.323-3.436.399-8.243-5.256-11.075-.96-.895-3.669-2.353-4.041-4.734-1.399-.626-3.761-3.032-3.927-4.799-1.319-.197-1.052-.475-2.327-1.175-2.59-2.605-.77-10.274-2.769-12.012-.602-.538-1.032-1.149-2.136-2.109-2.157-2.675-1.102-4.939-.795-6.791.921-.311.549-.507.712-1.019.134-.521-.73-1.361-1.061-2.18-1.014-.691.117-7.463 3.247-7.198 3.374-2.419-1.479-5.463-1.11-7.61.968-1.031 1.122-2.428 1.81-3.857 1.968-1.219.222-.594 2.768-1.485 2.743-3.28-.264-4.934 2.151-6.715 4.638-.447.557-.613 1.25-.506 1.927.184.825-.144 1.071-.663 1.557-2.591 2.714-2.569 7.132-.915 10.304.295.363.653.646 1.135.694 2.293.62-2.55 4.669 2.436 5.479 2.6.261-.597 5.325 4.468 3.92.006 5.116 7.481 2.854 8.785 5.191 1.326 2.921 7.076 4.999 9.071 1.834.831 3.749 2.226 4.201 4.683 1.706.959 3.59 2.072 3.906 4.807 1.471.133 1.131.408 2.331 1.107 2.594 2.396.76 9.938 3.421 11.595 1.689 1.082 4.95 7.251 2.656 10.213 5.033 3.042 2.046 30.442 10.335 32.196 7.646-1.735 2.162 6.481 1.606 5.296.892.345 1.088.999 1.994 1.961 2.716.958.335 2.059-1.173 2.589-1.292l.222.078c.672 1.023 1.224 2.274 2.465 2.506.827.104 1.591.289 2.422.469.367.024.807.012 1.271-.039 1.494.168 3.044-.088 4.411-.771l.072-.065.151.005c.409-.023.891.025 1.305.077l.137-.008c.445-.081.727-.436.942-.834 1.181.312 2.079-.2 2.535-1.459.886.03 1.629-.251 2.229-.843l.584-.565.139-.129c.218-.122.38-.296.516-.496.17-.181.34-.37.509-.581.388-.402.703-.876 1.022-1.274.176-.336.343-.681.493-1.043.953-.462 1.264-1.257.933-2.385.247-.568.546-1.11.897-1.625 1.133-.253 1.551-.884 1.254-1.894.36-.708.627-1.466.804-2.255 1.75-1.469 3.327-5.629 1.375-7.453l.101-.384c2.776-.609 3.096-1.869 1.22-4.168 3.049-.699 3.367-1.715 1.461-4.383 3.313-.221 5.604-9.882 4.193-11.561 4.014-.709 2.744-6.802 4.701-9.211 1.965-2.871 10.368-27.49 7.94-29.475-.59-.59 3.046-5.501 3.367-6.543.331-.882 1.083-3.7 1.334-4.828.127-.762.318-1.461.508-2.223.062-.575.062-1.338-.065-2.1z" fill="#edebeb"></path><path d="M159.356 389.792c0-1.08.228-2.223-.046-3.303-.667-2.012.614-3.96 0-6.035-.85-2.197 1.742-6.404-1.324-7.623 2.009-1.207 1.963-2.223.046-3.367 2.055-1.08 1.781-2.604-.046-3.43 2.198-1.176 1.915-7.967.183-9.211 1.601-1.2 1.145-3.164 1.096-4.955.015.527-.737-1.814-.73-1.779.653-.492.834-1.098.544-1.816-.409-.355-.805-.724-1.189-1.106.038-.632 1.217-.846 1.238-1.779.02-.894-1.213-.937-1.233-1.652-.021-.745 1.131-2.384 1.153-3.549.027-1.464-.813-2.718-.239-4.201.171-.572-.792-.916-.89-1.354-.144-.642.799-1.301.799-2.076.001-1.289-1.159-3.933-.731-4.828.101-.26.176-.527.239-.797h.302l-.165-.947c.033-.36.02-.716-.04-1.069.124-2.219-.033-4.407.02-6.606.04-1.66.358-3.4-1.444-4.236 2.763-1.562.487-1.651.508-3.422.022-1.891 2.099-1.491-.371-3.438 1.764-.867 1.758-3.18 1.324-4.891-.667-2.011.613-3.96 0-6.035-.85-2.197 1.743-6.404-1.324-7.623 2.009-1.207 1.963-2.223.046-3.367 2.054-1.08 1.78-2.604-.046-3.43 2.197-1.176 1.915-7.967.183-9.211 1.601-1.2 1.145-3.164 1.096-4.955.015.527-.737-1.814-.731-1.779.653-.492.834-1.098.544-1.816-.409-.355-.805-.724-1.189-1.106.038-.632 1.217-.846 1.238-1.779.02-.894-1.213-.937-1.233-1.652-.02-.745 1.131-2.384 1.153-3.549.027-1.464-.814-2.718-.24-4.201.171-.572-.792-.916-.89-1.354-.144-.642.798-1.301.799-2.076.001-1.289-1.159-3.933-.73-4.828.431-1.115.832-5.058-.913-5.463-.391-.121 1.408-2.238-.183-3.303-1.005-.839 1.828-1.99-.685-3.367 1.712-1.788.121-1.592-.183-3.113.228-.62.471-1.234.73-1.842-.201-.444-.522-.772-.964-.983.05-1.698 1.38-6.368-1.73-6.512 1.78-1.779 1.598-2.795-.457-3.367 1.598-1.842 1.461-2.668-.639-3.367 1.485-1.377 1.215-4.816-.411-6.098-.137-.064-.228-.191-.091-.381.776-1.461.228-2.223-1.187-2.477 1.804-2.125-.118-5.471-.731-7.814-.616-2.357-.997-6.761-2.328-8.766-1.323-1.687-1.786-5.498-2.522-7.567-.427-1.199-.493-2.346-1.038-3.549-.277-.611-1.69-.749-1.706-.834-.21-1.071.944-1.448.362-2.731-.253-.558-1.984.285-1.303-.819.984-1.197-.053-1.432-.227-2.28-.36.077-.66.006-.9-.212-.476-.281-.397-.745.237-1.391-.2-.432-1.721-6.218-2.214-6.218-.434-.232-.89-.401-1.37-.508.194-.663.285-1.341.274-2.033-.448-1.323-1.525-2.337-1.963-3.557-.091-.191-.046-.445.046-.635l.137-.191-.046-.064-.046-.127c-.137-.445-5.022.953-5.022.953.009.422.01 1.1.183 1.461.046.254.091.445.183.635.611 1.699 1.704 5.085 2.922 6.416 1.498 1.217.845 6.465 3.88 5.527-1.324 2.414-.959 3.24 1.141 2.922-1.461 2.287-.685 3.43 1.141 2.986-1.042 1.611-.95 4.903 1.141 5.844 1.018.354-1.067 2.264 1.461 2.478-1.08 1.837-.267 3.215.32 5.082.183.445.502.699.867.635-.618-.107.857 4.016 1.324 3.367-1.877 1.742 1.165 2.476 1.05 2.795-1.243 2.693.205 5.194.895 7.806.192.726.709.527.857 1.417.207 1.25.074 2.88.348 4.308.036.303.592 2.093.695 2.482.268 1.011-.277 4.188 1.588 4.188.447.069-1.348 2.297.411 3.113.947.528-1.552 2.151.867 3.24-1.703 1.938.111 1.534.274 3.049-.208.628-.451 1.242-.731 1.842.186.442.499.76.94.955-.036 1.749-1.539 6.1 1.525 6.541-1.872 1.588-1.78 2.541.228 3.367-1.78 1.525-1.689 2.287.32 3.367-1.693 1.087-1.687 4.469-.411 5.971.091.127.183.191.046.381-1.004 1.143-.548 2.033.776 2.668-2.179 1.415-.86 4.775-.813 6.877.061 2.763-.209 5.489-.18 8.242.027 2.523.308 5.019.308 7.559 0 1.642-.978 6.61.913 7.432-.776-.432-.701 4.471-.046 4.066-1.671.83-.124 2.641-.151 3.538-.02.645-.773 2.074-.825 2.902-.089 1.437.781 2.833.063 4.232v.063c.221.391.464.769.728 1.132.402.349.3.681-.305.997.082 1.22-.809 2.702-.422 4.224.274.826.274 1.779-.046 2.604-.81 2.74-.047 6.547-.091 9.402-.038 2.447.729 6.738-.091 9.02-.365 1.527-.049 3.119.333 4.6.034 1.46-.33 2.95.756 4.228.091.127.183.191.046.381-1.004 1.143-.548 2.033.776 2.668-2.179 1.415-.86 4.774-.813 6.877.061 2.763-.209 5.489-.18 8.242.027 2.523.308 5.019.308 7.559 0 1.642-.978 6.61.913 7.432-.776-.432-.701 4.471-.046 4.066-1.67.83-.124 2.641-.151 3.538-.02.645-.773 2.074-.825 2.902-.089 1.437.781 2.833.063 4.232v.063c.221.391.464.769.728 1.132.402.349.3.681-.305.997.082 1.22-.808 2.702-.422 4.224.274.826.274 1.779-.046 2.604-.811 2.74-.047 6.548-.091 9.402-.038 2.447.729 6.738-.091 9.02-.239.996-.199 2.471.046 3.494l4.976-.127c.601-1.671-.005-4.711 0-6.48.005-1.81.69-3.936-1.369-4.891 2.763-1.562.487-1.651.508-3.422.022-1.891 2.099-1.491-.371-3.438.774-.382 1.367-.827 1.367-1.589z" fill="#4F73B8"></path><path d="M146.586 130.429c.805-2.736-.048-6.582-.251-9.434-.213-2.996-.594-4.209-1.866-6.042.295-.775.132-1.42-.49-1.936l-1.1-.261c-.509-.612-1.41-1.466-1.919-2.01-1.771-1.891-4.881-2.041-6.978-3.687-.303.165-.79.306-1.442.388-2.213-.675-3.451-1.386-6.076-1.565-1.72-.117-3.259-.232-4.991-.116-1.505.101-14.56 1.296-14.918 2.383l.342 1.794-.031.005-.842-1.648-.114.035c-1.777.89-8.314 4.735-7.027 7.347-2.01-.108-3.616 4.417-2.626 5.758-4.041 1.811 3.414 15.745 6.655 15.041-.507 1.772.141 2.543 1.85 2.33-.6 1.704.486 2.632 1.952 2.287-.26.208-.292.685-.082 1.42 1.013 1.201 3.697 4.8 5.327 4.728-.263.149-.176.679.273 1.558 1.815 1.882 3.847 2.947 5.283 4.38 1.257 1.255 1.993 2.887 3.503 4.408 1.618 1.63 3.701 2.973 5.05 4.219 2.143 1.98 4.895 4.945 7.696 5.93.295.018.508-.033.619-.139.133-.06 7.152 5.001 6.63.059.148.262.785-.06 1.484-.994.571-1.234.365-3.019.816-4.216.556-1.475 2.58-4.664.482-5.985 1.637-.815 1.758-1.748.462-2.971 1.536-.932 1.606-1.669.303-3.017.317.094.673-.219 1.056-.937.129-1.575.82-6.186-.306-7.118 2.767-1.687.493-9.348 1.276-11.994z" fill="#382D15"></path><g><path d="M184.193 188.475c.114-.737-.176-1.447-.163-2.177l.067-.835c.274-.14.326-.285.115-.413-.129-.113-.219-.249-.27-.408-.002-.648-.023-.971-.128-1.633-.035-.221-.165-1.893.308-1.783-.215-.188-.434-.437-.454-.74-.019-.282.368-.571.356-.753-.009-.141-.388-.359-.442-.558-.084-.359.139-.657.387-.896-.753-.356-.575-1.664-.519-2.356.011-.143.028-1.42-.009-1.377.29-.525.974.017 1.416-.032.121-.008 1.622-.593 1.478-.016.552-.543.656-.185 1.245-.163.426.013.764-.395 1.276-.307.328.059.433.113.544.268-.087-.096.142.619.142.619.398 1.736.227 3.449.299 5.167.033.808.299 1.783.379 2.69.032.484-.203.925-.195 1.35.002.344.277.509.319.85.044.362-.245.583-.227.866.015.222.31.405.33.708l-.226.562.273.448c.059.28.057.563.076.846.009.141.138 1.49-.253 1.394.388.359.925 3.91.179 3.959.8.454.198 1.162.246 1.584.013.202.349.382.329.687-.028.184-.12.332-.252.482-.211.176-.162.314.169.414.268 1.299.445 2.766.432 4.104.002.648.038 1.193.122 1.856.037.261.114.803.049 1.05-.03.164-.361.672-.358.712.015.222.433.417.452.72.016.242-.234.441-.221.643.026.707.686.887-.058 1.584.902.467.481 2.075.534 2.882.077.866.344 1.233-.155 1.955-.093.128-.286-.042-.375.146-.127.231.111.459-.058.652-.207.236-1.354.048-1.598.044-.789.011-1.547.203-2.337.194-.203-.007-1.167.117-1.316.005-.298-.224-.39-1.311-.413-1.654-.039-.909-.118-1.795-.178-2.703l-.152-2.624c-.025-.383.169-.821.148-1.144-.005-.385-.134-.802-.201-1.202-.163-.941-.095-1.756-.073-2.649.015-.386-.24-.572-.245-.956-.027-.403.29-.525.228-.846-.059-.28-.24-.572-.282-.893l.276-.423c-.067-.097-.173-.171-.279-.245-.085-.987-.177-2.075-.304-3.08s-.153-2.016-.259-3.022c-.059-.584.067-1.139.029-1.724-.064-.643-.283-1.196-.203-1.829z" fill="#EA472C"></path><path d="M187.58 220.909l.107.094c.066.077-.293.161.269.388-.692-.056-.084.877-.008 1.115l.13.741s.127.397.084.359c.064.057.465.294.473.111l-.332.184c-.077.066.39.076.409.054-.035.083-.339.083-.33.224l.366.017c-.466.314-.247.563.143.639-.015.082-.277.099-.27.2l.097.237c-.008.183.166.374.198.554.059.28.065.684.185.96.404.905 1.367.761 1.653-.129.135-.414.216-.723-.339-.849-.141.009.547.005.5-.094l-.293-.143c.121-.008.221-.035.319-.082-.107-.094-.254-.166-.418-.195.507.007.467-.294.502-.681.037-.367.166-.558-.368-.665-.202.013.567.003.46-.091-.126-.073-.272-.124-.434-.133.163.01.304 0 .442-.049.116-.089-.562-.226-.418-.195.245.024.799-.174.318-.406.036-.063.096-.087.178-.072-.068-.117-.173-.171-.335-.16.879.125.139-.354.132-.454l.28-.059c.059-.024-.339-.221-.357-.199.057-.064.348.058.401-.067l-.335-.16c.562-.077.408-.574.38-.997.001.02-.221.035-.183-.008.12-.028.157-.071.152-.152-.172-.151.048-.51.099-.655l-.098.047c-.365-.624-.556.178-.876.24.02-.001.096-.391-.005-.385-.163-.01-.225.278-.322.345.019-.022-.184-.636-.36.064.028-.184-.094-.196-.184-.332l-.102.29c.015-.082-.095-.217-.121-.296l-.084.269c.001.02-1.118-.676-.652.245-.023-.039-.482-.556-.555-.429.009.141.06.3.189.413-.187-.069-.437-.478-.633-.384-.098.047.377.502.291.427-.128-.093-.255-.186-.402-.257.033.198.045.379.057.561z" fill="#382D16"></path><path d="M185.809 212.76c.019.282.277.509.278.833-.01.163-.065.247-.014.406.051.159.156.213.168.394l.132.781c.008.121-.018.346.09.44.043.038.328.059.328.059.004.06-.316.122-.287.262.029.14.289.082.372.117-.021-.019-.291.201-.265.281.027.1.307.041.332.12.023.039-.227.238-.24.36-.026.225.31.405.162.617.104.034.207.067.292.123l-.207.236c-.015.082.015.222.04.301.052.179.115.215.129.417.011.161.036.241.087.399.054.199.017.262.051.463.031.16.136.214.185.352l-.009.487.168.394.098 1.189c.417-.129.935-.264 1.34-.27.324-.001.598.163.624-.365.148.395.146.375.343.281.039-.023.01-.163.089-.188l.109.114c.229.086.457.173.449-.252.18.272.568.327.821.473.019-.022-.064-.36-.068-.421-.013-.202-.075-.522-.028-.728l.066-.227c.088-.512-.002.284.05-.165.011-.143-.076-.238-.084-.359.015-.386.341-.671-.217-.837.44-.09.47-.254.034-.407.461-.071.467-.294.034-.407.203.007.299-.08.39-.228.088-.208-.059-.28-.048-.422-.083-.035-.086-.075-.028-.12l.136-.09c-.029-.14-.091-.156-.259-.246.246.045.312-.183.32-.365.034-.407-.13-.133-.208-.391-.001-.02.257-.098.272-.18.012-.122-.314-.162-.318-.222.016-.062.282-.019.296-.121l-.05-.139c-.003-.04-.207-.067-.191-.129-.004-.06.237-.097.274-.14.151-.172.049-.489.017-.67-.004-.06.096-.087.05-.165l-.211-.128c.09.136.28-.363.277-.403.007-.203-.101-.297-.088-.42l.177-.396c.012-.122.058-.348-.009-.445-.095-.217-.066-.077-.273-.144.02-.001.448-.576.36-.692l-.509.277c.059-.024-.097-.237-.158-.253-.145-.051-.389.248-.464.334.073-.126-.14-.274-.261-.266-.121.008-.226.258-.266.261-.102-.014-.097-.237-.218-.229-.081.005-.088.208-.145.253.077-.066-.399-.217-.479-.191-.239.056-.276.119-.298.404-.149-.416-.294-.467-.405.006-.17-.435-.29-.406-.424.028.006-.223-.162-.313-.347-.342-.265-.023-.235.117-.413.189-.059.024-.093-.176-.193-.17-.12.028-.147.232-.16.335-.126-.377-.629-.323-.949-.262l-.601.1c-.158.07-.075.409-.048.509z" fill="#F2C617"></path><path d="M183.286 172.51c.199-.358-.408-.662.208-.844l-.292-.123c.044.058-.026-.707-.029-.748.094-.107.192-.154.295-.141-.143-.011-.268-.063-.356-.179.073-.126.168-.214.33-.224-.436-.154-.429-.357.054-.409-.417-.175-.243-.308-.184-.636-.049.186.345-.61.213-.46l.32-.062c-.047-.098-.054-.199-.04-.301.157-.071.261-.037.325.019l-.062-.32c-.595.809 1.168-.725.366-.287.13.133.232.147.328.059l-.011-.161c.166-.254.608-.303.866-.381.381-.066.438-.11.639.161.046.078 1.064-.455 1.114.312l.315-.142c.048.118.056.239.024.363.117-.068.217-.095.336-.123.027.1.035.221.021.323.098-.047.179-.052.282-.019.109.114.197.23.287.366.011.161-.043.266-.121.312l.325.019c.085.055.249.713.28.873-.093.128-.19.195-.291.201.161-.011.268.063.355.159-.053.125-.168.214-.33.224.472.091.48.212.024.363.573.084.671 1.88.154 2.036l.333.14c-.032.124-.089.188-.207.236.124.032.189.109.238.228l-.334.164c.695.096.148.395.33.708.025.079.232.451.073.502l.162.617-.69-.015-.019.022c-.522.075-1.088.092-1.592.125-.605.04-1.139-.067-1.589-.139l-.147.233c-.281-.265-.527.298-.844-.208.182.616-.67-.017-.526.014 0 0-.653.549-.613.223l.163-.294c-.002.284-.298-.224-.328-.363l.026-.528c.073-.493-.414-1.434-.181-1.895z" fill="#4F73B8"></path></g><path d="M208.008 187.615l.417 7.513c-.177.101-.388.148-.618.16-.672.045-1.358.197-2.008.11-.66-.087-1.307-.058-1.945.073-.326.087-.679.099-1.022.11-.343.01-.693-.017-1.029-.06-.635-.104-1.26-.079-1.881.065-.69.165-1.39.201-2.096.095-.628-.091-1.247-.053-1.862.101-.694.18-1.392.242-2.1.176-.616-.067-1.228-.017-1.825.148-.688.19-1.465.147-2.207.216-.327.061-.665-.074-.989-.379-.546.616-1.177.76-1.815.409-.084-.026-.17-.014-.248.036-.983.535-2.087.355-3.142.444-.266.025-.54-.143-.789-.461-.882.835-1.415.86-2.26.16-.753.817-1.417.834-2.234.077-.285.539-.804.654-1.42.651l-1.452.043c-.417.02-.841-.101-1.256-.316-.339-.159-.617.391-1.107.344-.454-.025-.764-.437-1.083-.404-.319.033-.57.37-1.014.343-.338-.003-.688-.162-1.019-.48-.361.263-.644.408-.932.412-.223-.014-.45-.088-.675-.217l-.379-6.827c.416-.214.743-.153 1.365.131.103.063.202.074.296.035.52-.179 1.054-.245 1.587-.204.536.026 1.087.103 1.628.116.345.014.574.295.784.54.243-.375.619-.588 1.026-.608.401-.033.813.156 1.21.556.699-.809 1.389-.843 2.223-.077.308-.516.837-.656 1.464-.657.587-.008 1.207-.175 1.771-.074.579.086 1.154.055 1.713-.119.727-.184 1.468-.252 2.208-.19.588.058 1.168.012 1.733-.147.683-.179 1.437-.158 2.157-.222.356-.052.728.102 1.077.457.645-.604 1.193-.841 1.657-.555.464.286.691.279 1.12-.097.444-.393 1.106-.214 1.694.328.301-.528.806-.693 1.401-.688.595.005 1.21-.15 1.778-.063.614.107 1.227.083 1.831-.07.686-.152 1.439-.066 2.17-.069l.241.019.17-.052c.627-.065 1.285-.226 1.918-.214.685.044 1.364-.054 2.026-.296.57-.198 1.153-.307 1.742-.322z" fill="#4F73B8"></path><path d="M211.962 224.399c-.261-2.659-.461-5.352-.598-8.034-.14-2.486-.363-5.107-.536-7.589-.012-.236-.039-.448-.062-.681l-.047-.943c-.169-2.873-.304-5.816-.53-8.546-.089-1.043-.169-2.087-.237-3.13l-.269-4.571-1.78.094-2.337.13-1.756.114-3.548.234c-2.335.134-4.358.324-5.664.63-2.187-.108-4.75-.036-6.584.242-1.771.267-2.669.322-4.426.301-1.76-.021-3.968.211-6.643.63-1.29-.079-2.719-.063-4.129.043l-6.096.399.234 3.426.154 1.92c.201 2.258.355 4.549.464 6.847.142 2.897.343 5.826.593 8.726.206 2.237.353 4.506.447 6.762.085 2.195.302 4.668.44 6.979.07 1.191.149 2.3.246 3.276l.189 1.793c.079.726.16 1.358.243 1.874l.263-.038 3.326-.017c.737-.003 1.46-.027 2.177-.072 1.435-.09 2.848-.264 4.315-.526 1.469.088 3.048.078 4.631-.029 1.603-.102 3.13-.284 4.172-.508.768.061 1.606.135 2.958.062l6.372-.322c2.084-.104 4.199-.256 6.285-.456.382-.04.769-.057 1.158-.053 2.38-.016 3.653-.063 5.337-.255-.001.001 1.459-6.417 1.238-8.712z" fill="#edebeb"></path><path d="M267.027 93.003l.09-.17-.09.22v-.05zM267.367 92.583l.17-.09c-.09.37-.17.69-.19.69-.02-.04 0-.29.02-.6zM267.768 92.403c.17-.03.37-.05.6-.05-.15.73-.23.88-.28.86-.08-.04-.16-.07-.27-.02-.081.03-.071-.26-.05-.79zM268.557 91.743l-.08-.08c.06-.33.12-.73.19-1.22l-.11 1.3zM268.507 92.363l.22.03c-.249 1.26-.32 1.26-.22-.03zM268.907 92.093l-.1-.1.23-1.3c-.059.55-.099 1.02-.13 1.4zM268.887 92.413l.23.04c-.23 1.27-.33 1.26-.23-.04zM269.137 92.303l.15-.86c-.04.3-.06.61-.07.93l-.08-.07zM271.668 86.193l.1-.01c-.04.36-.09.6-.11.42l.01-.41zM272.018 86.183l.08.01v.03c-.06.82-.11.71-.08-.03v-.01zM272.367 85.293l.06-.12-.03.3-.03-.15v-.03zM272.837 85.203l.12.04-.12 1.47c.01-.51.03-1.02 0-1.51zM273.128 85.313l.09.03-.03.29c-.02.28-.04.08-.05-.11l-.01-.21zM273.628 84.783l.01.43c-.14-.15-.27-.29-.37-.42.119-.95.229-.06.36-.01zM273.648 85.513l.12.05c-.03.45-.05 1.05-.07 1.79l-.05-1.71v-.13zM273.958 85.573l-.18-.2c.059-1.09.12-1.11.18.2z" fill="#382D15"></path><path d="M204.139 249.333c2.199-6.001 4.497-12.581 5.212-19.006.039-.368.074-.737.105-1.106l.052-.763c.026-.512.002-1.022-.072-1.53-.154-.92-.516-1.654-1.06-2.123-.516-.392-1.091-.671-1.737-.799-.115-.04-.227-.005-.353-.007l-.419-.123c-2.501-.431-11.055-1.298-13.206.503-1.076-1.303-6.752-1.082-7.91-.501-1.281-1.944-19.86-2.145-21.698-.506-.188-.204-.395-.387-.621-.547-.312-.212-.66-.346-1.045-.403-.669-.051-1.406.125-2.137.531-.399-.696-1.015-1.09-1.76-1.143-.658-.089-1.443.163-2.183.683-3.025-4.824-10.428 7.889-10.625 10.376-1.769 2.534-3.438 7.587-3.274 10.713.217 1.546-1.149 3.553-1.454 5.169.047.563-.08 1.096-.379 1.598-5.113 7.626-8.823 22.679-10.283 31.9-.31 3.906-4.012 7.313-3.693 11.431.06.307-.055.687-.297.988-.97 1.624-1.368 3.03-1.376 4.827.249 2.208-1.453 3.648-.908 6.135-1.03 2.438-.331 4.115.87 6.209.202.424.525.698.919.821.766-.079 1.526-.191 2.281-.337 1.527.683 6.271.892 7.449-.158 1.006 1.205 2.179 1.266 3.961.231 1.08 1.13 2.026 1.187 4.034.156.241.463.64.739 1.107.786 1.878.075 3.656.569 5.681.074.174-.073.325-.07.454.009.864.667 2.096.615 3.358-.125.355.504.855.781 1.46.793 7.314.571 14.742.784 22.013 1.735l.442.047c6.443-1.106 12.422-13.582 12.427-19.819-.048-.345.103-.762.357-1.101 3.392-5.327 3.467-13.164 5.979-19.029 1.9-8.729 5.233-18.131 8.329-26.589z" fill="#F2C617"></path><path d="M292.458 86.103c-.43.61-.59 1.03-.03 1.68l.03.06c-1.841.359-1.908.943-.2 1.75-.07.311-.05.65-.1 1.021.01.34-.18.71-.41.95-.479.35-.62.97-.39 1.49.25.72-.01 1.53-.68 1.9-.509 1.132-1.093 2.226-1.75 3.28-.647.696-1.131 1.486-1.45 2.37-.23.25-.58.4-.9.47-.72.11-1.34.6-1.51 1.3-.26.67-1.03.8-1.53 1.09l-.2.02c-.36.44-.83.79-1.43.85-1.697-.022-4.795 3.766-5.5-.49-.15.76-.49 1.4-1.03 1.92-1.41.853-3.344-1.865-3.07-3.02-1.67 1.443-2.894 1.083-3.67-1.08-.03-.68-.4-1.36-.98-1.72-.74-.58-1.03-1.56-.73-2.46.535-.99-.449-3.248.1-4.48v.05l.09-.22c.06-.1.14-.18.25-.25-.02.31-.04.56-.02.6.02 0 .1-.32.19-.69l.23-.09c-.021.53-.03.82.05.79.11-.05.19-.02.27.02.05.02.13-.13.28-.86l.14.01c-.1 1.29-.03 1.29.22.03l.16.02c-.1 1.3 0 1.31.23.04l.1.02.16.04-.16-.14c.01-.32.03-.63.07-.93l-.15.86-.23-.21c.03-.38.07-.85.13-1.4l-.23 1.3-.25-.25.11-1.3c-.07.49-.13.89-.19 1.22-.974-1.463-.344-1.743 1.89-.84-2.01-2.17-1.01-2.75 1.14-1.48-1.387-1.127-1.334-2.177.16-3.15l-.01.41c.02.18.07-.06.11-.42h.25l.08.04v-.03c.15.01.31.05.5.1.076-.291.009-.564-.2-.82l.03-.3c.07-.05.2-.03.41.03.03.49.01 1 0 1.51l.12-1.47.17.07.01.21c.07.202.097.142.08-.18l.43.17c-.001.614.015 1.227.05 1.84.02-.74.04-1.34.07-1.79l.19.09.11.05-.11-.13c-.06-1.31-.12-1.29-.18-.2l-.14-.16-.01-.43c-.13-.05-.24-.94-.36.01-.796-.961.921-2.005 1.38-1.71.611.348-1.384-3.344.94-2.43-1.68-.54-2.464-4.214-2.5-4.38l-.39-1.35c-.08-.18-.01-.35.34-.64.47-.35.19-.36-.06-.46-1.37-.43-1.39-1.4-1.02-2.47.18-.21.44-.4.73-.53.5-.29.5-.29-.07-.32-1.85.06-2-.43-.59-1.33-.028-.684-.005-1.367.07-2.05-1.029-.105-1.681-1.994-1.78-2.75.488-.319.922-.699 1.3-1.14-1.665-1.384.339-4.583 2.1-4.68.71.04 1.4.5 1.65 1.22 1.649-2.932 2.599-2.775 2.85.47 2.541-1.347 3.058-.81 1.55 1.61.78-.42 1.68-.75 1.84-.54.45.7 1.7.85.91 2.38-.09.1-.09.25.08.17 1.5-.39 1.38.29.12 1.68 1.489-.838 2.389-.425 2.7 1.24-.11.53.21 1.09.83 1.23.64.2.98.82.87 1.49-.17.56.17 1.18.79 1.32.535.964 1.038 1.944 1.51 2.94.55.31.84.95.69 1.57-.22.59.06 1.23.61 1.54.53.39.41 1.07.64 1.59.07.32-.12.68-1.02 1.15 1.085-.468 1.21 4.231.45 3.83.67.26 1.71.42 1.72.9-.03.569.37 1.159-.05 1.759zM268.557 91.743l.25.25-.08.4c-.25 1.26-.32 1.26-.22-.03l.05-.62zM268.907 92.093l.23.21-.02.15c-.23 1.27-.33 1.26-.23-.04l.02-.32zM269.217 92.373l.16.14-.16-.04v-.1zM271.648 84.343c.05.64.04 1.25.02 1.85-1.953.429-.741 2.361-.16 3.15-2.15-1.27-3.15-.689-1.14 1.48-.463-.178-3.571-1.076-1.89.84-.1.677-.14 1.294-.66 1.53-.066-.533-.066-1.067 0-1.6-.004.068-.516 1.59-.47 1.59-.113-.226.002-1.561.1-1.83-.037.09-.288 1.7-.42 1.7-.002-.697.065-1.39.2-2.08.119.82-.065 1.486-.552 1.999.006-.589.074-1.169.202-1.739-.151.616-.319 1.226-.505 1.833l.205-1.893-.03.08c-.043.691-.283 1.298-.719 1.823-.08-.5-.083-.998-.009-1.494-.127.396-.277.783-.453 1.161-.16-.06-.24-.1-.36-.05l.18-1.8c-.064.507-.58 1.134-.58 1.63-.063-.906-.413-.08-.66.01l.35-2.2c-.085.466-.848 1.745-.7 2.15.097-.825.227-1.645.39-2.46-.244.796-.5 1.587-.769 2.375.135-.611.226-1.228.271-1.851-.147.567-.354 1.113-.623 1.636l-.35-.05c.1-.71.21-1.42.43-2.17-.84 2.47-.9 2.63-.63 1.06l.01-.23c-.893 1.831-.197 1.102-.82.83.17-.87.39-1.62.64-2.46-1.05 3.23-1.44 3.73-.36-.05-1.18 3.55-1.37 3.56-.32-.14-.73 2.24-1.06 2.57-1.06 2.57l-.25-.29c.348-1.294-.346.319-.577.265.035.008-.357-.379-.642-.485.17-.87.42-1.71.75-2.51-.345.858-.749 1.686-1.212 2.483.172-.632.369-1.257.592-1.873-.277.606-.591 1.191-.944 1.755.193-.973.494-1.915.904-2.825-.273.659-1.46 3.69-2.18 2.11l3.77-8.69c-.693.251 1.316.385.731-.06-.024.32-.061.637-.112.954.2-.229.391-.465.574-.708-.048.307-.069.615-.064.925.176-.227.333-.466.473-.718l.037.932c.114-.229.258-.436.433-.621.283.366-.297 1.761-.382 2.025l.72-1.73c-.251 1.134.234.236.51.11l-.5 2.14c.098-.425.946-1.624.82-2-.202.783-.393 1.568-.571 2.356-.123-.545.794-1.768.87-2.173.188-.998-.954 3.796-.319 1.687.07-.63.27-1.11.59-1.64-.269-.102 1.133.264.665-.086.007.31.02.619.039.929.15.114 1.619-.078 1.526-.112-.01.37-.05.73-.1 1.1.37-1.48.52-1.68.22-.02.188-2.182.309-.843.63-.86.14.618-.219 1.882-.36 2.48.8-3.52.88-3.49.35.05.75-3.63.83-3.6.29.21-.267 1.541.19-2.975.82-2.66.08.5.04 1.05-.08 1.56.09-.42.31-1.54.35-1.54-.031.61-.064 1.22-.1 1.83.115-.574.258-1.14.43-1.7.09.69-.02 1.4-.12 2.11-.073-.757.07-1.438.43-2.041-.082.529-.122 1.059-.12 1.592.102-.562.23-1.119.384-1.67-.036.783-.096 1.564-.181 2.342.187-.373.093-2.387.606-2.487.07.475.112.952.126 1.431.098-.385.207-.767.325-1.146.08.03.16.06.27.02l.01 1.79c.014-.522.345-1.153.31-1.66.069.986.322 0 .501-.081zM272.007 84.393c.04.59.08 1.16.01 1.79h-.25c.09-.66.2-1.79.24-1.79zM272.628 86.063c.08.18.19.27-.03.23-.19-.05-.35-.09-.5-.1.16-2.04.24-2.35.27-.9v.03l.01.45.03-.08-.01-.22c.04.14.12.34.23.59zM272.787 84.533c.03.22.05.44.05.67-.21-.06-.34-.08-.41-.03.02-.23.06-.46.09-.66.08.04.16.07.27.02zM273.128 85.313l-.17-.07c.089-1.03.119-.96.17.07zM273.637 85.213l.01.3-.43-.17c.01-.229.03-.41.05-.55.12-.95.229-.06.36-.01l.01.43zM273.958 85.573v.08l-.19-.09.01-.19c.059-1.09.12-1.11.18.2zM153.322 271.801c1.023-.818.817-5.131.136-5.964-.068-.068-.339-.136-.542-.203-.652-.13.606-.665.576-1.05-.047-.608-.639-2.03-1.457-2.202 1.414-1.178.011-1.141-.254-1.809.09.227-.586-2.177-.83-1.444.203-.407.136-.949-.136-1.288-.786-.786-1.799-2.002-2.846-.745.068-1.694-.745-2.033-1.694-.678-.339-1.559-.949-1.694-1.762-.271-.191-1.339-2.099-1.721-2.982-.678-.068.068-.136.136-.203 0-.542-.813-.949-.542-1.355.542-.783-2.087-2.413-.005-3.727-.881-.879-.377-6.434-.137-7.387.339-.407.271-.949.339-1.423.136-.61-.068-1.22 0-1.762.203-.722.206-.571 1.477-1.084 1.22-.407-.271-1.017-.203-1.355.136-.339.407-.339 1.017 0 1.423-.464-.774-1.186 3.287-.203 2.304-.388.232-.682.548-.881.949.068.474-.136.949.136 1.423.339.407.339.949.068 1.355.001.001.813.873.813.745-.265.232-.514.48-.745.745.053.426.327 2.668.203 2.914-.393 1.048-.141 6.2.339 7.319.271.474.271 1.017.068 1.491-.068.474-.068.949 0 1.423l.068.203 1.897-.136-.203.271c-.407-.068-.813-.136-1.288-.136l-.136.068-.068 2.168-.203 1.897h.068c.542.203 1.084.203 1.559.136 1.459-.625 2.985 1.522 3.795-.745.335 1.425 2.674 1.371 3.253.407.261 1.176.944 1.56 2.304 1.22.969.111 1.941.202 2.914.271 1.346-.673 3.192 1.601 3.863-.745.61 1.559 1.22 1.559 1.694 0 .54 1.295 1.549 1.247 1.694-.203.203.407.542.949.813.881.856-.285 2.201.007 2.507-1.22.068-.136.136-.136.271-.068.981.242 1.343-.164 1.084-1.22 1.379.591 1.641-.087 2.643-1.423.136-.271.136-.542-.068-.813-.337-.674.79-.027 1-.762.121-.425-1.029-1.203-.322-1.203.407.068.745-.136.949-.474-.132-.423-.335-.807-.61-1.152 2.265-.849.382-2.382 1.559-3.795.133-.339-1.019-.678-.748-.881zm-14.206-6.93c0 .587 1.485.047 1.612-1.727-.014.698.062 1.383.23 2.055.11-.468.187-.942.23-1.422.044.481.121.957.23 1.426.168-.634.245-1.283.23-1.945 0 .576 0 1.267.23 1.842-.022 0 .928-.344.633-.417.714.179.092.179.806 0 .809-.202.864 1.377.864-1.54.345 2.648.461 2.648.461 0 .345 2.763.576 2.303.461-.115 0 .576.115 1.151.345 1.727.608 0 .567 1.037.691-.691.229.196.349.462.358.797.188-.51.222-1.045.102-1.603 0 .576.115 1.036.345 1.497 1.095 0 .028-.92.432-1.324.202.363.339.752.413 1.166.007.014.165-1.771.091-1.771.203 0 .086 1.583.446 1.583v-1.612c.739 2.585.955.414 1.382 1.266-.109-.218.078-.956 0-1.267.244.975.149 1.036.921 1.036-.003-.069.047-.892-.029-.892.206.298.431.581.676.849.361-.12.319-1.609.086-1.842.136.136.681 1.501.682 1.497-.024-.369-.035-.739-.034-1.109.576 1.612.576 1.382.345-.461.115.461.23.921.576 1.382v-1.267c.015-.03.574 1.151.576 1.151-.033 0-.009-1.175 0-1.151.105.399.297.744.576 1.036.628-.628.369-.888.115-2.073.806 2.533 1.036 2.533.461 0 .806 2.418.921 2.303.461-.115.115.576.345 1.151.576 1.612.23-.115.691.691.461-.806.576 1.267.576.806.115-.921.749 1.997.49 1.093 1.238.907.16.187.351.331.576.432.097-.254.178-.513.245-.777l.72.489c.071-.238.134-.477.187-.72.176.182.368.345.576.489.107-.231.189-.471.245-.72.196.177.422.297.676.36.349-.349.122-1.723-.202-1.885.284.469.552.947.806 1.433-.017-.024-.084-1.418-.345-1.548.373.186.414 1.425.921 1.425-.081 0-.267-1.38-.345-1.497.977 1.628 1.393.629 1.612.921-.169-.408-.284-.83-.345-1.267.377 0 .429 1.407.943 1.151.138-.069.412-.72.367-.705.192.188.412.332.662.432.08-.258.128-.522.144-.792.225.12.46.216.705.288.042-.244.075-.488.101-.734.183.169.385.313.604.432.02-.266.054-.529.101-.792.524-.175.432.46.864.029v-.115l-3.224-5.642c-.732 0 .074.337-.345.547-.786.393-1.091-.608 0 1.756-.331-.61-.732-1.167-1.203-1.672.136.441.283.878.44 1.312l-.824-1.111c.165.625.386 1.231.665 1.817-.23-.576-.576-1.036-1.036-1.497.084-.084-.593.683-.389.547-.204-.149-.42-.279-.648-.389-.248.186.397 1.275-.345.533h-.345s-.115.345.576 1.842c-1.267-2.303-1.267-2.303-.461.115-1.267-2.418-1.267-2.072-.461.23-.23-.576-.461-1.036-.806-1.612-.558 0-.667-.59-.345.806-.295.032-.462-.169-.499-.606-.029.533.099 1.041.384 1.527l-.691-1.382c-.67.67-.259.207-.259 1.324-.098-.392-.266-.755-.504-1.09.155.202-.026 1.366.26 1.651-.391-.391-.359-1.136-.763-1.54.21.211.239 1.177.345 1.497-.832-1.663-1.224-.835-1.382-1.151l.115 1.151-.576-1.151c-.115.115-.23.115-.345.115-.081.195.039.505-.014.72-.319-.071-.54-.297-.662-.676-.29.124-.052 1.218-.014 1.454.076-.687-.114-1.057-.571-1.109.041.438.092.875.154 1.31-.456-.912-.712-2.078-.273.259-.115-.461-.345-.921-.576-1.382l.115 1.267c-.173-.376-.327-.76-.461-1.151.025.178-.007 1.133 0 1.151l-.461-1.036c-.531.406-.237 1.103-.115 1.957-.691-2.533-.806-2.533-.461 0-.691-2.418-.806-2.418-.461.115-.115-.576-.23-1.151-.461-1.612-.23 0-.576-.806-.461.691-.345-1.382-.461-.806-.23.921-.115-.576-.23-1.036-.461-1.497.022 0-.928.344-.633.417-.091-.214-.225-.397-.403-.547-.17.21-.29.445-.36.705-.137-.248-.301-.479-.489-.691-.115.219-.235.434-.36.648-.097-.21-.226-.397-.389-.561-.155 0-.25 1.158-.475.259h-.345c-.005.145-.179 1.698-.13 1.698.01 0-.391-1.712-.408-1.583l-.053 1.54c-.215-.215-.331-1.348-.331-1.655 0 .314-.23 1.382-.115 1.612 0-.576-.115-1.036-.345-1.497-.382 0-.552.807-.691.115.014.421-.115.846-.115 1.267 0-1.876-.454-.747-.864-.849-.108-.219-.242-.421-.403-.604-.161.184-.295.385-.403.604-.113-.206-.233-.407-.36-.604-.186.183-.35.384-.489.604-.078-.213-.178-.414-.302-.604l-.345.604c-.439-.11-.034-.417-.518-.417l-.115.115-.692 7.028zm.859 7.959c0 .587 1.485.047 1.612-1.727-.014.698.062 1.383.23 2.055.11-.468.187-.942.23-1.422.044.481.121.956.23 1.426.168-.634.245-1.283.23-1.945 0 .576 0 1.267.23 1.842-.022 0 .928-.344.633-.417.714.179.092.179.806 0 .809-.202.864 1.377.864-1.54.345 2.648.461 2.648.461 0 .345 2.763.576 2.303.461-.115 0 .576.115 1.151.345 1.727.608 0 .567 1.037.691-.691.229.196.349.462.358.797.188-.51.222-1.045.102-1.603 0 .576.115 1.036.345 1.497 1.095 0 .028-.92.432-1.324.202.363.339.752.413 1.166.007.014.165-1.771.091-1.771.203 0 .086 1.583.446 1.583v-1.612c.739 2.585.955.414 1.382 1.267-.109-.218.078-.956 0-1.267.244.975.149 1.036.921 1.036-.003-.069.047-.892-.029-.892.206.298.431.581.676.849.361-.12.319-1.609.086-1.842.136.136.681 1.501.682 1.497-.024-.369-.035-.739-.034-1.109.576 1.612.576 1.382.345-.461.115.461.23.921.576 1.382v-1.267c.015-.03.574 1.151.576 1.151-.033 0-.009-1.175 0-1.151.105.399.297.744.576 1.036.628-.628.369-.888.115-2.072.806 2.533 1.036 2.533.461 0 .806 2.418.921 2.303.461-.115.115.576.345 1.151.576 1.612.23-.115.691.691.461-.806.576 1.267.576.806.115-.921.749 1.997.49 1.093 1.238.907.16.187.351.331.576.432.097-.254.178-.513.245-.777l.72.489c.071-.238.134-.477.187-.72.176.182.368.345.576.489.107-.231.189-.471.245-.72.196.177.422.297.676.36.349-.349.122-1.724-.202-1.885.284.469.552.947.806 1.433-.017-.024-.084-1.418-.345-1.548.373.187.414 1.425.921 1.425-.081 0-.267-1.38-.345-1.497.977 1.628 1.393.629 1.612.921-.169-.408-.284-.83-.345-1.267.377 0 .429 1.407.943 1.151.138-.069.412-.72.367-.705.192.188.412.332.662.432.08-.258.128-.522.144-.792.225.12.46.216.705.288.042-.244.075-.488.101-.734.183.169.385.313.604.432.021-.266.054-.529.101-.792.524-.175.432.46.864.029v-.115l-3.224-5.642c-.732 0 .074.337-.345.547-.786.393-1.091-.608 0 1.756-.331-.61-.732-1.167-1.203-1.672.136.441.283.878.44 1.312l-.824-1.111c.164.625.386 1.231.665 1.817-.23-.576-.576-1.036-1.036-1.497.084-.084-.593.683-.389.547-.204-.149-.42-.279-.648-.389-.248.186.397 1.275-.345.533h-.345s-.115.345.576 1.842c-1.267-2.303-1.267-2.303-.461.115-1.267-2.418-1.267-2.072-.461.23-.23-.576-.461-1.036-.806-1.612-.558 0-.667-.59-.345.806-.295.032-.462-.169-.499-.606-.029.533.099 1.041.384 1.527l-.691-1.382c-.67.67-.259.207-.259 1.324-.098-.392-.266-.755-.504-1.09.155.202-.026 1.366.26 1.651-.391-.391-.359-1.136-.763-1.54.211.211.239 1.177.345 1.497-.832-1.663-1.224-.835-1.382-1.151l.115 1.151-.576-1.151c-.115.115-.23.115-.345.115-.081.195.039.505-.014.72-.319-.071-.54-.297-.662-.676-.29.124-.052 1.218-.014 1.454.076-.687-.114-1.057-.571-1.109.041.438.092.875.154 1.31-.456-.912-.712-2.078-.273.259-.115-.461-.345-.921-.576-1.382l.115 1.267c-.173-.376-.327-.76-.461-1.151.025.178-.007 1.133 0 1.151l-.461-1.036c-.531.406-.237 1.103-.115 1.957-.691-2.533-.806-2.533-.461 0-.691-2.418-.806-2.418-.461.115-.115-.576-.23-1.151-.461-1.612-.23 0-.576-.806-.461.691-.345-1.382-.461-.806-.23.921-.115-.576-.23-1.036-.461-1.497.022 0-.928.344-.633.417-.091-.214-.225-.397-.403-.547-.17.21-.29.445-.36.705-.137-.248-.301-.479-.489-.691-.115.219-.235.435-.36.648-.097-.21-.226-.397-.389-.561-.155 0-.25 1.158-.475.259h-.345c-.005.145-.179 1.698-.13 1.698.01 0-.391-1.712-.408-1.583l-.053 1.54c-.215-.215-.331-1.348-.331-1.655 0 .313-.23 1.382-.115 1.612 0-.576-.115-1.036-.345-1.497-.382 0-.552.807-.691.115.014.421-.115.846-.115 1.267 0-1.876-.454-.747-.864-.849-.108-.219-.242-.421-.403-.604-.161.184-.295.385-.403.604-.113-.206-.233-.407-.36-.604-.186.183-.35.384-.489.604-.078-.213-.178-.414-.302-.604l-.345.604c-.439-.11-.034-.417-.518-.417l-.115.115-.692 7.026zm1.489 5.232c-.051.585 1.476.175 1.755-1.581-.075.694-.057 1.384.052 2.068.15-.457.268-.923.352-1.397.002.483.038.963.106 1.441.222-.617.354-1.257.397-1.917-.05.574-.109 1.262.07 1.855-.022-.002.954-.262.667-.361.076.223.194.421.353.594.186-.144.336-.318.45-.524.823-.132.741 1.447.993-1.46.116 2.668.23 2.678.459.04.106 2.783.375 2.344.469-.075-.05.574.015 1.157.195 1.75.605.052.476 1.082.748-.629.211.215.307.491.288.825.231-.492.311-1.022.24-1.589-.05.574.025 1.042.215 1.521 1.091.095.107-.914.544-1.282.169.379.273.778.31 1.198.006.015.317-1.75.244-1.756.202.018-.051 1.585.308 1.616l.139-1.606c.513 2.639.916.494 1.267 1.381-.09-.227.16-.946.109-1.262.159.993.059 1.045.828 1.112.003-.069.123-.885.048-.891.18.315.38.616.601.904.37-.089.457-1.576.245-1.828.124.147.549 1.555.55 1.551.008-.37.028-.739.062-1.108.434 1.656.454 1.426.384-.429.075.469.15.938.454 1.426l.109-1.262c.018-.029.472 1.197.474 1.197-.033-.003.092-1.171.099-1.147.07.406.232.767.484 1.082.68-.571.444-.853.294-2.055.584 2.593.814 2.613.459.04.594 2.478.719 2.374.469-.075.065.583.245 1.177.434 1.656.239-.095.629.748.528-.763.464 1.311.504.853.194-.908.574 2.055.394 1.132 1.155 1.01.143.2.322.36.536.48.118-.245.222-.496.311-.753l.675.55c.092-.23.174-.464.249-.701.159.197.336.376.531.537.127-.221.229-.453.306-.696.18.193.395.332.643.417.377-.317.271-1.706-.038-1.896.242.492.468.991.679 1.498-.015-.025.039-1.419-.21-1.573.355.218.29 1.455.795 1.499-.081-.007-.147-1.398-.215-1.521.833 1.706 1.333.747 1.526 1.057-.133-.421-.211-.851-.235-1.292.376.033.306 1.439.84 1.228.144-.057.473-.682.426-.671.175.204.382.367.622.487.102-.25.173-.509.212-.776.214.139.44.255.678.348.063-.239.117-.48.164-.723.168.185.356.345.565.482.043-.263.1-.523.169-.78.537-.129.39.496.858.103l.01-.115-2.725-5.899c-.729-.063.044.342-.391.515-.817.324-1.034-.7-.152 1.749-.277-.637-.629-1.226-1.054-1.769.098.451.206.899.325 1.345l-.725-1.178c.11.637.279 1.259.506 1.867-.18-.593-.484-1.082-.903-1.581.091-.077-.65.63-.434.511-.19-.166-.394-.314-.612-.443-.263.164.286 1.305-.39.501l-.344-.03s-.145.334.415 1.885c-1.063-2.404-1.063-2.404-.469.075-1.053-2.518-1.083-2.174-.479.19-.18-.593-.369-1.072-.664-1.675-.556-.048-.614-.645-.414.773-.297.007-.445-.209-.445-.646-.075.528.009 1.046.251 1.554l-.569-1.436c-.725.61-.276.183-.372 1.297-.064-.399-.2-.775-.408-1.129.137.215-.143 1.358.116 1.667-.355-.423-.259-1.163-.627-1.6.192.228.136 1.193.215 1.521-.685-1.729-1.147-.938-1.277-1.266l.015 1.157-.474-1.197c-.125.105-.239.095-.354.085-.098.187-.004.507-.076.716-.312-.099-.512-.342-.601-.731-.299.099-.156 1.209-.14 1.447.135-.678-.023-1.063-.474-1.154.003.44.016.879.04 1.319-.376-.948-.53-2.131-.295.234-.075-.469-.265-.947-.454-1.426l.005 1.272c-.14-.389-.26-.785-.359-1.187.01.18-.105 1.128-.099 1.147l-.369-1.072c-.565.358-.332 1.078-.284 1.94-.47-2.583-.584-2.593-.459-.04-.48-2.469-.594-2.478-.469.075-.065-.583-.13-1.167-.32-1.646-.229-.02-.504-.853-.518.648-.225-1.406-.389-.843-.309.898-.065-.583-.14-1.052-.33-1.531.022.002-.954.262-.667.361-.072-.221-.19-.415-.354-.58-.187.195-.327.418-.419.672-.116-.259-.258-.503-.428-.73-.133.208-.272.413-.414.614-.078-.217-.191-.415-.339-.593-.154-.013-.349 1.132-.496.217l-.344-.03c-.018.144-.325 1.676-.276 1.681.01.001-.241-1.739-.27-1.612l-.186 1.53c-.196-.233-.213-1.371-.187-1.678-.027.312-.349 1.357-.254 1.596.05-.574-.025-1.042-.215-1.521-.38-.033-.62.757-.698.055-.022.421-.188.833-.224 1.252.162-1.869-.388-.783-.787-.921-.088-.228-.205-.44-.349-.637-.176.169-.327.358-.454.567-.095-.215-.197-.426-.306-.633-.201.166-.381.353-.54.56-.059-.219-.142-.428-.249-.628l-.396.572c-.428-.147.002-.419-.48-.461l-.125.105-1.291 6.939zm.091 5.04c-.1.578 1.455.3 1.883-1.426-.134.685-.175 1.374-.125 2.065.189-.443.345-.897.47-1.362-.039.481-.045.963-.017 1.445.274-.596.46-1.222.559-1.877-.098.567-.217 1.248-.088 1.854-.022-.004.973-.18.695-.303.057.228.158.436.301.622.198-.127.362-.288.493-.484.831-.061.615 1.505 1.114-1.37-.112 2.668.001 2.688.454.079-.132 2.782.173 2.367.473-.035-.098.567-.083 1.154.045 1.761.599.104.382 1.119.799-.563.192.233.265.515.217.847.272-.471.397-.992.375-1.562-.098.567-.064 1.041.084 1.534 1.079.187.185-.902.652-1.231.136.392.205.799.207 1.22.005.015.465-1.717.393-1.729.2.035-.186 1.575.169 1.636l.276-1.588c.286 2.673.87.571 1.145 1.484-.07-.233.24-.929.217-1.248.073 1.003-.03 1.046.73 1.178.008-.069.198-.871.124-.884.152.329.326.646.521.952.376-.057.59-1.531.4-1.8.111.157.415 1.596.416 1.592.039-.368.091-.734.156-1.098.292 1.687.331 1.46.419-.395.035.473.069.947.331 1.46l.217-1.248c.02-.027.369 1.233.37 1.233-.033-.006.192-1.159.197-1.134.035.411.165.784.39 1.119.726-.511.515-.812.468-2.022.361 2.634.588 2.673.454.079.381 2.52.514 2.426.473-.035.015.587.143 1.193.292 1.687.247-.074.563.799.592-.715.351 1.346.429.893.271-.888.396 2.096.296 1.161 1.064 1.105.125.211.29.386.493.524.139-.234.264-.475.374-.724l.625.605c.111-.222.213-.447.307-.677.142.209.303.403.484.581.145-.209.267-.432.364-.667.163.208.365.364.605.47.403-.284.415-1.677.124-1.892.199.511.382 1.028.549 1.55-.013-.026.16-1.411-.076-1.585.336.248.164 1.475.664 1.561-.08-.014-.027-1.405-.084-1.534.684 1.771 1.265.858 1.431 1.183-.097-.43-.138-.866-.124-1.307.371.064.182 1.46.732 1.296.148-.044.53-.639.482-.632.157.218.349.398.578.539.123-.241.216-.492.277-.755.201.156.417.291.646.404.083-.233.158-.468.225-.706.152.198.326.375.522.529.066-.258.144-.512.235-.763.546-.082.347.528.846.176l.02-.113-2.212-6.11c-.721-.125.015.345-.434.48-.842.253-.971-.785-.3 1.73-.222-.658-.522-1.275-.899-1.853.059.457.129.913.209 1.368-.21-.411-.417-.823-.621-1.236.055.644.17 1.279.345 1.904-.128-.607-.39-1.119-.765-1.652.097-.069-.701.572-.476.472-.175-.182-.366-.346-.572-.494-.276.141.173 1.324-.431.466l-.34-.059s-.173.321.252 1.914c-.854-2.485-.854-2.485-.473.035-.834-2.599-.894-2.258-.493.148-.128-.607-.277-1.1-.519-1.726-.55-.095-.557-.695-.478.735-.296-.019-.426-.246-.388-.682-.119.52-.08 1.043.117 1.57l-.444-1.479c-.775.545-.291.159-.482 1.26-.029-.403-.133-.789-.311-1.16.118.225-.259 1.341-.027 1.671-.318-.452-.159-1.181-.488-1.648.171.243.034 1.201.084 1.534-.535-1.781-1.063-1.032-1.164-1.371l-.083 1.154-.37-1.233c-.133.094-.247.074-.36.054-.114.178-.048.504-.137.707-.302-.125-.481-.385-.537-.78-.307.073-.259 1.191-.263 1.43.193-.664.068-1.061-.373-1.19-.035.439-.059.878-.072 1.317-.293-.977-.346-2.169-.314.208-.035-.473-.183-.967-.331-1.46l-.103 1.268c-.107-.4-.192-.804-.257-1.213-.005.18-.201 1.115-.197 1.134l-.277-1.1c-.593.309-.422 1.046-.448 1.909-.248-2.614-.361-2.634-.454-.079-.267-2.5-.381-2.52-.473.035-.015-.587-.03-1.174-.178-1.667-.227-.039-.429-.893-.572.602-.104-1.42-.316-.873-.384.868-.015-.587-.05-1.06-.198-1.553.022.004-.973.18-.695.303-.053-.227-.154-.429-.303-.608-.203.178-.362.389-.475.633-.093-.268-.214-.523-.364-.764-.151.196-.306.388-.465.577-.059-.223-.155-.43-.287-.619-.153-.026-.445 1.098-.512.174l-.34-.059c-.03.142-.467 1.643-.418 1.651.01.002-.092-1.753-.131-1.63l-.315 1.508c-.175-.249-.096-1.385-.043-1.687-.054.309-.463 1.322-.389 1.568.098-.567.064-1.041-.084-1.534-.376-.065-.682.701-.7-.005-.058.417-.258.814-.33 1.228.321-1.848-.32-.814-.706-.984-.069-.234-.166-.456-.294-.664-.19.154-.357.329-.5.527-.076-.222-.16-.441-.251-.657-.215.148-.41.319-.585.512-.04-.223-.105-.439-.194-.647l-.444.536c-.413-.183.038-.417-.439-.5l-.133.094-1.887 6.801zm-4.396-18.397c.596-.051-.691-1.034-1.504-1.023.534-.034 1.052-.138 1.555-.31-.365-.054-.732-.081-1.101-.083.34-.039.664-.13.973-.271l-1.399-.047c.44-.038.967-.083 1.399-.208.003.032-.307-.72-.363-.489.161-.072.308-.165.441-.281-.156-.142-.331-.252-.526-.331-.055-.638 1.729-.37-1.036-.72 2.037.003 2.03-.085.058-.359 2.133.084 1.854-.07-.03-.352l1.334.063c.073-.183.688-.236-.404-.585.706-.032 1.325.032-.477-.402.359.058.806.108 1.238-.017l.058-.359c-.321-.096-.636-.205-.947-.329.346.045.693.052 1.042.022-.422-.131-.837-.28-1.245-.447.258-.158 1.041.144 1.36.116-.337.029-.804-.463-1.1-.437.21.012 1.116.249 1.368-.05.191-.226-.479-.803-.916-.874.769.124.705.229 1.048-.178.15-1.161-.136.877.221-.395.165-.587-1.09-.448-1.114-.735.435.044.863.129 1.284.256l-.941-.518c.324.005.639.071.944.201-.137-.386-.468-.592-.991-.617.367.146.726.204 1.085.262-.267-.175-.546-.328-.836-.46.326.084.655.144.99.181.038-.046-.688-.443-.748-.467 2.251.895-.123-.748-.339-.857 1.921.722 1.921.722.241-.286 1.833.729 1.826.641.146-.367.374.234.829.372 1.195.518.073-.183.711.028-.148-.696 1.012.445.726.204-.404-.585.374.234.741.38 1.1.437.304-.361.725-.667.92-.898-.084-.206-.175-.408-.273-.608l.544.02c.069-.082.543-1.851-.636-1.75.288.308.625.555 1.011.74.168-.326-.034-.584-.604-.775l.088-.008.836.46c.071-.084-.692-.828-.786-.907 1.342 1.131.972-.08 1.429.144-.232-.256-.432-.534-.603-.834.308-.026.679.844 1.035.587-.012-.164-.044-.323-.096-.479-.186.166 1.288-.951.861-.804.174.117.359.212.556.285.129-.115.337-.46.478-.628l-.008-.088-2.917-4.09c-.575.049-.07.301-.335.615-.409.485-1.426-.888.148 1.349l-1.027-1.008c.056.32.201.599.437.837-.287-.254-.584-.496-.89-.726.207.472.476.908.807 1.309-1.734-1.705-1.44.599-2.11.18l-.337.206s.03.352.904 1.251c-1.615-1.279-1.688-1.096-.241.286-1.703-1.272-1.585-.927-.234.374-.382-.322-.756-.555-1.13-.789-.423.259-.702.012-.02.799-.21.029-.41-.024-.6-.159l.836.847c-.306-.25-.646-.428-1.02-.533.028.333.352.757.379 1.064-.289-.151-.588-.28-.897-.388.304.331.625.643.965.936-.373-.148-.806-.606-1.244-.569.189-.016.681.71.866.812-1.396-.768-1.879.442-.812.866-.286-.155-.589-.247-.909-.277l-.146.367c.14.181.298.345.474.491-.252-.136-.527-.157-.825-.062-.266.519.977.681 1.001.966-.407-.151-.82-.282-1.24-.392.237.245.505.444.804.596-.354-.007-.7-.077-1.036-.21l.995.635c-.344-.186-.705-.273-1.085-.262l.756.555c-.328-.072-.658-.132-.99-.181.008-.009.718.549.756.555-.293-.098-.591-.131-.894-.101l-.065.271c-.08.095.11.256 1.306.774-2.002-.626-2.075-.443-.234.374-1.906-.546-1.891-.37-.146.367-.455-.138-.821-.284-1.261-.247-.402 1.012.768.26-.374.731.297.294.665.473 1.102.536-1.45-.234-1.548.557-1.776 1.502.053-.221.114 3.302 1.221 1.988-.427.058-.855.091-1.287.099.428.157.866.271 1.313.342-.445.055-.892.097-1.34.125.048-.057 1.037.354 1.18.342-1.785.152-.72.678-1.259.816.332.049.662.109.99.181-1.92.164-.72 2.906-.652 3.775 1.611-.169 3.221-.336 4.83-.503z" fill="#382D15"></path><path d="M129.932 270.993c-.087-1.097-.35-2.089-.744-3.082.769-3.014.005-9.832-1.924-12.327-.175-.261-.394-.47-.656-.627-.131-.104-.219-.157-.35-.209-.476-.242-.987-.381-1.531-.418-.481.052-1.006-.052-1.399-.366-1.708-.994-3.487-1.168-5.336-.522-.394.209-.875.209-1.225-.104-.875-.47-1.793-.731-2.712-.784-1.575-.261-3.018.47-3.499.261-5.78-2.958-12.95-.35-18.501-2.559-4.056-1.938-9.294-.3-13.077-2.037-1.776-.502-3.057-2.101-5.428-1.853-.698-.119-1.398-.137-2.099-.052-.35.104-.7-.104-.788-.47-.348-.729-.63-1.525-.875-2.298-.211-.57-.462-1.122-.751-1.655 0 0-1.792-4.303-2.065-4.397l-.785-.418c.441-.341.883-.683 1.305-1.08.35-.373.682-.801.85-1.237-.095-.961-.24-1.915-.433-2.862 1.056-4.442 11.796-12.831 8.618-17.802 4.244-.908 5.621-2.704 4.636-6.002 4.114-1.052 5.244-2.636 4.396-6.232 3.986-.564 8.094-6.929 8.096-10.78.603-1.365 1.503-2.536 2.701-3.511.189-1.07.001-2.071-.615-2.924 3.183-1.393 5.062-6.138 5.215-9.404-.006-.939.131-1.928.449-2.854 1.05-4.416 1.618-7.765 1.505-12.257.065-.964.202-1.953.339-2.942.828-3.712-1.027-5.661-1.638-9.096-.395-.678-.564-1.624-.661-2.595-.285-3.36-2.455-5.652-4.37-8.21-1.599-2.981-3.256-5.147-5.791-7.466-1.994-2.043-10.1-5.057-12.599-3.345-1.387 1.087-3.042.178-4.698.752-2.017.603-3.176 1.947-3.48 4.032-.052.771.09 1.412-.319 1.617-5.932 3.596-4.996 9.791-9.376 14.237l-.104.162c-.636 1.162.687 2.209.239 2.992-.331.429-.844.795-1.396 1.049-.266.155-.532.31-.87.49-.318.236-.545.503-.682.801-9.601 17.02-19.221 33.802-29.04 50.683-.085.218-.117.354-.13.547-3.819 4.057-7.363 12.182-9.384 17.44-.909 1.759-1.046 3.438.426 4.684-1.706.764-5.82 8.477-5.468 10.747.234.854.648 1.642 1.214 2.32l-.626-.021c.092.289.063.803-.024 1.42-.763.733-1.253 1.63-1.267 2.55l-.04 2.65c.183 2.339.753 4.478 1.522 6.689.22.865.715 2.751.773 3.61l4.085 5.514c.482 1.083 1.029 2.146 1.487 3.239 1.155 2.001 2.82 3.852 3.849 5.902.175.261.306.522.481.731 2.289 3.075 4.594 5.906 7.042 8.828l.831-1.097-.831 1.149c2.825 3.118 7.161 7.349 11.022 9.193l1.225.836 1.312.731c2.587 1.236 8.531 4.279 11.018 3.023 1.574 1.201 3.63 1.724 5.117 1.306 2.996-1.101 5.458.731 8.704-.836 5.413 2.694 32.371-1.036 36.87-5.641 2.318.679 4.767.105 6.692-1.567.568.209 1.137.366 1.706.418.612.104 1.268.104 1.881 0 .656-.052 1.268-.261 1.88-.522.528-.273.98-.639 1.356-1.097 5.593 1.759 8.429-6.444 8.266-10.342-.044-.366 0-.731.088-1.097.391-1.203.479-2.405.391-3.606z" fill="#edebeb"></path><path d="M71.683 293.185c-.178-.055-3.56-.546-3.818-.116l-.253 4.802c.007.025.1.052.264.078 2.727.199 11.679 1.62 12.935-1.694 1.983 2.475 2.12.28 4.003.057 2.067-.244 2.162 1.712 3.903-.954 1.883 2.225 8.406-.07 10.799-.636 2.365-.559 9.626-1.23 10.169-4.106 1.885 1.53 3.119 1.158 3.768-1.013 1.728 1.634 3.387.843 3.786-1.093.1.428.648.729 1.629.9 1.874-.502 4.077-.389 5.486-1.939.589-.203 1.199-.297 1.829-.282 1.119-.39 1.601-1.481 1.5-2.623.197.337 1.073.081 2.153-1.193.524-1.07 1.071-2.467 1.221-3.681.106-.861-.575-1.898-.467-2.529.136-.803.941-1.473 1.116-2.428.078-.427-1.038-.984-1.008-1.44.032-.483 1.292-1.008 1.395-1.784.071-.534-.892-1.139-.828-1.536.329-2.032 1.211-3.476.922-5.941-.867-7.407-6.7-13.742-14.865-13.169-.354.135-.574.297-.657.483-.31.336-.424.311-.623-.086-1.425-2.391-1.751-.059-3.311-.56-1.864-.599-1.456-2.182-3.659-.513.177-.345-.341-.812-1.529-1.375-.677.093-1.323.289-1.936.589-.58-.395-1.142-.816-1.685-1.261-.778-.164-1.268.688-2.1.474-2.042-.526-5.376-3.451-7.278-.63-.987-2.19-2.152-2.403-3.853-.791-1.095-2.093-2.017-2.248-3.915-.673.158-.407-.214-.906-1.106-1.487-1.922-.325-7.877-1.931-9.304-.55-.773-2.331-3.789-2.649-4.972-4.819-1.434-2.63-.762-4.066.171-6.507 1.428-2.959 2.848-5.954 4.436-8.853.495-.904 4.116-6.981 3.12-6.946 2.438-.376.862-1.694 1.548-2.808.387-.63 1.31-1.06 1.936-1.875.322-.419-.394-1.161-.105-1.611.371-.578 1.177-.542 1.629-1.172 1.236-1.725 2.007-4.977 3.665-6.24-.139-.426-.148-1.078-.028-1.949l2.258-1.967c.944-1.245 1.124-2.706 1.868-4.037 1.234-2.208 2.589-4.466 3.849-6.657 3.048-5.301 6.238-10.506 9.123-15.95l.081-.33-4.203-2.348-.081.084c-1.351 2.226-6.662 9.193-4.931 11.73-2.852.18-1.598 1.527-2.406 3.148-.899 1.804-2.594.564-1.533 3.681-2.838.068-5.258 6.402-6.423 8.548-1.164 2.144-5.403 8.05-3.938 10.174-2.391.256-2.991 1.373-1.917 3.386-2.36.049-2.974 1.775-1.897 3.453-.373-.233-.97-.061-1.781.511-1.209 2.092-4.424 6.366-3.618 8.597-.291-.277-.912.039-1.833.933-1.023 1.839-1.565 3.992-2.296 5.499-.317.654-1.179 1.385-1.569 2.234-.165.358.693 1.096.6 1.505-.17.751-1.315.964-1.51 2.076-.095.544.676.906.689 1.328.043 1.419.12 3.678 1 5.244 1.756 3.125 5.633 4.73 8.517 5.53 1.873.52 3.808.321 5.578.657 2.302.437 3.896 1.535 6.525 1.351.353-.136.573-.297.657-.483-.56.608 3.714.822 3.657.808 1.6.391 2.002 1.853 3.977.356-.183.344.337.811 1.529 1.375.677-.093 1.322-.289 1.936-.589.58.395 1.142.816 1.685 1.261.778.164 1.268-.688 2.1-.474 2.042.526 5.375 3.451 7.278.63.986 2.189 2.15 2.403 3.853.791 1.094 2.092 2.015 2.248 3.915.673-.156.407.215.906 1.105 1.487 1.216.205 3.434.555 4.535 1.016 1.467.614.224 1.781 2.575 1.741-.434.913-.498 1.341-.221 2.259 1.119 5.441 1.371 11.823.059 17.31-.5 2.09-1.665 4.042-3.387 4.998-.545.303-5.577 1.868-5.115 2.292-2.172-1.575-1.98.781-3.374 1.27-.265.093-.976-.83-1.254-.692-.192.095-1.731.907-1.714.905-1.878.245-7.28 2.26-9.462 1.86-.216.389-.666.832-1.349 1.326-.504.076-1.792-.461-2.431-.461-1.125 0-2.168.56-3.237.806-2.191.505-4.459.828-6.69 1.224-4.883.865-11.944 2.459-16.862 1.411z" fill="#4F73B8"></path><path d="M139.239 37.96c-.123-1.723-.766-3.936-1.865-5.262.26-4.906-5.637-11.672-10.307-12.752-4.045-5.765-16.197-6.29-22.054-4.262-5.904 2.044-16.938 11.784-10.226 18.569.203 2.837 1.468 5.191 3.048 7.503-.514 2.451-1.403 4.967-1.606 7.464-3.547 2.102-7.668 8.548-12.111 8.866-2.81 1.038-3.795 1.574-5.606 3.563-2.668.774-4.519 2.997-6.147 5.122-1.523 1.987-2.366 6.082-4.013 7.604-4.401 5.726-2.957 14.278-5.698 20.826-1.955 4.672-5.65 8.874-10.123 11.261-8.062 4.303-19.792 6.726-25.012 14.832-.159.383-.502.78-.959.906-3.43 1.698-8.522 7.926-9.301 11.735-2.008 1.856-2.657 4.156-3.146 6.737-1.947 4.707-5.598 18.851-.475 23.29-.258 2.902.88 5.798 3.068 7.781.416 2.999 2.253 5.373 4.773 6.915 1.393 5.429 13.682 11.852 19.112 11.006 3.314 2.284 9.455 1.832 13.311 1.467 7.621-.721 14.528-2.967 21.126-6.917 7.39-4.425 12.975-11.263 17.717-18.288 1.782-2.639 3.765-5.203 5.299-7.996 1.144-2.082 2.194-3.84 3.479-5.782.925-1.398 1.588-5.14 2.84-6.018 2.372-2.737 2.848-8.322 3.338-11.867.646-4.667-.143-9.39.297-14.068-.291-5.559-.481-11.11-1.303-16.686-.67-4.545-2.423-11.428-1.003-16.068 1.969-6.434 8.018-9.732 13.326-12.893 6.427-3.827 10.833-9.625 15.613-15.141 4.075-6.217 5.427-14.121 4.608-21.447z" fill="#EB472C"></path></g>
            </g>
        </g>
    </g>
    
    <!-- ITEM 2 -->
    <g>
        <defs>
            <clipPath id="clip-path-id-viewbox-item-2">
                <rect x="0.0" y="0.0" width="77.584" height="61.202"/>
            </clipPath>
        </defs>
        <g transform="translate(612.0 217.0) rotate(0.0 -17.5 14.0) scale(-0.45112394308104764 0.45750138884350183)">
            <g clip-path="url(#clip-path-id-viewbox-item-2)" transform="translate(-0.0 -0.0)">
                
<path style="fill:#D7EBFF;" d="M77.144,15.265c0,0-5.753-10.184-44.705-1.931L2.359,0l24.326,15.031  c0.773,0.639,2.617,2.233,4.67,4.501c5.756,6.358,13.09,17.965,2.693,28.366L0,28.851l32.141,23.354l0.088-0.151  c7.196,4.985,35.673,22.292,43.716-9.75C78.704,28.713,77.144,15.265,77.144,15.265z"></path>

            </g>
        </g>
    </g>
    
    <!-- ITEM 3 -->
    <g>
        <defs>
            <clipPath id="clip-path-id-viewbox-item-3">
                <rect x="0.0" y="0.0" width="298.334" height="3.035"/>
            </clipPath>
        </defs>
        <g transform="translate(65.0 616.0) rotate(0.0 342.0 3.0) scale(2.2927323067434484 1.9769357495881383)">
            <g clip-path="url(#clip-path-id-viewbox-item-3)" transform="translate(-0.0 -0.0)">
                <title>line_4</title><g id="Layer_2-i3" data-name="Layer 2"><g id="Layer_1-2-i3" data-name="Layer 1"><rect width="298.334" height="3.035" fill="#2b2b2b"></rect></g></g>
            </g>
        </g>
    </g>
    
</svg>