<?xml version="1.0" encoding="iso-8859-1" ?>
<svg version="1.1" xmlns="http://www.w3.org/2000/svg" xmlns:xlink="http://www.w3.org/1999/xlink" 
    viewBox="0 0 800 800" width="800" height="800">
    
    
    <!-- ITEM 0 -->
    <g>
        <defs>
            <clipPath id="clip-path-id-viewbox-item-0">
                <rect x="0.0" y="0.0" width="223.273" height="427.997"/>
            </clipPath>
        </defs>
        <g transform="translate(181.0 17.0) rotate(0.0 200.0 383.0) scale(1.7915287562759492 1.7897321710198903)">
            <g clip-path="url(#clip-path-id-viewbox-item-0)" transform="translate(-0.0 -0.0)">
                
<g>
	<path style="fill:#FF564F;" d="M168.248,111.824c-2.6,0-5.5,2-8.2,5.6c9-45.8,1.6-82.5-16.9-87.3c-20.3-5.3-48.5,34.8-62,86.9   s-8,98.6,12.3,103.9c17.7,4.6,42.4-27.4,57.4-70.2c0.6,5,2.3,8.3,4.8,8.8c5.9,1.2,15.1-11,18.5-24.2   C177.748,122.124,176.348,111.724,168.248,111.824z M89.348,109.124c3.3-10.8,7.2-20.6,7.2-20.7c0.3-0.8,1.2-1.2,2-0.9   s1.2,1.2,0.9,2c0,0.1-3.9,9.8-7.1,20.5c-5.5,18.4-4.6,24.4-3.5,26.3c0.4,0.6,0.8,1,1.4,1.1c4.2,0.8,9.5-7.6,14.5-23   c4.1-12.6,6.7-25.6,6.7-25.8c0.2-0.9,1-1.4,1.8-1.2c0.9,0.2,1.4,1,1.2,1.8c0,0.1-2.7,13.4-6.8,26.1c-5.5,17-11.1,25.3-17,25.3   c-0.4,0-0.8,0-1.2-0.1c-1.5-0.3-2.8-1.2-3.6-2.7C83.748,133.524,84.748,124.124,89.348,109.124z M92.048,161.024   c-5.7-2.5-8.6-5.7-8.6-9.4c0-3.9,3.8-6.7,11.4-8.3c3.8-0.8,7.5-1.1,9.3-1.2l4.6-14.4c0.3-0.8,1.2-1.3,2-1s1.3,1.1,1,2l-4.9,15.4   c-0.2,0.6-0.8,1.1-1.4,1.1c0,0-5,0.2-9.9,1.2c-2.7,0.6-8.9,2.2-8.9,5.2c0,5,10.5,8.2,14.1,9c0.9,0.2,1.4,1,1.2,1.9   c-0.2,0.7-0.8,1.3-1.5,1.3c-0.1,0-0.2,0-0.3,0C99.948,163.624,96.048,162.824,92.048,161.024z M120.448,172.924   c-5.2,11.5-10.7,17.4-16.4,17.7c-0.1,0-0.2,0-0.4,0c-5.9,0-9.4-6.1-9.5-6.4c-0.4-0.8-0.2-1.7,0.6-2.1c0.8-0.4,1.7-0.2,2.1,0.6   c0,0,2.8,5,7,4.8c3-0.1,7.8-3,13.6-15.8c0.4-0.8,1.3-1.1,2.1-0.8C120.448,171.124,120.748,172.124,120.448,172.924z    M149.948,91.024c0,0.1-2.4,11.8-6.2,24.2c-5.2,16.9-10.5,27-15.7,29.9c-1.2,0.7-2.3,1-3.5,1c-0.7,0-1.5-0.1-2.2-0.4   c-2-0.7-3.5-2.2-4.5-4.4c-5.8-12.9,8.6-49.7,9.2-51.2c0.3-0.8,1.2-1.2,2-0.9s1.2,1.2,0.9,2c0,0.1-3.7,9.5-6.7,20.2   c-3.8,13.9-4.7,23.8-2.6,28.6c0.6,1.4,1.5,2.3,2.7,2.7c1,0.4,2,0.2,3.1-0.4c4.4-2.5,9.4-12.4,14.3-28.1c3.8-12.2,6.1-23.8,6.2-23.9   c0.2-0.9,1-1.4,1.9-1.2C149.548,89.324,150.048,90.124,149.948,91.024z M167.748,137.324c-2.2,6.8-4.7,10.3-7.7,10.7   c-0.2,0-0.4,0-0.5,0c-2.1,0-3.7-1.6-4.4-2.7c-0.5-0.7-0.3-1.7,0.5-2.2c0.7-0.5,1.7-0.3,2.2,0.5c0,0,0.9,1.3,1.9,1.2   c0.6-0.1,2.7-0.9,5.1-8.5c0.3-0.8,1.1-1.3,2-1C167.548,135.624,167.948,136.524,167.748,137.324z"></path>
</g>
<g>
	<path style="fill:#FFE7E6;" d="M217.648,283.124c19.3,49.7-12.6,112.9-72.2,136s-133,0.4-143.4-60c-10.1-58.8,17.4-97.6,77-120.7   S198.448,233.424,217.648,283.124z"></path>
</g>
<g>
	<path style="fill:#FFFFFF;" d="M109.448,312.824c-4.7,0-8.8-1.5-12.2-4.4c-8.8-7.5-9.9-22-9.9-22.6c-0.1-1.4,1-2.7,2.4-2.8   c1.5-0.1,2.7,1,2.8,2.4c0,0.2,1,12.9,8.1,19c2.9,2.4,6.3,3.4,10.4,3.1c7.2-0.6,13-4.5,17.3-11.5c3.3-5.5,4.5-10.8,4.5-10.9   c0.3-1.4,1.7-2.3,3.1-2.1c1.4,0.3,2.3,1.7,2.1,3.1c-0.1,0.3-1.3,6.2-5.1,12.4c-5.1,8.5-12.6,13.4-21.4,14.2   C110.848,312.824,110.148,312.824,109.448,312.824z"></path>
</g>
<g>
	<path style="fill:#FF564F;" d="M101.848,223.724c0,0,10.1-0.7,22.8-17.8l-1,84.3c0,0,1,14.4-9.8,16.8c-9.8,2.2-11.5-5.6-11.5-13   S101.848,223.724,101.848,223.724z"></path>
</g>
<g>
	<polygon style="fill:#2568EF;" points="150.375,261.05 151.175,242.55 159.375,247.15  "></polygon>
</g>
<g>
	<path style="fill:#2568EF;" d="M54.665,264.665l7,9.1c0,0,3.5-12.2,2.8-11.9C63.765,262.165,54.665,264.665,54.665,264.665z"></path>
</g>
<g>
	<polygon style="fill:#2568EF;" points="167.498,283.61 172.698,297.91 199.998,282.21  "></polygon>
</g>
<g>
	<path style="fill:#2568EF;" d="M78.338,355.447l17.945,11.108c0,0-24.387,33.27-24.08,32.642S78.338,355.447,78.338,355.447z"></path>
</g>
<g>
	<polygon style="fill:#2568EF;" points="28.348,312.824 40.248,332.424 19.248,347.824  "></polygon>
</g>
<g>
	<polygon style="fill:#2568EF;" points="178.348,385.224 156.648,368.824 168.948,357.924  "></polygon>
</g>
<g>
	<path style="fill:#324A58;" d="M143.148,76.324c0,0-7.7-5.6,0-5.6s12.6,5.6,12.6,5.6s4.2,4.6-1.8,3.9   C148.048,79.524,143.148,76.324,143.148,76.324z"></path>
</g>
<g>
	<path style="fill:#324A58;" d="M109.148,70.724c1.3-0.1,8,0.7,3.1,4.2c-4.5,3.2-11.9,5.2-13.3,3.1   C97.148,75.224,104.848,71.024,109.148,70.724z"></path>
</g>
<g>
	<g>
		<path style="fill:#2568EF;" d="M160.248,221.424c-0.5,0-0.9-0.2-1.3-0.5l-21.3-21.8c-0.6-0.6-0.7-1.5-0.2-2.2l18.6-26.3v-15.1    c0-1,0.8-1.8,1.8-1.8s1.8,0.8,1.8,1.8v14.5l17.1,22.7c0.4,0.6,0.5,1.3,0.1,1.9l-15,26c-0.3,0.5-0.8,0.8-1.3,0.9    C160.448,221.424,160.348,221.424,160.248,221.424z M141.248,197.624l18.7,19.1l13.3-23l-15.2-20L141.248,197.624z"></path>
	</g>
</g>
<g>
	<g>
		<path style="fill:#2568EF;" d="M168.448,207.024c-0.2,0-0.4-0.1-0.6-0.2l-20.5-19.6c-0.4-0.3-0.4-0.9,0-1.2c0.3-0.3,0.9-0.4,1.2,0    l20.5,19.6c0.4,0.3,0.4,0.9,0,1.2C168.948,206.924,168.648,207.024,168.448,207.024z"></path>
	</g>
</g>
<g>
	<g>
		<path style="fill:#2568EF;" d="M149.448,208.524c-0.2,0-0.3,0-0.5-0.2c-0.4-0.3-0.5-0.8-0.2-1.2l17.4-25.4    c0.3-0.4,0.8-0.5,1.2-0.2s0.5,0.8,0.2,1.2l-17.3,25.4C150.048,208.324,149.748,208.524,149.448,208.524z"></path>
	</g>
</g>
<g>
	<path style="fill:#324A58;" d="M141.748,14.424c0,0,27.6-37.1,53.6,7.7c29.6,51.2,26.6,120.8,26.6,120.8s-3.8-7.4-8-4.2   s-5.2,2.8-7.4,0.7c-2.1-2.1-3.1-5.6-9.1-1.8c-5.9,3.8-6.3,7.7-11.9,2.8s-4.9-3.9-8.4-1c-3.5,2.8-8,6.6-13-1.1   c-4.9-7.7-14.3,2.1-14.3,2.1s11.9-45.1,9.1-83.6c0,0-1-1.4-6.6,2.1s-9.4,10.5-18.2,1.1s-13.5-1.1-16.5,1.8   c-3.3,3.2-10.9,4.6-14.4,0.4c0,0-15.6,25.4-27.3,82.6c0,0-3.9,2.8-5.2-4.2s-7,1.8-7,1.8s-3.2,6-8.4,0.4s-8.8-0.4-8.8-0.4   s-5.2,6.6-9.8,3.1c-4.5-3.5-8.4-3.9-17.5,1.8c0,0,14.7-66.5,55.3-115.5C104.448-4.576,133.348-3.476,141.748,14.424z"></path>
</g>

            </g>
        </g>
    </g>
    
</svg>